<svg width="38" height="29" viewBox="0 0 38 29" fill="none" xmlns="http://www.w3.org/2000/svg">
<defs>
<linearGradient id="paint0_linear_1890_16103" x1="14" y1="-0.952319" x2="25.3512" y2="13.6849" gradientUnits="userSpaceOnUse">
<stop stop-color="#95DFFF"/>
<stop offset="0.927083" stop-color="#014280"/>
</linearGradient>
</defs>
<path d="M37.9348 20.6626C37.0765 18.902 35.4964 17.6913 33.6544 17.3149C33.5535 16.8154 33.4506 16.3163 33.3458 15.8177L31.2134 5.69002C31.6767 5.62299 32.1845 5.48895 32.5354 5.32956C32.6087 5.29604 34.3321 4.49607 34.3321 2.86821C34.3312 2.10779 34.0328 1.37878 33.5023 0.841084C32.9719 0.303388 32.2527 0.00090959 31.5025 0H23.9482C23.1302 0 22.4648 0.674519 22.4648 1.5037V2.36296C22.4648 3.19215 23.1302 3.86667 23.9482 3.86667H26.9156C26.9156 3.86667 26.9101 4.5747 26.9008 4.63141L24.8383 16.8862C24.7345 17.5031 24.1021 18.0444 23.485 18.0444H18.8617C18.5925 18.0444 18.3526 17.9413 18.1852 17.7544C18.0178 17.5671 17.9406 17.3145 17.9673 17.043L18.4781 11.8702C18.5201 11.4473 18.4412 11.0211 18.2509 10.6424C18.7327 10.4975 19.1556 10.1988 19.4565 9.79082C19.7575 9.38281 19.9205 8.88723 19.9213 8.37778C19.9213 7.07471 18.8752 6.01481 17.5901 6.01481H8.26546C7.6474 6.0155 7.05485 6.26467 6.61782 6.70766C6.18079 7.15066 5.93497 7.75129 5.93429 8.37778C5.93429 8.77604 6.03263 9.15111 6.20556 9.48064C5.14466 9.61769 3.97866 10.3193 3.42469 11.1957L1.01469 15.0091C0.445888 15.9096 0 17.4528 0 18.5222V21.6963C0 22.9994 1.04563 24.0593 2.33116 24.0593H3.6133C3.7252 26.8059 5.95167 29 8.68888 29C11.4257 29 13.6521 26.8059 13.7645 24.0593H26.8775C26.8898 24.0601 26.902 24.0631 26.9143 24.0631H27.3488C27.4628 26.8076 29.6884 29 32.4244 29C35.2328 29 37.5105 26.6912 37.5105 23.8444C37.5105 23.0883 37.3469 22.3725 37.0574 21.7264L37.561 21.5601C37.6476 21.5315 37.7272 21.4843 37.7943 21.4218C37.8614 21.3593 37.9145 21.2829 37.9499 21.1978C37.9854 21.1127 38.0023 21.0209 37.9997 20.9285C37.9971 20.8362 37.975 20.7455 37.9348 20.6626ZM36.4162 20.584L29.7812 22.7751H27.5925C27.9049 20.3541 29.9529 18.4788 32.4252 18.4788C33.2089 18.476 33.9815 18.6661 34.6766 19.0328C35.3718 19.3995 35.9687 19.9318 36.4162 20.584ZM33.061 2.86907C33.061 3.64627 32.0242 4.14979 32.0158 4.15409C31.6703 4.3109 31.0341 4.44882 30.6544 4.44882H28.3991C28.3431 4.44804 28.2896 4.42516 28.2501 4.38504C28.2105 4.34492 28.1879 4.29073 28.1872 4.234V1.50456C28.1872 1.38813 28.2842 1.28975 28.3991 1.28975H31.5029C31.916 1.2902 32.312 1.45674 32.6041 1.75282C32.8962 2.0489 33.0605 2.45035 33.061 2.86907ZM23.9482 2.57864C23.8923 2.57786 23.8388 2.55498 23.7992 2.51486C23.7597 2.47474 23.7371 2.42055 23.7363 2.36382V1.50456C23.7363 1.38813 23.8334 1.28975 23.9482 1.28975H26.9372C26.9275 1.36064 26.9156 1.4311 26.9156 1.50456V2.57864H23.9482ZM8.26588 7.30456H17.5905C18.1746 7.30456 18.6502 7.78661 18.6502 8.37864C18.6502 8.97067 18.1746 9.45271 17.5905 9.45271H8.26588C7.68139 9.45271 7.20626 8.97067 7.20626 8.37864C7.20626 7.78661 7.68139 7.30456 8.26588 7.30456ZM1.27239 21.6972V18.5231C1.27239 17.708 1.65258 16.3912 2.08618 15.7051L4.49618 11.8917C4.88357 11.2791 5.85249 10.7416 6.57091 10.7416H16.3194C16.5886 10.7416 16.8285 10.8447 16.9959 11.0316C17.1633 11.2189 17.2404 11.4715 17.2137 11.7431L16.703 16.9158C16.6403 17.5542 16.8323 18.1596 17.2434 18.6201C17.6545 19.0807 18.2293 19.3346 18.8621 19.3346H23.485C24.7362 19.3346 25.8814 18.3551 26.0916 17.1044L28.0146 5.68013C28.138 5.71407 28.2656 5.7377 28.3991 5.7377H29.9232L32.1031 16.0875C32.1751 16.4303 32.2544 16.8153 32.332 17.1951C29.2018 17.2432 26.6312 19.6715 26.3133 22.7717H2.33201C2.05105 22.7712 1.78172 22.6578 1.58309 22.4564C1.38446 22.255 1.27273 21.982 1.27239 21.6972ZM8.68973 27.712C6.6578 27.712 4.99674 26.0923 4.88569 24.0601H12.4933C12.3827 26.0923 10.7217 27.712 8.68973 27.712ZM36.2398 23.8453C36.2398 25.9776 34.5288 27.712 32.4252 27.712C30.3945 27.712 28.7343 26.094 28.6212 24.064H29.8821C29.9487 24.064 30.0152 24.0532 30.0792 24.0322L35.8397 22.1298C36.1029 22.6623 36.2399 23.2497 36.2398 23.8453Z" fill="url(#paint0_linear_1890_16103)"/>

</svg>
