<svg width="42" height="22" viewBox="0 0 42 22" fill="none" xmlns="http://www.w3.org/2000/svg">
<defs>
<linearGradient id="paint0_linear_1890_16110" x1="15.4149" y1="-0.722449" x2="22.806" y2="13.1105" gradientUnits="userSpaceOnUse">
<stop stop-color="#95DFFF"/>
<stop offset="0.927083" stop-color="#014280"/>
</linearGradient>
</defs>
<path d="M39.6626 8.46245L36.3016 6.92773L33.3351 2.19497C32.4777 0.823154 30.9687 -0.00850818 29.3483 6.5656e-05H16.7104C15.2443 6.5656e-05 13.8553 0.677398 12.9636 1.84344L9.13114 6.85914L2.74363 8.6082C1.12317 9.05404 0 10.5373 0 12.2178V14.6613C0 16.7276 1.64618 18.4338 3.71247 18.4338H4.2612C4.92138 20.9803 7.51926 22.5064 10.0657 21.8462C11.7376 21.4089 13.0494 20.1057 13.4781 18.4338H27.8821C28.5423 20.9803 31.1402 22.5064 33.6866 21.8462C35.3585 21.4089 36.6703 20.1057 37.099 18.4338H38.1279C40.1942 18.4338 41.8403 16.7276 41.8403 14.6613V11.8748C41.8489 10.4087 40.9915 9.07119 39.6626 8.46245ZM8.86535 20.2686C7.18488 20.2686 5.82164 18.9054 5.82164 17.2249C5.82164 15.5444 7.18488 14.1812 8.86535 14.1812C10.5458 14.1812 11.9091 15.5444 11.9091 17.2249C11.9176 18.8968 10.5544 20.26 8.86535 20.2686ZM32.4863 20.2686C30.8058 20.2686 29.4426 18.9054 29.4426 17.2249C29.4426 15.5444 30.8058 14.1812 32.4863 14.1812C34.1668 14.1812 35.53 15.5444 35.53 17.2249C35.5386 18.8968 34.1753 20.26 32.4863 20.2686ZM38.1279 16.7191H37.219C36.9361 14.104 34.5783 12.2178 31.9633 12.5093C29.7426 12.7494 27.9936 14.507 27.7535 16.7191H13.5981C13.3152 14.104 10.9574 12.2178 8.34235 12.5093C6.12172 12.7494 4.37266 14.507 4.13259 16.7191H3.7039C2.58073 16.7191 1.70619 15.7845 1.70619 14.6613V12.2178C1.69762 11.3004 2.30636 10.503 3.18947 10.2544L9.86849 8.42815C10.0485 8.37671 10.2114 8.27382 10.3229 8.11949L14.3183 2.88088C14.8928 2.14353 15.7759 1.71483 16.7104 1.71483H29.3483C30.3771 1.70626 31.346 2.22926 31.8861 3.1038L34.9898 8.05947C35.0756 8.20523 35.2128 8.31669 35.3585 8.38528L38.9424 10.0229C39.6626 10.3573 40.1256 11.0775 40.117 11.8748V14.6613H40.1256C40.1256 15.7845 39.251 16.7191 38.1279 16.7191Z" fill="url(#paint0_linear_1890_16110)"/>

</svg>
