<svg width="38" height="26" viewBox="0 0 38 26" fill="none" xmlns="http://www.w3.org/2000/svg">
<defs>
<linearGradient id="paint0_linear_1890_16117" x1="14" y1="-0.140991" x2="23.2396" y2="13.7839" gradientUnits="userSpaceOnUse">
<stop stop-color="#95DFFF"/>
<stop offset="0.927083" stop-color="#014280"/>
</linearGradient>
</defs>
<path fill-rule="evenodd" clip-rule="evenodd" d="M33.9641 0.673828C36.1893 0.673828 38 2.53135 38 4.81416V21.3464C38 23.6293 36.1893 25.4867 33.9641 25.4867H4.03592C1.81068 25.4867 0 23.6293 0 21.3464V4.81416C0 2.53135 1.81068 0.673828 4.03592 0.673828H33.9641ZM33.9641 23.8306C35.2994 23.8306 36.3856 22.7162 36.3856 21.3464V4.81416C36.3856 3.44429 35.2994 2.32996 33.9641 2.32996H4.03592C2.7006 2.32996 1.61437 3.44429 1.61437 4.81416V21.3464C1.61437 22.7162 2.7006 23.8306 4.03592 23.8306H33.9641ZM10.7574 4.77008C11.411 4.45699 12.1368 4.27696 12.9044 4.27696C15.7146 4.27696 18.0013 6.62288 18.0013 9.50662C18.0013 12.3895 15.7146 14.7354 12.9044 14.7354C12.1352 14.7354 11.408 14.5546 10.7535 14.2403C10.085 14.5579 9.35623 14.733 8.61386 14.733C5.80607 14.733 3.52246 12.3903 3.52246 9.50985C3.52246 6.62371 5.80607 4.27539 8.61386 4.27539C9.35679 4.27539 10.0872 4.45127 10.7574 4.77008ZM8.61386 5.93152C6.6968 5.93152 5.13683 7.53665 5.13683 9.50985C5.13683 11.4765 6.6968 13.0768 8.61386 13.0768C8.79612 13.0768 8.97427 13.0588 9.15007 13.0312C8.31883 12.1005 7.80667 10.8651 7.80667 9.50662C7.80667 8.14594 8.31996 6.90914 9.15306 5.97781C8.9762 5.94991 8.79717 5.93152 8.61386 5.93152ZM9.42104 9.50662C9.42104 11.4765 10.9834 13.0792 12.9044 13.0792C14.8247 13.0792 16.387 11.4765 16.387 9.50662C16.387 7.5359 14.8247 5.9331 12.9044 5.9331C10.9834 5.9331 9.42104 7.5359 9.42104 9.50662ZM4.72379 18.6202H17.1942C17.6403 18.6202 18.0013 18.9906 18.0013 19.4482C18.0013 19.9059 17.6403 20.2763 17.1942 20.2763H4.72379C4.27766 20.2763 3.91661 19.9059 3.91661 19.4482C3.91661 18.9906 4.27766 18.6202 4.72379 18.6202ZM24.0962 14.5486H32.0333C32.4794 14.5486 32.8405 14.919 32.8405 15.3766C32.8405 15.8344 32.4794 16.2047 32.0333 16.2047H24.0962C23.6501 16.2047 23.289 15.8344 23.289 15.3766C23.289 14.919 23.6501 14.5486 24.0962 14.5486ZM24.0962 18.6202H32.0333C32.4794 18.6202 32.8405 18.9906 32.8405 19.4482C32.8405 19.9059 32.4794 20.2763 32.0333 20.2763H24.0962C23.6501 20.2763 23.289 19.9059 23.289 19.4482C23.289 18.9906 23.6501 18.6202 24.0962 18.6202Z" fill="url(#paint0_linear_1890_16117)"/>

</svg>
