<svg width="36" height="33" viewBox="0 0 36 33" fill="none" xmlns="http://www.w3.org/2000/svg">
<defs>
<linearGradient id="paint0_linear_1890_16144" x1="13.1476" y1="-0.0719632" x2="25.7283" y2="13.786" gradientUnits="userSpaceOnUse">
<stop stop-color="#95DFFF"/>
<stop offset="0.927083" stop-color="#014280"/>
</linearGradient>
</defs>
<path fill-rule="evenodd" clip-rule="evenodd" d="M17.4975 0.955078C17.9117 0.955078 18.2475 1.29086 18.2475 1.70508V6.92716C18.2475 7.34137 17.9117 7.67716 17.4975 7.67716C17.0832 7.67716 16.7475 7.34137 16.7475 6.92716V1.70508C16.7475 1.29086 17.0832 0.955078 17.4975 0.955078ZM6.2053 1.67387C6.56862 1.47495 7.02441 1.60823 7.22333 1.97155L9.73932 6.56699C9.93824 6.93031 9.80497 7.3861 9.44164 7.58502C9.07832 7.78393 8.62253 7.65066 8.42361 7.28733L5.90762 2.6919C5.7087 2.32858 5.84198 1.87279 6.2053 1.67387ZM28.79 1.68041C29.1532 1.87954 29.2862 2.33541 29.0871 2.69861L26.5711 7.28772C26.372 7.65092 25.9161 7.78394 25.5529 7.58481C25.1897 7.38568 25.0567 6.92981 25.2558 6.5666L27.7718 1.9775C27.9709 1.61429 28.4268 1.48128 28.79 1.68041ZM31.733 7.99503C31.8658 7.98745 31.9926 8.01493 32.1042 8.06942C32.3539 8.19093 32.5237 8.44618 32.5262 8.73672C32.5286 8.7935 32.5288 8.85016 32.5268 8.9066C32.5416 9.06151 32.6045 9.20847 32.7075 9.32569C32.8315 9.46697 33.0036 9.55381 33.1876 9.57026H33.2544C33.6686 9.57026 34.0044 9.90605 34.0044 10.3203C34.0044 10.3277 34.0043 10.3351 34.0041 10.3424C34.0043 10.3498 34.0044 10.3572 34.0044 10.3646C34.0044 10.7788 33.6686 11.1146 33.2544 11.1146H33.1876C33.0036 11.131 32.8315 11.2179 32.7075 11.3591C32.6044 11.4766 32.5414 11.6238 32.5267 11.779C32.5285 11.8331 32.5284 11.8875 32.5263 11.9421C32.5259 12.335 32.2197 12.6649 31.8221 12.6893C31.5084 12.7085 31.228 12.532 31.0998 12.2651C31.0531 12.1683 31.0266 12.0603 31.0256 11.9468C31.0232 11.8914 31.0228 11.8361 31.0245 11.7811C31.0093 11.6252 30.9459 11.4775 30.8424 11.3596C30.7183 11.2182 30.5464 11.1308 30.3624 11.1133H30.2911C29.8769 11.1133 29.5411 10.7775 29.5411 10.3633C29.5411 10.3551 29.5412 10.347 29.5415 10.339L29.5413 10.3199C29.5413 9.90572 29.8771 9.56993 30.2913 9.56993H30.3625C30.5465 9.55239 30.7184 9.46502 30.8425 9.32364C30.9457 9.20611 31.0091 9.05895 31.0245 8.90369C31.0228 8.84735 31.0232 8.79079 31.0257 8.73414C31.0304 8.34345 31.337 8.0176 31.733 7.99503ZM3.33108 20.2293L3.33243 20.2293H8.4986C8.50135 20.1691 8.50782 20.1091 8.51802 20.0494L8.51915 20.0428L8.51918 20.0428L10.1546 10.9722L10.1558 10.9655L10.1558 10.9655C10.2188 10.6332 10.3952 10.3325 10.6558 10.1156C10.9164 9.89861 11.2448 9.77934 11.5845 9.7793H11.5846H23.4097H23.4098C23.7495 9.77934 24.0779 9.89861 24.3386 10.1156C24.5991 10.3325 24.7755 10.6332 24.8385 10.9655L24.8398 10.9722L24.8397 10.9722L26.4751 20.0428L26.4763 20.0494L26.4763 20.0494C26.4864 20.1088 26.4929 20.1686 26.4957 20.2285H32.1639H32.1663C32.5079 20.2296 32.8376 20.3518 33.0975 20.5726C33.3563 20.7924 33.5294 21.0959 33.5879 21.4295L33.5885 21.4333L35.2354 30.5166L35.2367 30.5239L35.2367 30.5239C35.2727 30.7345 35.2622 30.9504 35.2059 31.1565C35.1496 31.3626 35.0487 31.554 34.9102 31.7171C34.7717 31.8801 34.5989 32.0108 34.4038 32.0995C34.2107 32.1873 34.0007 32.2318 33.7885 32.2296H18.697H18.6958C18.483 32.2293 18.273 32.1819 18.0807 32.091C17.9617 32.0347 17.8513 31.9626 17.7524 31.877C17.6478 31.9674 17.5305 32.0427 17.4038 32.1003C17.2107 32.1881 17.0007 32.2326 16.7885 32.2304H1.69703L1.69579 32.2304C1.48298 32.2301 1.27299 32.1827 1.0807 32.0918C0.888448 32.0009 0.71878 31.8688 0.583478 31.7051C0.448188 31.5415 0.350512 31.3503 0.297053 31.1451C0.243699 30.9403 0.235615 30.7263 0.273334 30.5181L0.273552 30.5169L1.90229 21.4293L1.90244 21.4285C1.9628 21.0939 2.138 20.7901 2.39877 20.5706C2.65965 20.3511 2.98952 20.2299 3.33108 20.2293ZM17.7516 27.8489L18.8438 21.7551H16.6468L17.7516 27.8489ZM24.9844 20.2285H20.3324L20.3311 20.2285C20.2386 20.2287 20.1469 20.2377 20.0572 20.2551H15.4334C15.3459 20.2383 15.2565 20.2296 15.1663 20.2293H15.1639H10.0097L11.6234 11.2793H23.3709L24.9844 20.2285ZM20.3677 21.7551L18.7592 30.7296H33.7496L32.1177 21.7285H25.3192C25.23 21.7458 25.1391 21.7548 25.0477 21.7551L25.0476 21.7285H25.0451V21.7551H20.3677ZM3.37243 21.7293H9.67921C9.7671 21.7461 9.85661 21.7548 9.94664 21.7551L9.94918 21.7551H15.1223L16.7496 30.7304H1.75918L3.37243 21.7293ZM4.61066 12.2575C4.61303 12.3126 4.61338 12.3677 4.61173 12.4225C4.62593 12.5819 4.6902 12.7331 4.79591 12.8535C4.92014 12.995 5.09179 13.0829 5.27585 13.1015H5.33898C5.7532 13.1015 6.08898 13.4373 6.08898 13.8515C6.08898 13.8589 6.08887 13.8663 6.08866 13.8737C6.08887 13.881 6.08898 13.8884 6.08898 13.8958C6.08898 14.31 5.7532 14.6458 5.33898 14.6458H5.27402C5.08999 14.6634 4.91814 14.7507 4.794 14.8921C4.69037 15.0101 4.62691 15.1581 4.61187 15.3141C4.61385 15.3744 4.61341 15.4349 4.61051 15.4955C4.60938 15.5329 4.60548 15.5696 4.59902 15.6055C4.53359 15.9743 4.2012 16.2442 3.81798 16.2224C3.42427 16.1999 3.11884 15.8777 3.11078 15.49C3.10809 15.4314 3.10768 15.373 3.10953 15.3148C3.09435 15.1588 3.03085 15.0109 2.92733 14.8929C2.80315 14.7514 2.63132 14.664 2.44744 14.6465H2.40137C1.98715 14.6465 1.65137 14.3107 1.65137 13.8965C1.65137 13.8889 1.65148 13.8813 1.65171 13.8737C1.65148 13.8662 1.65137 13.8586 1.65137 13.851C1.65137 13.4368 1.98715 13.101 2.40137 13.101H2.44563C2.62969 13.0824 2.80134 12.9945 2.92557 12.853C3.03122 12.7327 3.09548 12.5815 3.10973 12.4222C3.10812 12.368 3.10845 12.3136 3.11077 12.259C3.11859 11.8697 3.42603 11.5468 3.82106 11.5259C4.15826 11.5081 4.45519 11.7159 4.56526 12.0174C4.5929 12.0927 4.60874 12.1735 4.61066 12.2575Z" fill="url(#paint0_linear_1890_16144)"/>

</svg>
