<svg width="38" height="33" viewBox="0 0 38 33" fill="none" xmlns="http://www.w3.org/2000/svg">
<defs>
<linearGradient id="paint0_linear_1890_16083" x1="14" y1="-0.5" x2="26.6663" y2="14.4135" gradientUnits="userSpaceOnUse">
<stop stop-color="#95DFFF"/>
<stop offset="0.927083" stop-color="#014280"/>
</linearGradient>
</defs>
<path fill-rule="evenodd" clip-rule="evenodd" d="M33.9069 18.5103C34.2948 18.315 34.7241 18.2136 35.1595 18.2145C36.2349 18.2145 37.2072 18.8069 37.6968 19.7607C38.3978 21.1258 37.8416 22.8008 36.457 23.4944L27.7321 27.8523C27.6706 27.883 27.6048 27.9048 27.5369 27.917L13.3101 30.458C13.2681 30.4654 13.2256 30.4692 13.183 30.4692H6.42897V30.576C6.42897 31.5285 5.61513 32.3034 4.61479 32.3034H1.75875C0.772548 32.3034 0 31.5446 0 30.5759V21.5498C0 20.5551 0.788977 19.7458 1.75875 19.7458H4.61486C5.5982 19.7458 6.42897 20.572 6.42897 21.5498V21.6901L12.5128 18.7591C12.6104 18.712 12.7174 18.6876 12.826 18.6876H21.7337C23.2789 18.6876 24.5361 19.9219 24.5361 21.439C24.5366 21.9086 24.4141 22.3704 24.1805 22.7794H25.3344L33.9069 18.5103ZM4.61486 30.8925C4.80023 30.8925 5.00031 30.7715 5.00031 30.576H5.00024V21.5498C5.00024 21.3515 4.80937 21.1568 4.61479 21.1568H1.75875C1.56424 21.1568 1.42866 21.3639 1.42866 21.5498V30.576C1.42866 30.7682 1.55824 30.8925 1.75875 30.8925H4.61486ZM27.1803 26.5468L35.8116 22.2357C36.493 21.8943 36.7674 21.0701 36.4228 20.3988C36.1815 19.929 35.6857 19.6254 35.1595 19.6254C34.9482 19.6251 34.7398 19.6745 34.5516 19.7694L25.826 24.1148C25.7262 24.1645 25.6161 24.1904 25.5044 24.1904H13.7866C13.392 24.1904 13.0722 23.8745 13.0722 23.4849C13.0722 23.0953 13.392 22.7794 13.7866 22.7794H21.7338C22.4913 22.7794 23.1075 22.1781 23.1075 21.439C23.1075 20.6999 22.4913 20.0986 21.7338 20.0986H12.9909L6.42897 23.2599V29.0582H13.1189L27.1803 26.5468ZM19.0625 15.8695C14.784 15.8695 11.3031 12.4318 11.3031 8.20627C11.3031 3.98064 14.7841 0.542969 19.0625 0.542969C23.341 0.542969 26.8219 3.98071 26.8219 8.20627C26.8219 12.4318 23.3411 15.8695 19.0625 15.8695ZM19.0625 14.4585C22.5533 14.4585 25.3932 11.6537 25.3932 8.20627C25.3932 4.75872 22.5533 1.95393 19.0625 1.95393C15.5718 1.95393 12.7318 4.75872 12.7318 8.20627C12.7318 11.6537 15.5718 14.4585 19.0625 14.4585ZM20.5785 6.91667H21.4993C21.6098 6.91667 21.7158 6.96057 21.7939 7.03871C21.8721 7.11685 21.916 7.22283 21.916 7.33333C21.916 7.44384 21.8721 7.54982 21.7939 7.62796C21.7158 7.7061 21.6098 7.75 21.4993 7.75H20.666C20.6139 8.32099 20.3496 8.8517 19.9253 9.23738C19.5011 9.62307 18.9477 9.83571 18.3743 9.83333H17.8243L19.7035 12.0625C19.7753 12.1465 19.8108 12.2556 19.8022 12.3657C19.7936 12.4759 19.7416 12.5782 19.6576 12.65C19.5737 12.7218 19.4646 12.7574 19.3544 12.7488C19.2442 12.7402 19.142 12.6882 19.0702 12.6042L16.5702 9.6875C16.541 9.67083 16.541 9.6375 16.541 9.6375C16.5231 9.61345 16.509 9.58674 16.4993 9.55833C16.495 9.53072 16.495 9.50261 16.4993 9.475C16.4974 9.45561 16.4974 9.43606 16.4993 9.41667C16.5023 9.36567 16.5196 9.31656 16.5493 9.275C16.5456 9.25014 16.5456 9.22486 16.5493 9.2C16.5603 9.17964 16.5729 9.16014 16.5868 9.14167C16.6027 9.11531 16.6223 9.09145 16.6452 9.07083L16.6952 9.04167C16.7192 9.02373 16.7459 9.00967 16.7743 9C16.8019 8.9957 16.83 8.9957 16.8577 9C16.877 8.99805 16.8966 8.99805 16.916 9H18.3952C18.7448 8.99859 19.0823 8.87159 19.3462 8.64215C19.6101 8.4127 19.7827 8.09608 19.8327 7.75H16.916C16.8055 7.75 16.6995 7.7061 16.6214 7.62796C16.5432 7.54982 16.4993 7.44384 16.4993 7.33333C16.4993 7.22283 16.5432 7.11685 16.6214 7.03871C16.6995 6.96057 16.8055 6.91667 16.916 6.91667H19.6868C19.5689 6.66811 19.3831 6.45797 19.1509 6.31051C18.9186 6.16306 18.6494 6.0843 18.3743 6.08333H16.916C16.8055 6.08333 16.6995 6.03943 16.6214 5.96129C16.5432 5.88315 16.4993 5.77717 16.4993 5.66667C16.4993 5.55616 16.5432 5.45018 16.6214 5.37204C16.6995 5.2939 16.8055 5.25 16.916 5.25H21.4993C21.6098 5.25 21.7158 5.2939 21.7939 5.37204C21.8721 5.45018 21.916 5.55616 21.916 5.66667C21.916 5.77717 21.8721 5.88315 21.7939 5.96129C21.7158 6.03943 21.6098 6.08333 21.4993 6.08333H20.1618C20.3564 6.32959 20.4982 6.61325 20.5785 6.91667Z" fill="url(#paint0_linear_1890_16083)"/>

</svg>
