<svg width="35" height="23" viewBox="0 0 35 23" fill="none" xmlns="http://www.w3.org/2000/svg">
<defs>
<linearGradient id="paint0_linear_1890_16127" x1="12.8947" y1="-0.740793" x2="21.252" y2="12.0192" gradientUnits="userSpaceOnUse">
<stop stop-color="#95DFFF"/>
<stop offset="0.927083" stop-color="#014280"/>
</linearGradient>
</defs>
<path d="M23.1218 10.183L23.304 10.0668L23.1314 9.93674C21.5622 8.75483 19.6115 8.05313 17.5 8.05313C12.2807 8.05313 8.12148 12.3178 8.12148 17.4316C8.12148 17.9151 7.72954 18.307 7.24609 18.307H1.02539C0.541944 18.307 0.15 17.9151 0.15 17.4316C0.15 7.90323 7.93275 0.15 17.5 0.15C27.0673 0.15 34.85 7.90323 34.85 17.4316C34.85 17.9151 34.4581 18.307 33.9746 18.307H27.7539C27.2705 18.307 26.8785 17.9151 26.8785 17.4316C26.8785 15.3987 26.228 13.5148 25.1247 11.9769L24.9751 11.7685L24.8668 12.001L21.0836 20.1239C20.4373 21.5116 19.0303 22.4086 17.5 22.4086C15.3212 22.4086 13.5484 20.6358 13.5484 18.457C13.5484 17.1 14.2317 15.8543 15.377 15.1238L23.1218 10.183ZM6.2678 16.5562H6.40483L6.41719 16.4198C6.6264 14.1099 7.54391 12.0014 8.95126 10.314L9.03903 10.2087L8.94213 10.1118L6.00746 7.17715L5.89465 7.06434L5.789 7.18388C3.585 9.67756 2.17 12.8785 1.93625 16.3963L1.92562 16.5562H2.08592H6.2678ZM16.4881 6.34883L16.6246 6.33647V6.19944V2.08551V1.92535L16.4648 1.93583C12.9545 2.16596 9.75758 3.55667 7.25931 5.72593L7.13778 5.83145L7.25159 5.94526L10.1802 8.87384L10.2771 8.97074L10.3823 8.88297C12.0697 7.47555 14.1782 6.55804 16.4881 6.34883ZM22.4678 13.0049L22.6852 12.5383L22.2512 12.8151L16.3185 16.5998C15.6806 17.0067 15.2992 17.7014 15.2992 18.457C15.2992 19.6707 16.2864 20.6578 17.5 20.6578C18.3529 20.6578 19.1363 20.1583 19.4965 19.3847L22.4678 13.0049ZM24.6177 8.88297L24.7229 8.97074L24.8198 8.87384L27.748 5.94567L27.8618 5.83186L27.7403 5.72634C25.242 3.55703 22.0455 2.16569 18.5352 1.93556L18.3754 1.92508V2.08523V6.19944V6.33647L18.5119 6.34883C20.8218 6.55804 22.9303 7.47562 24.6177 8.88297ZM28.5828 16.4198L28.5952 16.5562H28.7322H32.9152H33.0755L33.0649 16.3963C32.8311 12.8785 31.4151 9.67754 29.2111 7.18374L29.1054 7.0642L28.9926 7.17701L26.0578 10.1118L25.9609 10.2087L26.0487 10.314C27.4561 12.0014 28.3736 14.1099 28.5828 16.4198Z" fill="url(#paint0_linear_1890_16127)" stroke="#F6F9FC" stroke-width="0.3"/>

</svg>
