<svg width="40" height="30" viewBox="0 0 40 30" fill="none" xmlns="http://www.w3.org/2000/svg">
<path fill-rule="evenodd" clip-rule="evenodd" d="M32.8533 3.19608H24.8671L23.5438 11.4316H30.0588L22.9394 13.3828C22.9393 13.3829 22.9391 13.383 22.939 13.3831L30.0597 11.4316C31.0353 11.4317 31.9744 11.5853 32.8533 11.8691V3.19608ZM35.0886 12.9522V3.19608C35.385 3.19608 35.6693 3.08039 35.8789 2.87447C36.0885 2.66855 36.2062 2.38926 36.2062 2.09804C36.2062 1.80682 36.0885 1.52753 35.8789 1.32161C35.6693 1.11569 35.385 1 35.0886 1H22.7945C22.5141 0.999654 22.2439 1.10283 22.0373 1.28908C21.8308 1.47532 21.703 1.73103 21.6794 2.00548C21.6558 2.27994 21.738 2.5531 21.9097 2.77078C22.0815 2.98847 22.3303 3.13478 22.6067 3.18071L21.2803 11.4316H16.6474V5.94118C16.6474 5.64996 16.5297 5.37067 16.3201 5.16475C16.1105 4.95882 15.8262 4.84314 15.5298 4.84314C15.2333 4.84314 14.9491 4.95882 14.7395 5.16475C14.5299 5.37067 14.4121 5.64996 14.4121 5.94118V11.4316H6.58434C6.29126 11.4317 6.00107 11.4885 5.73034 11.5988C5.45961 11.709 5.21364 11.8706 5.00648 12.0743C4.79932 12.278 4.63503 12.5198 4.523 12.7858C4.41096 13.0519 4.35337 13.337 4.35352 13.625V18.4764C2.37952 19.3235 1 21.2584 1 23.5101C1 26.5423 3.50185 29.0003 6.58824 29.0003C9.67462 29.0003 12.1765 26.5423 12.1765 23.5101H21.7675C23.0938 26.7294 26.3062 29.0003 30.0588 29.0003C34.9971 29.0003 39 25.0676 39 20.216C39 17.1967 37.4498 14.5333 35.0886 12.9522ZM6.58853 17.8639L4.35352 18.4764L6.58853 17.8639C6.58856 17.9184 6.58858 17.9705 6.5886 18.0199C8.88005 18.02 10.8493 19.375 11.7115 21.314H21.1868C21.1412 20.9543 21.1176 20.5878 21.1176 20.216C21.1176 17.5922 22.2883 15.2373 24.1444 13.6277H22.2376C22.2363 13.6277 22.235 13.6277 22.2337 13.6277H22.0463L22.0836 13.6175C22.0834 13.6175 22.0833 13.6175 22.0832 13.6175L22.0457 13.6277H6.58434C6.58647 13.6277 6.58795 16.4971 6.58853 17.8639ZM22.0457 13.6277H22.0463L6.58853 17.8639C6.58853 17.8639 6.58853 17.8639 6.58853 17.8639L22.0457 13.6277ZM23.3529 20.216C23.3529 16.5776 26.3555 13.6277 30.0588 13.6277C33.7621 13.6277 36.7647 16.5776 36.7647 20.216C36.7647 23.8543 33.7621 26.8042 30.0588 26.8042C26.3555 26.8042 23.3529 23.8543 23.3529 20.216ZM9.94118 23.5101C9.94118 22.6364 9.58792 21.7985 8.95912 21.1808C8.33032 20.563 7.47749 20.216 6.58824 20.216C5.69898 20.216 4.84615 20.563 4.21735 21.1808C3.58855 21.7985 3.23529 22.6364 3.23529 23.5101C3.23529 24.3837 3.58855 25.2216 4.21735 25.8394C4.84615 26.4571 5.69898 26.8042 6.58824 26.8042C7.47749 26.8042 8.33032 26.4571 8.95912 25.8394C9.58792 25.2216 9.94118 24.3837 9.94118 23.5101Z" fill="url(#paint0_linear_7205_15587)"/>
<path d="M24.8671 3.19608V2.99608H24.6967L24.6697 3.16435L24.8671 3.19608ZM32.8533 3.19608H33.0533V2.99608H32.8533V3.19608ZM23.5438 11.4316L23.3463 11.3999L23.3091 11.6316H23.5438V11.4316ZM30.0588 11.4316L30.1117 11.6245L30.0588 11.2316V11.4316ZM22.9394 13.3828L22.8865 13.1899L22.8469 13.2008L22.8148 13.2264L22.9394 13.3828ZM22.939 13.3831L22.8144 13.2266L22.9919 13.576L22.939 13.3831ZM30.0597 11.4316L30.0597 11.2316L30.0328 11.2316L30.0068 11.2388L30.0597 11.4316ZM32.8533 11.8691L32.7918 12.0595L33.0533 12.1439V11.8691H32.8533ZM35.0886 12.9522H34.8886V13.0589L34.9773 13.1184L35.0886 12.9522ZM35.0886 3.19608V2.99608H34.8886V3.19608H35.0886ZM35.8789 2.87447L36.019 3.01714L35.8789 2.87447ZM35.8789 1.32161L36.019 1.17894V1.17894L35.8789 1.32161ZM22.7945 1L22.7942 1.2H22.7945V1ZM22.0373 1.28908L22.1713 1.43761L22.0373 1.28908ZM21.9097 2.77078L22.0667 2.64689V2.64689L21.9097 2.77078ZM22.6067 3.18071L22.8042 3.21245L22.8357 3.01602L22.6395 2.98341L22.6067 3.18071ZM21.2803 11.4316V11.6316H21.4508L21.4778 11.4634L21.2803 11.4316ZM16.6474 11.4316H16.4474V11.6316H16.6474V11.4316ZM16.3201 5.16475L16.4602 5.02208L16.3201 5.16475ZM14.7395 5.16475L14.5993 5.02208L14.7395 5.16475ZM14.4121 11.4316V11.6316H14.6121V11.4316H14.4121ZM6.58434 11.4316V11.2316H6.58429L6.58434 11.4316ZM5.73034 11.5988L5.80578 11.784H5.80578L5.73034 11.5988ZM5.00648 12.0743L4.86626 11.9317L5.00648 12.0743ZM4.523 12.7858L4.33867 12.7082V12.7082L4.523 12.7858ZM4.35352 13.625H4.55352V13.6249L4.35352 13.625ZM12.1765 23.5101V23.3101H11.9765V23.5101H12.1765ZM21.7675 23.5101L21.9524 23.4339L21.9014 23.3101H21.7675V23.5101ZM6.5886 18.0199L6.3886 18.02L6.38868 18.2199L6.58859 18.2199L6.5886 18.0199ZM11.7115 21.314L11.5288 21.3953L11.5816 21.514H11.7115V21.314ZM21.1868 21.314V21.514H21.4138L21.3852 21.2888L21.1868 21.314ZM24.1444 13.6277L24.2755 13.7788L24.6804 13.4277H24.1444V13.6277ZM22.2376 13.6277V13.4277L22.2373 13.4277L22.2376 13.6277ZM22.2337 13.6277L22.234 13.4277H22.2337V13.6277ZM22.0836 13.6175L22.1364 13.8104L22.1097 13.4192L22.0836 13.6175ZM22.0832 13.6175L22.1093 13.4192L22.0693 13.4139L22.0303 13.4246L22.0832 13.6175ZM4.21735 21.1808L4.07718 21.0381L4.21735 21.1808ZM4.21735 25.8394L4.07718 25.982H4.07718L4.21735 25.8394ZM8.95912 25.8394L9.09929 25.982L8.95912 25.8394ZM24.8671 3.39608H32.8533V2.99608H24.8671V3.39608ZM23.7413 11.4634L25.0646 3.22781L24.6697 3.16435L23.3463 11.3999L23.7413 11.4634ZM23.5438 11.6316H30.0588V11.2316H23.5438V11.6316ZM30.006 11.2388L22.8865 13.1899L22.9922 13.5757L30.1117 11.6245L30.006 11.2388ZM23.0636 13.5395L23.064 13.5392L22.8148 13.2264L22.8144 13.2266L23.0636 13.5395ZM30.0068 11.2388L22.8862 13.1902L22.9919 13.576L30.1126 11.6245L30.0068 11.2388ZM32.9147 11.6788C32.0162 11.3886 31.0564 11.2317 30.0597 11.2316L30.0597 11.6316C31.0142 11.6317 31.9326 11.782 32.7918 12.0595L32.9147 11.6788ZM32.6533 3.19608V11.8691H33.0533V3.19608H32.6533ZM35.2886 12.9522V3.19608H34.8886V12.9522H35.2886ZM35.0886 3.39608C35.4369 3.39608 35.7717 3.26017 36.019 3.01714L35.7387 2.73181C35.5669 2.90062 35.3331 2.99608 35.0886 2.99608V3.39608ZM36.019 3.01714C36.2665 2.77399 36.4062 2.44346 36.4062 2.09804H36.0062C36.0062 2.33506 35.9104 2.56311 35.7387 2.73181L36.019 3.01714ZM36.4062 2.09804C36.4062 1.75263 36.2665 1.42209 36.019 1.17894L35.7387 1.46428C35.9104 1.63298 36.0062 1.86102 36.0062 2.09804H36.4062ZM36.019 1.17894C35.7717 0.935915 35.4369 0.800001 35.0886 0.800001V1.2C35.3331 1.2 35.5669 1.29546 35.7387 1.46428L36.019 1.17894ZM35.0886 0.800001H22.7945V1.2H35.0886V0.800001ZM22.7947 0.800001C22.4652 0.799594 22.1471 0.920821 21.9034 1.14055L22.1713 1.43761C22.3407 1.28485 22.563 1.19972 22.7942 1.2L22.7947 0.800001ZM21.9034 1.14055C21.6596 1.36037 21.5081 1.66285 21.4801 1.98833L21.8786 2.02264C21.8979 1.79921 22.0019 1.59029 22.1713 1.43761L21.9034 1.14055ZM21.4801 1.98833C21.4521 2.31383 21.5497 2.63735 21.7527 2.89467L22.0667 2.64689C21.9263 2.46884 21.8594 2.24605 21.8786 2.02264L21.4801 1.98833ZM21.7527 2.89467C21.9557 3.15189 22.249 3.32401 22.5739 3.378L22.6395 2.98341C22.4116 2.94555 22.2073 2.82505 22.0667 2.64689L21.7527 2.89467ZM22.4092 3.14896L21.0829 11.3999L21.4778 11.4634L22.8042 3.21245L22.4092 3.14896ZM16.6474 11.6316H21.2803V11.2316H16.6474V11.6316ZM16.4474 5.94118V11.4316H16.8474V5.94118H16.4474ZM16.1799 5.30741C16.3516 5.47611 16.4474 5.70416 16.4474 5.94118H16.8474C16.8474 5.59576 16.7077 5.26523 16.4602 5.02208L16.1799 5.30741ZM15.5298 5.04314C15.7743 5.04314 16.0081 5.1386 16.1799 5.30741L16.4602 5.02208C16.2128 4.77905 15.8781 4.64314 15.5298 4.64314V5.04314ZM14.8796 5.30741C15.0515 5.1386 15.2853 5.04314 15.5298 5.04314V4.64314C15.1814 4.64314 14.8467 4.77905 14.5993 5.02208L14.8796 5.30741ZM14.6121 5.94118C14.6121 5.70416 14.7079 5.47611 14.8796 5.30741L14.5993 5.02208C14.3518 5.26523 14.2121 5.59576 14.2121 5.94118H14.6121ZM14.6121 11.4316V5.94118H14.2121V11.4316H14.6121ZM6.58434 11.6316H14.4121V11.2316H6.58434V11.6316ZM5.80578 11.784C6.05251 11.6835 6.31709 11.6317 6.58439 11.6316L6.58429 11.2316C6.26543 11.2317 5.94963 11.2935 5.6549 11.4136L5.80578 11.784ZM5.1467 12.2169C5.33513 12.0317 5.55906 11.8845 5.80578 11.784L5.6549 11.4136C5.36015 11.5336 5.09214 11.7096 4.86626 11.9317L5.1467 12.2169ZM4.70732 12.8634C4.80903 12.6219 4.95827 12.4022 5.1467 12.2169L4.86626 11.9317C4.64037 12.1538 4.46104 12.4176 4.33867 12.7082L4.70732 12.8634ZM4.55352 13.6249C4.55338 13.3637 4.60561 13.105 4.70732 12.8634L4.33867 12.7082C4.2163 12.9988 4.15336 13.3104 4.15352 13.6251L4.55352 13.6249ZM4.55352 18.4764V13.625H4.15352V18.4764H4.55352ZM4.27465 18.2926C2.23128 19.1694 0.8 21.1741 0.8 23.5101H1.2C1.2 21.3428 2.52776 19.4775 4.43238 18.6602L4.27465 18.2926ZM0.8 23.5101C0.8 26.6561 3.39475 29.2003 6.58824 29.2003V28.8003C3.60896 28.8003 1.2 26.4285 1.2 23.5101H0.8ZM6.58824 29.2003C9.78172 29.2003 12.3765 26.6561 12.3765 23.5101H11.9765C11.9765 26.4285 9.56751 28.8003 6.58824 28.8003V29.2003ZM12.1765 23.7101H21.7675V23.3101H12.1765V23.7101ZM21.5826 23.5863C22.9393 26.8795 26.2241 29.2003 30.0588 29.2003V28.8003C26.3884 28.8003 23.2483 26.5794 21.9524 23.4339L21.5826 23.5863ZM30.0588 29.2003C35.1043 29.2003 39.2 25.1814 39.2 20.216H38.8C38.8 24.9539 34.89 28.8003 30.0588 28.8003V29.2003ZM39.2 20.216C39.2 17.1262 37.6133 14.4021 35.1999 12.786L34.9773 13.1184C37.2862 14.6645 38.8 17.2671 38.8 20.216H39.2ZM6.53567 17.671L4.30065 18.2835L4.40638 18.6693L6.64139 18.0568L6.53567 17.671ZM6.53567 17.671L4.30065 18.2835L4.40638 18.6693L6.64139 18.0568L6.53567 17.671ZM6.38853 17.864C6.38856 17.9185 6.38858 17.9705 6.3886 18.02L6.7886 18.0198C6.78858 17.9704 6.78856 17.9183 6.78853 17.8638L6.38853 17.864ZM6.58859 18.2199C8.79974 18.22 10.6981 19.5273 11.5288 21.3953L11.8943 21.2327C11.0004 19.2227 8.96037 17.82 6.58861 17.8199L6.58859 18.2199ZM11.7115 21.514H21.1868V21.114H11.7115V21.514ZM21.3852 21.2888C21.3406 20.9374 21.3176 20.5794 21.3176 20.216H20.9176C20.9176 20.5963 20.9417 20.9711 20.9884 21.3392L21.3852 21.2888ZM21.3176 20.216C21.3176 17.6533 22.4607 15.3525 24.2755 13.7788L24.0134 13.4766C22.1158 15.1221 20.9176 17.5312 20.9176 20.216H21.3176ZM24.1444 13.4277H22.2376V13.8277H24.1444V13.4277ZM22.2334 13.8277C22.2349 13.8277 22.2364 13.8277 22.2379 13.8277L22.2373 13.4277C22.2362 13.4277 22.2351 13.4277 22.234 13.4277L22.2334 13.8277ZM22.2337 13.4277H22.0463V13.8277H22.2337V13.4277ZM22.0307 13.4246L21.9934 13.4348L22.0992 13.8206L22.1364 13.8104L22.0307 13.4246ZM22.057 13.8157L22.0574 13.8158L22.1097 13.4192L22.1093 13.4192L22.057 13.8157ZM22.0303 13.4246L21.9928 13.4348L22.0986 13.8206L22.136 13.8103L22.0303 13.4246ZM22.0457 13.4277H6.58434V13.8277H22.0457V13.4277ZM6.58434 13.8277C6.47076 13.7923 6.39188 13.6821 6.38787 13.6651C6.38681 13.659 6.38558 13.6498 6.38526 13.6468C6.38481 13.642 6.38464 13.6383 6.38461 13.6377C6.38455 13.6365 6.38452 13.6356 6.38451 13.6352C6.3845 13.6348 6.3845 13.6346 6.3845 13.6346C6.38449 13.6345 6.3845 13.6348 6.38451 13.6356C6.38452 13.6363 6.38454 13.6372 6.38455 13.6384C6.38461 13.6432 6.38467 13.6509 6.38473 13.6615C6.38486 13.6825 6.38498 13.7138 6.38511 13.7543C6.38535 13.8353 6.38559 13.9526 6.38581 14.0977C6.38626 14.388 6.38666 14.7893 6.38701 15.2334C6.38772 16.1216 6.38824 17.1806 6.38853 17.864L6.78853 17.8638C6.78824 17.1804 6.78772 16.1213 6.78701 15.2331C6.78666 14.789 6.78626 14.3875 6.78581 14.0971C6.78559 13.9519 6.78535 13.8344 6.78511 13.7531C6.78498 13.7125 6.78486 13.6807 6.78473 13.6591C6.78466 13.6483 6.7846 13.6397 6.78452 13.6336C6.78449 13.6307 6.78444 13.6277 6.78438 13.625C6.78436 13.624 6.7843 13.6216 6.78416 13.6187C6.78412 13.6179 6.78394 13.6139 6.78347 13.6089C6.78314 13.6058 6.7819 13.5965 6.78084 13.5904C6.77682 13.5734 6.69793 13.4631 6.58434 13.4277V13.8277ZM22.0463 13.4277H22.0457V13.8277H22.0463V13.4277ZM21.9934 13.4348L6.53567 17.671L6.64139 18.0568L22.0992 13.8206L21.9934 13.4348ZM6.38853 17.8639C6.38853 17.8639 6.38853 17.8639 6.38853 17.8639V17.8639C6.38853 17.8639 6.38853 17.8639 6.38853 17.8639V17.8639C6.38853 17.8639 6.38853 17.8639 6.38853 17.8639C6.38853 17.8639 6.38853 17.8639 6.38853 17.8639V17.8639C6.38853 17.8639 6.38853 17.8639 6.38853 17.8639C6.38853 17.8639 6.38853 17.8639 6.38853 17.8639V17.8639V17.8639H6.78853V17.8639V17.8639C6.78853 17.8639 6.78853 17.8639 6.78853 17.8639C6.78853 17.8639 6.78853 17.8639 6.78853 17.8639V17.8639C6.78853 17.8639 6.78853 17.8639 6.78853 17.8639C6.78853 17.8639 6.78853 17.8639 6.78853 17.8639V17.8639C6.78853 17.8639 6.78853 17.8639 6.78853 17.8639V17.8639C6.78853 17.8639 6.78853 17.8639 6.78853 17.8639H6.38853ZM21.9928 13.4348L6.53567 17.671L6.64139 18.0568L22.0986 13.8206L21.9928 13.4348ZM30.0588 13.4277C26.2484 13.4277 23.1529 16.4638 23.1529 20.216H23.5529C23.5529 16.6914 26.4626 13.8277 30.0588 13.8277V13.4277ZM36.9647 20.216C36.9647 16.4638 33.8693 13.4277 30.0588 13.4277V13.8277C33.655 13.8277 36.5647 16.6914 36.5647 20.216H36.9647ZM30.0588 27.0042C33.8693 27.0042 36.9647 23.9681 36.9647 20.216H36.5647C36.5647 23.7405 33.655 26.6042 30.0588 26.6042V27.0042ZM23.1529 20.216C23.1529 23.9681 26.2484 27.0042 30.0588 27.0042V26.6042C26.4626 26.6042 23.5529 23.7405 23.5529 20.216H23.1529ZM8.81896 21.3234C9.40987 21.904 9.74118 22.6906 9.74118 23.5101H10.1412C10.1412 22.5822 9.76597 21.6931 9.09929 21.0381L8.81896 21.3234ZM6.58824 20.416C7.42558 20.416 8.22793 20.7428 8.81896 21.3234L9.09929 21.0381C8.43272 20.3832 7.5294 20.016 6.58824 20.016V20.416ZM4.35751 21.3234C4.94854 20.7428 5.75089 20.416 6.58824 20.416V20.016C5.64707 20.016 4.74375 20.3832 4.07718 21.0381L4.35751 21.3234ZM3.43529 23.5101C3.43529 22.6906 3.7666 21.904 4.35751 21.3234L4.07718 21.0381C3.4105 21.6931 3.03529 22.5822 3.03529 23.5101H3.43529ZM4.35751 25.6967C3.7666 25.1162 3.43529 24.3295 3.43529 23.5101H3.03529C3.03529 24.4379 3.4105 25.327 4.07718 25.982L4.35751 25.6967ZM6.58824 26.6042C5.75089 26.6042 4.94854 26.2774 4.35751 25.6967L4.07718 25.982C4.74375 26.6369 5.64707 27.0042 6.58824 27.0042V26.6042ZM8.81896 25.6967C8.22793 26.2774 7.42558 26.6042 6.58824 26.6042V27.0042C7.5294 27.0042 8.43272 26.6369 9.09929 25.982L8.81896 25.6967ZM9.74118 23.5101C9.74118 24.3295 9.40987 25.1162 8.81896 25.6967L9.09929 25.982C9.76597 25.327 10.1412 24.4379 10.1412 23.5101H9.74118ZM30.0068 11.2388L22.8862 13.1902L22.9919 13.576L30.1126 11.6245L30.0068 11.2388ZM22.0307 13.4246L21.9934 13.4348L22.0992 13.8206L22.1364 13.8104L22.0307 13.4246ZM6.53567 17.671L4.30065 18.2835L4.40638 18.6693L6.64139 18.0568L6.53567 17.671ZM22.0303 13.4246L6.53567 17.671L6.64139 18.0568L22.136 13.8103L22.0303 13.4246Z" fill="#F4F9FD"/>
<defs>
<linearGradient id="paint0_linear_7205_15587" x1="15" y1="0.0805107" x2="39.4076" y2="21.4814" gradientUnits="userSpaceOnUse">
<stop stop-color="#95DFFF"/>
<stop offset="0.927083" stop-color="#014280"/>
</linearGradient>
</defs>
</svg>
