<svg width="43" height="46" viewBox="0 0 43 46" fill="none" xmlns="http://www.w3.org/2000/svg">
<g opacity="0.3" filter="url(#filter0_f_7917_5712)">
<ellipse cx="21.5" cy="40.8027" rx="17.5" ry="0.5" fill="black"/>
</g>
<path fill-rule="evenodd" clip-rule="evenodd" d="M33.8533 3.19608H25.8671L24.5438 11.4316H31.0594C31.1933 11.4316 31.3248 11.4553 31.448 11.5001L31.5 11.5C32.3264 11.5 33.1142 11.6082 33.8533 11.8112V3.19608ZM36.0886 12.7986V3.19608C36.385 3.19608 36.6693 3.08039 36.8789 2.87447C37.0885 2.66855 37.2062 2.38926 37.2062 2.09804C37.2062 1.80682 37.0885 1.52753 36.8789 1.32161C36.6693 1.11569 36.385 1 36.0886 1H23.7945C23.5141 0.999654 23.2439 1.10283 23.0373 1.28908C22.8308 1.47532 22.703 1.73103 22.6794 2.00548C22.6558 2.27994 22.738 2.5531 22.9097 2.77078C23.0815 2.98847 23.3303 3.13478 23.6067 3.18071L22.2803 11.4316H17.6474V5.94118C17.6474 5.64996 17.5297 5.37067 17.3201 5.16475C17.1105 4.95882 16.8262 4.84314 16.5298 4.84314C16.2333 4.84314 15.9491 4.95882 15.7395 5.16475C15.5299 5.37067 15.4121 5.64996 15.4121 5.94118V11.4316H7.58434C7.29126 11.4317 7.00107 11.4885 6.73034 11.5988C6.45961 11.709 6.21364 11.8706 6.00648 12.0743C5.79932 12.278 5.63503 12.5198 5.523 12.7858C5.41096 13.0519 5.35337 13.337 5.35352 13.625V18.4764C3.37952 19.3235 2 21.2584 2 23.5101C2 26.5423 4.50185 29.0003 7.58824 29.0003C10.6746 29.0003 13.1765 26.5423 13.1765 23.5101H22.7675C24.0938 26.7294 27.3062 29.0003 31.0588 29.0003C35.9971 29.0003 40 25.0676 40 20.216C40 17.0636 38.4964 14.3282 36.0886 12.7986ZM23.2337 13.6277H7.58434C7.58655 13.6277 7.58806 16.7304 7.5886 18.0199C9.88005 18.02 11.8493 19.375 12.7115 21.314H22.1868C22.1412 20.9543 22.1176 20.5878 22.1176 20.216C22.1176 17.5711 23.4384 15.2196 25.4399 13.6277H23.2376C23.2363 13.6277 23.235 13.6277 23.2337 13.6277ZM24.3529 20.216C24.3529 16.5776 27.3555 13.6277 31.0588 13.6277C34.7621 13.6277 37.7647 16.5776 37.7647 20.216C37.7647 23.8543 34.7621 26.8042 31.0588 26.8042C27.3555 26.8042 24.3529 23.8543 24.3529 20.216ZM10.9412 23.5101C10.9412 22.6364 10.5879 21.7985 9.95912 21.1808C9.33032 20.563 8.47749 20.216 7.58824 20.216C6.69898 20.216 5.84615 20.563 5.21735 21.1808C4.58855 21.7985 4.23529 22.6364 4.23529 23.5101C4.23529 24.3837 4.58855 25.2216 5.21735 25.8394C5.84615 26.4571 6.69898 26.8042 7.58824 26.8042C8.47749 26.8042 9.33032 26.4571 9.95912 25.8394C10.5879 25.2216 10.9412 24.3837 10.9412 23.5101Z" fill="url(#paint0_linear_7917_5712)"/>
<path d="M25.8671 3.19608V2.79608H25.5263L25.4722 3.13262L25.8671 3.19608ZM33.8533 3.19608H34.2533V2.79608H33.8533V3.19608ZM24.5438 11.4316L24.1489 11.3682L24.0744 11.8316H24.5438V11.4316ZM31.448 11.5001L31.3111 11.876L31.3779 11.9003L31.4491 11.9001L31.448 11.5001ZM31.5 11.5L31.5 11.1L31.4989 11.1L31.5 11.5ZM33.8533 11.8112L33.7474 12.1969L34.2533 12.3358V11.8112H33.8533ZM36.0886 12.7986H35.6886V13.0184L35.8741 13.1363L36.0886 12.7986ZM36.0886 3.19608V2.79608H35.6886V3.19608H36.0886ZM36.8789 2.87447L37.1592 3.15981L37.1592 3.15981L36.8789 2.87447ZM36.8789 1.32161L37.1592 1.03628L37.1592 1.03628L36.8789 1.32161ZM23.7945 1L23.794 1.4H23.7945V1ZM23.0373 1.28908L23.3052 1.58614L23.3052 1.58614L23.0373 1.28908ZM22.9097 2.77078L23.2238 2.52301L23.2238 2.523L22.9097 2.77078ZM23.6067 3.18071L24.0016 3.24419L24.0648 2.85133L23.6723 2.78612L23.6067 3.18071ZM22.2803 11.4316V11.8316H22.6212L22.6753 11.4951L22.2803 11.4316ZM17.6474 11.4316H17.2474V11.8316H17.6474V11.4316ZM17.3201 5.16475L17.6004 4.87941L17.6004 4.87941L17.3201 5.16475ZM15.7395 5.16475L15.4591 4.87941L15.4591 4.87941L15.7395 5.16475ZM15.4121 11.4316V11.8316H15.8121V11.4316H15.4121ZM7.58434 11.4316L7.58434 11.0316L7.58424 11.0316L7.58434 11.4316ZM6.73034 11.5988L6.88123 11.9692L6.88123 11.9692L6.73034 11.5988ZM6.00648 12.0743L5.72604 11.7891L5.72604 11.7891L6.00648 12.0743ZM5.523 12.7858L5.15435 12.6306L5.15435 12.6306L5.523 12.7858ZM5.35352 13.625L5.75352 13.625L5.75352 13.6248L5.35352 13.625ZM5.35352 18.4764L5.51125 18.844L5.75352 18.7401V18.4764H5.35352ZM13.1765 23.5101V23.1101H12.7765V23.5101H13.1765ZM22.7675 23.5101L23.1373 23.3577L23.0353 23.1101H22.7675V23.5101ZM23.2337 13.6277L23.2343 13.2277H23.2337V13.6277ZM7.5886 18.0199L7.1886 18.02L7.18876 18.4198L7.58857 18.4199L7.5886 18.0199ZM12.7115 21.314L12.346 21.4765L12.4516 21.714H12.7115V21.314ZM22.1868 21.314V21.714H22.6408L22.5836 21.2636L22.1868 21.314ZM25.4399 13.6277L25.6888 13.9408L26.5854 13.2277H25.4399V13.6277ZM23.2376 13.6277L23.2376 13.2277L23.237 13.2277L23.2376 13.6277ZM5.21735 25.8394L5.49768 25.554L5.49768 25.554L5.21735 25.8394ZM9.95912 25.8394L9.67879 25.554L9.67879 25.554L9.95912 25.8394ZM25.8671 3.59608H33.8533V2.79608H25.8671V3.59608ZM24.9387 11.4951L26.2621 3.25954L25.4722 3.13262L24.1489 11.3682L24.9387 11.4951ZM24.5438 11.8316H31.0594V11.0316H24.5438V11.8316ZM31.0594 11.8316C31.1463 11.8316 31.2314 11.847 31.3111 11.876L31.5849 11.1243C31.4181 11.0636 31.2404 11.0316 31.0594 11.0316V11.8316ZM31.4491 11.9001L31.5011 11.9L31.4989 11.1L31.4469 11.1001L31.4491 11.9001ZM31.5 11.9C32.2913 11.9 33.0435 12.0036 33.7474 12.1969L33.9592 11.4254C33.185 11.2128 32.3615 11.1 31.5 11.1V11.9ZM33.4533 3.19608V11.8112H34.2533V3.19608H33.4533ZM36.4886 12.7986V3.19608H35.6886V12.7986H36.4886ZM36.0886 3.59608C36.4888 3.59608 36.8741 3.43994 37.1592 3.15981L36.5985 2.58914C36.4645 2.72085 36.2812 2.79608 36.0886 2.79608V3.59608ZM37.1592 3.15981C37.4446 2.87944 37.6062 2.49765 37.6062 2.09804H36.8062C36.8062 2.28086 36.7324 2.45766 36.5985 2.58914L37.1592 3.15981ZM37.6062 2.09804C37.6062 1.69843 37.4446 1.31664 37.1592 1.03628L36.5985 1.60694C36.7324 1.73842 36.8062 1.91522 36.8062 2.09804H37.6062ZM37.1592 1.03628C36.8741 0.756141 36.4888 0.6 36.0886 0.6V1.4C36.2812 1.4 36.4645 1.47523 36.5985 1.60694L37.1592 1.03628ZM36.0886 0.6H23.7945V1.4H36.0886V0.6ZM23.795 0.6C23.4164 0.599533 23.0503 0.738805 22.7695 0.992015L23.3052 1.58614C23.4375 1.46686 23.6118 1.39977 23.794 1.4L23.795 0.6ZM22.7695 0.992015C22.4884 1.2454 22.3133 1.59467 22.2809 1.97117L23.0779 2.0398C23.0928 1.86739 23.1731 1.70524 23.3052 1.58614L22.7695 0.992015ZM22.2809 1.97117C22.2484 2.34772 22.3614 2.7216 22.5957 3.01856L23.2238 2.523C23.1145 2.38459 23.0631 2.21215 23.0779 2.0398L22.2809 1.97117ZM22.5957 3.01856C22.8299 3.3153 23.1677 3.51325 23.5411 3.5753L23.6723 2.78612C23.4929 2.75631 23.3331 2.66163 23.2238 2.52301L22.5957 3.01856ZM23.2118 3.11722L21.8854 11.3682L22.6753 11.4951L24.0016 3.24419L23.2118 3.11722ZM17.6474 11.8316H22.2803V11.0316H17.6474V11.8316ZM17.2474 5.94118V11.4316H18.0474V5.94118H17.2474ZM17.0397 5.45008C17.1735 5.58156 17.2474 5.75835 17.2474 5.94118H18.0474C18.0474 5.54157 17.8858 5.15978 17.6004 4.87941L17.0397 5.45008ZM16.5298 5.24314C16.7224 5.24314 16.9057 5.31837 17.0397 5.45008L17.6004 4.87941C17.3152 4.59928 16.93 4.44314 16.5298 4.44314V5.24314ZM16.0198 5.45008C16.1539 5.31837 16.3372 5.24314 16.5298 5.24314V4.44314C16.1295 4.44314 15.7443 4.59928 15.4591 4.87941L16.0198 5.45008ZM15.8121 5.94118C15.8121 5.75835 15.886 5.58156 16.0198 5.45008L15.4591 4.87941C15.1738 5.15978 15.0121 5.54157 15.0121 5.94118H15.8121ZM15.8121 11.4316V5.94118H15.0121V11.4316H15.8121ZM7.58434 11.8316H15.4121V11.0316H7.58434V11.8316ZM6.88123 11.9692C7.10395 11.8785 7.34293 11.8317 7.58444 11.8316L7.58424 11.0316C7.2396 11.0317 6.89819 11.0985 6.57945 11.2283L6.88123 11.9692ZM6.28692 12.3595C6.45663 12.1927 6.65851 12.0599 6.88123 11.9692L6.57945 11.2283C6.2607 11.3582 5.97065 11.5486 5.72604 11.7891L6.28692 12.3595ZM5.89164 12.9411C5.98303 12.7241 6.11722 12.5264 6.28692 12.3595L5.72604 11.7891C5.48142 12.0296 5.28704 12.3155 5.15435 12.6306L5.89164 12.9411ZM5.75352 13.6248C5.7534 13.3904 5.80027 13.1581 5.89165 12.9411L5.15435 12.6306C5.02165 12.9457 4.95334 13.2837 4.95352 13.6252L5.75352 13.6248ZM5.75352 18.4764V13.625H4.95352V18.4764H5.75352ZM2.4 23.5101C2.4 21.4272 3.676 19.6315 5.51125 18.844L5.19578 18.1088C3.08305 19.0154 1.6 21.0897 1.6 23.5101H2.4ZM7.58824 28.6003C4.71606 28.6003 2.4 26.3147 2.4 23.5101H1.6C1.6 26.7699 4.28764 29.4003 7.58824 29.4003V28.6003ZM12.7765 23.5101C12.7765 26.3147 10.4604 28.6003 7.58824 28.6003V29.4003C10.8888 29.4003 13.5765 26.7699 13.5765 23.5101H12.7765ZM22.7675 23.1101H13.1765V23.9101H22.7675V23.1101ZM31.0588 28.6003C27.4705 28.6003 24.4028 26.4293 23.1373 23.3577L22.3977 23.6624C23.7848 27.0296 27.1419 29.4003 31.0588 29.4003V28.6003ZM39.6 20.216C39.6 24.8401 35.7829 28.6003 31.0588 28.6003V29.4003C36.2114 29.4003 40.4 25.2952 40.4 20.216H39.6ZM35.8741 13.1363C38.1601 14.5884 39.6 17.1928 39.6 20.216H40.4C40.4 16.9344 38.8328 14.0679 36.3031 12.461L35.8741 13.1363ZM7.58434 14.0277H23.2337V13.2277H7.58434V14.0277ZM7.9886 18.0197C7.98833 17.3749 7.98782 16.2768 7.9871 15.3399C7.98674 14.8715 7.98632 14.4432 7.98586 14.1321C7.98563 13.9765 7.98539 13.85 7.98513 13.7624C7.98501 13.7186 7.98488 13.6842 7.98474 13.6606C7.98467 13.6489 7.9846 13.6392 7.98452 13.6321C7.98448 13.6288 7.98443 13.6247 7.98434 13.6208C7.98431 13.6194 7.98421 13.6151 7.98397 13.61C7.9839 13.6085 7.98357 13.6009 7.98271 13.5915C7.98211 13.5854 7.97981 13.5676 7.97784 13.5559C7.97035 13.5228 7.81362 13.2999 7.58434 13.2277V14.0277C7.35507 13.9555 7.19835 13.7326 7.19086 13.6996C7.1889 13.6879 7.18661 13.6702 7.18602 13.6643C7.18518 13.655 7.18486 13.6477 7.18481 13.6466C7.18469 13.644 7.18463 13.642 7.1846 13.6412C7.18457 13.6402 7.18455 13.6395 7.18455 13.6391C7.18453 13.6383 7.18454 13.6386 7.18457 13.6412C7.18463 13.646 7.18469 13.6538 7.18475 13.6652C7.18488 13.6876 7.18501 13.7211 7.18514 13.7647C7.18539 13.8518 7.18563 13.9778 7.18586 14.1332C7.18632 14.4441 7.18674 14.8721 7.1871 15.3405C7.18782 16.2773 7.18833 17.3753 7.1886 18.02L7.9886 18.0197ZM13.077 21.1515C12.1516 19.0705 10.0407 17.62 7.58862 17.6199L7.58857 18.4199C9.71943 18.42 11.5469 19.6796 12.346 21.4765L13.077 21.1515ZM22.1868 20.914H12.7115V21.714H22.1868V20.914ZM21.7176 20.216C21.7176 20.6047 21.7422 20.988 21.79 21.3644L22.5836 21.2636C22.5401 20.9206 22.5176 20.5709 22.5176 20.216H21.7176ZM25.1909 13.3147C23.1081 14.9712 21.7176 17.4322 21.7176 20.216H22.5176C22.5176 17.71 23.7686 15.468 25.6888 13.9408L25.1909 13.3147ZM23.2376 14.0277H25.4399V13.2277H23.2376V14.0277ZM23.2331 14.0277C23.2348 14.0277 23.2365 14.0277 23.2382 14.0277L23.237 13.2277C23.2361 13.2277 23.2352 13.2277 23.2343 13.2277L23.2331 14.0277ZM31.0588 13.2277C27.1413 13.2277 23.9529 16.35 23.9529 20.216H24.7529C24.7529 16.8052 27.5697 14.0277 31.0588 14.0277V13.2277ZM38.1647 20.216C38.1647 16.35 34.9764 13.2277 31.0588 13.2277V14.0277C34.5479 14.0277 37.3647 16.8052 37.3647 20.216H38.1647ZM31.0588 27.2042C34.9764 27.2042 38.1647 24.0819 38.1647 20.216H37.3647C37.3647 23.6267 34.5479 26.4042 31.0588 26.4042V27.2042ZM23.9529 20.216C23.9529 24.0819 27.1413 27.2042 31.0588 27.2042V26.4042C27.5697 26.4042 24.7529 23.6267 24.7529 20.216H23.9529ZM9.67879 21.4661C10.2318 22.0094 10.5412 22.7448 10.5412 23.5101H11.3412C11.3412 22.528 10.944 21.5877 10.2395 20.8954L9.67879 21.4661ZM7.58824 20.616C8.37367 20.616 9.12553 20.9226 9.67879 21.4661L10.2395 20.8954C9.53512 20.2035 8.58131 19.816 7.58824 19.816V20.616ZM5.49768 21.4661C6.05094 20.9226 6.8028 20.616 7.58824 20.616V19.816C6.59516 19.816 5.64135 20.2035 4.93702 20.8954L5.49768 21.4661ZM4.63529 23.5101C4.63529 22.7448 4.94465 22.0094 5.49768 21.4661L4.93702 20.8954C4.23244 21.5877 3.83529 22.528 3.83529 23.5101H4.63529ZM5.49768 25.554C4.94465 25.0107 4.63529 24.2753 4.63529 23.5101H3.83529C3.83529 24.4921 4.23244 25.4325 4.93702 26.1247L5.49768 25.554ZM7.58824 26.4042C6.8028 26.4042 6.05094 26.0976 5.49768 25.554L4.93702 26.1247C5.64135 26.8167 6.59516 27.2042 7.58824 27.2042V26.4042ZM9.67879 25.554C9.12553 26.0976 8.37367 26.4042 7.58824 26.4042V27.2042C8.58131 27.2042 9.53512 26.8167 10.2395 26.1247L9.67879 25.554ZM10.5412 23.5101C10.5412 24.2753 10.2318 25.0107 9.67879 25.554L10.2395 26.1247C10.944 25.4325 11.3412 24.4921 11.3412 23.5101H10.5412Z" fill="#F4F9FD"/>
<defs>
<filter id="filter0_f_7917_5712" x="0" y="36.3027" width="43" height="9" filterUnits="userSpaceOnUse" color-interpolation-filters="sRGB">
<feFlood flood-opacity="0" result="BackgroundImageFix"/>
<feBlend mode="normal" in="SourceGraphic" in2="BackgroundImageFix" result="shape"/>
<feGaussianBlur stdDeviation="2" result="effect1_foregroundBlur_7917_5712"/>
</filter>
<linearGradient id="paint0_linear_7917_5712" x1="10.5" y1="1" x2="26.7286" y2="16.5036" gradientUnits="userSpaceOnUse">
<stop stop-color="#95DFFF"/>
<stop offset="0.927083" stop-color="#014280"/>
</linearGradient>
</defs>
</svg>
