<svg width="27" height="31" viewBox="0 0 27 31" fill="none" xmlns="http://www.w3.org/2000/svg">
<defs>
<linearGradient id="paint0_linear_6825_6479" x1="9.94737" y1="-0.434815" x2="21.9031" y2="10.234" gradientUnits="userSpaceOnUse">
<stop stop-color="#95DFFF"/>
<stop offset="0.927083" stop-color="#014280"/>
</linearGradient>
</defs>
<path fill-rule="evenodd" clip-rule="evenodd" d="M21.1187 16.3876L26.0022 22.6619C27.1379 24.1209 27.3179 26.0424 26.4713 27.6737C25.6237 29.305 23.9217 30.3184 22.0289 30.3184H9.88811C7.99525 30.3184 6.29223 29.305 5.44569 27.6737C4.59915 26.0424 4.77905 24.1219 5.91477 22.6619L11.3102 15.7313C11.4123 15.6001 11.3179 15.3907 11.1982 15.2754L10.5602 14.6607C10.3648 14.4724 10.1041 14.3673 9.83277 14.3673H9.31611C9.02246 14.3673 8.7844 14.6053 8.7844 14.899C8.7844 15.1925 8.53717 15.4307 8.23255 15.4307H0.551854C0.246127 15.4307 0 15.1925 0 14.899C0 14.6055 0.247231 14.3673 0.551854 14.3673C2.05076 14.3673 3.26587 13.1522 3.26587 11.6533V8.57403C3.26587 7.07512 2.05076 5.86001 0.551854 5.86001C0.246127 5.86001 0 5.62181 0 5.32831C0 5.03481 0.247231 4.7966 0.551854 4.7966H8.23255C8.53717 4.7966 8.7844 5.03481 8.7844 5.32831C8.7844 5.62196 9.02246 5.86001 9.31611 5.86001H9.38151C9.85008 5.86001 10.2796 5.59898 10.4955 5.18307L11.0956 4.02669C11.1894 3.84698 11.3803 3.73319 11.5889 3.73319H12.0386C12.5024 3.73319 12.8279 3.27603 12.6761 2.8378C12.6573 2.78357 12.6474 2.72721 12.6474 2.66979V2.13808C12.6474 1.25864 13.3902 0.542969 14.3029 0.542969H16.5104H18.7178C19.6305 0.542969 20.3733 1.25864 20.3733 2.13808V2.66979C20.3733 2.72721 20.3634 2.78357 20.3446 2.8378L19.8005 4.41484C19.6321 5.06422 20.0574 5.72286 20.444 6.32153C20.518 6.43613 20.5906 6.54853 20.6573 6.65825C20.7995 6.89201 20.881 7.16402 20.881 7.45512V9.58194V11.7088V13.8356C20.881 14.0518 20.8626 14.281 20.8439 14.5135C20.7897 15.1888 20.7331 15.8922 21.1187 16.3876ZM13.7511 2.13753C13.7511 2.13783 13.7508 2.13808 13.7505 2.13808C13.7502 2.13808 13.75 2.13833 13.75 2.13863V2.51957C13.75 2.56199 13.7571 2.60412 13.7709 2.64421L14.2731 4.09688C14.2742 4.09954 14.2742 4.10246 14.2742 4.10552C14.2742 4.10858 14.2742 4.11177 14.2753 4.11496C14.2765 4.11868 14.2784 4.12214 14.2803 4.12559C14.2822 4.12905 14.2842 4.1325 14.2853 4.13623C14.5486 5.1491 15.464 5.86001 16.5105 5.86001C17.5564 5.86001 18.4715 5.14934 18.7354 4.13729C18.7361 4.13289 18.7383 4.12924 18.7404 4.12567C18.7419 4.1232 18.7434 4.12076 18.7443 4.11815C18.7454 4.11443 18.7454 4.1107 18.7454 4.10711C18.7454 4.10353 18.7454 4.10007 18.7465 4.09688L19.124 3.00476C19.2204 2.72597 19.2696 2.43306 19.2696 2.13808C19.2696 1.84564 19.0224 1.60638 18.7178 1.60638C18.4131 1.60638 18.1659 1.84564 18.1659 2.13808V2.66979C18.1659 2.96329 17.9187 3.20149 17.6141 3.20149C17.3094 3.20149 17.0622 2.96329 17.0622 2.66979V2.13808C17.0622 1.84564 16.815 1.60638 16.5104 1.60638C16.2057 1.60638 15.9585 1.84564 15.9585 2.13808V2.66979C15.9585 2.96329 15.7113 3.20149 15.4066 3.20149C15.102 3.20149 14.8548 2.96329 14.8548 2.66979V2.13808C14.8548 1.84564 14.6076 1.60638 14.3029 1.60638C13.9985 1.60638 13.7514 1.84534 13.7511 2.13753ZM7.14899 14.3673C7.44265 14.3673 7.6807 14.1292 7.6807 13.8356V6.39171C7.6807 6.09806 7.44265 5.86001 7.14899 5.86001H6.02514C5.1108 5.86001 4.36958 6.60123 4.36958 7.51557V12.7117C4.36958 13.6261 5.1108 14.3673 6.02514 14.3673H7.14899ZM10.696 13.3443C10.7634 13.3719 10.8252 13.4113 10.8759 13.4602L11.2205 13.7917C11.6042 14.161 12.116 14.3673 12.6485 14.3673H14.5667H16.6351H17.3525H18.2112H19.2244C19.529 14.3673 19.7762 14.128 19.7762 13.8356C19.7762 13.5431 19.529 13.3039 19.2244 13.3039H16.634C16.3293 13.3039 16.0821 13.0657 16.0821 12.7722C16.0821 12.4787 16.3293 12.2405 16.634 12.2405H19.2244C19.529 12.2405 19.7762 12.0012 19.7762 11.7088C19.7762 11.4163 19.529 11.1771 19.2244 11.1771H16.634C16.3293 11.1771 16.0821 10.9388 16.0821 10.6453C16.0821 10.3518 16.3293 10.1136 16.634 10.1136H19.2244C19.529 10.1136 19.7762 9.87438 19.7762 9.58194C19.7762 9.2895 19.529 9.05023 19.2244 9.05023H16.634C16.3293 9.05023 16.0821 8.81203 16.0821 8.51853C16.0821 8.22503 16.3293 7.98683 16.634 7.98683H19.2244C19.529 7.98683 19.7751 7.74756 19.7751 7.45512C19.7751 7.16268 19.5279 6.92342 19.2233 6.92342H18.7167H14.3018C14.2323 6.92342 14.1661 6.90853 14.1043 6.88301C14.0889 6.87781 14.0756 6.87003 14.0623 6.86218C14.0565 6.85879 14.0507 6.85538 14.0447 6.85217C14.0373 6.84844 14.0298 6.84499 14.0223 6.84154C14.0041 6.83319 13.986 6.82487 13.9696 6.81282C13.9685 6.81176 13.9663 6.81176 13.9652 6.8107C13.9602 6.80644 13.9561 6.80166 13.952 6.79687C13.9478 6.79209 13.9437 6.7873 13.9387 6.78305C13.92 6.7671 13.9034 6.74796 13.8868 6.72881C13.8615 6.69904 13.8394 6.6682 13.8206 6.63417C13.8074 6.61078 13.7963 6.58738 13.7875 6.56186C13.7852 6.55616 13.7824 6.55065 13.7795 6.54509C13.7755 6.53716 13.7713 6.52914 13.7687 6.52039L13.5166 5.55027C13.4012 5.10643 13.0005 4.7966 12.5419 4.7966C12.1659 4.7966 11.8213 5.00605 11.6481 5.33977L10.9786 6.62992C10.9756 6.63622 10.9704 6.64036 10.9652 6.6445C10.9607 6.64805 10.9562 6.65159 10.9532 6.6565C10.9146 6.72031 10.8638 6.77241 10.802 6.81601C10.7977 6.81893 10.7935 6.82185 10.7894 6.82474C10.7754 6.8345 10.7619 6.84397 10.7457 6.85217C10.6673 6.89364 10.5812 6.92342 10.4852 6.92342H9.38151C9.05174 6.92342 8.7844 7.19075 8.7844 7.52052V11.6031C8.7844 12.5424 9.54588 13.3039 10.4852 13.3039C10.557 13.3039 10.6276 13.3177 10.696 13.3443ZM22.0289 29.255C23.5244 29.255 24.8146 28.4851 25.4835 27.1973C26.1523 25.9095 26.0155 24.4516 25.1182 23.2988L19.4733 16.0482C19.17 15.6585 18.7038 15.4307 18.2101 15.4307C18.1579 15.4307 18.1209 15.4817 18.1372 15.5313L18.5765 16.8652C18.6681 17.146 18.5059 17.4437 18.2156 17.532C17.9264 17.6202 17.6152 17.465 17.5236 17.1853L17.0461 15.7285C16.9879 15.5508 16.8221 15.4307 16.6351 15.4307C16.5668 15.4307 16.5115 15.486 16.5115 15.5543V17.0258C16.5115 17.3193 16.2642 17.5575 15.9596 17.5575C15.655 17.5575 15.4078 17.3193 15.4078 17.0258V15.6842C15.4078 15.5442 15.2943 15.4307 15.1543 15.4307C15.0447 15.4307 14.9476 15.501 14.9134 15.6051L14.3945 17.1853C14.3206 17.4118 14.1021 17.5575 13.8681 17.5575C13.814 17.5575 13.7577 17.5501 13.7025 17.533C13.4122 17.4448 13.2511 17.147 13.3427 16.8663L13.6084 16.0549C13.7093 15.7471 13.4799 15.4307 13.156 15.4307C13.0092 15.4307 12.8706 15.4984 12.7804 15.6143L6.79773 23.2988C5.90152 24.4516 5.76466 25.9095 6.43351 27.1973C7.10125 28.4861 8.39369 29.255 9.88811 29.255H22.0289ZM6.57734 12.7723C6.57734 13.0661 6.33027 13.3043 6.02549 13.3043C5.72071 13.3043 5.47363 13.0661 5.47363 12.7723C5.47363 12.4784 5.72071 12.2402 6.02549 12.2402C6.33027 12.2402 6.57734 12.4784 6.57734 12.7723Z" fill="url(#paint0_linear_6825_6479)"/>

</svg>
