<svg width="28" height="28" viewBox="0 0 28 28" fill="none" xmlns="http://www.w3.org/2000/svg">
<path d="M3.80816 22.577V24.0816H1.63488C1.51837 24.0816 1.40663 24.126 1.32424 24.205C1.24186 24.2839 1.19557 24.391 1.19557 24.5026V27.1692C1.19557 27.2809 1.24186 27.388 1.32424 27.4669C1.40663 27.5459 1.51837 27.5902 1.63488 27.5902H26.6783C26.7948 27.5902 26.9065 27.5459 26.9889 27.4669C27.0713 27.388 27.1176 27.2809 27.1176 27.1692V24.5026C27.1176 24.391 27.0713 24.2839 26.9889 24.205C26.9065 24.126 26.7948 24.0816 26.6783 24.0816H24.4993V22.577C24.4993 22.132 24.1918 21.7586 23.7705 21.6306V13.7606C23.9812 13.6976 24.1655 13.572 24.2966 13.4019C24.4277 13.2318 24.4989 13.0261 24.4997 12.8146V11.3104H25.3608C25.4773 11.3104 25.589 11.266 25.6714 11.1871C25.7538 11.1081 25.8001 11.001 25.8001 10.8894V9.41338H27.335C27.4303 9.41324 27.5229 9.38342 27.599 9.32843C27.675 9.27344 27.7303 9.19626 27.7566 9.10851C27.7829 9.02076 27.7787 8.92721 27.7446 8.84195C27.7106 8.75668 27.6486 8.68434 27.5679 8.63581L14.3903 0.711024C14.3204 0.668857 14.2394 0.646484 14.1568 0.646484C14.0742 0.646484 13.9932 0.668857 13.9233 0.711024L0.744839 8.63539C0.664121 8.68394 0.602065 8.75632 0.568032 8.84162C0.533999 8.92693 0.529833 9.02052 0.556165 9.10829C0.582496 9.19606 0.637895 9.27325 0.714007 9.3282C0.790119 9.38316 0.882815 9.41291 0.978114 9.41296H2.51351V10.889C2.51351 11.0006 2.55979 11.1077 2.64218 11.1867C2.72457 11.2656 2.83631 11.31 2.95282 11.31H3.80816V12.8142C3.80816 13.2613 4.11875 13.636 4.54269 13.7622V21.6289C4.33068 21.6911 4.14501 21.8167 4.01285 21.9873C3.88068 22.1579 3.80895 22.3645 3.80816 22.577ZM4.68678 22.577C4.68678 22.5337 4.70567 22.4949 4.73555 22.4667L8.03038 22.4709C8.05898 22.4995 8.07502 22.5375 8.07519 22.577V24.0816H4.68678V22.577ZM11.584 11.31V12.8142C11.584 13.2592 11.8915 13.6326 12.3132 13.7606V21.6306C12.1025 21.6936 11.9182 21.8193 11.7871 21.9895C11.6559 22.1597 11.5848 22.3655 11.584 22.577V24.0816H8.95381V22.577C8.95301 22.3664 8.88253 22.1615 8.75252 21.9918C8.6225 21.822 8.43965 21.6962 8.23027 21.6323V13.7589C8.43969 13.6951 8.62258 13.5692 8.7526 13.3995C8.88263 13.2297 8.95308 13.0248 8.95381 12.8142V11.31H11.584ZM19.3541 11.31V12.8142C19.3541 13.2592 19.6616 13.6326 20.0829 13.7606V21.6306C19.8722 21.6936 19.6879 21.8193 19.5567 21.9895C19.4256 22.1597 19.3545 22.3655 19.3536 22.577V24.0816H16.7296V22.577C16.7288 22.3655 16.6577 22.1597 16.5265 21.9895C16.3954 21.8193 16.2111 21.6936 16.0004 21.6306V13.7606C16.2111 13.6976 16.3955 13.5719 16.5266 13.4017C16.6578 13.2316 16.7289 13.0257 16.7296 12.8142V11.31H19.3541ZM20.9615 21.5801V13.8111H22.8919V21.5801H20.9615ZM15.1217 21.5801H13.1914V13.8111H15.1217V21.5801ZM12.4622 22.577C12.4624 22.5358 12.4796 22.4964 12.5101 22.4674C12.5405 22.4384 12.5817 22.4221 12.6247 22.4221H15.6889C15.7318 22.4222 15.7729 22.4385 15.8032 22.4676C15.8336 22.4966 15.8508 22.5359 15.851 22.577V24.0816H12.4622V22.577ZM15.851 12.8142C15.8508 12.8553 15.8335 12.8947 15.8031 12.9238C15.7726 12.9528 15.7314 12.9691 15.6885 12.9691H12.6247C12.5817 12.9691 12.5405 12.9528 12.5101 12.9238C12.4796 12.8947 12.4624 12.8553 12.4622 12.8142V11.31H15.851V12.8142ZM7.35165 13.8233V21.5801H5.42131V13.8233H7.35165ZM26.239 26.7482H2.0742V24.9236H26.239V26.7482ZM20.2327 24.0816V22.577C20.2327 22.5648 20.2371 22.5539 20.2397 22.5425H23.6136C23.6163 22.5539 23.6207 22.5648 23.6207 22.577V24.0816H20.2327ZM23.6207 12.8142C23.6207 12.8689 23.589 12.9148 23.5442 12.9426C23.48 12.9049 23.4065 12.8841 23.3312 12.8824H20.5222C20.4431 12.8824 20.3728 12.9076 20.3091 12.9426C20.2861 12.9291 20.267 12.9103 20.2536 12.8878C20.2402 12.8654 20.233 12.84 20.2327 12.8142V11.31H23.6207V12.8142ZM14.1566 1.5648L25.8084 8.57098H2.50472L14.1566 1.5648ZM3.39213 9.41296H24.921V10.468H3.39213V9.41296ZM8.07519 11.31V12.8142C8.07496 12.8553 8.05773 12.8947 8.02727 12.9238C7.99682 12.9528 7.9556 12.9691 7.91265 12.9691H4.84845C4.80557 12.9691 4.76445 12.9528 4.73413 12.9237C4.70381 12.8947 4.68678 12.8553 4.68678 12.8142V11.31H8.07519Z" fill="#EEEEEE"/>
</svg>
