<svg width="14" height="15" viewBox="0 0 14 15" fill="none" xmlns="http://www.w3.org/2000/svg">
<path d="M11.0833 7.02608C10.7607 7.02608 10.5 7.28745 10.5 7.60938V12.2761C10.5 12.5975 10.2386 12.8594 9.9167 12.8594H1.75C1.42796 12.8594 1.1667 12.5975 1.1667 12.2761V4.10938C1.1667 3.78798 1.42796 3.52608 1.75 3.52608H6.4167C6.73927 3.52608 7 3.26471 7 2.94278C7 2.62074 6.73927 2.35938 6.4167 2.35938H1.75C0.785172 2.35938 0 3.14455 0 4.10938V12.2761C0 13.2409 0.785172 14.0261 1.75 14.0261H9.9167C10.8815 14.0261 11.6667 13.2409 11.6667 12.2761V7.60938C11.6667 7.2868 11.4059 7.02608 11.0833 7.02608Z" fill="url(#paint0_linear_1871_12531)"/>
<path d="M5.46916 6.49619C5.42836 6.53699 5.40091 6.5889 5.38927 6.64487L4.97687 8.70761C4.95764 8.80321 4.98798 8.90179 5.05676 8.97122C5.1122 9.02666 5.18686 9.05635 5.26334 9.05635C5.28192 9.05635 5.30126 9.05464 5.32048 9.05058L7.38259 8.63818C7.43973 8.62643 7.49164 8.59909 7.53191 8.55818L12.1472 3.94286L10.0851 1.88086L5.46916 6.49619Z" fill="url(#paint1_linear_1871_12531)"/>
<path d="M13.573 0.453922C13.0043 -0.114849 12.0791 -0.114849 11.5109 0.453922L10.7036 1.2612L12.7657 3.32331L13.573 2.51592C13.8484 2.2412 14 1.87484 14 1.48519C14 1.09554 13.8484 0.729176 13.573 0.453922Z" fill="url(#paint2_linear_1871_12531)"/>
<defs>
<linearGradient id="paint0_linear_1871_12531" x1="7.29169" y1="12.4462" x2="-6.41293" y2="9.2636" gradientUnits="userSpaceOnUse">
<stop stop-color="#F2642C"/>
<stop offset="1" stop-color="#FFE943"/>
</linearGradient>
<linearGradient id="paint1_linear_1871_12531" x1="9.45622" y1="8.08467" x2="1.02674" y2="6.12695" gradientUnits="userSpaceOnUse">
<stop stop-color="#F2642C"/>
<stop offset="1" stop-color="#FFE943"/>
</linearGradient>
<linearGradient id="paint2_linear_1871_12531" x1="12.7639" y1="2.87698" x2="8.8917" y2="1.97762" gradientUnits="userSpaceOnUse">
<stop stop-color="#F2642C"/>
<stop offset="1" stop-color="#FFE943"/>
</linearGradient>
</defs>
</svg>
