<svg width="22" height="22" viewBox="0 0 22 22" fill="none" xmlns="http://www.w3.org/2000/svg">

<defs>
<linearGradient id="paint0_linear_1484_3661" x1="-4.4" y1="-11.8317" x2="22.9243" y2="15.2792" gradientUnits="userSpaceOnUse">
<stop offset="0.120068" stop-color="#95DFFF"/>
<stop offset="1" stop-color="#014280"/>
</linearGradient>
</defs>
<path fill-rule="evenodd" clip-rule="evenodd" d="M8.36806 0.867253C9.89808 -0.289084 12.0709 -0.289084 13.6009 0.867253L13.6028 0.868674L20.6583 6.23377C21.4901 6.84271 21.9855 7.77829 21.9998 8.77703L22 8.78755L21.9999 17.7144C21.9999 20.0885 19.9633 22 17.468 22H15.4032L15.3845 21.9998C14.2371 21.9744 13.3076 21.0867 13.3078 19.9851V16.8373C13.3078 16.4665 12.9871 16.1527 12.5744 16.1527H9.48033C9.0707 16.1564 8.75405 16.4688 8.75405 16.8373V19.9754C8.75405 20.0509 8.7426 20.1239 8.72127 20.1929C8.6065 21.2145 7.69252 22 6.59672 22H4.53189C2.03664 22 0 20.0885 0 17.7144V8.78972C0.0103676 7.7891 0.506689 6.85106 1.34169 6.24341L8.36806 0.867253ZM7.1443 19.8019V16.8374C7.14428 15.6101 8.19141 14.6259 9.4718 14.6178L9.47715 14.6178L12.5744 14.6178C13.8608 14.6178 14.9176 15.6043 14.9176 16.8373V19.9851C14.9175 20.2367 15.1304 20.4552 15.4146 20.4651H17.468C19.0895 20.4651 20.3902 19.2263 20.3902 17.7144V8.79329C20.3811 8.26792 20.1191 7.77243 19.6741 7.44837L19.6608 7.43846L12.601 2.07011C11.6573 1.35757 10.3136 1.35669 9.36975 2.06878L2.34103 7.44675L2.32339 7.45987C1.8778 7.78181 1.6163 8.27696 1.60975 8.80144V17.7144C1.60975 19.2263 2.91039 20.4651 4.53189 20.4651H6.59672C6.89539 20.4651 7.12366 20.2386 7.12366 19.9754C7.12366 19.9157 7.13079 19.8577 7.1443 19.8019Z" fill="url(#paint0_linear_1484_3661)"/>
</svg>
