<svg width="61" height="62" viewBox="0 0 61 62" fill="none" xmlns="http://www.w3.org/2000/svg">
<path d="M46.847 54.0114L46.848 52.7211L46.8481 52.5101C46.8504 49.6258 46.8525 46.9426 46.848 43.6144L46.848 43.6129C46.8036 33.2184 42.7689 22.833 35.7639 15.6028C29.3192 8.94937 20.5771 5.12368 11.6292 5.10823L11.6283 5.10823L2.52672 5.10823C2.01966 5.03574 1.60052 4.89375 1.31102 4.61155L1.30888 4.60946C1.08803 4.39676 0.914646 4.12125 0.807152 3.80854L0.806911 3.80784C0.72863 3.58119 0.707253 3.45912 0.69965 3.34462C0.693729 3.25544 0.695171 3.17769 0.697292 3.0633C0.698505 2.99799 0.699936 2.92074 0.700344 2.8226C0.736546 2.65946 0.772453 2.4983 0.809669 2.33759C0.834026 2.28391 0.858345 2.22731 0.879627 2.17775C0.892052 2.14883 0.903442 2.12231 0.913204 2.10018C0.950897 2.01474 0.982204 1.95142 1.01493 1.89985L1.01675 1.89699C1.27177 1.48905 1.66089 1.20354 2.0699 1.09356C2.12016 1.08014 2.17975 1.07123 2.26404 1.06285C2.28331 1.06093 2.30627 1.05886 2.33157 1.05659C2.38895 1.05143 2.45839 1.04519 2.5242 1.03711L11.6325 1.03711C24.1206 1.05975 36.4117 8.04196 43.5937 19.4857L44.0172 19.2199L43.5937 19.4857C48.0257 26.5473 50.452 35.1854 50.4634 43.7323V52.7182V54.0099L51.3331 53.0549L56.6208 47.248L56.6239 47.2448L56.6448 47.2235C56.6635 47.2046 56.6908 47.1777 56.7236 47.147C56.7921 47.0829 56.8727 47.0136 56.9441 46.9645L56.9451 46.9638C57.909 46.2988 59.6133 47.0202 59.6927 48.5823L59.6927 48.5831C59.7192 49.0884 59.5679 49.6009 59.2885 49.9871L46.847 54.0114ZM46.847 54.0114L45.9783 53.0574M46.847 54.0114L45.9783 53.0574M45.9783 53.0574L40.6887 47.2484C40.6879 47.2476 40.6872 47.2468 40.6865 47.2461C40.6065 47.1605 40.5296 47.087 40.4507 47.0247C40.2842 46.8958 40.1019 46.8003 39.9114 46.7402L39.9108 46.74M45.9783 53.0574L39.9108 46.74M39.9108 46.74C38.975 46.4438 37.8192 47.201 37.6416 48.3472C37.6302 48.4252 37.628 48.4516 37.6228 48.5134C37.6211 48.5328 37.6192 48.5558 37.6166 48.5849C37.6049 49.1967 37.8051 49.7411 38.1651 50.1588L47.3891 60.2884C47.4156 60.316 47.4342 60.3357 47.4487 60.3511C47.485 60.3896 47.4963 60.4016 47.5443 60.4435M39.9108 46.74L47.5443 60.4435M59.146 50.1591L49.9229 60.2878C49.7801 60.4348 49.6988 60.5064 49.6381 60.5518C49.58 60.5953 49.53 60.6233 49.4238 60.6798L59.146 50.1591ZM59.146 50.1591C59.1709 50.1303 59.1887 50.11 59.2028 50.0941C59.2382 50.0538 59.2496 50.0408 59.2885 49.9871L59.146 50.1591ZM47.5443 60.4435C48.0748 60.906 48.8321 60.9915 49.4226 60.6804L47.5443 60.4435ZM0.334309 2.17426C0.362312 2.11525 0.388332 2.0546 0.414398 1.99383C0.467812 1.86933 0.521435 1.74433 0.592773 1.63192C0.91124 1.12253 1.40279 0.755058 1.94048 0.610603C2.05861 0.579005 2.17971 0.568143 2.30119 0.557247C2.36482 0.551539 2.42856 0.545822 2.49203 0.537109L11.6329 0.537109L0.334309 2.17426Z" fill="white" stroke="#212120"/>
</svg>
