<svg width="58" height="59" viewBox="0 0 58 59" fill="none" xmlns="http://www.w3.org/2000/svg">
<path d="M13.6247 50.2234L13.6948 51.427L14.4971 50.5271L19.475 44.9434C19.4757 44.9427 19.4763 44.9419 19.477 44.9412C19.5518 44.8596 19.6242 44.7889 19.6994 44.728C19.8587 44.6014 20.0374 44.5027 20.2284 44.4359L20.2289 44.4357C21.1987 44.0948 22.3671 44.7651 22.5899 45.7335C22.6046 45.8006 22.6078 45.822 22.616 45.8765C22.6186 45.8935 22.6217 45.9137 22.6257 45.9395C22.6664 46.4689 22.5039 46.9565 22.173 47.3491L13.4927 57.0857C13.4675 57.1124 13.4499 57.1314 13.4363 57.1462C13.4024 57.1829 13.3922 57.1939 13.3471 57.2342C12.8396 57.6869 12.07 57.815 11.4489 57.5592C11.3393 57.5137 11.2874 57.4908 11.2267 57.4544C11.1641 57.4168 11.0797 57.3569 10.9304 57.232L1.19474 48.5526C1.16793 48.5273 1.14892 48.5098 1.13411 48.4961C1.09739 48.4622 1.08639 48.452 1.04598 48.4068C0.754282 48.0801 0.585377 47.6398 0.585492 47.2018L0.585491 47.2009C0.584461 46.5452 0.968414 46.0022 1.52587 45.6905C2.09078 45.3745 2.76078 45.3373 3.26468 45.615L3.26571 45.6155C3.33969 45.6561 3.42345 45.7143 3.49474 45.7684C3.52892 45.7943 3.5574 45.817 3.57695 45.833L3.5987 45.851L3.60164 45.8535L9.18317 50.8295L10.0842 51.6328L10.0151 50.4277L9.54657 42.2586C9.54655 42.2584 9.54654 42.2582 9.54653 42.258C9.11346 34.5056 11.0805 26.5289 15.1314 19.8649L14.7042 19.6051L15.1314 19.8648C21.6966 9.06398 33.6028 2.00229 46.0902 1.26543L55.1863 0.743747C55.2522 0.747371 55.3215 0.749062 55.3797 0.750481C55.4054 0.751109 55.429 0.751684 55.4491 0.752349C55.5346 0.755179 55.5972 0.759966 55.6512 0.769887C56.0761 0.848476 56.4768 1.08925 56.745 1.43558L56.7472 1.43835C56.78 1.48014 56.8128 1.53283 56.8543 1.60722C56.8645 1.62564 56.8769 1.64835 56.8905 1.67345C56.9135 1.71564 56.9401 1.76456 56.9667 1.81121C57.0103 1.94924 57.0527 2.08782 57.0956 2.22834C57.1012 2.31744 57.1066 2.38616 57.1111 2.44349C57.1189 2.54316 57.124 2.60839 57.1228 2.68637C57.1213 2.78065 57.1083 2.88498 57.0434 3.0909L57.0432 3.09166C56.9558 3.37063 56.8021 3.62469 56.595 3.82844L56.5929 3.83054C56.3184 4.10387 55.9017 4.25955 55.3914 4.35568L46.3016 4.877L46.3008 4.87705C37.3834 5.40255 28.8598 9.37466 22.7693 15.7958C16.1475 22.7755 12.6508 32.4647 13.1498 41.9426L13.1499 41.9442C13.3189 44.9699 13.4609 47.409 13.6135 50.0307L13.6247 50.2234ZM3.50599 45.1771C2.13827 44.4234 0.0827585 45.4612 0.0854913 47.2016L3.50599 45.1771Z" fill="white" stroke="#212120"/>
</svg>
