<svg width="61" height="67" viewBox="0 0 61 67" fill="none" xmlns="http://www.w3.org/2000/svg">
<path d="M46.4008 19.8037C46.4051 16.424 46.4035 13.6608 46.4014 10.7524L46.783 10.3002L46.4008 9.97777L45.9008 9.97813L45.901 10.2068C45.9011 10.3281 45.9012 10.4491 45.9013 10.5698L46.4008 19.8037ZM46.4008 19.8037C46.357 30.8904 42.3669 41.9607 35.4576 49.6563L46.4008 19.8037ZM46.9008 9.97741L46.8999 8.61112L46.0187 9.65531L40.7289 15.9241C40.7282 15.9248 40.7276 15.9256 40.7269 15.9263C40.6462 16.0195 40.5686 16.0995 40.4891 16.1672C40.3219 16.3069 40.1408 16.4089 39.9536 16.4725L39.953 16.4728C39.5002 16.6274 38.9961 16.5207 38.5587 16.1906C38.1206 15.86 37.7838 15.3262 37.6952 14.7082C37.6835 14.6216 37.6811 14.5911 37.6758 14.5234C37.6741 14.5019 37.6722 14.4767 37.6695 14.4449C37.6569 13.7637 37.8639 13.1604 38.2301 12.7019L47.4546 1.77045C47.4809 1.7409 47.4995 1.71967 47.5141 1.70296C47.5507 1.66102 47.5626 1.64741 47.6112 1.60167C48.142 1.10228 48.8847 1.01727 49.4626 1.34651C49.5685 1.40723 49.6182 1.43734 49.6764 1.48433C49.7376 1.53371 49.8197 1.61166 49.9631 1.7711L59.1867 12.7015C59.2111 12.7321 59.2289 12.7538 59.243 12.7711C59.279 12.8153 59.2913 12.8304 59.3311 12.8898C59.6164 13.3151 59.7728 13.8833 59.7455 14.4467L59.7454 14.4475C59.7052 15.3027 59.2506 15.9373 58.6893 16.2608C58.1227 16.5873 57.4845 16.5844 57.0126 16.2331L57.0116 16.2324C56.94 16.1793 56.8591 16.1041 56.7901 16.0345C56.7571 16.0012 56.7297 15.972 56.7108 15.9514L56.6896 15.9282L56.6863 15.9244L56.6849 15.9228L51.3984 9.65804L50.5163 8.61268V9.9805V19.6773C50.5048 28.9147 48.0748 38.2486 43.6378 45.8771L44.0621 46.1238L43.6378 45.8771C36.4475 58.2403 24.1551 65.7646 11.6853 65.7891H2.57943C2.51336 65.7804 2.44366 65.7736 2.38683 65.7681C2.36186 65.7657 2.33938 65.7635 2.32077 65.7615C2.2374 65.7525 2.18015 65.7432 2.13256 65.7295C1.7319 65.6134 1.33945 65.3078 1.07827 64.857L1.07661 64.8542C1.04203 64.7954 1.00951 64.7241 0.971416 64.6309C0.961208 64.606 0.949539 64.5766 0.936935 64.545C0.915081 64.4901 0.890419 64.4281 0.8657 64.3696C0.827351 64.191 0.790424 64.0121 0.753223 63.8312C0.752888 63.7355 0.751682 63.6536 0.750622 63.5816C0.745441 63.2297 0.743675 63.1098 0.863365 62.7359L0.863579 62.7352C0.974159 62.3881 1.15177 62.0848 1.37518 61.8527L1.37725 61.8505C1.66752 61.5451 2.08257 61.3942 2.58236 61.3168L11.6812 61.3168L11.6821 61.3168C20.6434 61.3001 29.3889 57.1656 35.8297 49.9903C42.8292 42.1942 46.8566 31.002 46.9008 19.8057L46.9008 19.8044C46.9053 16.213 46.9033 13.3176 46.901 10.2052L46.9008 9.97741Z" fill="white" stroke="#212120"/>
</svg>
