<svg width="36" height="72" viewBox="0 0 36 72" fill="none" xmlns="http://www.w3.org/2000/svg">
<path d="M14.6759 63.7903L15.241 64.8552L15.5954 63.7029L17.7944 56.553C17.7947 56.552 17.795 56.5511 17.7954 56.5502C17.8293 56.4448 17.8657 56.3503 17.9087 56.2637C18.0008 56.0822 18.1221 55.9181 18.2679 55.7777L18.2683 55.7773C19.0079 55.0634 20.3493 55.186 20.9553 55.9735C20.9967 56.0284 21.0085 56.0465 21.0387 56.0926C21.0481 56.107 21.0593 56.1241 21.0737 56.1459C21.3313 56.6102 21.3867 57.1211 21.2494 57.6159L17.4148 70.0837C17.403 70.1185 17.395 70.143 17.3887 70.1622C17.3732 70.2097 17.3686 70.2239 17.3443 70.2793C17.0716 70.9023 16.4253 71.3393 15.7541 71.3656C15.6356 71.3699 15.5788 71.3707 15.5084 71.3629C15.4359 71.3548 15.3342 71.3355 15.1464 71.2842L2.67989 67.45C2.64498 67.4382 2.6204 67.4301 2.60124 67.4239C2.55374 67.4084 2.53952 67.4037 2.48391 67.3794C2.08262 67.2039 1.74566 66.8741 1.56326 66.4758L1.56288 66.475C1.28878 65.8794 1.41161 65.2258 1.7885 64.7101C2.17042 64.1876 2.76399 63.8746 3.33776 63.9171L3.33894 63.9172C3.42308 63.9232 3.52349 63.9412 3.61081 63.9607C3.65267 63.97 3.68805 63.9788 3.71248 63.9852L3.73975 63.9925L3.74346 63.9935L10.8906 66.1917L12.0444 66.5466L11.4795 65.4798L7.65017 58.2487C7.65007 58.2485 7.64997 58.2483 7.64987 58.2482C4.02637 51.3811 2.49133 43.3101 3.39752 35.5642L2.9009 35.5061L3.39752 35.5642C4.86585 23.0102 12.7475 11.6302 23.7926 5.75772L31.8443 1.49385C31.9057 1.4697 31.9694 1.44235 32.0229 1.41941C32.0466 1.40925 32.0682 1.39996 32.0868 1.39219C32.1657 1.35914 32.2246 1.33739 32.2779 1.32391C32.6968 1.21834 33.1614 1.27029 33.5495 1.4734L33.5526 1.47501C33.5999 1.49932 33.6517 1.53355 33.7204 1.5839C33.7374 1.59637 33.7581 1.61187 33.7809 1.629C33.8194 1.6578 33.8639 1.69118 33.9075 1.72253C34.0047 1.82984 34.101 1.93813 34.1986 2.04799C34.2408 2.12666 34.2743 2.18689 34.3022 2.23714C34.3509 2.3245 34.3827 2.38167 34.4141 2.45306C34.452 2.53939 34.4837 2.63965 34.5105 2.85388L34.5106 2.85466C34.5473 3.14469 34.5135 3.43966 34.4101 3.71117L34.4091 3.71396C34.2734 4.07681 33.9594 4.39195 33.5355 4.69195L25.4894 8.95288L25.4887 8.95324C17.601 13.1462 11.5073 20.3082 8.64567 28.683C5.53385 37.7869 6.39179 48.0519 10.7941 56.4602L10.7949 56.4616C12.2091 59.1418 13.3544 61.3 14.5854 63.6198L14.6759 63.7903ZM3.37469 63.4184C1.81731 63.3031 0.381089 65.103 1.10867 66.684L3.37469 63.4184Z" fill="white" stroke="#212120"/>
</svg>
