<svg width="16" height="16" viewBox="0 0 16 16" fill="none" xmlns="http://www.w3.org/2000/svg">
<path d="M15.1385 14.1966L11.355 10.4131C12.2063 9.3507 12.6692 8.02938 12.667 6.66797C12.667 3.3543 9.98083 0.667969 6.66699 0.667969C3.35333 0.667969 0.666992 3.3543 0.666992 6.66797C0.666992 9.98164 3.35333 12.668 6.66699 12.668C8.08366 12.668 9.38566 12.177 10.4122 11.3558L14.1957 15.1393C14.2575 15.2013 14.331 15.2505 14.4118 15.284C14.4927 15.3175 14.5794 15.3347 14.667 15.3346C14.7988 15.3346 14.9277 15.2955 15.0374 15.2223C15.147 15.1491 15.2324 15.045 15.2829 14.9231C15.3334 14.8013 15.3466 14.6673 15.3209 14.538C15.2952 14.4087 15.2317 14.2899 15.1385 14.1966ZM6.66699 11.3346C4.08966 11.3346 2.00033 9.2453 2.00033 6.66797C2.00033 4.09064 4.08966 2.0013 6.66699 2.0013C9.24449 2.0013 11.3337 4.09064 11.3337 6.66797C11.3337 9.2453 9.24449 11.3346 6.66699 11.3346Z" fill="#666666"/>
</svg>
