<svg width="16" height="19" viewBox="0 0 16 19" fill="none" xmlns="http://www.w3.org/2000/svg">
<path d="M15.0714 14.06L13.7643 12.8921C13.7214 12.8346 13.6786 12.7772 13.6786 12.7006V8.14403C13.6786 5.77 11.8357 3.75973 9.37143 3.20452C9.58572 2.95563 9.71429 2.63015 9.71429 2.28554C9.71429 1.44314 8.94286 0.753906 8 0.753906C7.05714 0.753906 6.28571 1.44314 6.28571 2.28554C6.28571 2.63015 6.41429 2.95563 6.62857 3.20452C4.14286 3.75973 2.32143 5.77 2.32143 8.14403V12.7006C2.32143 12.7772 2.27857 12.8346 2.23571 12.8921L0.928571 14.06C0.65 14.3088 0.5 14.6343 0.5 14.9789C0.5 15.7065 1.14286 16.2808 1.95714 16.2808H5.68571C5.9 17.2572 6.84286 18.0039 8 18.0039C9.15714 18.0039 10.1214 17.2572 10.3143 16.2808H14.0429C14.8571 16.2808 15.5 15.7065 15.5 14.9789C15.5 14.6343 15.35 14.3088 15.0714 14.06ZM8 1.53887C8.47143 1.53887 8.85714 1.88348 8.85714 2.30468C8.85714 2.72588 8.47143 3.0705 8 3.0705C7.52857 3.0705 7.14286 2.72588 7.14286 2.30468C7.14286 1.88348 7.52857 1.53887 8 1.53887ZM3.17857 8.14403C3.17857 5.77 5.34286 3.83631 8 3.83631C10.6571 3.83631 12.8214 5.77 12.8214 8.14403V11.8774H3.17857V8.14403ZM8 17.2381C7.31429 17.2381 6.75714 16.836 6.56429 16.2808H9.43571C9.24286 16.836 8.68571 17.2381 8 17.2381ZM14.0429 15.515H1.95714C1.63571 15.515 1.35714 15.2853 1.35714 14.9789C1.35714 14.8449 1.42143 14.7109 1.52857 14.596L2.83571 13.4282C3.05 13.2367 3.17857 12.9687 3.17857 12.7006V12.6432H12.8429V12.7198C12.8429 12.9878 12.9714 13.2558 13.1857 13.4473L14.4929 14.6152C14.6 14.7109 14.6643 14.8449 14.6643 14.9981C14.6429 15.2853 14.3857 15.515 14.0429 15.515Z" fill="#2D2D2D"/>
</svg>
