<svg width="31" height="30" viewBox="0 0 31 30" fill="none" xmlns="http://www.w3.org/2000/svg">

<defs>
<linearGradient id="paint0_linear_1091_4048" x1="1.05435" y1="1.81066" x2="39.4957" y2="29.9773" gradientUnits="userSpaceOnUse">
<stop offset="0.307481" stop-color="#004280"/>
<stop offset="1" stop-color="#00C376"/>
</linearGradient>
</defs>
<path d="M15.5367 10.2281C15.434 10.134 15.3047 10.0708 15.1648 10.0465C15.025 10.0221 14.8807 10.0377 14.75 10.0912C14.6193 10.1448 14.5079 10.2339 14.4296 10.3476C14.3513 10.4613 14.3096 10.5946 14.3097 10.7308V11.6684L12.7406 10.2284C12.6379 10.1342 12.5086 10.0709 12.3688 10.0465C12.2289 10.0221 12.0846 10.0376 11.9539 10.0911C11.8232 10.1446 11.7117 10.2337 11.6334 10.3474C11.555 10.4611 11.5133 10.5943 11.5133 10.7305V19.5681C11.5132 19.7043 11.5549 19.8376 11.6333 19.9513C11.7116 20.065 11.8231 20.1542 11.9538 20.2077C12.0846 20.2612 12.2289 20.2767 12.3688 20.2522C12.5086 20.2278 12.6379 20.1645 12.7406 20.0702L14.3097 18.6302V19.5679C14.3096 19.7041 14.3513 19.8374 14.4296 19.9511C14.5079 20.0648 14.6193 20.154 14.7501 20.2075C14.8808 20.261 15.0251 20.2766 15.165 20.2522C15.3048 20.2278 15.4342 20.1645 15.5368 20.0703L20.3522 15.651C20.4228 15.586 20.4789 15.5081 20.5173 15.4219C20.5556 15.3356 20.5754 15.2429 20.5754 15.1491C20.5753 15.0554 20.5555 14.9626 20.5171 14.8764C20.4787 14.7901 20.4225 14.7122 20.3519 14.6474L15.5367 10.2281ZM12.4014 19.2031V11.0955L16.8186 15.1493L12.4014 19.2031ZM15.1977 19.2032V17.8152L17.5555 15.6514C17.6262 15.5865 17.6825 15.5086 17.7209 15.4223C17.7594 15.336 17.7792 15.2431 17.7792 15.1493C17.7792 15.0555 17.7594 14.9626 17.7209 14.8763C17.6825 14.79 17.6262 14.7121 17.5555 14.6472L15.1977 12.4834V11.0954L19.6149 15.1493L15.1977 19.2032ZM30.1825 24.3199L25.3538 19.6925C25.2917 19.633 25.2126 19.5925 25.1265 19.576C25.0403 19.5596 24.951 19.568 24.8699 19.6002C24.7888 19.6324 24.7194 19.687 24.6706 19.757C24.6218 19.8269 24.5958 19.9092 24.5958 19.9934V22.1193H21.4471C22.4923 21.2551 23.3309 20.1852 23.9055 18.9824C24.4801 17.7796 24.7774 16.4722 24.7769 15.1493C24.7769 10.0656 20.4611 5.92979 15.1563 5.92979C13.3567 5.92785 11.593 6.41261 10.068 7.32832H5.27274C5.15498 7.32832 5.04204 7.37315 4.95876 7.45295C4.87549 7.53275 4.82871 7.64098 4.82871 7.75384V9.27798L1.07197 5.67788L4.82871 2.07779V3.60193C4.82871 3.71479 4.87549 3.82302 4.95876 3.90282C5.04204 3.98262 5.15498 4.02745 5.27274 4.02745H13.2552C13.373 4.02745 13.4859 3.98262 13.5692 3.90282C13.6525 3.82302 13.6993 3.71479 13.6993 3.60193C13.6993 3.48908 13.6525 3.38085 13.5692 3.30105C13.4859 3.22125 13.373 3.17642 13.2552 3.17642H5.71677V1.05054C5.71678 0.966373 5.69073 0.884096 5.64194 0.814115C5.59315 0.744133 5.52379 0.68959 5.44265 0.657384C5.3615 0.625178 5.27222 0.616756 5.18608 0.633183C5.09994 0.64961 5.02082 0.690149 4.95872 0.749671L0.130036 5.37702C0.0467748 5.45681 0 5.56504 0 5.67788C0 5.79073 0.0467748 5.89895 0.130036 5.97875L4.95872 10.6061C5.02082 10.6656 5.09994 10.7062 5.18608 10.7226C5.27222 10.739 5.3615 10.7306 5.44265 10.6984C5.52379 10.6662 5.59315 10.6116 5.64194 10.5417C5.69073 10.4717 5.71678 10.3894 5.71677 10.3052V8.17935H8.86542C7.82019 9.04347 6.98168 10.1134 6.40705 11.3162C5.83243 12.519 5.53519 13.8264 5.53561 15.1493C5.53561 20.233 9.85141 24.3688 15.1563 24.3688C16.9559 24.3708 18.7195 23.886 20.2445 22.9703H25.0398C25.1576 22.9703 25.2705 22.9255 25.3538 22.8457C25.4371 22.7659 25.4838 22.6576 25.4838 22.5448V21.0206L29.2406 24.6207L25.4838 28.2208V26.6967C25.4838 26.5838 25.4371 26.4756 25.3538 26.3958C25.2705 26.316 25.1576 26.2712 25.0398 26.2712H17.0573C16.9396 26.2712 16.8266 26.316 16.7433 26.3958C16.6601 26.4756 16.6133 26.5838 16.6133 26.6967C16.6133 26.8095 16.6601 26.9178 16.7433 26.9976C16.8266 27.0774 16.9396 27.1222 17.0573 27.1222H24.5958V29.2481C24.5958 29.3322 24.6218 29.4145 24.6706 29.4845C24.7194 29.5545 24.7888 29.609 24.8699 29.6412C24.951 29.6734 25.0403 29.6819 25.1265 29.6654C25.2126 29.649 25.2917 29.6085 25.3538 29.5489L30.1825 24.9216C30.2658 24.8418 30.3125 24.7336 30.3125 24.6207C30.3125 24.5079 30.2658 24.3997 30.1825 24.3199ZM15.1563 23.5178C10.3411 23.5178 6.42367 19.7637 6.42367 15.1493C6.42367 10.5349 10.3411 6.78082 15.1563 6.78082C19.9715 6.78082 23.8889 10.5349 23.8889 15.1493C23.8889 19.7637 19.9715 23.5178 15.1563 23.5178Z" fill="url(#paint0_linear_1091_4048)"/>
</svg>
