<svg width="20" height="19" viewBox="0 0 20 19" fill="none" xmlns="http://www.w3.org/2000/svg">
<path d="M10.002 0.998047C4.61692 0.998047 0.251953 5.02745 0.251953 9.99805C0.251953 14.9688 4.61714 18.998 10.002 18.998C15.3868 18.998 19.752 14.9688 19.752 9.99805C19.752 5.02745 15.3868 0.998047 10.002 0.998047ZM5.76482 17.277L6.85249 16.992C8.01751 16.9836 8.16354 16.1824 8.16354 16.1824C8.28877 15.8826 8.30047 15.561 8.31001 15.298C8.31282 15.221 8.31564 15.1388 8.32062 15.0518C8.32431 15.0248 8.33124 14.9848 8.33926 14.9366C8.45821 14.2212 8.57066 13.5452 7.91762 13.2334C7.82771 13.1548 7.69164 12.8008 7.67344 12.3466C7.66044 12.0188 7.6457 11.6476 7.26719 11.2214C7.1699 11.1112 7.07457 10.9668 6.97664 10.7804C6.85032 10.5394 6.77016 10.3402 6.73202 10.1718C6.68609 9.96865 6.72141 9.90025 6.72292 9.89725C6.73376 9.87685 6.74567 9.85745 6.75759 9.83745C6.81522 9.74045 6.89387 9.60745 6.94284 9.43645C7.0477 9.07565 6.92941 8.77405 6.86571 8.61205C6.85834 8.59305 6.8501 8.57445 6.84382 8.55545C6.83234 8.47225 6.82215 8.38885 6.81219 8.30525C6.79442 8.15965 6.77622 8.00945 6.75087 7.85425C6.69042 7.48625 6.68522 7.02505 6.73679 6.65165C6.76972 6.41585 7.13697 6.06265 7.35559 5.85225C7.97482 5.25825 8.93552 4.85925 9.74564 4.85925C9.89384 4.85925 10.0366 4.87265 10.1699 4.89885C11.7086 5.20305 12.4349 5.65625 12.5989 6.41445C12.686 6.81545 12.7025 7.25505 12.647 7.72205C12.6355 7.81845 12.6076 7.93685 12.5781 8.06225C12.524 8.29085 12.4626 8.54985 12.4626 8.83165C12.4626 9.14985 12.5812 9.39825 12.6674 9.57945C12.6873 9.62085 12.7135 9.67585 12.7224 9.69825C12.722 9.73645 12.7114 9.84905 12.6301 10.125C12.6152 10.1758 12.6 10.2246 12.587 10.2684L12.5794 10.2928L12.5424 10.4174C12.4618 10.69 12.3853 10.9474 12.267 11.1422C12.2334 11.1968 12.1955 11.2496 12.1515 11.3106C11.999 11.5216 11.7903 11.8104 11.7429 12.2694C11.6803 12.8826 11.5921 13.092 11.5271 13.1578C10.8922 13.461 10.9796 14.1112 11.0896 14.9322C11.0961 14.9808 11.1015 15.0198 11.1041 15.044C11.1312 15.4908 11.2346 15.8608 11.4185 16.1588C11.4185 16.1588 11.999 16.9548 12.9733 16.9476L14.1602 17.3174C12.8779 17.9397 11.4506 18.2641 10.002 18.2624C8.52284 18.2639 7.06663 17.9252 5.76482 17.277ZM15.4873 16.5272L15.6429 16.592L15.3954 16.5938C15.2951 16.6638 15.1929 16.7314 15.0897 16.7976C15.0002 16.7616 14.9177 16.7298 14.8581 16.7104C14.2884 16.5256 13.7046 16.3803 13.1116 16.2756C12.2995 16.1296 12.0146 15.7764 11.9689 14.9908C11.9626 14.8776 11.7999 13.9252 11.9296 13.8658C12.4678 13.617 12.5562 12.8268 12.6054 12.344C12.6423 11.9878 12.8433 11.8264 13.0214 11.535C13.2156 11.2164 13.3092 10.8558 13.4142 10.5064C13.4296 10.4556 13.4476 10.3968 13.4658 10.3354C13.539 10.0872 13.6186 9.77305 13.5772 9.56165C13.5282 9.31745 13.3289 9.09185 13.3289 8.83145C13.3289 8.49685 13.4691 8.14265 13.5083 7.80765C13.5696 7.29085 13.5594 6.76765 13.4485 6.25685C13.1514 4.88365 11.7015 4.38345 10.3512 4.11645C10.1521 4.07773 9.94912 4.05849 9.74564 4.05905C8.63176 4.05905 7.45764 4.60045 6.73094 5.29745C6.37821 5.63665 5.94509 6.06245 5.87705 6.54905C5.81509 6.99685 5.82094 7.52985 5.89374 7.97385C5.93187 8.20725 5.95397 8.44325 5.98669 8.67705C6.01334 8.86385 6.16045 9.04065 6.10564 9.22905C6.07379 9.34005 6.00272 9.43745 5.94725 9.53965C5.81855 9.77745 5.82072 10.0584 5.88334 10.3354C5.94812 10.6212 6.07747 10.9026 6.19621 11.129C6.30649 11.3386 6.43519 11.546 6.59552 11.7272C6.78835 11.9444 6.79594 12.0976 6.80699 12.3756C6.82671 12.8678 6.98097 13.696 7.51874 13.9436C7.64917 14.0042 7.46262 14.8776 7.45591 14.9908C7.41019 15.7764 7.5157 16.1294 6.70277 16.2756C6.06989 16.3878 5.44763 16.546 4.84182 16.7488C4.80195 16.723 4.76165 16.698 4.72244 16.6714L4.36104 16.674C4.43492 16.6446 4.51422 16.6142 4.5946 16.584C2.4405 15.0748 1.04864 12.6868 1.04864 9.99805C1.04864 5.43385 5.05697 1.73365 10.002 1.73365C14.9465 1.73365 18.9551 5.43385 18.9551 9.99805C18.9551 12.6538 17.5966 15.0154 15.4873 16.5272Z" fill="#2D2D2D"/>
</svg>
