<svg width="22" height="22" viewBox="0 0 22 22" fill="none" xmlns="http://www.w3.org/2000/svg">
<defs>
<linearGradient id="paint0_linear_1202_2430" x1="-4.4" y1="-11.8317" x2="22.9243" y2="15.2792" gradientUnits="userSpaceOnUse">
<stop offset="0.120068" stop-color="#95DFFF"/>
<stop offset="1" stop-color="#014280"/>
</linearGradient>
</defs>
<path fill-rule="evenodd" clip-rule="evenodd" d="M0 11C0 4.91979 4.92061 0 11 0C17.0802 0 22 4.92061 22 11C22 17.0802 17.0793 22 11 22H0.859375C0.384742 22 0 21.6153 0 21.1406V11ZM1.71875 20.2812H11C16.1302 20.2812 20.2812 16.1295 20.2812 11C20.2812 5.86983 16.1295 1.71875 11 1.71875C5.86983 1.71875 1.71875 5.87052 1.71875 11V20.2812ZM10.8578 6.01562C8.83582 6.01562 7.90723 7.21381 7.90723 8.02261C7.90723 8.60677 8.40145 8.87636 8.80587 8.87636C9.14649 8.87636 9.28521 8.67179 9.4458 8.43497C9.66652 8.10949 9.92856 7.72307 10.8129 7.72307C11.5618 7.72307 12.1609 8.0526 12.1609 8.74156C12.1609 9.4034 11.5993 9.83454 11.1244 10.1991C11.0189 10.2801 10.9177 10.3578 10.8279 10.4341C10.3935 10.8085 9.82436 11.4226 9.82436 12.7107C9.82436 13.4895 10.034 13.7142 10.6481 13.7142C11.382 13.7142 11.5318 13.3847 11.5318 13.1001C11.5318 12.3212 11.5468 11.8719 12.3706 11.2279C12.7749 10.9134 14.0481 9.89489 14.0481 8.48697C14.0481 7.07906 12.7749 6.01562 10.8578 6.01562ZM10.663 14.7471C10.034 14.7471 9.52472 15.2713 9.52472 15.9004C9.52472 16.5144 10.019 17.0536 10.663 17.0536C11.307 17.0536 11.8163 16.5145 11.8163 15.9004C11.8163 15.2713 11.2921 14.7471 10.663 14.7471Z" fill="url(#paint0_linear_1202_2430)"/>

</svg>
