<svg width="20" height="23" viewBox="0 0 20 23" fill="none" xmlns="http://www.w3.org/2000/svg">
<path d="M14.0413 17.2504C14.6857 17.2504 15.3036 17.0002 15.7592 16.5548C16.2148 16.1095 16.4708 15.5055 16.4708 14.8756C16.4733 14.6556 16.4416 14.4365 16.3766 14.2259C16.3532 14.15 16.3139 14.0796 16.2612 14.0192C16.2086 13.9589 16.1437 13.9098 16.0708 13.8751L13.7178 12.7251C13.6068 12.6706 13.4811 12.6518 13.3585 12.6714C13.2359 12.691 13.1228 12.7481 13.0355 12.8344L12.2413 13.5704C11.3585 13.2931 10.5559 12.8141 9.90016 12.1731C9.24443 11.5322 8.75443 10.7477 8.47076 9.88463L9.24135 9.13138C9.32836 9.04642 9.38593 8.93693 9.40598 8.81832C9.42603 8.69971 9.40754 8.57794 9.35311 8.47013L8.17664 6.14139C8.14116 6.07005 8.09097 6.00666 8.02922 5.9552C7.96747 5.90375 7.89549 5.86534 7.81782 5.84239C7.59666 5.77717 7.36643 5.74613 7.13547 5.75039C6.49115 5.75039 5.87322 6.00058 5.41761 6.44593C4.96201 6.89129 4.70605 7.49531 4.70605 8.12513C4.70761 10.5448 5.69165 12.865 7.44202 14.576C9.19239 16.287 11.566 17.2489 14.0413 17.2504ZM7.13547 6.90039H7.23547L8.11194 8.62538L7.39429 9.31538C7.3246 9.3835 7.27354 9.46763 7.24579 9.56006C7.21804 9.6525 7.21449 9.75026 7.23547 9.84438C7.24182 9.88782 7.25367 9.93031 7.27076 9.97088C7.59522 11.11 8.21517 12.148 9.07055 12.9841C9.92593 13.8202 10.9877 14.4262 12.1531 14.7434C12.1964 14.7621 12.2418 14.7756 12.2884 14.7836C12.3843 14.8024 12.4834 14.7975 12.5769 14.7694C12.6704 14.7413 12.7552 14.6908 12.8237 14.6226L13.5296 13.9211L15.2943 14.7779C15.2971 14.8104 15.2971 14.8431 15.2943 14.8756C15.2927 15.2 15.1602 15.5106 14.9256 15.74C14.691 15.9693 14.3732 16.0989 14.0413 16.1004C12.9697 16.1011 11.9084 15.8954 10.9182 15.4948C9.92796 15.0943 9.02823 14.5069 8.27046 13.7662C7.51269 13.0255 6.91175 12.146 6.502 11.178C6.09226 10.2101 5.88175 9.17267 5.88253 8.12513C5.88407 7.80078 6.01657 7.49013 6.25121 7.26078C6.48585 7.03142 6.80364 6.9019 7.13547 6.90039Z" fill="url(#paint0_linear_571_886)"/>
<path d="M2.94118 23H18.2353C18.7033 23 19.1522 22.8183 19.4831 22.4948C19.8141 22.1713 20 21.7325 20 21.275V1.725C20 1.2675 19.8141 0.828741 19.4831 0.505241C19.1522 0.181741 18.7033 0 18.2353 0H2.94118C2.47315 0 2.02429 0.181741 1.69334 0.505241C1.36239 0.828741 1.17647 1.2675 1.17647 1.725V4.025H0.588235C0.432226 4.025 0.282606 4.08558 0.17229 4.19341C0.0619747 4.30125 0 4.4475 0 4.6C0 4.7525 0.0619747 4.89875 0.17229 5.00659C0.282606 5.11442 0.432226 5.175 0.588235 5.175H1.17647V8.625H0.588235C0.432226 8.625 0.282606 8.68558 0.17229 8.79341C0.0619747 8.90125 0 9.0475 0 9.2C0 9.3525 0.0619747 9.49875 0.17229 9.60659C0.282606 9.71442 0.432226 9.775 0.588235 9.775H1.17647V13.225H0.588235C0.432226 13.225 0.282606 13.2856 0.17229 13.3934C0.0619747 13.5012 0 13.6475 0 13.8C0 13.9525 0.0619747 14.0988 0.17229 14.2066C0.282606 14.3144 0.432226 14.375 0.588235 14.375H1.17647V17.825H0.588235C0.432226 17.825 0.282606 17.8856 0.17229 17.9934C0.0619747 18.1012 0 18.2475 0 18.4C0 18.5525 0.0619747 18.6988 0.17229 18.8066C0.282606 18.9144 0.432226 18.975 0.588235 18.975H1.17647V21.275C1.17647 21.7325 1.36239 22.1713 1.69334 22.4948C2.02429 22.8183 2.47315 23 2.94118 23ZM2.35294 14.375H2.94118C3.09719 14.375 3.24681 14.3144 3.35712 14.2066C3.46744 14.0988 3.52941 13.9525 3.52941 13.8C3.52941 13.6475 3.46744 13.5012 3.35712 13.3934C3.24681 13.2856 3.09719 13.225 2.94118 13.225H2.35294V9.775H2.94118C3.09719 9.775 3.24681 9.71442 3.35712 9.60659C3.46744 9.49875 3.52941 9.3525 3.52941 9.2C3.52941 9.0475 3.46744 8.90125 3.35712 8.79341C3.24681 8.68558 3.09719 8.625 2.94118 8.625H2.35294V5.175H2.94118C3.09719 5.175 3.24681 5.11442 3.35712 5.00659C3.46744 4.89875 3.52941 4.7525 3.52941 4.6C3.52941 4.4475 3.46744 4.30125 3.35712 4.19341C3.24681 4.08558 3.09719 4.025 2.94118 4.025H2.35294V1.725C2.35294 1.5725 2.41492 1.42625 2.52523 1.31841C2.63555 1.21058 2.78517 1.15 2.94118 1.15H18.2353C18.3913 1.15 18.5409 1.21058 18.6512 1.31841C18.7616 1.42625 18.8235 1.5725 18.8235 1.725V21.275C18.8235 21.4275 18.7616 21.5738 18.6512 21.6816C18.5409 21.7894 18.3913 21.85 18.2353 21.85H2.94118C2.78517 21.85 2.63555 21.7894 2.52523 21.6816C2.41492 21.5738 2.35294 21.4275 2.35294 21.275V18.975H2.94118C3.09719 18.975 3.24681 18.9144 3.35712 18.8066C3.46744 18.6988 3.52941 18.5525 3.52941 18.4C3.52941 18.2475 3.46744 18.1012 3.35712 17.9934C3.24681 17.8856 3.09719 17.825 2.94118 17.825H2.35294V14.375Z" fill="url(#paint1_linear_571_886)"/>
<defs>
<linearGradient id="paint0_linear_571_886" x1="5.11527" y1="6.2194" x2="20.2408" y2="17.0842" gradientUnits="userSpaceOnUse">
<stop offset="0.307481" stop-color="#004280"/>
<stop offset="1" stop-color="#00C376"/>
</linearGradient>
<linearGradient id="paint1_linear_571_886" x1="0.695652" y1="0.938776" x2="29.0903" y2="18.2759" gradientUnits="userSpaceOnUse">
<stop offset="0.307481" stop-color="#004280"/>
<stop offset="1" stop-color="#00C376"/>
</linearGradient>
</defs>
</svg>
