<svg width="24" height="25" viewBox="0 0 24 25" fill="none" xmlns="http://www.w3.org/2000/svg">
<defs>
<linearGradient id="paint0_linear_1510_2913" x1="-1.35506" y1="-7.81935" x2="24.9629" y2="15.526" gradientUnits="userSpaceOnUse">
<stop offset="0.120068" stop-color="#95DFFF"/>
<stop offset="1" stop-color="#014280"/>
</linearGradient>
<linearGradient id="paint1_linear_1510_2913" x1="-4.8" y1="2.67441" x2="-4.45297" y2="7.19185" gradientUnits="userSpaceOnUse">
<stop offset="0.120068" stop-color="#95DFFF"/>
<stop offset="1" stop-color="#014280"/>
</linearGradient>
<linearGradient id="paint2_linear_1510_2913" x1="5.53861" y1="-2.95137" x2="11.549" y2="7.0795" gradientUnits="userSpaceOnUse">
<stop offset="0.120068" stop-color="#95DFFF"/>
<stop offset="1" stop-color="#014280"/>
</linearGradient>
<linearGradient id="paint3_linear_1510_2913" x1="14.4003" y1="2.30546" x2="18.8395" y2="3.00734" gradientUnits="userSpaceOnUse">
<stop offset="0.120068" stop-color="#95DFFF"/>
<stop offset="1" stop-color="#014280"/>
</linearGradient>
<linearGradient id="paint4_linear_1510_2913" x1="7.01553" y1="2.30546" x2="11.4548" y2="3.00734" gradientUnits="userSpaceOnUse">
<stop offset="0.120068" stop-color="#95DFFF"/>
<stop offset="1" stop-color="#014280"/>
</linearGradient>
<linearGradient id="paint5_linear_1510_2913" x1="10.7069" y1="2.30546" x2="15.1462" y2="3.00734" gradientUnits="userSpaceOnUse">
<stop offset="0.120068" stop-color="#95DFFF"/>
<stop offset="1" stop-color="#014280"/>
</linearGradient>
</defs>
<path d="M16.7266 24.9997H7.27426C6.32856 24.9861 5.42287 24.6193 4.73831 23.9727C4.05375 23.3261 3.64077 22.4472 3.58195 21.5119L2.46195 4.63382C2.4562 4.51144 2.475 4.38916 2.51725 4.27403C2.5595 4.1589 2.62437 4.05322 2.7081 3.96308C2.79436 3.86967 2.8988 3.79451 3.01513 3.74211C3.13145 3.68972 3.25728 3.66118 3.38502 3.65821H20.6158C20.7424 3.65793 20.8677 3.68344 20.9839 3.73317C21.1001 3.7829 21.2047 3.85578 21.2913 3.94728C21.3778 4.03878 21.4445 4.14694 21.4871 4.26505C21.5297 4.38315 21.5473 4.50867 21.5389 4.63382L20.4681 21.5119C20.4087 22.4555 19.9887 23.3414 19.2937 23.9892C18.5987 24.6371 17.6808 24.9984 16.7266 24.9997ZM4.41887 5.48747L5.36656 21.4021C5.39787 21.882 5.6126 22.332 5.96703 22.6605C6.32145 22.9891 6.78892 23.1714 7.27426 23.1704H16.7266C17.211 23.1685 17.6769 22.9852 18.0307 22.6573C18.3845 22.3293 18.6001 21.881 18.6343 21.4021L19.6312 5.54845L4.41887 5.48747Z" fill="url(#paint0_linear_1510_2913)"/>
<path d="M23.0769 5.48747H0.923077C0.678262 5.48747 0.443473 5.39111 0.270363 5.21958C0.0972524 5.04805 0 4.81541 0 4.57284C0 4.33026 0.0972524 4.09762 0.270363 3.92609C0.443473 3.75457 0.678262 3.6582 0.923077 3.6582H23.0769C23.3217 3.6582 23.5565 3.75457 23.7296 3.92609C23.9028 4.09762 24 4.33026 24 4.57284C24 4.81541 23.9028 5.04805 23.7296 5.21958C23.5565 5.39111 23.3217 5.48747 23.0769 5.48747Z" fill="url(#paint1_linear_1510_2913)"/>
<path d="M15.6925 5.4878H8.30784C8.06402 5.48465 7.83108 5.38727 7.65865 5.21642C7.48623 5.04557 7.38795 4.81476 7.38477 4.57317V2.37805C7.40037 1.75222 7.65823 1.15629 8.10498 0.71363C8.55173 0.270966 9.15316 0.0154596 9.78477 0H14.2155C14.8577 0.015911 15.4681 0.279886 15.9165 0.735579C16.3649 1.19127 16.6157 1.80258 16.6155 2.43902V4.57317C16.6123 4.81476 16.5141 5.04557 16.3416 5.21642C16.1692 5.38727 15.9363 5.48465 15.6925 5.4878ZM9.23092 3.65854H14.7694V2.43902C14.7694 2.29348 14.711 2.15389 14.6072 2.05098C14.5033 1.94806 14.3624 1.89024 14.2155 1.89024H9.78477C9.63788 1.89024 9.497 1.94806 9.39314 2.05098C9.28927 2.15389 9.23092 2.29348 9.23092 2.43902V3.65854Z" fill="url(#paint2_linear_1510_2913)"/>
<path d="M15.6926 20.1215C15.4488 20.1183 15.2158 20.021 15.0434 19.8501C14.871 19.6793 14.7727 19.4485 14.7695 19.2069V9.45077C14.7695 9.20819 14.8668 8.97555 15.0399 8.80402C15.213 8.6325 15.4478 8.53613 15.6926 8.53613C15.9374 8.53613 16.1722 8.6325 16.3453 8.80402C16.5184 8.97555 16.6157 9.20819 16.6157 9.45077V19.2069C16.6125 19.4485 16.5142 19.6793 16.3418 19.8501C16.1694 20.021 15.9364 20.1183 15.6926 20.1215Z" fill="url(#paint3_linear_1510_2913)"/>
<path d="M8.30784 20.1215C8.06402 20.1183 7.83108 20.021 7.65865 19.8501C7.48623 19.6793 7.38795 19.4485 7.38477 19.2069V9.45077C7.38477 9.20819 7.48202 8.97555 7.65513 8.80402C7.82824 8.6325 8.06303 8.53613 8.30784 8.53613C8.55266 8.53613 8.78745 8.6325 8.96056 8.80402C9.13367 8.97555 9.23092 9.20819 9.23092 9.45077V19.2069C9.22773 19.4485 9.12946 19.6793 8.95703 19.8501C8.78461 20.021 8.55167 20.1183 8.30784 20.1215Z" fill="url(#paint4_linear_1510_2913)"/>
<path d="M11.9992 20.1215C11.7554 20.1183 11.5225 20.021 11.3501 19.8501C11.1776 19.6793 11.0794 19.4485 11.0762 19.2069V9.45077C11.0762 9.20819 11.1734 8.97555 11.3465 8.80402C11.5196 8.6325 11.7544 8.53613 11.9992 8.53613C12.2441 8.53613 12.4789 8.6325 12.652 8.80402C12.8251 8.97555 12.9223 9.20819 12.9223 9.45077V19.2069C12.9191 19.4485 12.8209 19.6793 12.6484 19.8501C12.476 20.021 12.2431 20.1183 11.9992 20.1215Z" fill="url(#paint5_linear_1510_2913)"/>

</svg>
