<svg width="27" height="33" viewBox="0 0 27 33" fill="none" xmlns="http://www.w3.org/2000/svg">
<path fill-rule="evenodd" clip-rule="evenodd" d="M17.7276 0.6445C17.7276 0.288543 18.0116 0 18.3618 0C23.125 0 27.0001 3.9379 27.0001 8.77816C27.0001 9.13411 26.7161 9.42266 26.3659 9.42266C26.0157 9.42266 25.7316 9.13411 25.7316 8.77816C25.7316 4.64859 22.4255 1.289 18.3618 1.289C18.0116 1.289 17.7276 1.00046 17.7276 0.6445ZM18.3618 3.44531C18.0116 3.44531 17.7276 3.73386 17.7276 4.08981C17.7276 4.44577 18.0116 4.73431 18.3618 4.73431C20.5586 4.73431 22.3458 6.55045 22.3458 8.78281C22.3458 9.13876 22.6298 9.42731 22.9801 9.42731C23.3303 9.42731 23.6143 9.13876 23.6143 8.78281C23.6144 5.8397 21.2581 3.44531 18.3618 3.44531ZM14.8341 24.9096C15.0848 24.9256 15.3335 24.9336 15.5806 24.9336C18.4165 24.9335 20.9976 23.8851 22.9121 21.9397C23.4158 21.4279 23.9088 20.4109 23.3971 18.4731C23.0451 17.1403 22.2676 15.5604 21.1487 13.904C20.9504 13.6105 20.5557 13.5359 20.2669 13.7374C19.9781 13.9388 19.9047 14.3401 20.1029 14.6336C21.1414 16.1708 21.8568 17.614 22.1719 18.8071C22.4486 19.8554 22.3929 20.6442 22.0149 21.0283C21.444 21.6085 20.0227 21.4355 18.2133 20.5657C16.8602 19.9154 15.3926 18.9349 13.9321 17.7158C14.7925 16.6466 14.8567 15.1326 14.125 13.9969L17.4258 10.6427C17.7159 10.7922 18.0339 10.8674 18.3521 10.8674C18.8759 10.8674 19.3997 10.6648 19.7984 10.2597C20.5959 9.4492 20.5959 8.13061 19.7984 7.32022C19.001 6.50989 17.7033 6.50982 16.9058 7.32022C16.2649 7.97155 16.1395 8.951 16.5289 9.73123L13.2283 13.0852C12.728 12.751 12.1426 12.5712 11.5299 12.5712C10.8081 12.5712 10.1242 12.8203 9.57266 13.2779C8.38924 11.8079 7.43663 10.3323 6.80284 8.97059C5.947 7.1317 5.77678 5.68757 6.34765 5.10746C7.20152 4.23964 10.1995 5.0035 14.0733 8.12836C14.3477 8.34961 14.7467 8.30308 14.9644 8.02427C15.1822 7.74546 15.1363 7.34007 14.862 7.11875C12.9602 5.58458 11.1037 4.47211 9.4935 3.9016C7.19416 3.08682 6.02628 3.61157 5.45129 4.19549L5.45078 4.19594C3.36961 6.31087 2.33163 9.22607 2.52824 12.4046C2.72289 15.5525 4.10862 18.5854 6.4301 20.9446C6.84184 21.363 7.27483 21.7508 7.7252 22.108L7.7233 22.1131C7.72213 22.1162 7.72091 22.1193 7.71994 22.1225L5.9543 27.8394H4.44438C1.99371 27.8394 0 29.8655 0 32.3558C0 32.7117 0.284009 33.0003 0.634232 33.0003H18.0005C18.3507 33.0003 18.6347 32.7117 18.6347 32.3558C18.6347 29.8654 16.6409 27.8394 14.1904 27.8394H12.1109V24.4167C12.999 24.6836 13.9114 24.8507 14.8341 24.9096ZM17.8027 8.23154C17.9542 8.07757 18.1531 8.00062 18.3521 8.00062C18.551 8.00062 18.75 8.07757 18.9014 8.23148C19.2044 8.53929 19.2044 9.0402 18.9014 9.34801C18.5986 9.65582 18.1056 9.65582 17.8027 9.34801C17.4997 9.04026 17.4997 8.53936 17.8027 8.23154ZM11.5299 13.8601C12.0191 13.8601 12.4792 14.0536 12.8252 14.405L12.8258 14.4056L12.8264 14.4062C13.489 15.0801 13.536 16.1456 12.9685 16.8756C12.5303 16.4772 12.0951 16.0592 11.6663 15.6235C11.2241 15.1742 10.8005 14.7179 10.3974 14.2585C10.7192 14.0005 11.1138 13.8601 11.5299 13.8601ZM8.81291 22.888C9.46332 23.3074 10.1424 23.6662 10.8424 23.9608V27.8394H10.8423H7.28365L8.81291 22.888ZM14.1902 29.1284C15.7243 29.1284 17.0079 30.2394 17.3025 31.7113H1.33195C1.62661 30.2394 2.91017 29.1284 4.44425 29.1284H14.1902ZM7.32697 20.0331C5.22404 17.8961 3.96934 15.1582 3.79404 12.3237C3.67779 10.4428 4.04824 8.6709 4.85365 7.14956C4.98697 7.86231 5.25417 8.65801 5.65615 9.52164C6.69109 11.7452 8.50702 14.236 10.7694 16.535C13.0318 18.834 15.4828 20.6794 17.671 21.731C18.5192 22.1387 19.3008 22.4099 20.0012 22.5457C16.1808 24.6238 10.9538 23.7187 7.32697 20.0331Z" fill="url(#paint0_linear_438_723)"/>
<defs>
<linearGradient id="paint0_linear_438_723" x1="9.13239" y1="-7.27731" x2="34.1434" y2="28.0051" gradientUnits="userSpaceOnUse">
<stop stop-color="#F36D39"/>
<stop offset="0.559247" stop-color="#014280"/>
</linearGradient>
</defs>
</svg>
