<svg width="38" height="29" viewBox="0 0 38 29" fill="none" xmlns="http://www.w3.org/2000/svg">
<path d="M37.4434 5.56641H14.6211V2.7832C14.6211 1.24851 13.3726 0 11.8379 0H5.00977C3.47507 0 2.22656 1.24851 2.22656 2.7832V25.6614C0.957719 25.92 0 27.0446 0 28.3887C0 28.6962 0.249152 28.9453 0.556641 28.9453H16.291C16.5985 28.9453 16.8477 28.6962 16.8477 28.3887C16.8477 27.0446 15.8899 25.9201 14.6211 25.6615V11.1328H37.4434C37.7508 11.1328 38 10.8837 38 10.5762V6.12305C38 5.81556 37.7508 5.56641 37.4434 5.56641ZM11.2812 8.34961C11.2812 9.88431 10.0327 11.1328 8.49805 11.1328C6.96335 11.1328 5.71484 9.88431 5.71484 8.34961C5.71484 6.81491 6.96335 5.56641 8.49805 5.56641C10.0327 5.56641 11.2812 6.81491 11.2812 8.34961ZM12.0178 6.67969H15.7344V10.0195H12.0178C12.2591 9.51306 12.3945 8.94692 12.3945 8.34961C12.3945 7.7523 12.2591 7.18616 12.0178 6.67969ZM16.8477 6.67969H22.7852V10.0195H16.8477V6.67969ZM23.8984 6.67969H29.8359V10.0195H23.8984V6.67969ZM5.00977 1.11328H11.8379C12.5635 1.11328 13.1823 1.57871 13.4121 2.22656H3.43559C3.66537 1.57871 4.28413 1.11328 5.00977 1.11328ZM13.5078 25.6055H5.00977C4.70228 25.6055 4.45312 25.8546 4.45312 26.1621C4.45312 26.4696 4.70228 26.7188 5.00977 26.7188H14.0645C14.7902 26.7188 15.4092 27.1841 15.639 27.832H1.20865C1.43843 27.1841 2.05749 26.7188 2.7832 26.7188C3.09069 26.7188 3.33984 26.4696 3.33984 26.1621V3.33984H13.5078V5.56641H11.2213C10.5183 4.8784 9.55707 4.45312 8.49805 4.45312C6.34956 4.45312 4.60156 6.20113 4.60156 8.34961C4.60156 10.4981 6.34956 12.2461 8.49805 12.2461C9.55707 12.2461 10.5182 11.8208 11.2213 11.1328H13.5078V25.6055ZM36.8867 10.0195H30.9492V6.67969H36.8867V10.0195Z" fill="url(#paint0_linear_438_734)"/>
<defs>
<linearGradient id="paint0_linear_438_734" x1="12.8529" y1="-6.38311" x2="30.0407" y2="32.5218" gradientUnits="userSpaceOnUse">
<stop stop-color="#F36D39"/>
<stop offset="0.559247" stop-color="#014280"/>
</linearGradient>
</defs>
</svg>
