<svg width="150" height="150" viewBox="0 0 150 150" fill="none" xmlns="http://www.w3.org/2000/svg">
<defs>
<linearGradient id="paint0_linear_1344_3021" x1="60.5452" y1="96.5283" x2="71.3205" y2="117.343" gradientUnits="userSpaceOnUse">
<stop stop-color="#FFF46B"/>
<stop offset="1" stop-color="#F3652D"/>
</linearGradient>
<linearGradient id="paint1_linear_1344_3021" x1="44.0109" y1="81.1034" x2="53.5104" y2="93.0007" gradientUnits="userSpaceOnUse">
<stop stop-color="#FFF46B"/>
<stop offset="1" stop-color="#F3652D"/>
</linearGradient>
<linearGradient id="paint2_linear_1344_3021" x1="43.6246" y1="25.7568" x2="60.9622" y2="84.7967" gradientUnits="userSpaceOnUse">
<stop stop-color="#FFF46B"/>
<stop offset="1" stop-color="#F3652D"/>
</linearGradient>
<linearGradient id="paint3_linear_1344_3021" x1="34.9241" y1="25.7568" x2="61.2884" y2="76.0743" gradientUnits="userSpaceOnUse">
<stop stop-color="#FFF46B"/>
<stop offset="1" stop-color="#F3652D"/>
</linearGradient>
<linearGradient id="paint4_linear_1344_3021" x1="75.0278" y1="25.7568" x2="107.06" y2="56.3532" gradientUnits="userSpaceOnUse">
<stop stop-color="#FFF46B"/>
<stop offset="1" stop-color="#F3652D"/>
</linearGradient>
<linearGradient id="paint5_linear_1344_3021" x1="75.055" y1="25.7568" x2="101.42" y2="76.0739" gradientUnits="userSpaceOnUse">
<stop stop-color="#FFF46B"/>
<stop offset="1" stop-color="#F3652D"/>
</linearGradient>
</defs>
<circle opacity="0.1" cx="75" cy="75" r="75" fill="#D9D9D9"/>
<circle opacity="0.05" cx="75" cy="75" r="64" fill="#D9D9D9"/>
<path d="M10.3543 90.8359L11.0818 92.3845L12.7086 92.6333L11.5314 93.839L11.8092 95.5411L10.3543 94.7371L8.89934 95.5411L9.17714 93.839L8 92.6333L9.62681 92.3845L10.3543 90.8359Z" fill="#4A8CDA"/>
<path d="M30.366 39.0801L31.0935 40.6287L32.7203 40.8775L31.5431 42.0832L31.8209 43.7853L30.366 42.9813L28.9111 43.7853L29.1889 42.0832L28.0117 40.8775L29.6385 40.6287L30.366 39.0801Z" fill="#B8AD5D"/>
<path d="M133.954 95.541L134.681 97.0896L136.308 97.3384L135.131 98.5441L135.409 100.246L133.954 99.4422L132.499 100.246L132.777 98.5441L131.6 97.3384L133.226 97.0896L133.954 95.541Z" fill="#4A8CDA"/>
<path d="M141.016 113.186L141.744 114.734L143.371 114.983L142.194 116.189L142.471 117.891L141.016 117.087L139.561 117.891L139.839 116.189L138.662 114.983L140.289 114.734L141.016 113.186Z" fill="#B8AD5D"/>
<path d="M48.0222 142.592L48.7497 144.14L50.3765 144.389L49.1994 145.595L49.4772 147.297L48.0222 146.493L46.5673 147.297L46.8451 145.595L45.668 144.389L47.2948 144.14L48.0222 142.592Z" fill="#B8AD5D"/>
<path d="M133.954 21.4355L134.681 22.9841L136.308 23.2329L135.131 24.4386L135.409 26.1407L133.954 25.3367L132.499 26.1407L132.777 24.4386L131.6 23.2329L133.226 22.9841L133.954 21.4355Z" fill="#B8AD5D"/>
<path d="M35.074 4.9668L35.8015 6.51539L37.4283 6.76418L36.2511 7.96989L36.529 9.67199L35.074 8.86799L33.6191 9.67199L33.8969 7.96989L32.7197 6.76418L34.3465 6.51539L35.074 4.9668Z" fill="#4A8CDA"/>
<path d="M72.7622 100.211V105.402C72.7622 107.548 71.0252 109.285 68.8817 109.285H68.8799C66.7364 109.285 64.9993 107.548 64.9993 105.402V104.299C64.9993 103.112 64.0999 102.087 62.9155 102.007C62.2366 101.961 61.618 102.219 61.1778 102.657C60.7731 103.062 60.5225 103.622 60.5225 104.24V105.641C60.5225 110.258 64.2646 114 68.8807 114C73.4969 114 77.2389 110.258 77.2389 105.641V100.211L75.0006 99.0977L72.7622 100.211Z" fill="url(#paint0_linear_1344_3021)"/>
<path d="M72.7617 55.2773H77.2386V100.211H72.7617V55.2773Z" fill="white"/>
<path d="M60.5218 87.8477C60.5218 94.2931 55.297 99.5179 48.8516 99.5179C47.9652 99.5179 47.1022 99.4198 46.2741 99.2319C41.0675 98.0595 37.1797 93.4067 37.1797 87.8477C37.1797 82.2886 41.0675 77.6358 46.2741 76.4618C47.1022 76.2739 47.9652 76.1758 48.8516 76.1758C55.297 76.1758 60.5218 81.4023 60.5218 87.8477Z" fill="#FFEDC0"/>
<path d="M51.1713 85.6139H50.08C49.9897 85.2495 49.8338 84.901 49.6205 84.5842H51.1713C51.6308 84.5842 52 84.2277 52 83.7921C52 83.3564 51.6308 83 51.1795 83H44.8205C44.3692 83 44 83.3564 44 83.7921C44 84.2277 44.3692 84.5842 44.8205 84.5842H46.6421C47.3723 84.5683 48.0533 84.9723 48.3651 85.6139H44.8205C44.3692 85.6139 44 85.9703 44 86.4059C44 86.8416 44.3692 87.198 44.8205 87.198H48.3651C48.2667 87.3802 48.1354 87.5465 47.9959 87.697C47.6349 88.0376 47.1508 88.2277 46.6503 88.2277H44.8287C44.3692 88.2356 44 88.6 44.0082 89.0435C44.0082 89.2574 44.1067 89.4633 44.2626 89.6138L48.8082 93.7722C49.1282 94.0812 49.6533 94.0732 49.9651 93.7643C50.2851 93.4554 50.2769 92.9485 49.9569 92.6475C49.9487 92.6396 49.9405 92.6316 49.9323 92.6237L46.8718 89.8277C47.7333 89.7723 48.5374 89.4237 49.1446 88.8297C49.6123 88.3861 49.9405 87.8158 50.0882 87.198H51.1713C51.6226 87.198 51.9918 86.8416 51.9918 86.4059C51.9918 85.9703 51.6226 85.6139 51.1713 85.6139Z" fill="url(#paint1_linear_1344_3021)"/>
<path d="M60.5211 87.8477C60.5211 94.2931 55.2963 99.5179 48.8509 99.5179C47.9646 99.5179 47.1016 99.4198 46.2734 99.2319C51.4783 98.0595 55.3662 93.4067 55.3662 87.8477C55.3662 82.2886 51.4783 77.6358 46.2734 76.4618C47.1016 76.2739 47.9646 76.1758 48.8509 76.1758C55.2963 76.1758 60.5211 81.4023 60.5211 87.8477Z" fill="#FFDD85"/>
<path d="M114.735 68.2096C114.582 68.2096 114.446 68.1215 114.379 67.9835C112.743 64.6144 109.289 62.293 105.293 62.293C101.51 62.293 98.2126 64.3716 96.4832 67.4497C96.2204 67.9169 95.7299 68.2096 95.1944 68.2096H95.1312C95.1163 68.2096 95.0996 68.2096 95.0847 68.208C95.0847 68.208 88.7773 60.103 85.0424 60.103C81.2593 60.103 75.0002 68.2096 75.0002 68.2096C74.7325 68.2096 74.4764 68.1364 74.2536 68.0051C74.0307 67.8737 73.8428 67.6825 73.7114 67.4497C71.982 64.3716 68.6862 62.293 64.9047 62.293C61.1832 62.293 57.8723 64.3949 56.1213 67.4596C55.8719 67.9003 55.4179 68.1813 54.9157 68.2063C54.8908 68.2096 48.4919 59.5625 44.7105 59.5625C39.0816 59.5625 54.2555 32 75.0002 32C95.7449 32 112.836 47.6396 115.128 67.7706C115.154 68.0051 114.97 68.2096 114.735 68.2096Z" fill="url(#paint2_linear_1344_3021)"/>
<path d="M75.0003 32C75.0003 32 56.5089 38.5219 54.9159 68.2063C54.8909 68.2096 54.8643 68.2096 54.8394 68.2096H54.8061C54.2707 68.2096 53.7801 67.9169 53.5174 67.4497C51.788 64.3716 48.4921 62.293 44.7107 62.293C40.7114 62.293 37.2576 64.6144 35.6213 67.9835C35.5547 68.1215 35.4184 68.2096 35.2654 68.2096C35.0459 68.2096 34.8696 68.03 34.8696 67.8155C34.8696 67.8005 34.8713 67.7856 34.873 67.7706C37.1644 47.6396 54.2557 32 75.0003 32Z" fill="url(#paint3_linear_1344_3021)"/>
<path d="M95.085 68.208C94.5711 68.193 94.1039 67.9086 93.8478 67.4596C92.1017 64.3999 88.8341 62.293 85.0993 62.293C81.3162 62.293 78.0186 64.3716 76.2892 67.4497C76.0265 67.9169 75.5359 68.2096 75.0005 68.2096V32C75.0005 32 93.4919 38.5219 95.085 68.208Z" fill="url(#paint4_linear_1344_3021)"/>
<path d="M114.735 68.2096C114.582 68.2096 114.446 68.1215 114.38 67.9835C112.743 64.6144 109.289 62.293 105.294 62.293C102.603 35.6861 75.0005 32 75.0005 32C95.7451 32 112.836 47.6396 115.128 67.7706C115.154 68.0051 114.97 68.2096 114.735 68.2096Z" fill="url(#paint5_linear_1344_3021)"/>
<path d="M98 100.697C95.1392 99.113 92.7392 97.0083 91.0098 94.5564C89.0408 91.765 88 88.5807 88 85.3481V77.6162C90.417 77.3159 92.7677 76.6178 94.9568 75.5501C96.0534 75.0098 97.0973 74.3686 98.075 73.6348C99.4018 74.5572 100.824 75.3341 102.317 75.9521C104.14 76.7087 106.048 77.2418 108 77.5396V85.3481C108 88.5807 106.959 91.7649 104.99 94.5564C103.261 97.0083 100.861 99.113 98 100.697Z" fill="#FFEDC0"/>
<path d="M97.9999 97.2215C96.1637 95.9926 94.6047 94.5003 93.4369 92.8446C91.8232 90.5567 90.9702 87.9647 90.9702 85.3484V80.0986C92.8045 79.6771 94.5839 79.0444 96.2726 78.2133C96.9087 77.8989 97.5275 77.557 98.1288 77.1875C99.1105 77.7559 100.128 78.2594 101.176 78.6947C102.427 79.2146 103.715 79.6403 105.03 79.9683V85.3484C105.03 87.9647 104.177 90.5568 102.563 92.8446C101.395 94.5003 99.8361 95.9926 97.9999 97.2215Z" fill="#FFDD85"/>

</svg>
