<svg width="150" height="150" viewBox="0 0 150 150" fill="none" xmlns="http://www.w3.org/2000/svg">
<defs>
<linearGradient id="paint0_linear_1872_15787" x1="31.1739" y1="24.239" x2="80.4782" y2="100.478" gradientUnits="userSpaceOnUse">
<stop stop-color="#FFF46B"/>
<stop offset="1" stop-color="#F3652D"/>
</linearGradient>
<clipPath id="clip0_1872_15787">
<rect width="84" height="84" fill="white" transform="translate(33 32)"/>
</clipPath>
</defs>
<circle opacity="0.1" cx="75" cy="75" r="75" fill="#D9D9D9"/>
<circle opacity="0.05" cx="75" cy="75" r="64" fill="#D9D9D9"/>
<path d="M10.3543 90.8359L11.0818 92.3845L12.7086 92.6333L11.5314 93.839L11.8092 95.5411L10.3543 94.7371L8.89934 95.5411L9.17714 93.839L8 92.6333L9.62681 92.3845L10.3543 90.8359Z" fill="#4A8CDA"/>
<path d="M30.366 39.0801L31.0935 40.6287L32.7203 40.8775L31.5431 42.0832L31.8209 43.7853L30.366 42.9813L28.9111 43.7853L29.1889 42.0832L28.0117 40.8775L29.6385 40.6287L30.366 39.0801Z" fill="#B8AD5D"/>
<path d="M133.954 95.541L134.681 97.0896L136.308 97.3384L135.131 98.5441L135.409 100.246L133.954 99.4422L132.499 100.246L132.777 98.5441L131.6 97.3384L133.226 97.0896L133.954 95.541Z" fill="#4A8CDA"/>
<path d="M141.016 113.186L141.744 114.734L143.371 114.983L142.194 116.189L142.471 117.891L141.016 117.087L139.561 117.891L139.839 116.189L138.662 114.983L140.289 114.734L141.016 113.186Z" fill="#B8AD5D"/>
<path d="M48.0222 142.592L48.7497 144.14L50.3765 144.389L49.1994 145.595L49.4772 147.297L48.0222 146.493L46.5673 147.297L46.8451 145.595L45.668 144.389L47.2948 144.14L48.0222 142.592Z" fill="#B8AD5D"/>
<path d="M133.954 21.4355L134.681 22.9841L136.308 23.2329L135.131 24.4386L135.409 26.1407L133.954 25.3367L132.499 26.1407L132.777 24.4386L131.6 23.2329L133.226 22.9841L133.954 21.4355Z" fill="#B8AD5D"/>
<path d="M35.074 4.9668L35.8015 6.51539L37.4283 6.76418L36.2511 7.96989L36.529 9.67199L35.074 8.86799L33.6191 9.67199L33.8969 7.96989L32.7197 6.76418L34.3465 6.51539L35.074 4.9668Z" fill="#4A8CDA"/>
<g clip-path="url(#clip0_1872_15787)">
<path d="M35.8965 82.6895H41.6896C43.2893 82.6895 44.5861 83.9864 44.5861 85.586V113.103C44.5861 114.703 43.2893 116 41.6896 116H35.8965C34.2968 116 33 114.703 33 113.103V85.586C33 83.9862 34.2968 82.6895 35.8965 82.6895Z" fill="#FFEF37"/>
<path d="M103.763 97.5777L80.373 111.829C79.0039 112.665 77.4299 113.106 75.8253 113.103H44.5862V85.586H47.9462C49.3292 85.5803 50.7024 85.8205 52.0013 86.2958C53.269 86.7343 54.4503 87.3911 55.4916 88.2365C56.5796 89.1168 57.7712 89.861 59.0399 90.4523C60.2935 91.0355 61.6549 91.3512 63.0371 91.3793H69.9744C72.379 91.3955 74.5904 92.7001 75.7674 94.7972C76.2171 95.5059 76.4442 96.3333 76.4191 97.1723C76.3349 98.2623 75.8439 99.2808 75.0432 100.025C75.1804 100 75.3159 99.9663 75.4488 99.924L79.5764 98.5481L90.6557 94.8405L100.909 91.4081C102.307 90.9474 103.843 91.4244 104.733 92.5958V92.6102C105.311 93.3823 105.535 94.3629 105.35 95.3094C105.166 96.2558 104.589 97.0799 103.763 97.5777Z" fill="#FDD7AD"/>
<path d="M101.069 74.0002C101.078 82.2003 97.2187 89.9244 90.6559 94.8409L75.4489 99.9243C75.3161 99.9667 75.1805 100 75.0434 100.026C76.5593 98.7098 76.8687 96.4758 75.7675 94.7974C74.5904 92.7003 72.3792 91.3957 69.9745 91.3795H63.0373C61.6549 91.3514 60.2937 91.0358 59.0401 90.4525C57.7715 89.8613 56.58 89.1171 55.4917 88.2367C54.4503 87.3913 53.269 86.7345 52.0015 86.296C45.9498 74.9501 49.0662 60.8868 59.3442 53.1595L74.5512 48.076C74.6841 48.0337 74.8196 47.9999 74.9568 47.9746C73.4408 49.2906 73.1314 51.5244 74.2326 53.203C75.4097 55.3 77.621 56.6046 80.0256 56.6209H86.9628C88.3452 56.6489 89.7065 56.9646 90.9601 57.5478C92.2286 58.1391 93.4202 58.8833 94.5084 59.7637C95.5499 60.6091 96.7311 61.2658 97.9987 61.7043C100.019 65.4876 101.074 69.7113 101.069 74.0002Z" fill="url(#paint0_linear_1872_15787)"/>
<path d="M80.6966 69.1641H78.5792C78.4041 68.4382 78.1016 67.744 77.6877 67.1128H80.6966C81.5881 67.1128 82.3045 66.4028 82.3045 65.5349C82.3045 64.6671 81.5881 63.957 80.7125 63.957H68.3747C67.4991 63.957 66.7827 64.6671 66.7827 65.5349C66.7827 66.4028 67.4991 67.1128 68.3747 67.1128H71.9089C73.3257 67.0813 74.6471 67.886 75.252 69.1641H68.3747C67.4991 69.1641 66.7827 69.8741 66.7827 70.742C66.7827 71.6098 67.4991 72.3199 68.3747 72.3199H75.252C75.061 72.6828 74.8063 73.0141 74.5356 73.3139C73.8352 73.9924 72.8959 74.3711 71.9248 74.3711H68.3906C67.4991 74.3869 66.7827 75.1127 66.7986 75.9963C66.7986 76.4224 66.9897 76.8326 67.2921 77.1324L76.1117 85.4164C76.7325 86.0317 77.7514 86.016 78.3564 85.4006C78.9772 84.7852 78.9613 83.7753 78.3404 83.1757C78.3245 83.16 78.3086 83.1442 78.2927 83.1284L72.3546 77.5585C74.0262 77.448 75.5863 76.7537 76.7644 75.5703C77.6718 74.6867 78.3086 73.5506 78.5952 72.3199H80.6966C81.5721 72.3199 82.2885 71.6098 82.2885 70.742C82.2885 69.8741 81.5721 69.1641 80.6966 69.1641Z" fill="white"/>
<path d="M56.3169 83.3277C55.7356 83.328 55.2103 82.9807 54.983 82.4456C53.8487 79.775 53.2679 76.9021 53.2755 74.0007C53.2694 64.6632 59.2383 56.3691 68.0942 53.409C68.5858 53.2445 69.1278 53.3547 69.516 53.6981C69.9042 54.0415 70.0799 54.566 69.9765 55.074C69.8732 55.5819 69.5068 55.9961 69.0153 56.1607C61.3418 58.7247 56.1689 65.91 56.172 74.0005C56.1651 76.513 56.6681 79.0005 57.6507 81.3128C57.9629 82.0491 57.6193 82.8991 56.883 83.2115C56.7044 83.2888 56.5116 83.3281 56.3169 83.3277Z" fill="white" fill-opacity="0.3"/>
<path d="M81.4446 94.6674C80.7333 94.6694 80.1259 94.1544 80.0112 93.4524C79.8967 92.7503 80.309 92.069 80.9839 91.8447C88.6596 89.2801 93.833 82.0917 93.8272 73.9991C93.8341 71.4867 93.3311 68.9992 92.3485 66.6869C92.0358 65.9506 92.3791 65.1002 93.1154 64.7875C93.8517 64.4748 94.702 64.818 95.0147 65.5544C96.1495 68.2248 96.731 71.0977 96.7238 73.9993C96.7298 83.3368 90.7609 91.6309 81.905 94.591C81.7567 94.6408 81.6011 94.6668 81.4446 94.6674Z" fill="white" fill-opacity="0.3"/>
<path d="M63.9063 100.068C61.9612 100.068 60.06 100.648 58.4463 101.734L57.5628 102.313C57.3297 102.477 57.051 102.563 56.7663 102.559C56.1312 102.554 55.5732 102.136 55.3905 101.528C55.2077 100.92 55.4425 100.263 55.9698 99.9091L56.8388 99.3298C58.9267 97.9215 61.3879 97.1699 63.9065 97.1719H76.4195C76.3367 98.2747 75.8461 99.3073 75.0437 100.068L63.9063 100.068Z" fill="#F9C795"/>
<path d="M108.31 32H114.103C115.703 32 117 33.2968 117 34.8965V62.4137C117 64.0135 115.703 65.3103 114.103 65.3103H108.31C106.711 65.3103 105.414 64.0135 105.414 62.4137V34.8965C105.414 33.2968 106.711 32 108.31 32Z" fill="#FFEF37"/>
<path d="M46.2372 50.4221L69.6269 36.1709C70.996 35.3344 72.5701 34.8934 74.1746 34.8965H105.414V62.4137H102.054C100.671 62.4195 99.2976 62.1793 97.9988 61.704C96.7311 61.2654 95.5498 60.6087 94.5085 59.7633C93.4204 58.8829 92.2289 58.1387 90.9602 57.5475C89.7066 56.9642 88.3452 56.6486 86.9629 56.6205H80.0257C77.6211 56.6043 75.4097 55.2996 74.2327 53.2026C73.783 52.4938 73.5559 51.6665 73.581 50.8275C73.6652 49.7374 74.1562 48.7189 74.9568 47.9744C74.8197 47.9997 74.6842 48.0335 74.5513 48.0758L70.4236 49.4516L59.3443 53.1593L49.0906 56.5916C47.6933 57.0523 46.1575 56.5754 45.2671 55.404V55.3895C44.6891 54.6175 44.4648 53.6369 44.6497 52.6904C44.8343 51.7439 45.4112 50.9198 46.2372 50.4221Z" fill="#FDD7AD"/>
<path d="M86.0938 47.9307C88.0389 47.9312 89.9401 47.3514 91.5538 46.2651L92.4373 45.6858C92.6704 45.5224 92.9491 45.4363 93.2338 45.4395C93.8689 45.4445 94.4268 45.8627 94.6096 46.4708C94.7924 47.0792 94.5576 47.7356 94.0303 48.0898L93.1613 48.6691C91.0734 50.0774 88.6121 50.829 86.0936 50.827H73.5806C73.6634 49.7242 74.154 48.6916 74.9564 47.9305H86.0938V47.9307Z" fill="#F9C795"/>
</g>

</svg>
