<svg width="150" height="150" viewBox="0 0 150 150" fill="none" xmlns="http://www.w3.org/2000/svg">
<defs>
<linearGradient id="paint0_linear_1342_2874" x1="36.8063" y1="46.636" x2="71.8419" y2="127.555" gradientUnits="userSpaceOnUse">
<stop stop-color="#FFF46B"/>
<stop offset="1" stop-color="#F3652D"/>
</linearGradient>
<linearGradient id="paint1_linear_1342_2874" x1="41.1812" y1="52.6766" x2="72.0714" y2="126.76" gradientUnits="userSpaceOnUse">
<stop stop-color="#FFF46B"/>
<stop offset="1" stop-color="#F3652D"/>
</linearGradient>
<linearGradient id="paint2_linear_1342_2874" x1="68.5756" y1="56.7742" x2="82.8543" y2="96.5172" gradientUnits="userSpaceOnUse">
<stop stop-color="#FFF46B"/>
<stop offset="1" stop-color="#F3652D"/>
</linearGradient>
</defs>
<circle opacity="0.1" cx="75" cy="75" r="75" fill="#D9D9D9"/>
<circle opacity="0.05" cx="75" cy="75" r="64" fill="#D9D9D9"/>
<path d="M10.3543 90.8359L11.0818 92.3845L12.7086 92.6333L11.5314 93.839L11.8092 95.5411L10.3543 94.7371L8.89934 95.5411L9.17714 93.839L8 92.6333L9.62681 92.3845L10.3543 90.8359Z" fill="#4A8CDA"/>
<path d="M30.366 39.0801L31.0935 40.6287L32.7203 40.8775L31.5431 42.0832L31.8209 43.7853L30.366 42.9813L28.9111 43.7853L29.1889 42.0832L28.0117 40.8775L29.6385 40.6287L30.366 39.0801Z" fill="#B8AD5D"/>
<path d="M133.954 95.541L134.681 97.0896L136.308 97.3384L135.131 98.5441L135.409 100.246L133.954 99.4422L132.499 100.246L132.777 98.5441L131.6 97.3384L133.226 97.0896L133.954 95.541Z" fill="#4A8CDA"/>
<path d="M141.016 113.186L141.744 114.734L143.371 114.983L142.194 116.189L142.471 117.891L141.016 117.087L139.561 117.891L139.839 116.189L138.662 114.983L140.289 114.734L141.016 113.186Z" fill="#B8AD5D"/>
<path d="M48.0222 142.592L48.7497 144.14L50.3765 144.389L49.1994 145.595L49.4772 147.297L48.0222 146.493L46.5673 147.297L46.8451 145.595L45.668 144.389L47.2948 144.14L48.0222 142.592Z" fill="#B8AD5D"/>
<path d="M133.954 21.4355L134.681 22.9841L136.308 23.2329L135.131 24.4386L135.409 26.1407L133.954 25.3367L132.499 26.1407L132.777 24.4386L131.6 23.2329L133.226 22.9841L133.954 21.4355Z" fill="#B8AD5D"/>
<path d="M35.074 4.9668L35.8015 6.51539L37.4283 6.76418L36.2511 7.96989L36.529 9.67199L35.074 8.86799L33.6191 9.67199L33.8969 7.96989L32.7197 6.76418L34.3465 6.51539L35.074 4.9668Z" fill="#4A8CDA"/>
<path d="M100.739 53.4876V62.2185C100.738 62.6041 100.584 62.9736 100.311 63.2463C100.039 63.5189 99.6692 63.6726 99.2836 63.6737H45.4397C43.3215 63.6748 41.2753 62.9054 39.6826 61.5091C38.0899 60.1127 37.0594 58.1847 36.7834 56.0846C36.5074 53.9846 37.0047 51.8558 38.1825 50.0953C39.3603 48.3348 41.1382 47.0628 43.1847 46.5165C43.9183 46.3095 44.6773 46.206 45.4397 46.2091H93.4626C95.3927 46.2094 97.2435 46.9764 98.6081 48.3414C99.9726 49.7064 100.739 51.5575 100.739 53.4876V53.4876Z" fill="#FFE8C6"/>
<path d="M100.739 53.4884V62.2194C100.738 62.605 100.584 62.9745 100.312 63.2471C100.039 63.5198 99.6696 63.6734 99.284 63.6745H45.4401C43.9121 63.6777 42.4106 63.2761 41.0883 62.5105C41.0743 62.0595 41.0743 61.6081 41.0743 61.1438C41.0658 56.1929 41.7768 51.267 43.1848 46.5205C43.9184 46.3134 44.6774 46.2099 45.4398 46.213H93.4631C95.3926 46.2133 97.243 46.9799 98.6074 48.3442C99.9719 49.7086 100.739 51.5589 100.739 53.4884V53.4884Z" fill="#FFF9EA"/>
<path d="M100.739 53.4878V62.2187C100.738 62.6043 100.584 62.9738 100.312 63.2465C100.039 63.5191 99.6694 63.6728 99.2838 63.6739H68.5198C66.372 58.1195 65.6759 52.1092 66.4975 46.2109H93.4628C95.3926 46.2113 97.2432 46.9781 98.6077 48.3427C99.9721 49.7073 100.739 51.558 100.739 53.4878V53.4878Z" fill="white"/>
<path d="M104.537 60.9966C104.539 61.0455 104.535 61.0946 104.523 61.1422C104.373 62.0883 103.948 62.9691 103.299 63.6742C103.136 63.8551 102.961 64.0252 102.775 64.1837L80.3213 83.029L69.8158 91.8481C69.557 92.0704 69.2254 92.1894 68.8844 92.1826C68.6741 92.1833 68.4662 92.1381 68.2753 92.0501C68.0843 91.9621 67.9148 91.8335 67.7788 91.6731L43.446 62.6991C43.2023 62.4011 43.0824 62.0208 43.1111 61.6369C43.1257 61.4461 43.1783 61.2602 43.2657 61.09C43.3532 60.9199 43.4739 60.7689 43.6205 60.6461L50.8827 54.55L72.0708 36.767L76.5808 32.983C77.5034 32.1921 78.6844 31.7675 79.8994 31.7899C80.4997 31.7943 81.0918 31.9293 81.6346 32.1856C82.1775 32.4419 82.658 32.8133 83.0427 33.2741L103.621 57.7805C103.999 58.223 104.273 58.7454 104.421 59.3088C104.577 59.8571 104.617 60.4321 104.537 60.9966V60.9966Z" fill="#FE9C39"/>
<path d="M104.537 60.9966C104.539 61.0455 104.535 61.0946 104.523 61.1422C104.373 62.0883 103.948 62.9691 103.299 63.6742C103.136 63.8551 102.961 64.0252 102.776 64.1837L80.3215 83.029C73.63 80.7245 67.5256 76.9799 62.4391 72.0592C57.3525 67.1384 53.4077 61.1615 50.8828 54.55L72.0709 36.767L76.5809 32.983C77.5035 32.1921 78.6845 31.7675 79.8995 31.7899C80.4998 31.7943 81.092 31.9293 81.6348 32.1856C82.1776 32.4419 82.6581 32.8133 83.0429 33.2741L103.621 57.7805C104 58.223 104.273 58.7454 104.421 59.3088C104.577 59.8571 104.617 60.4321 104.537 60.9966V60.9966Z" fill="#FFEDC0"/>
<path d="M104.537 60.9966C104.348 61.0113 104.159 61.0113 103.97 61.0113C96.7304 61.0269 89.6862 58.6622 83.9222 54.2814C78.1582 49.9007 73.994 43.7467 72.0708 36.767L76.5808 32.983C77.5034 32.1921 78.6844 31.7675 79.8994 31.7899C80.4997 31.7943 81.0918 31.9293 81.6346 32.1856C82.1775 32.4419 82.658 32.8133 83.0427 33.2741L103.621 57.7805C103.999 58.223 104.273 58.7454 104.421 59.3088C104.577 59.8571 104.617 60.4321 104.537 60.9966V60.9966Z" fill="#FE9C39"/>
<path d="M64.208 86.617C63.9955 86.6174 63.7855 86.5711 63.5929 86.4813C63.4003 86.3916 63.2298 86.2606 63.0935 86.0976L48.1233 68.2708C47.8749 67.9747 47.7542 67.5921 47.7877 67.2071C47.8213 66.822 48.0064 66.466 48.3024 66.2174L73.654 44.9418C73.9498 44.6942 74.3317 44.5739 74.7161 44.6075C75.1004 44.6411 75.4557 44.8257 75.704 45.1209C76.8288 46.4612 80.2776 45.8951 81.9323 44.5059C82.2281 44.2582 82.61 44.138 82.9943 44.1715C83.3786 44.2051 83.7339 44.3897 83.9823 44.6849L92.5366 54.8741C92.7849 55.1695 92.9057 55.5514 92.8724 55.9358C92.8392 56.3202 92.6546 56.6757 92.3593 56.9241C90.7046 58.3123 89.5491 61.607 90.6755 62.9501C90.7985 63.0964 90.8914 63.2656 90.9489 63.4479C91.0064 63.6302 91.0274 63.8221 91.0106 64.0126C90.9938 64.203 90.9396 64.3883 90.8511 64.5577C90.7626 64.7272 90.6415 64.8775 90.4948 65.0001L65.1431 86.276C64.8817 86.4965 64.5507 86.6175 64.2087 86.6176M51.2885 67.5127L64.3856 83.1128L87.6928 63.5558C86.7002 61.0617 87.8253 57.8001 89.4694 55.7498L82.592 47.5552C80.2872 48.8215 76.879 49.3627 74.5926 47.957L51.2885 67.5127Z" fill="white"/>
<path d="M109.471 68.0398V102.966C109.47 104.896 108.703 106.746 107.339 108.111C105.974 109.476 104.123 110.243 102.193 110.243H43.9858C42.0558 110.243 40.205 109.476 38.8403 108.111C37.4756 106.746 36.7087 104.896 36.7083 102.966V56.3978C36.7028 56.2583 36.7275 56.1193 36.7807 55.9902C36.9404 57.3357 37.4132 58.625 38.1612 59.7547C38.9093 60.8844 39.9117 61.823 41.0881 62.4952C42.4064 63.2721 43.9097 63.6793 45.4399 63.674H103.299C103.947 62.9688 104.373 62.0879 104.522 61.1419C105.964 61.6299 107.218 62.5579 108.105 63.7952C108.993 65.0325 109.471 66.517 109.471 68.0398V68.0398Z" fill="url(#paint0_linear_1342_2874)"/>
<path d="M109.471 68.0405V102.966C109.47 104.896 108.704 106.747 107.339 108.112C105.974 109.477 104.123 110.243 102.193 110.244H76.0443C56.078 103.243 41.6562 84.572 41.0884 62.4959C42.4067 63.2728 43.91 63.68 45.4402 63.6747H103.299C103.947 62.9694 104.373 62.0886 104.522 61.1426C105.965 61.6306 107.218 62.5585 108.106 63.7959C108.993 65.0332 109.471 66.5177 109.471 68.0405V68.0405Z" fill="url(#paint1_linear_1342_2874)"/>
<path d="M109.471 68.0405V85.6637C106.985 86.2084 104.448 86.4816 101.903 86.4785C94.6866 86.4945 87.6343 84.3243 81.6752 80.2537C75.7161 76.183 71.1297 70.403 68.52 63.6747H103.299C103.947 62.9694 104.373 62.0886 104.522 61.1426C105.965 61.6306 107.218 62.5585 108.106 63.7959C108.993 65.0332 109.471 66.5177 109.471 68.0405V68.0405Z" fill="url(#paint2_linear_1342_2874)"/>
<path d="M115.291 81.1382V92.7805C115.288 93.9373 114.827 95.0458 114.009 95.8637C113.191 96.6817 112.082 97.1427 110.926 97.146H99.2836C96.5828 97.143 93.9935 96.0688 92.0838 94.1591C90.174 92.2493 89.0998 89.66 89.0968 86.9592C89.0935 86.4078 89.1424 85.8573 89.2427 85.3151C89.6325 82.9323 90.8561 80.7654 92.6951 79.201C94.5342 77.6365 96.8692 76.7762 99.2836 76.7734H110.926C111.919 76.7778 112.883 77.116 113.661 77.7339C114.169 78.1442 114.579 78.6628 114.861 79.2518C115.143 79.8407 115.29 80.4852 115.291 81.1382V81.1382Z" fill="#FE9C39"/>
<path d="M113.661 77.7332C111.722 84.9354 108.124 91.5837 103.155 97.146H99.2836C96.5828 97.143 93.9935 96.0688 92.0838 94.1591C90.174 92.2493 89.0998 89.66 89.0968 86.9592C89.0935 86.4078 89.1424 85.8573 89.2427 85.3151C89.6325 82.9323 90.8561 80.7654 92.6951 79.201C94.5342 77.6365 96.8692 76.7762 99.2836 76.7734H110.926C111.919 76.7776 112.883 77.1156 113.661 77.7332Z" fill="#FED154"/>
<path d="M100.056 76.7715C97.0929 80.3479 93.4084 83.2586 89.2432 85.3132C89.633 82.9304 90.8565 80.7635 92.6955 79.199C94.5346 77.6346 96.8696 76.7742 99.2841 76.7715H100.056Z" fill="#FEEC88"/>
<path d="M105.105 86.9572C105.105 87.5329 104.934 88.0957 104.614 88.5744C104.294 89.0531 103.84 89.4262 103.308 89.6466C102.776 89.8669 102.191 89.9246 101.626 89.8123C101.061 89.7 100.543 89.4228 100.136 89.0157C99.7286 88.6086 99.4514 88.0899 99.3391 87.5253C99.2268 86.9606 99.2845 86.3754 99.5048 85.8435C99.7252 85.3116 100.098 84.8571 100.577 84.5373C101.056 84.2175 101.619 84.0468 102.194 84.0469C102.966 84.0471 103.706 84.3539 104.252 84.8996C104.798 85.4453 105.104 86.1854 105.105 86.9572Z" fill="white"/>
<path d="M48.3502 95.6895C48.1591 95.6895 47.9698 95.6519 47.7933 95.5788C47.6167 95.5057 47.4563 95.3985 47.3211 95.2634C47.186 95.1282 47.0788 94.9678 47.0057 94.7912C46.9326 94.6147 46.895 94.4254 46.895 94.2343V79.6817C46.895 79.2958 47.0483 78.9257 47.3212 78.6528C47.5941 78.3799 47.9642 78.2266 48.3502 78.2266C48.7361 78.2266 49.1062 78.3799 49.3791 78.6528C49.652 78.9257 49.8053 79.2958 49.8053 79.6817V94.2343C49.8054 94.4254 49.7678 94.6147 49.6947 94.7912C49.6215 94.9678 49.5144 95.1282 49.3792 95.2634C49.2441 95.3985 49.0837 95.5057 48.9071 95.5788C48.7305 95.6519 48.5413 95.6895 48.3502 95.6895" fill="white"/>

</svg>
