<svg width="26" height="39" viewBox="0 0 26 39" fill="none" xmlns="http://www.w3.org/2000/svg">
<path fill-rule="evenodd" clip-rule="evenodd" d="M1.4 4.52046C1.4 2.83256 2.75168 1.47715 4.40323 1.47715H21.0678C22.7193 1.47715 24.071 2.83256 24.071 4.52046V34.4669C24.071 36.1548 22.7193 37.5103 21.0678 37.5103H4.40323C2.75168 37.5103 1.4 36.1548 1.4 34.4669V4.52046ZM4.40323 0.0771484C1.96431 0.0771484 0 2.07361 0 4.52046V34.4669C0 36.9138 1.96431 38.9103 4.40323 38.9103H21.0678C23.5067 38.9103 25.471 36.9138 25.471 34.4669V4.52046C25.471 2.07361 23.5067 0.0771484 21.0678 0.0771484H4.40323ZM11.2205 20.9523L9.6995 26.3976C9.6622 26.5327 9.67388 26.6768 9.73246 26.8041C9.79103 26.9314 9.89268 27.0336 10.0192 27.0924C10.1458 27.1513 10.289 27.1629 10.4233 27.1252C10.5576 27.0876 10.6742 27.0031 10.7523 26.8869L16.2271 18.6881C16.2922 18.5889 16.3294 18.4739 16.3348 18.3552C16.3401 18.2365 16.3134 18.1185 16.2575 18.0138C16.2015 17.9091 16.1185 17.8217 16.0171 17.7607C15.9158 17.6997 15.7999 17.6674 15.6818 17.6674H14.1143L15.7503 12.5579C15.7925 12.4236 15.7857 12.2786 15.731 12.1489C15.6764 12.0193 15.5776 11.9135 15.4524 11.8506C15.3272 11.7877 15.1837 11.7718 15.0479 11.8059C14.9121 11.8399 14.7928 11.9216 14.7116 12.0363L9.12263 20.021C9.06081 20.1095 9.02431 20.2134 9.0171 20.3214C9.0099 20.4293 9.03226 20.5372 9.08176 20.6332C9.13125 20.7292 9.20599 20.8098 9.29782 20.8661C9.38966 20.9223 9.49507 20.9521 9.60259 20.9523H11.2205ZM11.9955 19.7706H10.7343L13.4486 15.8931L12.7493 18.077C12.7209 18.1657 12.7138 18.2598 12.7284 18.3517C12.7431 18.4437 12.7791 18.5308 12.8336 18.6061C12.888 18.6813 12.9594 18.7426 13.0419 18.7848C13.1243 18.827 13.2156 18.8491 13.3081 18.8491H14.705L11.822 23.1663L12.5609 20.5213C12.5854 20.4334 12.5893 20.3411 12.5723 20.2515C12.5554 20.1619 12.5181 20.0774 12.4634 20.0047C12.4086 19.932 12.3379 19.8731 12.2567 19.8324C12.1756 19.7918 12.0862 19.7706 11.9955 19.7706Z" fill="url(#paint0_linear_1091_3602)"/>
<defs>
<linearGradient id="paint0_linear_1091_3602" x1="0.885947" y1="1.66217" x2="41.842" y2="20.5248" gradientUnits="userSpaceOnUse">
<stop offset="0.307481" stop-color="#004280"/>
<stop offset="1" stop-color="#00C376"/>
</linearGradient>
</defs>
</svg>
