<svg width="26" height="26" viewBox="0 0 26 26" fill="none" xmlns="http://www.w3.org/2000/svg">
<mask id="path-1-outside-1_764_5276" maskUnits="userSpaceOnUse" x="0" y="0" width="26" height="26" fill="black">
<rect fill="white" width="26" height="26"/>
<path d="M12.9993 1C2.05928 1 -3.08572 12.695 4.83428 19.07C4.83428 24.845 4.72428 24.75 5.10428 24.945C5.48428 25.14 5.36928 25.095 10.1643 21.57C17.7693 23.165 24.9993 18.135 24.9993 11.43C24.9993 5.68 19.6143 1 12.9993 1ZM12.9993 20.865C8.49928 20.865 11.7193 19.19 5.83428 23.515C5.83428 18.485 5.90928 18.64 5.63928 18.435C-1.79572 12.705 2.90928 2 12.9993 2C19.0643 2 23.9993 6.23 23.9993 11.43C23.9993 16.63 19.0643 20.865 12.9993 20.865Z"/>
</mask>
<path d="M12.9993 1C2.05928 1 -3.08572 12.695 4.83428 19.07C4.83428 24.845 4.72428 24.75 5.10428 24.945C5.48428 25.14 5.36928 25.095 10.1643 21.57C17.7693 23.165 24.9993 18.135 24.9993 11.43C24.9993 5.68 19.6143 1 12.9993 1ZM12.9993 20.865C8.49928 20.865 11.7193 19.19 5.83428 23.515C5.83428 18.485 5.90928 18.64 5.63928 18.435C-1.79572 12.705 2.90928 2 12.9993 2C19.0643 2 23.9993 6.23 23.9993 11.43C23.9993 16.63 19.0643 20.865 12.9993 20.865Z" fill="url(#paint0_linear_764_5276)"/>
<path d="M12.9993 1C2.05928 1 -3.08572 12.695 4.83428 19.07C4.83428 24.845 4.72428 24.75 5.10428 24.945C5.48428 25.14 5.36928 25.095 10.1643 21.57C17.7693 23.165 24.9993 18.135 24.9993 11.43C24.9993 5.68 19.6143 1 12.9993 1ZM12.9993 20.865C8.49928 20.865 11.7193 19.19 5.83428 23.515C5.83428 18.485 5.90928 18.64 5.63928 18.435C-1.79572 12.705 2.90928 2 12.9993 2C19.0643 2 23.9993 6.23 23.9993 11.43C23.9993 16.63 19.0643 20.865 12.9993 20.865Z" stroke="url(#paint1_linear_764_5276)" stroke-width="0.2" mask="url(#path-1-outside-1_764_5276)"/>
<path d="M19.705 7.59544L15.165 10.8754L11.69 8.19044C11.5911 8.11326 11.4668 8.07607 11.3418 8.08626C11.2168 8.09645 11.1001 8.15327 11.015 8.24544L5.63503 14.0754C5.55637 14.1594 5.5091 14.268 5.50118 14.3828C5.49327 14.4976 5.5252 14.6116 5.59159 14.7056C5.65797 14.7996 5.75475 14.8679 5.8656 14.8988C5.97644 14.9297 6.09456 14.9215 6.20003 14.8754L11.31 12.6604C15.115 15.6004 14.935 15.5404 15.23 15.4954C15.525 15.4504 15.17 15.8554 20.41 8.28544C20.4779 8.1884 20.509 8.07043 20.498 7.95255C20.487 7.83466 20.4345 7.7245 20.3499 7.64169C20.2653 7.55887 20.1541 7.50877 20.036 7.5003C19.9179 7.49184 19.8006 7.52555 19.705 7.59544ZM15.045 14.2804C11.42 11.4804 11.625 11.5854 11.385 11.5854C11.235 11.5854 11.495 11.4904 7.97003 13.0154L11.44 9.26044L14.85 11.8954C14.9361 11.9592 15.0404 11.9936 15.1475 11.9936C15.2547 11.9936 15.3589 11.9592 15.445 11.8954L17.945 10.1004L15.045 14.2804Z" fill="url(#paint2_linear_764_5276)"/>
<defs>
<linearGradient id="paint0_linear_764_5276" x1="1.83476" y1="1.97992" x2="33.1711" y2="23.9752" gradientUnits="userSpaceOnUse">
<stop offset="0.307481" stop-color="#004280"/>
<stop offset="1" stop-color="#00C376"/>
</linearGradient>
<linearGradient id="paint1_linear_764_5276" x1="1.99902" y1="2" x2="22.499" y2="23.5" gradientUnits="userSpaceOnUse">
<stop stop-color="#014280"/>
<stop offset="1" stop-color="#01847B"/>
</linearGradient>
<linearGradient id="paint2_linear_764_5276" x1="6.02175" y1="7.82589" x2="16.7313" y2="21.9115" gradientUnits="userSpaceOnUse">
<stop offset="0.307481" stop-color="#004280"/>
<stop offset="1" stop-color="#00C376"/>
</linearGradient>
</defs>
</svg>
