<svg width="20" height="20" viewBox="0 0 20 20" fill="none" xmlns="http://www.w3.org/2000/svg">
<path d="M18.9234 17.7458L14.194 13.0164C15.2581 11.6884 15.8367 10.0367 15.834 8.33496C15.834 4.19288 12.4763 0.834961 8.33398 0.834961C4.1919 0.834961 0.833984 4.19288 0.833984 8.33496C0.833984 12.477 4.1919 15.835 8.33398 15.835C10.1048 15.835 11.7323 15.2212 13.0154 14.1948L17.7448 18.9241C17.8221 19.0016 17.9139 19.0631 18.015 19.105C18.1161 19.1469 18.2245 19.1684 18.334 19.1683C18.4988 19.1683 18.6599 19.1194 18.7969 19.0279C18.934 18.9363 19.0408 18.8062 19.1039 18.6539C19.167 18.5017 19.1835 18.3341 19.1514 18.1725C19.1192 18.0108 19.0399 17.8623 18.9234 17.7458ZM8.33398 14.1683C5.11232 14.1683 2.50065 11.5566 2.50065 8.33496C2.50065 5.11329 5.11232 2.50163 8.33398 2.50163C11.5559 2.50163 14.1673 5.11329 14.1673 8.33496C14.1673 11.5566 11.5559 14.1683 8.33398 14.1683Z" fill="url(#paint0_linear_764_5120)"/>
<defs>
<linearGradient id="paint0_linear_764_5120" x1="1.47167" y1="1.58326" x2="25.4041" y2="18.3878" gradientUnits="userSpaceOnUse">
<stop offset="0.307481" stop-color="#004280"/>
<stop offset="1" stop-color="#00C376"/>
</linearGradient>
</defs>
</svg>
