<svg width="24" height="25" viewBox="0 0 24 25" fill="none" xmlns="http://www.w3.org/2000/svg">
<path d="M18.3197 14.3086C18.1712 14.225 18.0029 14.1303 17.8 14.0082C17.6868 13.9398 17.5445 13.8464 17.3937 13.7474C16.6195 13.2393 16.0329 12.8796 15.5336 12.8796C15.4166 12.8796 15.306 12.8994 15.2052 12.9383C14.7677 13.1068 14.4085 13.5569 14.0611 13.992C13.9338 14.1515 13.7515 14.3797 13.641 14.4818C13.2023 14.402 12.2772 13.8289 11.2789 12.8306C10.2794 11.8311 9.70615 10.9049 9.62746 10.4673C9.72936 10.3563 9.95939 10.1728 10.1198 10.0446C10.5534 9.69852 11.0017 9.34062 11.1711 8.90451C11.3871 8.34418 10.9911 7.67404 10.3621 6.7158C10.2631 6.56498 10.1696 6.42254 10.1018 6.31021C9.97926 6.1066 9.88457 5.93814 9.80102 5.78967C9.45807 5.18018 9.23148 4.77734 8.38006 4.77734C7.82746 4.77734 7.04617 5.29953 6.51695 5.81738C5.74785 6.57014 5.32422 7.4392 5.32422 8.26619C5.32568 10.5123 6.57924 13.0867 8.7635 15.3318C8.76725 15.3355 8.771 15.3365 8.77486 15.3403C11.0199 17.5246 13.5957 18.7739 15.8418 18.7739H15.8427C16.6686 18.7739 17.5379 18.3551 18.2906 17.5864C18.8089 17.0572 19.3318 16.2816 19.3318 15.7294C19.3318 14.8781 18.9292 14.6516 18.3197 14.3086ZM15.842 17.6134C13.9288 17.612 11.595 16.4526 9.59787 14.5118C7.65684 12.5144 6.49738 10.1804 6.49615 8.26736C6.49615 7.1102 7.99779 6.00998 8.39049 5.94969C8.4707 5.95004 8.51277 5.95479 8.53281 5.95818C8.58473 6.01795 8.68791 6.20135 8.77979 6.36465C8.86293 6.51242 8.96647 6.69641 9.0983 6.91549C9.17799 7.0475 9.27736 7.19885 9.38254 7.35904C9.58158 7.66232 9.98172 8.27193 10.0492 8.53215C9.93637 8.69182 9.58639 8.97119 9.38881 9.12893C8.88309 9.53269 8.44633 9.88133 8.44633 10.374C8.44756 11.5642 9.98055 13.1896 10.4504 13.6594C10.9202 14.1292 12.5455 15.6622 13.7382 15.6634C14.2278 15.6618 14.5749 15.2268 14.977 14.7232C15.1356 14.5246 15.4166 14.1726 15.577 14.0604C15.8369 14.1273 16.4472 14.5279 16.7508 14.7272C16.911 14.8323 17.0622 14.9316 17.1951 15.0119C17.4134 15.1432 17.5973 15.2468 17.7452 15.3299C17.9084 15.4218 18.0919 15.525 18.1516 15.5769C18.155 15.5969 18.1597 15.639 18.1601 15.7191C18.0994 16.1115 16.9988 17.612 15.842 17.6134Z" fill="url(#paint0_linear_764_5274)"/>
<path d="M23.9765 12.0559C23.9354 8.88947 22.6643 5.89732 20.3977 3.63062C18.0892 1.32215 15.0421 0.0507812 11.8174 0.0507812C8.70461 0.0507812 5.79262 1.24855 3.61774 3.42338C1.68778 5.35334 0.503716 7.92736 0.283462 10.6714C0.0745754 13.2748 0.737329 15.9094 2.15254 18.1246L0.220005 23.3484C0.138911 23.5676 0.195865 23.8141 0.365025 23.9755C0.476177 24.0817 0.621783 24.1376 0.769673 24.1376C0.846783 24.1376 0.924595 24.1153 0.998365 24.0839L6.03151 21.9421C7.95292 23.138 10.1499 23.7544 12.4059 23.7544H12.4062C15.5184 23.7544 18.4304 22.5709 20.6049 20.3963C22.8203 18.1809 24.0177 15.2281 23.9765 12.0559ZM19.7762 19.5819C17.8228 21.5353 15.2053 22.611 12.4059 22.611C10.2746 22.6109 8.20112 21.9871 6.40944 20.8069C6.31229 20.7429 6.20003 20.7104 6.08711 20.7104C6.0096 20.7104 5.93178 20.7257 5.85836 20.7569L1.78985 22.4825L3.3543 18.2537C3.41975 18.0767 3.39596 17.879 3.29044 17.7226C0.414888 13.4625 0.90104 7.79734 4.44637 4.25207C6.39989 2.29855 9.01762 1.22266 11.8174 1.22266C14.729 1.22266 17.4819 2.37209 19.569 4.45926C21.6184 6.50863 22.7675 9.21191 22.8047 12.0712C22.8418 14.9246 21.7662 17.5919 19.7762 19.5819Z" fill="url(#paint1_linear_764_5274)"/>
<defs>
<linearGradient id="paint0_linear_764_5274" x1="5.81144" y1="5.34863" x2="24.0874" y2="18.1915" gradientUnits="userSpaceOnUse">
<stop offset="0.307481" stop-color="#004280"/>
<stop offset="1" stop-color="#00C376"/>
</linearGradient>
<linearGradient id="paint1_linear_764_5274" x1="1.01121" y1="1.03392" x2="32.3218" y2="22.7518" gradientUnits="userSpaceOnUse">
<stop offset="0.307481" stop-color="#004280"/>
<stop offset="1" stop-color="#00C376"/>
</linearGradient>
</defs>
</svg>
