<svg width="60" height="22" viewBox="0 0 60 22" fill="none" xmlns="http://www.w3.org/2000/svg">
<path d="M0 7.08653V4.48242H3.48579V7.08653H0ZM0.0526713 20.7202V7.92367H3.45945V20.7212H0.0516179L0.0526713 20.7202Z" fill="#004280"/>
<path d="M12.9164 20.7196V12.9826C12.9164 12.1812 12.6941 11.5913 12.2485 11.2137C11.8029 10.8381 11.2741 10.6489 10.6631 10.6489C10.0521 10.6489 9.49591 10.8372 9.05031 11.2137C8.60472 11.5913 8.38244 12.1812 8.38244 12.9826V20.7196H4.97461V7.92216C4.97461 7.92216 6.94557 8.90316 9.85092 8.11816C10.4693 7.95112 11.0645 7.77539 11.7113 7.77539C13.0565 7.77539 14.131 8.15196 14.9358 8.90509C15.4594 9.3956 15.8217 9.93631 16.0229 10.5263C16.2241 11.1162 16.3242 11.7882 16.3242 12.5404V20.7196H12.9164Z" fill="#004280"/>
<path d="M24.2768 20.5609C23.7322 20.7144 23.1233 20.8679 22.3912 20.8679C21.7254 20.8679 21.0965 20.7656 20.5035 20.5609C19.9093 20.3562 19.4184 20.0742 19.035 19.7141C18.4398 19.1405 18.0384 18.3217 17.8288 17.2577C17.7593 16.8309 17.7119 16.3897 17.6855 15.931C17.6592 15.4734 17.6455 14.9326 17.6455 14.3099C17.6455 12.9996 17.7287 11.9153 17.8941 11.055C18.0606 10.1966 18.4408 9.48787 19.035 8.93074C19.4184 8.57059 19.903 8.28768 20.4898 8.08298C21.0755 7.87829 21.7001 7.7769 22.3649 7.7769C23.0801 7.7769 23.7059 7.87442 24.2379 8.0714C24.7709 8.26644 25.2555 8.59473 25.6937 9.05337V4.48242H29.1005V20.7202C29.1005 20.7202 26.3837 19.969 24.2779 20.5609H24.2768ZM25.6136 12.7988C25.561 12.3807 25.4567 12.0167 25.2986 11.7058C24.9489 11.0019 24.3021 10.6494 23.3593 10.6494C22.8705 10.6494 22.4681 10.7402 22.1531 10.9188C21.8381 11.0994 21.6032 11.3485 21.4463 11.6681C21.2893 11.9877 21.184 12.3604 21.1313 12.7862C21.0797 13.213 21.0533 13.7189 21.0533 14.3089C21.0533 14.8988 21.0797 15.4067 21.1313 15.8316C21.184 16.2574 21.2893 16.634 21.4463 16.9613C21.6043 17.2896 21.8392 17.5425 22.1531 17.7231C22.467 17.9027 22.8694 17.9935 23.3593 17.9935C24.3032 17.9935 24.95 17.641 25.2986 16.9371C25.4567 16.6253 25.561 16.2535 25.6136 15.819C25.6663 15.3855 25.6926 14.8824 25.6926 14.3089C25.6926 13.7354 25.6663 13.2159 25.6136 12.7978V12.7988Z" fill="#004280"/>
<path d="M30.5879 7.08653V4.48242H34.0747V7.08653H30.5879ZM30.6406 20.7202V7.92367H34.0473V20.7212H30.6406V20.7202Z" fill="#004280"/>
<path d="M41.8151 20.5603C41.2915 20.6771 40.6827 20.8432 39.9147 20.8432C38.3946 20.8432 37.2327 20.4657 36.4289 19.7135C35.6768 18.9768 35.3018 18.019 35.3018 16.8391C35.3018 15.7576 35.7 14.8703 36.4942 14.1751C37.2896 13.478 38.4473 13.1304 39.9674 13.1304H43.1919V12.4912C43.1919 11.7873 42.9949 11.2746 42.602 10.9559C42.208 10.6354 41.557 10.476 40.649 10.476C40.0201 10.476 39.5176 10.5543 39.1415 10.7097C38.7654 10.8652 38.3946 11.1394 38.027 11.5333L35.8516 9.54235C36.4985 8.87129 37.1895 8.40975 37.9227 8.15484C38.6569 7.90187 39.6082 7.77441 40.7806 7.77441C44.6593 7.77441 46.5987 9.28165 46.5987 12.2942V20.7187C46.5987 20.7187 44.1221 20.0476 41.8151 20.5594V20.5603ZM43.1919 15.3164H40.492C39.2163 15.3164 38.5779 15.7992 38.5779 16.7657C38.5779 17.2243 38.7444 17.5845 39.0762 17.8461C39.407 18.1088 39.8968 18.2401 40.5447 18.2401C41.0682 18.2401 41.4864 18.1986 41.8025 18.1175C42.1174 18.0354 42.4134 17.8703 42.6937 17.625C43.0255 17.3315 43.1919 16.7908 43.1919 16.0048V15.3173V15.3164Z" fill="#004280"/>
<path d="M49.7376 14.208C49.7376 14.208 50.2612 14.7941 50.7342 14.9978C50.7342 14.9978 50.5108 14.9631 50.2485 14.9978C49.9041 15.0422 49.4595 15.1745 49.1593 15.2972C48.4872 15.5704 49.7387 14.208 49.7387 14.208H49.7376Z" fill="#004280"/>
<path d="M53.6221 0.0478516C53.6221 0.0478516 54.0761 0.117372 54.4301 0.228411C54.6397 0.295034 54.8535 0.3829 54.8535 0.3829C54.8535 0.3829 54.7419 0.260274 54.6534 0.178202C54.5649 0.0961293 54.5091 0.0478516 54.5091 0.0478516H53.6231H53.6221Z" fill="#F26522"/>
<path d="M51.6114 0.0478408C51.6114 0.0478408 52.8597 0.0681178 53.6571 0.190744C54.4556 0.312404 54.6484 0.345232 54.6484 0.345232L54.7927 0.407028C54.7927 0.407028 53.3822 0.295023 52.8797 0.310472C52.0548 0.335577 51.5039 0.4891 51.5039 0.4891L51.6103 0.046875L51.6114 0.0478408Z" fill="#F26522"/>
<path d="M51.4666 0.63789C51.4666 0.63789 52.6833 0.433193 53.4924 0.429331C54.3003 0.426434 54.4984 0.428365 54.4984 0.428365L54.6543 0.467952C54.6543 0.467952 53.2427 0.575129 52.7497 0.668788C51.9417 0.821346 51.2949 1.11584 51.2949 1.11584C51.2949 1.11584 51.3645 0.937214 51.3866 0.874452C51.4076 0.816519 51.4677 0.636925 51.4677 0.636925L51.4666 0.63789Z" fill="#F26522"/>
<path d="M50.0757 7.69236V10.1449C51.7791 9.70844 52.881 8.24176 53.3414 7.12558C53.8017 6.01036 54.2399 3.87069 54.5697 3.11755C54.8973 2.36345 55.2807 1.96371 55.8401 1.6866C56.3984 1.40852 57.4992 1.58039 57.4992 1.58039L56.3984 1.07733C56.3984 1.07733 56.3499 0.480616 56.0034 0.252745C55.7495 0.0857034 54.6223 -0.309209 53.669 1.55335C53.3551 2.16648 53.1423 3.48253 51.8265 4.97528C49.6954 7.39304 46.3477 7.69333 46.3477 7.69333" fill="#F26522"/>
<path d="M57.7673 1.78614C57.7673 1.78614 55.2854 1.11508 54.3184 4.85082C53.6884 7.28499 53.581 7.55244 52.7614 8.68504C52.3601 9.2412 51.2866 9.91709 50.9748 10.144C50.1321 10.7591 50.0752 11.098 50.0752 11.098V13.1575C50.0752 13.1575 50.5218 14.0062 51.7786 14.2235C53.0364 14.4407 54.2088 13.7938 54.5744 12.8398C54.6839 12.5531 54.922 11.4832 54.0087 11.098C53.4146 10.8479 52.3327 11.0236 52.0577 11.182C51.7196 11.3751 51.7617 11.5663 51.925 11.5836C52.0904 11.601 52.3274 11.5006 52.2726 11.6676C52.2179 11.8347 52.102 11.8096 52.0567 11.9187C51.9524 12.1688 52.2726 12.2035 52.437 12.1359C52.6013 12.0693 53.0395 11.8511 53.3872 11.9853C53.7348 12.1195 53.6832 12.5936 53.4915 12.8109C53.3092 13.0156 52.831 13.395 51.8028 13.1981C51.3351 13.1083 50.466 12.3812 51.3035 11.3394C51.925 10.5659 52.9711 10.1923 53.8444 9.80895C55.2507 9.18906 55.5204 7.70886 55.5204 7.70886C55.5204 7.70886 55.8775 7.54569 56.242 7.71273C56.6075 7.88073 56.4821 8.1086 56.4821 8.1086C56.4821 8.1086 56.3136 8.59428 56.4758 8.91774C56.6949 9.35611 57.1879 9.48935 57.1879 9.48935C57.1879 9.48935 57.2659 9.42562 57.2427 9.17072C57.2206 8.91774 57.2796 8.58559 57.4439 8.434C57.6082 8.28337 57.7684 8.21675 57.7684 8.21675" fill="#ED1C24"/>
<path d="M55.6292 7.85509C55.6292 7.85509 55.7103 7.74308 56.0042 7.82226C56.2876 7.8995 56.3487 8.05013 56.3487 8.05013C56.3487 8.05013 55.841 9.54192 55.1246 10.2419C54.4083 10.9429 53.9026 10.9912 54.087 10.7547C54.2861 10.4998 54.62 10.1454 55.0351 9.39419C55.4596 8.62464 55.6292 7.85316 55.6292 7.85316V7.85509Z" fill="#ED1C24"/>
<path d="M55.8916 0.0478516C55.8916 0.0478516 56.2592 0.120269 56.4857 0.428281C56.6711 0.67836 56.6648 0.974786 56.6648 0.974786L57.7678 1.47977V0.0478516H55.8916Z" fill="#004280"/>
<path d="M46.3477 3.89551C46.3477 3.89551 47.3611 4.71816 48.2101 4.95279C49.0592 5.18742 49.5153 5.22605 49.7576 5.2386C49.9999 5.25212 50.0757 5.2386 50.0757 5.2386C50.0757 5.2386 49.923 4.96534 50.0631 4.69209C50.258 4.31553 50.9111 4.15331 51.166 4.56947C51.5052 5.1208 50.7626 5.67503 50.5898 5.78993C50.2327 6.02746 49.8071 6.36347 48.6905 6.80377C47.518 7.2682 46.3477 7.44393 46.3477 7.44393V6.85687C46.9123 6.80956 47.4443 6.75066 48.4345 6.43975C49.5543 6.08636 49.9862 5.62965 49.9862 5.62965C49.9862 5.62965 48.917 5.66924 47.6802 5.27915C46.8997 5.03197 46.3477 4.72878 46.3477 4.72878V3.89551Z" fill="#ED1C24"/>
<path d="M46.3472 5.12109C46.3472 5.12109 47.0109 5.41269 47.7156 5.56139C48.4762 5.7207 49.301 5.83947 49.301 5.83947C49.301 5.83947 49.0019 6.10017 47.9063 6.36087C46.9256 6.59357 46.3462 6.63412 46.3462 6.63412L46.3409 6.08665C46.3409 6.08665 46.5653 6.11465 47.0952 6.08665C48.0769 6.03548 48.4467 5.94375 48.4467 5.94375C48.4467 5.94375 47.4818 5.87809 47.2458 5.83947C47.0151 5.80278 46.3398 5.66857 46.3398 5.66857L46.3451 5.12109H46.3472Z" fill="#F26522"/>
<path d="M57.7674 9.54144C57.7674 9.54144 56.7529 9.48157 55.9976 10.1449C55.2413 10.8082 55.0116 11.3335 54.8947 11.8279C54.7778 12.3222 54.5744 12.9711 55.0116 13.8073C55.2939 14.3441 55.7037 14.4629 55.9376 14.4947C56.1725 14.5266 56.5623 14.4011 56.6328 14.0245C56.6834 13.7542 56.5939 13.5253 56.3368 13.3979C56.1883 13.3245 55.9365 13.3332 55.9365 13.3332C55.9365 13.3332 55.8902 12.9141 56.1946 12.6148C56.4011 12.413 56.8246 12.2836 57.2396 12.3329C57.6431 12.3811 57.7653 12.4622 57.7653 12.4622V11.7632C57.7653 11.7632 57.2396 11.6126 56.7466 11.7304C56.2536 11.8482 55.8902 12.106 55.6553 12.4294C55.4193 12.7529 55.4193 12.9566 55.4193 12.9566C55.4193 12.9566 55.2086 12.6138 55.3761 11.9911C55.8143 10.3602 57.7642 10.2675 57.7642 10.2675V9.54047L57.7674 9.54144Z" fill="#004280"/>
<path d="M55.5207 0.906725C55.5207 1.02645 55.4153 1.12301 55.2847 1.12301C55.1541 1.12301 55.0498 1.02645 55.0498 0.906725C55.0498 0.786996 55.1551 0.691406 55.2847 0.691406C55.4143 0.691406 55.5207 0.787962 55.5207 0.906725Z" fill="#004280"/>
<path d="M57.7676 4.31444C57.756 4.31444 57.7445 4.31348 57.7329 4.31348C57.559 4.31348 57.4189 4.44286 57.4189 4.60218C57.4189 4.7615 57.559 4.89088 57.7329 4.89088C57.7445 4.89088 57.756 4.89088 57.7676 4.88895" fill="#004280"/>
<path d="M55.04 3.12641C55.0653 3.15538 55.0674 3.15538 55.098 3.18242C55.5478 3.59471 56.4011 3.71347 56.8509 3.30214C57.2996 2.88985 57.3344 2.27576 56.8867 1.86347C56.8561 1.83546 56.8498 1.81808 56.8182 1.79395C56.8182 1.79395 56.4253 1.80843 55.7574 2.29797C55.2834 2.64653 55.0411 3.12545 55.0411 3.12545L55.04 3.12641Z" fill="#F26522"/>
<path d="M53.2587 19.5828C53.2587 19.5828 53.3346 17.9829 53.0175 17.559C52.7015 17.1351 52.1326 17.3456 51.706 17.6363C51.3362 17.8892 50.8906 18.2079 51.2077 18.6327C51.5237 19.0566 53.2598 19.5828 53.2598 19.5828H53.2587Z" fill="#ED1C24"/>
<path d="M55.4158 17.7364C55.5275 17.1947 54.965 16.9669 54.4351 16.8867C53.9063 16.8076 53.3385 16.9234 53.2289 17.4632C53.1173 18.0048 54.058 19.3875 54.058 19.3875C54.058 19.3875 55.3042 18.2771 55.4158 17.7355V17.7364Z" fill="#ED1C24"/>
<path d="M56.9289 19.0959C57.3408 18.7415 57.3071 18.4026 56.8468 17.9604C56.5307 17.6572 56.0546 17.4004 55.6427 17.7547C55.2308 18.11 54.9854 19.6665 54.9854 19.6665C54.9854 19.6665 56.5191 19.4502 56.93 19.0968L56.9289 19.0959Z" fill="#ED1C24"/>
<path d="M57.6891 21.0795C57.6891 20.8864 57.5711 20.7773 57.314 20.7985C56.6788 20.8497 55.3842 21.0563 55.2988 21.0795H57.688H57.6891Z" fill="#ED1C24"/>
<path d="M54.9518 21.0799C55.0403 20.966 55.1056 20.8337 55.1393 20.6898C55.2678 20.1298 54.8675 19.592 54.245 19.4877C53.6224 19.3854 53.0114 19.7552 52.8829 20.3152C52.8186 20.5923 52.8839 20.8636 53.043 21.0799H54.9529H54.9518Z" fill="#004280"/>
<path d="M54.6874 21.0639C54.7516 20.9819 54.798 20.8872 54.8222 20.7839C54.9149 20.3822 54.6284 19.996 54.1817 19.9226C53.7351 19.8483 53.2968 20.1138 53.2041 20.5155C53.1578 20.7144 53.2052 20.9085 53.319 21.0639H54.6874Z" fill="#00AEEF"/>
<path d="M50.0889 21.0795H52.4401C52.1641 20.9318 51.1002 20.5456 50.6061 20.4905C50.3459 20.4625 50.1194 20.5485 50.0889 20.7445V21.0785V21.0795Z" fill="#ED1C24"/>
<path d="M51.0812 18.7651C50.5945 18.5864 50.2669 18.6955 50.1057 19.0229L50.0752 19.9015C50.1057 20.113 50.0204 20.2771 50.2058 20.3389C50.7957 20.5349 52.6972 20.2771 52.6972 20.2771C52.6972 20.2771 51.6638 18.9804 51.0812 18.7651Z" fill="#ED1C24"/>
<path d="M57.7937 19.4357C57.7937 19.1305 57.5008 18.9258 56.8593 19.2705C56.3368 19.5486 55.3213 20.2593 55.3213 20.2593C55.3213 20.2593 56.6191 20.6474 57.2185 20.7034C57.7368 20.7536 57.7937 20.63 57.7937 20.4263V19.4357Z" fill="#ED1C24"/>
<path d="M48.0527 3.70794C48.0527 3.70794 48.1992 3.9474 48.412 4.0903C48.6247 4.2332 49.2631 4.42052 49.2631 4.42052C49.2631 4.42052 49.3 4.14147 49.6655 3.89429C49.8678 3.75815 50.1217 3.70794 50.1217 3.70794C50.1217 3.70794 49.8499 3.57856 49.8099 3.35551C49.7761 3.15661 49.8235 3.0166 49.8235 3.0166L49.457 3.24254C49.457 3.24254 49.4991 3.36999 49.5475 3.45979C49.5971 3.54959 49.695 3.63263 49.695 3.63263C49.695 3.63263 49.3674 3.76877 49.2621 3.89526C49.1557 4.02175 49.123 4.11927 49.123 4.11927C49.123 4.11927 48.8934 4.08644 48.7227 3.95319C48.55 3.81898 48.4573 3.61138 48.4573 3.61138L48.0527 3.70601V3.70794Z" fill="#F26522"/>
<path d="M48.75 3.52551C48.75 3.52551 48.8364 3.65972 48.9249 3.71669L49.0155 3.77269C49.0155 3.77269 49.0155 3.71958 49.1377 3.6491C49.2609 3.57861 49.3009 3.57861 49.3009 3.57861C49.3009 3.57861 49.2493 3.53806 49.2198 3.45116L49.1903 3.36426L48.75 3.52551Z" fill="#F26522"/>
<path d="M53.2313 1.11426C53.2313 1.11426 52.5771 1.26875 52.1905 1.66945C51.8039 2.06919 52.3633 2.36852 52.5718 2.13099C52.7804 1.89346 52.575 1.27647 53.2313 1.11426Z" fill="#ED1C24"/>
<path d="M52.4967 0.875629C51.8098 1.07453 51.1851 1.36034 51.1851 1.36034C51.1851 1.36034 51.2083 1.36517 51.0398 1.64132C50.8723 1.91746 50.8301 1.98216 50.8301 1.98216C50.8301 1.98216 51.3263 1.87788 51.8562 1.57952C52.386 1.28116 52.3987 1.21454 52.8085 1.07647C53.2182 0.939356 53.4837 0.906527 53.4837 0.906527C53.4837 0.906527 52.9907 1.48007 52.8211 1.95512C52.6526 2.43018 52.4229 3.27987 52.2185 3.61202C52.0131 3.94224 51.8562 4.10831 51.8562 4.10831C51.8562 4.10831 51.7898 3.96541 51.5812 3.85244C51.7445 3.7974 51.9141 3.71243 52.0374 3.58208C52.248 3.35711 52.3228 3.07517 52.3007 2.80867C52.2828 2.5808 52.2101 2.42824 52.0563 2.25831C51.9025 2.08837 51.5854 1.9416 51.1314 2.00726C50.7817 2.05747 50.7353 2.11637 50.7353 2.11637C50.7353 2.11637 50.63 2.28148 50.4361 2.47556C50.2413 2.66963 50.0748 2.81833 50.0748 2.81833C50.0748 2.81833 49.94 3.09255 50.0348 3.35325C50.1138 3.56857 50.3161 3.62167 50.4477 3.61878C50.7269 3.61298 50.8702 3.46622 50.926 3.35325C50.9808 3.24028 50.9618 3.09834 50.8817 3.01337C50.8017 2.9284 50.6974 2.90137 50.6532 2.90523C50.5752 2.91102 50.5605 2.91682 50.5057 2.94578C50.5057 2.94578 50.5973 2.74205 50.7648 2.64646C50.9323 2.54894 51.163 2.44756 51.5054 2.53252C51.7477 2.59239 51.8983 2.82316 51.9225 2.97378C51.9615 3.22097 51.8604 3.37739 51.755 3.49036C51.6697 3.58305 51.4917 3.69892 51.282 3.75009C51.2652 3.74623 51.2494 3.7414 51.2315 3.73947C51.4222 3.68347 51.5623 3.58981 51.655 3.45849C51.7866 3.27311 51.7951 3.06165 51.6792 2.91102C51.5802 2.78453 51.4822 2.72177 51.2957 2.69957C51.1082 2.67832 50.9586 2.76522 50.9586 2.76522C50.9586 2.76522 51.2431 2.76812 51.3295 2.9873C51.3927 3.14758 51.3474 3.29145 51.2568 3.43146C51.1304 3.62457 50.7448 3.72692 50.7448 3.72692C50.473 3.75299 50.1675 3.82734 49.9263 3.98762C49.5291 4.25315 49.4744 4.64999 49.4744 4.64999C49.4744 4.64999 48.9887 4.55923 48.5821 4.37674C48.027 4.12956 47.6857 3.7752 47.6857 3.7752C47.6857 3.7752 47.6288 3.78968 47.3644 3.81865C47.0989 3.84858 46.7607 3.87561 46.7607 3.87561C46.7607 3.87561 47.5255 4.49743 48.3809 4.76199C49.2352 5.02752 49.7872 5.05746 49.7872 5.05746C49.7872 5.05746 49.6608 4.56888 50.0991 4.27053C50.7617 3.82058 51.3927 4.21452 51.4969 4.5795C51.5559 4.7842 51.5064 4.96862 51.5064 4.96862C51.5064 4.96862 52.2681 4.21839 52.5925 3.5116C52.918 2.80578 53.0023 2.2081 53.2678 1.66739C53.5332 1.12667 54.0389 0.673828 54.0389 0.673828C54.0389 0.673828 53.1845 0.67769 52.4977 0.875629H52.4967Z" fill="#004280"/>
<path d="M55.0994 3.53389C55.1753 3.57444 55.1985 3.66424 55.1532 3.73183C55.1079 3.80039 55.012 3.82259 54.9361 3.78107C54.8614 3.73955 54.8382 3.65072 54.8835 3.58217C54.9288 3.51361 55.0257 3.49237 55.0994 3.53389Z" fill="#F26522"/>
<path d="M55.2974 3.65712C55.3365 3.67937 55.3491 3.72578 55.3249 3.76156C55.3016 3.79734 55.2499 3.80895 55.212 3.78671C55.1729 3.7664 55.1603 3.71901 55.1835 3.68323C55.2078 3.64745 55.2573 3.63585 55.2974 3.65712Z" fill="#F26522"/>
<path d="M54.9388 3.83174C55.0125 3.87326 55.0367 3.96209 54.9925 4.03065C54.9472 4.09824 54.8503 4.12044 54.7755 4.07893C54.7007 4.03741 54.6765 3.94858 54.7228 3.88002C54.7671 3.81147 54.8661 3.79022 54.9398 3.83174H54.9388Z" fill="#F26522"/>
<path d="M55.1385 3.95642C55.1765 3.97866 55.1902 4.02508 55.1659 4.05989C55.1427 4.09664 55.0921 4.10728 55.053 4.086C55.0129 4.06376 55.0013 4.01734 55.0245 3.98156C55.0478 3.94675 55.0984 3.93418 55.1385 3.95642Z" fill="#F26522"/>
<path d="M54.7745 4.19481C54.8492 4.23633 54.8735 4.32516 54.8282 4.39372C54.7829 4.4613 54.686 4.48351 54.6112 4.44296C54.5374 4.40144 54.5122 4.31261 54.5585 4.24405C54.6038 4.17646 54.7018 4.15426 54.7755 4.19578L54.7745 4.19481Z" fill="#F26522"/>
<path d="M54.9701 4.31629C55.0092 4.33854 55.0218 4.38495 54.9986 4.42073C54.9744 4.45651 54.9248 4.46715 54.8857 4.44588C54.8457 4.42363 54.8341 4.37722 54.8583 4.34144C54.8815 4.30566 54.9322 4.29405 54.9712 4.31533L54.9701 4.31629Z" fill="#F26522"/>
<path d="M54.6927 4.55245C54.7675 4.59397 54.7917 4.6828 54.7464 4.75135C54.7011 4.81894 54.6042 4.84115 54.5294 4.79963C54.4546 4.75811 54.4304 4.66928 54.4767 4.60072C54.521 4.53217 54.6179 4.51093 54.6927 4.55245Z" fill="#F26522"/>
<path d="M54.8909 4.67274C54.9289 4.69401 54.9416 4.7414 54.9184 4.77718C54.8941 4.81296 54.8434 4.8236 54.8044 4.80135C54.7664 4.78008 54.7538 4.73366 54.778 4.69788C54.8012 4.6621 54.8519 4.6505 54.892 4.67177L54.8909 4.67274Z" fill="#F26522"/>
<path d="M54.612 4.91767C54.6857 4.95822 54.7099 5.04802 54.6646 5.11561C54.6204 5.18416 54.5235 5.20637 54.4476 5.16389C54.3739 5.12237 54.3497 5.03354 54.3949 4.96498C54.4402 4.89643 54.5372 4.87518 54.612 4.9167V4.91767Z" fill="#F26522"/>
<path d="M54.8101 5.0402C54.8491 5.06244 54.8607 5.10886 54.8375 5.14367C54.8132 5.17945 54.7626 5.19106 54.7246 5.16881C54.6845 5.14754 54.6729 5.10112 54.6972 5.06534C54.7204 5.02956 54.7721 5.01892 54.8101 5.0402Z" fill="#F26522"/>
<path d="M54.5329 5.26143C54.6066 5.30198 54.6298 5.39178 54.5856 5.45937C54.5403 5.52792 54.4433 5.55013 54.3686 5.50861C54.2938 5.46709 54.2695 5.3773 54.3148 5.30971C54.3612 5.24115 54.457 5.21991 54.5329 5.26143Z" fill="#F26522"/>
<path d="M54.73 5.38199C54.768 5.40326 54.7806 5.45065 54.7585 5.48546C54.7342 5.52124 54.6836 5.53188 54.6445 5.5106C54.6044 5.48836 54.5928 5.44194 54.6171 5.40616C54.6393 5.37038 54.691 5.35974 54.73 5.38102V5.38199Z" fill="#F26522"/>
<path d="M54.3729 5.61471C54.4477 5.65623 54.4719 5.74409 54.4266 5.81265C54.3802 5.8812 54.2844 5.90341 54.2096 5.86093C54.1348 5.82037 54.1116 5.73058 54.1569 5.66202C54.2012 5.59443 54.2991 5.57223 54.3729 5.61374V5.61471Z" fill="#F26522"/>
<path d="M54.5715 5.7333C54.6105 5.75554 54.6232 5.80196 54.5999 5.83774C54.5757 5.87352 54.525 5.88512 54.4871 5.86288C54.448 5.8416 54.4354 5.79519 54.4596 5.75941C54.4828 5.72363 54.5335 5.71202 54.5725 5.7333H54.5715Z" fill="#F26522"/>
<path d="M54.2936 5.97704C54.3683 6.01855 54.3926 6.10739 54.3473 6.17594C54.302 6.24449 54.2051 6.26574 54.1303 6.22518C54.0555 6.18367 54.0313 6.09483 54.0765 6.02628C54.1218 5.95869 54.2188 5.93648 54.2936 5.978V5.97704Z" fill="#F26522"/>
<path d="M54.49 6.09727C54.529 6.11854 54.5417 6.16593 54.5185 6.20074C54.4952 6.23749 54.4436 6.24813 54.4056 6.22685C54.3655 6.20461 54.3539 6.15819 54.3771 6.12241C54.4003 6.08663 54.452 6.07503 54.49 6.09727Z" fill="#F26522"/>
<path d="M54.212 6.36636C54.2867 6.40788 54.311 6.49671 54.2657 6.56527C54.2204 6.63382 54.1235 6.65506 54.0487 6.61354C53.9749 6.57299 53.9497 6.48319 53.996 6.41561C54.0413 6.34705 54.1382 6.32484 54.213 6.36733L54.212 6.36636Z" fill="#F26522"/>
<path d="M54.4107 6.48692C54.4487 6.50819 54.4624 6.55558 54.4392 6.59039C54.4149 6.62617 54.3643 6.63777 54.3253 6.61553C54.2862 6.59426 54.2736 6.54784 54.2968 6.51206C54.321 6.47628 54.3727 6.46468 54.4107 6.48692Z" fill="#F26522"/>
<path d="M54.0934 6.7292C54.1682 6.77072 54.1913 6.85955 54.1471 6.92811C54.1018 6.99666 54.0049 7.01791 53.9301 6.97639C53.8553 6.93487 53.8311 6.84604 53.8764 6.77748C53.9206 6.70893 54.0186 6.68768 54.0934 6.7292Z" fill="#F26522"/>
<path d="M54.2913 6.8502C54.3292 6.87147 54.343 6.91886 54.3187 6.95367C54.2955 6.98945 54.2448 7.00106 54.2058 6.97978C54.1668 6.95754 54.1541 6.91112 54.1784 6.87534C54.2026 6.83956 54.2522 6.82796 54.2923 6.8502H54.2913Z" fill="#F26522"/>
<path d="M53.9227 7.12249C53.9964 7.16401 54.0206 7.25285 53.9764 7.3214C53.9311 7.38899 53.8342 7.4112 53.7594 7.36968C53.6846 7.32816 53.6614 7.23933 53.7067 7.17174C53.752 7.10318 53.8489 7.08098 53.9227 7.12249Z" fill="#F26522"/>
<path d="M54.1212 7.24603C54.1602 7.2673 54.1729 7.31372 54.1486 7.35047C54.1254 7.38625 54.0748 7.39689 54.0357 7.37561C53.9967 7.35337 53.9851 7.30792 54.0072 7.27117C54.0315 7.23636 54.0811 7.22475 54.1212 7.24603Z" fill="#F26522"/>
<path d="M53.7758 7.46293C53.8495 7.50444 53.8737 7.59327 53.8284 7.66183C53.7831 7.73038 53.6862 7.75259 53.6114 7.71011C53.5366 7.66859 53.5124 7.57976 53.5587 7.5112C53.604 7.44361 53.6999 7.42237 53.7758 7.46293Z" fill="#F26522"/>
<path d="M53.9738 7.58728C54.0128 7.60855 54.0255 7.65594 54.0012 7.69075C53.977 7.7275 53.9263 7.73814 53.8873 7.71686C53.8482 7.69559 53.8366 7.6482 53.8588 7.61242C53.8831 7.57761 53.9337 7.56504 53.9727 7.58728H53.9738Z" fill="#F26522"/>
<path d="M53.6222 7.82686C53.697 7.86838 53.7212 7.95721 53.6759 8.02576C53.6306 8.09335 53.5326 8.1146 53.4589 8.07404C53.3841 8.03252 53.3609 7.94369 53.4052 7.87514C53.4505 7.80658 53.5484 7.78534 53.6222 7.82686Z" fill="#F26522"/>
<path d="M53.8214 7.95035C53.8594 7.97259 53.872 8.01901 53.8488 8.05382C53.8256 8.09057 53.7739 8.10024 53.7349 8.07896C53.6969 8.05672 53.6832 8.0103 53.7074 7.97452C53.7306 7.93874 53.7823 7.9281 53.8214 7.94938V7.95035Z" fill="#F26522"/>
<path d="M53.4497 8.11778C53.5182 8.16703 53.5308 8.25682 53.4771 8.32055C53.4233 8.38331 53.3243 8.3949 53.2558 8.34565C53.1874 8.29544 53.1747 8.20468 53.2295 8.14289C53.2822 8.07916 53.3823 8.06854 53.4497 8.11778Z" fill="#F26522"/>
<path d="M53.6316 8.25974C53.6685 8.28585 53.6748 8.33324 53.6463 8.36611C53.6189 8.39899 53.5672 8.40576 53.5303 8.37965C53.4944 8.35451 53.487 8.30616 53.5155 8.27425C53.5429 8.24137 53.5946 8.23557 53.6305 8.26071L53.6316 8.25974Z" fill="#F26522"/>
<path d="M53.2356 8.45049C53.3041 8.49877 53.3168 8.58953 53.263 8.65326C53.2093 8.71602 53.1103 8.72761 53.0408 8.67836C52.9723 8.63009 52.9607 8.53836 53.0134 8.4756C53.066 8.41284 53.1661 8.40125 53.2346 8.45049H53.2356Z" fill="#F26522"/>
<path d="M53.4167 8.59225C53.4526 8.6174 53.4589 8.66575 53.4305 8.69863C53.402 8.73151 53.3513 8.73731 53.3134 8.71217C53.2775 8.68702 53.2722 8.63964 53.2996 8.60579C53.3281 8.57388 53.3798 8.56711 53.4167 8.59322V8.59225Z" fill="#F26522"/>
<path d="M53.0218 8.73771C53.0819 8.79564 53.0787 8.88737 53.0155 8.9424C52.9523 8.99647 52.8522 8.99454 52.7932 8.93661C52.7332 8.87771 52.7364 8.78695 52.7985 8.73191C52.8628 8.67688 52.9618 8.67977 53.0218 8.73771Z" fill="#F26522"/>
<path d="M53.1779 8.90252C53.2096 8.9325 53.2075 8.98085 53.1748 9.00987C53.141 9.03791 53.0893 9.03694 53.0587 9.00696C53.0271 8.97602 53.0292 8.9296 53.0619 8.90059C53.0946 8.87158 53.1473 8.87351 53.179 8.90349L53.1779 8.90252Z" fill="#F26522"/>
<path d="M52.7976 9.0303C52.8566 9.08823 52.8534 9.17996 52.7902 9.235C52.728 9.28907 52.628 9.28714 52.5679 9.2292C52.5079 9.17031 52.51 9.07858 52.5742 9.02451C52.6374 8.97044 52.7365 8.97237 52.7976 9.0303Z" fill="#F26522"/>
<path d="M52.9525 9.19692C52.9842 9.22787 52.9821 9.27525 52.9493 9.30426C52.9166 9.3323 52.8639 9.33134 52.8322 9.30136C52.8016 9.27041 52.8038 9.22303 52.8365 9.19402C52.8692 9.16501 52.9219 9.16597 52.9525 9.19595V9.19692Z" fill="#F26522"/>
<path d="M52.4467 9.29397C52.5068 9.35191 52.5047 9.44363 52.4414 9.49867C52.3782 9.55371 52.2782 9.55081 52.2181 9.49288C52.1591 9.43494 52.1623 9.34322 52.2244 9.28818C52.2887 9.23411 52.3888 9.23604 52.4478 9.29397H52.4467Z" fill="#F26522"/>
<path d="M52.6024 9.46048C52.6341 9.49046 52.632 9.53881 52.5993 9.56685C52.5655 9.59587 52.5127 9.5949 52.4821 9.56395C52.4515 9.53301 52.4526 9.48562 52.4853 9.45758C52.518 9.42857 52.5708 9.42954 52.6024 9.46048Z" fill="#F26522"/>
<path d="M52.1049 9.5585C52.1639 9.61643 52.1618 9.70816 52.0975 9.76223C52.0343 9.81727 51.9343 9.81534 51.8753 9.75644C51.8152 9.69851 51.8184 9.60678 51.8805 9.55174C51.9437 9.49767 52.0438 9.4996 52.1049 9.5585Z" fill="#F26522"/>
<path d="M52.2599 9.7238C52.2916 9.75475 52.2895 9.80213 52.2557 9.83114C52.223 9.86016 52.1713 9.85822 52.1397 9.82824C52.108 9.7973 52.1101 9.74991 52.1439 9.7209C52.1766 9.69189 52.2283 9.69383 52.2599 9.7238Z" fill="#F26522"/>
<path d="M51.7753 9.81779C51.8343 9.87573 51.8322 9.96746 51.769 10.0225C51.7058 10.0775 51.6057 10.0746 51.5456 10.0167C51.4867 9.95877 51.4888 9.86704 51.552 9.81297C51.6162 9.75793 51.7152 9.76083 51.7753 9.81876V9.81779Z" fill="#F26522"/>
<path d="M51.9304 9.98551C51.9621 10.0155 51.96 10.0638 51.9273 10.0919C51.8946 10.1209 51.8418 10.119 51.8102 10.089C51.7796 10.0571 51.7806 10.0097 51.8144 9.98164C51.8471 9.95263 51.8998 9.95457 51.9315 9.98455L51.9304 9.98551Z" fill="#F26522"/>
<path d="M51.4028 10.0821C51.4618 10.141 51.4597 10.2317 51.3965 10.2868C51.3322 10.3418 51.2342 10.3399 51.1731 10.281C51.1131 10.223 51.1162 10.1313 51.1784 10.0763C51.2416 10.0222 51.3417 10.0241 51.4017 10.0821H51.4028Z" fill="#F26522"/>
<path d="M51.5579 10.2493C51.5896 10.2793 51.5874 10.3277 51.5537 10.3557C51.522 10.3847 51.4693 10.3828 51.4376 10.3518C51.406 10.3219 51.4081 10.2745 51.4408 10.2445C51.4735 10.2164 51.5263 10.2184 51.5579 10.2484V10.2493Z" fill="#F26522"/>
<path d="M51.0286 10.3465C51.0897 10.4034 51.0855 10.4951 51.0223 10.5502C50.9581 10.6043 50.858 10.6023 50.799 10.5444C50.7389 10.4865 50.7421 10.3947 50.8053 10.3407C50.8685 10.2856 50.9686 10.2876 51.0286 10.3465Z" fill="#F26522"/>
<path d="M51.1833 10.5119C51.2149 10.5418 51.2128 10.5902 51.1801 10.6182C51.1474 10.6473 51.0947 10.6463 51.063 10.6153C51.0314 10.5844 51.0324 10.536 51.0662 10.509C51.0999 10.4809 51.1516 10.4809 51.1833 10.5119Z" fill="#F26522"/>
<path d="M50.7351 10.5951C50.7941 10.6531 50.793 10.7448 50.7287 10.7998C50.6645 10.8539 50.5655 10.852 50.5054 10.794C50.4454 10.7351 50.4475 10.6444 50.5117 10.5893C50.576 10.5343 50.675 10.5372 50.7351 10.5951Z" fill="#F26522"/>
<path d="M50.8914 10.7615C50.922 10.7915 50.9209 10.8398 50.8872 10.8679C50.8545 10.8969 50.8017 10.895 50.7701 10.865C50.7374 10.834 50.7405 10.7866 50.7732 10.7576C50.8059 10.7296 50.8576 10.7306 50.8903 10.7605L50.8914 10.7615Z" fill="#F26522"/>
<path d="M50.4431 10.9291C50.501 10.987 50.4989 11.0788 50.4368 11.1338C50.3725 11.1888 50.2724 11.186 50.2135 11.1271C50.1524 11.0691 50.1566 10.9774 50.2198 10.9233C50.2819 10.8683 50.3831 10.8712 50.4431 10.9291Z" fill="#F26522"/>
<path d="M50.5975 11.0943C50.6292 11.1252 50.6271 11.1726 50.5944 11.2016C50.5606 11.2306 50.5079 11.2287 50.4773 11.1987C50.4467 11.1678 50.4477 11.1204 50.4804 11.0923C50.5142 11.0633 50.5659 11.0643 50.5975 11.0952V11.0943Z" fill="#F26522"/>
<path d="M50.1508 13.0837C50.1888 13.0431 50.2563 13.0383 50.3006 13.0731C50.3449 13.1079 50.3492 13.1698 50.3122 13.2104C50.2732 13.251 50.2057 13.2558 50.1614 13.221C50.116 13.1862 50.1118 13.1253 50.1498 13.0837H50.1508Z" fill="#F26522"/>
<path d="M50.2598 12.9783C50.2798 12.9571 50.3147 12.9551 50.3379 12.9735C50.3611 12.9919 50.3632 13.0238 50.3431 13.0451C50.3231 13.0663 50.2883 13.0683 50.2651 13.0499C50.2419 13.0325 50.2397 12.9996 50.2598 12.9783Z" fill="#F26522"/>
<path d="M50.3046 13.2717C50.3415 13.2311 50.4101 13.2262 50.4544 13.2611C50.4987 13.2959 50.504 13.3587 50.4649 13.3984C50.427 13.439 50.3594 13.4438 50.3151 13.409C50.2708 13.3742 50.2655 13.3133 50.3046 13.2717Z" fill="#F26522"/>
<path d="M50.4146 13.1633C50.4347 13.141 50.4705 13.1391 50.4927 13.1575C50.5159 13.1759 50.5191 13.2087 50.499 13.229C50.479 13.2503 50.4442 13.2523 50.4209 13.2349C50.3977 13.2165 50.3946 13.1846 50.4146 13.1633Z" fill="#F26522"/>
<path d="M50.4815 13.4631C50.5206 13.4215 50.587 13.4176 50.6324 13.4515C50.6767 13.4873 50.682 13.5482 50.644 13.5888C50.606 13.6294 50.5385 13.6343 50.4942 13.5994C50.4499 13.5637 50.4446 13.5027 50.4815 13.4631Z" fill="#F26522"/>
<path d="M50.593 13.3533C50.613 13.3321 50.6489 13.3301 50.671 13.3485C50.6943 13.3669 50.6964 13.3988 50.6774 13.4201C50.6563 13.4423 50.6215 13.4442 50.5983 13.4249C50.575 13.4075 50.5729 13.3746 50.5919 13.3533H50.593Z" fill="#F26522"/>
<path d="M50.6954 13.6017C50.7344 13.5601 50.8009 13.5572 50.8462 13.5911C50.8895 13.6268 50.8948 13.6887 50.8557 13.7294C50.8188 13.77 50.7513 13.7738 50.7059 13.74C50.6616 13.7052 50.6563 13.6433 50.6943 13.6027L50.6954 13.6017Z" fill="#F26522"/>
<path d="M50.8054 13.4968C50.8255 13.4755 50.8614 13.4726 50.8846 13.492C50.9078 13.5094 50.9109 13.5422 50.8898 13.5625C50.8708 13.5848 50.836 13.5867 50.8118 13.5683C50.7896 13.55 50.7864 13.5171 50.8054 13.4968Z" fill="#F26522"/>
<path d="M50.9072 13.7461C50.9452 13.7055 51.0127 13.7007 51.057 13.7365C51.1013 13.7713 51.1066 13.8332 51.0686 13.8738C51.0307 13.9144 50.9631 13.9192 50.9188 13.8844C50.8745 13.8496 50.8692 13.7877 50.9072 13.7471V13.7461Z" fill="#F26522"/>
<path d="M51.0185 13.6376C51.0375 13.6163 51.0723 13.6134 51.0955 13.6318C51.1187 13.6511 51.1219 13.683 51.1018 13.7043C51.0818 13.7256 51.047 13.7275 51.0227 13.7091C50.9995 13.6908 50.9974 13.6589 51.0185 13.6376Z" fill="#F26522"/>
<path d="M51.1635 13.8697C51.2015 13.8281 51.269 13.8242 51.3144 13.859C51.3577 13.8948 51.3629 13.9557 51.3249 13.9964C51.287 14.0379 51.2194 14.0408 51.1741 14.006C51.1298 13.9702 51.1255 13.9103 51.1635 13.8687V13.8697Z" fill="#F26522"/>
<path d="M51.2745 13.7601C51.2946 13.7388 51.3294 13.7369 51.3515 13.7552C51.3758 13.7726 51.3779 13.8055 51.3579 13.8268C51.3378 13.8481 51.303 13.851 51.2787 13.8326C51.2555 13.8142 51.2534 13.7813 51.2735 13.761L51.2745 13.7601Z" fill="#F26522"/>
<path d="M51.4247 13.9893C51.45 13.941 51.5133 13.9216 51.5661 13.9448C51.6188 13.969 51.641 14.028 51.6146 14.0754C51.5893 14.1237 51.5249 14.1441 51.4732 14.1208C51.4205 14.0967 51.3973 14.0386 51.4247 13.9903V13.9893Z" fill="#F26522"/>
<path d="M51.5019 13.8591C51.5145 13.8339 51.5483 13.8233 51.5768 13.8359C51.6042 13.8475 51.6148 13.8784 51.6021 13.9036C51.5884 13.9277 51.5546 13.9393 51.5272 13.9268C51.4998 13.9152 51.4882 13.8842 51.5019 13.8591Z" fill="#F26522"/>
<path d="M51.6735 14.0518C51.6988 14.0034 51.7631 13.9831 51.8148 14.0073C51.8676 14.0305 51.8898 14.0904 51.8634 14.1378C51.8381 14.1862 51.7737 14.2065 51.7209 14.1833C51.6682 14.1591 51.6471 14.1001 51.6735 14.0527V14.0518Z" fill="#F26522"/>
<path d="M51.7521 13.9213C51.7647 13.8971 51.7985 13.8855 51.8259 13.8971C51.8523 13.9097 51.8649 13.9406 51.8523 13.9658C51.8386 13.9919 51.8038 14.0016 51.7774 13.988C51.7489 13.9774 51.7383 13.9455 51.7521 13.9213Z" fill="#F26522"/>
<path d="M51.961 14.1164C51.9726 14.0642 52.0286 14.0294 52.0866 14.04C52.1446 14.0506 52.1815 14.1019 52.1699 14.1551C52.1583 14.2083 52.1014 14.2421 52.0444 14.2315C51.9874 14.2208 51.9505 14.1696 51.9621 14.1164H51.961Z" fill="#F26522"/>
<path d="M52.0011 13.9741C52.0064 13.946 52.036 13.9296 52.0665 13.9344C52.0961 13.9402 52.1151 13.9663 52.1098 13.9944C52.1035 14.0224 52.0739 14.0398 52.0444 14.034C52.0149 14.0282 51.9959 14.0021 52.0022 13.9741H52.0011Z" fill="#F26522"/>
<path d="M52.2284 14.1247C52.24 14.0715 52.296 14.0377 52.354 14.0483C52.4099 14.0599 52.4468 14.1112 52.4363 14.1624C52.4247 14.2156 52.3688 14.2504 52.3107 14.2388C52.2538 14.2282 52.2168 14.177 52.2274 14.1238L52.2284 14.1247Z" fill="#F26522"/>
<path d="M52.27 13.9826C52.2742 13.9555 52.3048 13.9372 52.3354 13.943C52.366 13.9488 52.385 13.9749 52.3787 14.002C52.3724 14.03 52.3439 14.0474 52.3133 14.0416C52.2837 14.0368 52.2637 14.0097 52.2711 13.9816L52.27 13.9826Z" fill="#F26522"/>
<path d="M52.5034 14.1042C52.4981 14.051 52.5424 14.0036 52.6015 13.9998C52.6595 13.9959 52.7112 14.0365 52.7154 14.0897C52.7196 14.1429 52.6753 14.1903 52.6162 14.1951C52.5582 14.199 52.5065 14.1593 52.5034 14.1052V14.1042Z" fill="#F26522"/>
<path d="M52.4992 13.956C52.497 13.929 52.5203 13.9038 52.5519 13.9009C52.5814 13.8999 52.6089 13.9203 52.611 13.9483C52.6142 13.9763 52.5899 14.0005 52.5604 14.0025C52.5298 14.0054 52.5034 13.9841 52.5002 13.956H52.4992Z" fill="#F26522"/>
<path d="M52.7679 14.0607C52.7636 14.0076 52.8069 13.9602 52.8649 13.9563C52.924 13.9524 52.9757 13.9931 52.9799 14.0462C52.9841 14.0994 52.9409 14.1468 52.8808 14.1507C52.8227 14.1546 52.771 14.1149 52.7679 14.0607Z" fill="#F26522"/>
<path d="M52.7638 13.9117C52.7617 13.8846 52.7849 13.8595 52.8144 13.8575C52.845 13.8556 52.8725 13.8769 52.8746 13.904C52.8767 13.932 52.8535 13.9562 52.8239 13.9591C52.7933 13.962 52.7659 13.9407 52.7638 13.9117Z" fill="#F26522"/>
<path d="M53.0264 14.0066C53.0222 13.9534 53.0665 13.906 53.1246 13.9021C53.1836 13.8982 53.2332 13.9389 53.2385 13.992C53.2427 14.0452 53.1984 14.0926 53.1393 14.0965C53.0813 14.1004 53.0307 14.0597 53.0254 14.0066H53.0264Z" fill="#F26522"/>
<path d="M53.0226 13.8614C53.0205 13.8334 53.0447 13.8092 53.0743 13.8073C53.1049 13.8053 53.1313 13.8256 53.1334 13.8537C53.1355 13.8817 53.1123 13.9069 53.0827 13.9078C53.0521 13.9098 53.0258 13.8895 53.0226 13.8614Z" fill="#F26522"/>
<path d="M53.3198 13.9315C53.2945 13.8822 53.3177 13.8251 53.3715 13.8019C53.4243 13.7797 53.4876 13.8 53.5118 13.8503C53.5372 13.8977 53.5139 13.9576 53.4601 13.9799C53.4063 14.0021 53.3441 13.9799 53.3198 13.9325V13.9315Z" fill="#F26522"/>
<path d="M53.2583 13.7958C53.2446 13.7707 53.2583 13.7397 53.2847 13.7272C53.3132 13.7156 53.3459 13.7272 53.3596 13.7523C53.3723 13.7784 53.3596 13.8094 53.3322 13.82C53.3048 13.8326 53.272 13.821 53.2583 13.7958Z" fill="#F26522"/>
<path d="M53.5872 13.7669C53.5619 13.7186 53.5862 13.6605 53.6389 13.6383C53.6917 13.6151 53.755 13.6364 53.7803 13.6857C53.8046 13.735 53.7814 13.7921 53.7286 13.8153C53.6758 13.8375 53.6126 13.8162 53.5883 13.7669H53.5872Z" fill="#F26522"/>
<path d="M53.5276 13.6318C53.5149 13.6057 53.5265 13.5757 53.555 13.5631C53.5824 13.5515 53.6151 13.5631 53.6288 13.5883C53.6404 13.6124 53.6288 13.6424 53.6014 13.655C53.574 13.6675 53.5413 13.6569 53.5276 13.6308V13.6318Z" fill="#F26522"/>
<path d="M53.2908 12.152C53.0453 12.0129 52.8188 12.2176 52.5628 12.3084C52.2868 12.4059 51.9055 12.3673 51.7159 12.2321C51.2777 11.9193 51.4199 11.5195 51.4199 11.5195C51.4199 11.5195 51.2334 11.6721 51.1628 11.9521C51.0701 12.3209 51.1523 12.8617 51.8707 13.0654C52.4069 13.2179 53.0232 12.9785 53.177 12.8626C53.4119 12.683 53.6036 12.3287 53.2918 12.1529L53.2908 12.152Z" fill="#004280"/>
<path d="M52.1794 10.8777C52.1341 10.9366 52.5175 10.7242 53.2202 10.7551C53.5373 10.7705 53.867 10.8304 53.867 10.8304C53.867 10.8304 54.0176 10.6827 54.3558 10.2337C54.7929 9.65531 55.0689 9.05859 55.0689 9.05859C54.5844 9.70938 53.7922 10.0705 53.1696 10.3428C52.6671 10.5629 52.2868 10.7367 52.1794 10.8767V10.8777Z" fill="#004280"/>
<path d="M56.4856 9.30297C56.336 9.17552 56.2233 8.89551 56.2233 8.89551C56.2233 8.89551 55.9462 9.49126 55.5249 10.0436C55.2731 10.3728 54.9539 10.6789 54.6611 10.8556C54.4546 10.9801 54.3408 10.9811 54.3408 10.9811C54.3408 10.9811 54.5325 11.153 54.6115 11.3055C54.6906 11.4581 54.7422 11.6087 54.7422 11.6087C54.7422 11.6087 55.0045 10.9232 55.6218 10.2965C56.2591 9.64768 56.8848 9.5405 56.8848 9.5405C56.8848 9.5405 56.6352 9.43332 56.4856 9.30394V9.30297Z" fill="#004280"/>
<path d="M55.9332 2.54115C55.673 2.71689 55.4455 2.57495 55.4434 2.57302L55.6983 2.34128L56.0006 2.125C56.0954 2.23025 56.0912 2.43494 55.9332 2.54115Z" fill="#ED1C24"/>
<path d="M55.5601 2.65137C55.5601 2.65137 55.4495 2.7991 55.2831 2.89469C55.1166 2.99124 55.0777 3.12546 55.1851 3.16022C55.2926 3.19594 55.4495 3.08973 55.5054 2.93331C55.5612 2.77689 55.5601 2.65137 55.5601 2.65137Z" fill="#ED1C24"/>
<path d="M55.6984 2.65137C55.6984 2.65137 55.6342 2.83482 55.5331 2.99414C55.4309 3.15346 55.4783 3.26353 55.6057 3.22491C55.7311 3.18629 55.8164 3.02407 55.7732 2.88986C55.729 2.75565 55.6984 2.65137 55.6984 2.65137Z" fill="#ED1C24"/>
<path d="M55.8873 2.58594C55.8873 2.58594 55.9073 2.75684 55.8757 2.92581C55.8451 3.09479 55.9452 3.16044 56.0569 3.07644C56.1675 2.9934 56.1812 2.82926 56.0727 2.74139C55.9673 2.65353 55.8862 2.58594 55.8862 2.58594H55.8873Z" fill="#ED1C24"/>
<path d="M56.0098 2.51761C56.0098 2.51761 56.1351 2.62092 56.211 2.74934C56.2858 2.87873 56.4248 2.86618 56.4806 2.74741C56.5365 2.62865 56.448 2.51278 56.2889 2.51568C56.1309 2.51857 56.0108 2.51761 56.0108 2.51761H56.0098Z" fill="#ED1C24"/>
<path d="M56.0791 2.3693C56.0791 2.3693 56.2571 2.39248 56.3951 2.45717C56.5352 2.52186 56.669 2.44945 56.669 2.33358C56.6669 2.21675 56.5205 2.16847 56.3614 2.24185C56.2013 2.31427 56.0791 2.36834 56.0791 2.36834V2.3693Z" fill="#ED1C24"/>
<path d="M56.0576 2.20788C56.0576 2.20788 56.262 2.16636 56.4347 2.15767C56.6075 2.14898 56.7107 2.03601 56.656 1.94428C56.6012 1.85352 56.4284 1.87766 56.2999 2.00318C56.1714 2.1287 56.0576 2.20788 56.0576 2.20788Z" fill="#ED1C24"/>
<path d="M54.1219 19.256C54.1219 19.256 54.0777 17.2071 54.1388 17.1018C54.2167 16.9666 54.4337 17.041 54.4327 17.1665C54.4327 17.2467 54.1219 19.256 54.1219 19.256Z" fill="#F47721"/>
<path d="M54.081 19.2473C54.081 19.2473 53.5616 17.2544 53.5953 17.1395C53.6406 16.9917 53.8703 17.0226 53.8998 17.1453C53.9166 17.2225 54.081 19.2473 54.081 19.2473Z" fill="#F47721"/>
<path d="M54.1729 19.2128C54.1729 19.2128 55.0008 17.3078 54.984 17.191C54.9619 17.0384 54.7301 17.0384 54.6817 17.1562C54.6522 17.2296 54.1729 19.2128 54.1729 19.2128Z" fill="#F47721"/>
<path d="M55.0723 19.6017C55.0723 19.6017 56.4565 18.135 56.565 18.1002C56.7072 18.0558 56.7904 18.2509 56.704 18.3387C56.6503 18.3928 55.0723 19.6017 55.0723 19.6017Z" fill="#F47721"/>
<path d="M55.0547 19.5689C55.0547 19.5689 56.1039 17.83 56.204 17.772C56.3335 17.6977 56.4557 17.8695 56.3883 17.9738C56.3462 18.0404 55.0547 19.5689 55.0547 19.5689Z" fill="#F47721"/>
<path d="M55.1348 19.607C55.1348 19.607 56.9593 18.8094 57.0288 18.7158C57.1205 18.5951 56.9762 18.4444 56.8655 18.4956C56.796 18.5275 55.1348 19.607 55.1348 19.607Z" fill="#F47721"/>
<path d="M55.4785 20.2043C55.4785 20.2043 57.539 19.7602 57.6496 19.7911C57.7929 19.8316 57.736 20.0344 57.6096 20.0586C57.5306 20.074 55.4796 20.2043 55.4796 20.2043H55.4785Z" fill="#F47721"/>
<path d="M55.4863 20.1697C55.4863 20.1697 57.4489 19.3258 57.5668 19.3326C57.7196 19.3422 57.708 19.5459 57.5869 19.5962C57.511 19.6261 55.4874 20.1697 55.4874 20.1697H55.4863Z" fill="#F47721"/>
<path d="M55.5283 20.2417C55.5283 20.2417 57.5172 20.5777 57.6331 20.541C57.7837 20.4918 57.7647 20.2909 57.6415 20.2745C57.5646 20.2629 55.5283 20.2427 55.5283 20.2427V20.2417Z" fill="#F47721"/>
<path d="M53.1988 19.5185C53.1988 19.5185 51.7714 17.9408 51.7472 17.8249C51.7156 17.6733 51.9368 17.6086 52.0222 17.7071C52.0759 17.7699 53.1988 19.5194 53.1988 19.5194V19.5185Z" fill="#F47721"/>
<path d="M53.1613 19.5333C53.1613 19.5333 51.399 18.2704 51.3484 18.1613C51.2841 18.0193 51.4843 17.9121 51.5896 17.9923C51.656 18.0425 53.1603 19.5324 53.1603 19.5324L53.1613 19.5333Z" fill="#F47721"/>
<path d="M53.2104 19.4565C53.2104 19.4565 52.5615 17.4944 52.4688 17.4124C52.3487 17.3052 52.1664 17.4384 52.2096 17.5572C52.237 17.6325 53.2093 19.4565 53.2093 19.4565H53.2104Z" fill="#F47721"/>
<path d="M52.553 20.2395C52.553 20.2395 50.4072 19.6602 50.3155 19.5752C50.1986 19.4661 50.3429 19.2981 50.4725 19.3367C50.5536 19.3608 52.553 20.2395 52.553 20.2395Z" fill="#F47721"/>
<path d="M52.529 20.2714C52.529 20.2714 50.2979 20.1237 50.1894 20.058C50.0492 19.974 50.1504 19.7829 50.2884 19.7944C50.3726 19.8022 52.529 20.2714 52.529 20.2714Z" fill="#F47721"/>
<path d="M52.5243 20.1827C52.5243 20.1827 50.7925 18.885 50.6639 18.8638C50.4996 18.8368 50.4301 19.0395 50.5386 19.1168C50.606 19.166 52.5243 20.1827 52.5243 20.1827Z" fill="#F47721"/>
<path d="M52.3796 21.0491C52.3796 21.0491 50.3982 20.6435 50.2854 20.6735C50.139 20.7121 50.1696 20.9013 50.2928 20.9235C50.3687 20.9371 52.3796 21.0491 52.3796 21.0491Z" fill="#F47721"/>
<path d="M57.768 8.41992V9.39224C57.768 9.39224 57.6985 9.37775 57.5731 9.39224C57.4499 9.40672 57.3604 9.43569 57.3604 9.43569C57.3604 9.43569 57.4078 9.39417 57.3898 9.17209C57.3719 8.95098 57.4014 8.68062 57.4994 8.57731C57.6058 8.46723 57.767 8.42089 57.767 8.42089L57.768 8.41992Z" fill="#004280"/>
<path d="M57.7435 18.5597C57.7435 18.5597 56.7765 16.6575 53.908 16.6507C51.8127 16.6459 50.8941 17.7505 50.8941 17.7505C50.8941 17.7505 50.7414 16.8361 51.2681 16.617C51.2681 16.617 49.9292 17.0756 49.1729 15.8204C49.1729 15.8204 49.8439 14.8229 51.2028 15.1541C51.2028 15.1541 49.7522 14.5246 49.7996 13.3408C49.7996 13.3408 50.7951 15.0769 54.2483 15.3946C56.865 15.635 57.9374 17.4879 57.7446 18.5616L57.7435 18.5597Z" fill="#004280"/>
<path d="M57.5857 18.0831C57.5857 18.0831 56.7903 16.4551 53.8703 16.3943C53.8703 16.3943 52.0236 16.404 51.1113 17.272C51.1113 17.272 51.9604 16.1635 54.2 16.2543C56.4375 16.3451 57.2128 17.3956 57.5857 18.0831Z" fill="#00AEEF"/>
<path d="M49.7383 16.9942C49.7383 16.9942 49.9995 16.6737 50.7749 16.9054C50.7749 16.9054 50.7854 17.5707 49.7383 17.786V16.9942Z" fill="#ED1C24"/>
<path d="M52.2646 14.737C52.2646 14.737 54.2683 15.7209 56.2455 14.8567C56.2455 14.8567 55.5513 14.4126 55.0014 14.7254C55.0014 14.7254 55.1363 14.2002 54.5432 13.5127C54.5432 13.5127 53.7668 14.037 53.6783 14.6298C53.6783 14.6298 53.277 14.2108 52.2646 14.738V14.737Z" fill="#F26522"/>
<path d="M52.7354 14.7625C52.7354 14.7625 54.3724 15.3978 55.8251 14.8706C55.8251 14.8706 55.1983 14.7065 54.8032 14.9305C54.8032 14.9305 54.9023 14.3792 54.4767 13.8867C54.4767 13.8867 53.9394 14.271 53.8878 14.8822C53.8878 14.8822 53.3242 14.525 52.7354 14.7634V14.7625Z" fill="#ED1C24"/>
<path d="M50.1932 17.5808C50.1932 17.5808 50.6178 17.6436 50.7895 17.8859C50.9622 18.1283 50.8695 18.4865 51.0307 18.613C51.0307 18.613 50.8116 18.5077 50.445 18.529C49.8235 18.5638 49.6865 18.0124 49.6865 17.6223C49.6865 17.2322 50.1922 17.5808 50.1922 17.5808H50.1932Z" fill="#ED1C24"/>
<path d="M49.7725 18.0723C49.7725 18.0723 49.9726 18.4401 50.434 18.3996C50.6995 18.3754 50.8543 18.4797 50.8543 18.4797C50.8543 18.4797 50.6531 18.2934 50.4456 18.2827C50.2391 18.2721 49.8757 18.2074 49.7725 18.0713V18.0723Z" fill="#F26522"/>
<path d="M50.6598 16.9971C50.6598 16.9971 50.5408 17.4036 49.9951 17.5793C49.9951 17.5793 50.2427 17.1796 50.6598 16.9971Z" fill="#F26522"/>
<path d="M49.8611 17.0056C49.8611 17.0056 50.3225 16.826 50.6659 17.0123C50.6659 17.0123 50.0876 17.0133 49.8242 17.1456L49.8611 17.0056Z" fill="#F26522"/>
<path d="M49.7235 15.4464C49.7235 15.4464 50.8812 15.0418 51.962 15.6241C51.962 15.6241 50.8801 15.1664 49.418 15.6887L49.7235 15.4454V15.4464Z" fill="#00AEEF"/>
<path d="M49.8011 16.1834C49.8011 16.1834 50.3331 16.6671 51.3917 16.4421C51.3917 16.4421 50.1582 16.5541 49.7168 15.9072L49.8 16.1834H49.8011Z" fill="#00AEEF"/>
<path d="M50.9321 4.93828C50.9321 5.08987 50.7994 5.21153 50.634 5.21153C50.4686 5.21153 50.3369 5.08987 50.3369 4.93828C50.3369 4.78669 50.4707 4.66406 50.634 4.66406C50.7973 4.66406 50.9321 4.78669 50.9321 4.93828Z" fill="#F47721"/>
<path d="M53.1236 3.67188C53.1236 3.67188 52.9877 3.86595 53.1541 3.98954C53.3227 4.11507 53.5175 3.93451 53.5565 3.82154C53.5565 3.82154 53.3669 3.94802 53.2278 3.86402C53.0877 3.77905 53.1246 3.67188 53.1246 3.67188H53.1236Z" fill="#ED1C24"/>
<path d="M53.2556 3.97167C53.2556 3.97167 53.1292 4.15223 53.2841 4.26809C53.4421 4.38589 53.6243 4.21595 53.6591 4.11071C53.6591 4.11071 53.4821 4.22947 53.3515 4.1503C53.2209 4.07112 53.2556 3.9707 53.2556 3.9707V3.97167Z" fill="#ED1C24"/>
<path d="M52.7995 4.62012C52.7995 4.62012 52.5699 4.94648 52.8501 5.156C53.1356 5.36842 53.4642 5.06234 53.5285 4.87213C53.5285 4.87213 53.2093 5.08648 52.9733 4.94358C52.7363 4.80068 52.7995 4.62012 52.7995 4.62012Z" fill="#ED1C24"/>
<path d="M52.13 4.77148C52.13 4.77148 51.8888 5.11619 52.1837 5.33633C52.485 5.56034 52.8316 5.23881 52.9001 5.03798C52.9001 5.03798 52.563 5.26392 52.3133 5.11329C52.0637 4.96266 52.13 4.77148 52.13 4.77148Z" fill="#ED1C24"/>
<path d="M52.6388 5.25195C52.6388 5.25195 52.3976 5.59569 52.6925 5.8168C52.9938 6.04178 53.3404 5.71928 53.4089 5.51845C53.4089 5.51845 53.0718 5.74439 52.8232 5.59376C52.5724 5.44313 52.6388 5.25195 52.6388 5.25195Z" fill="#ED1C24"/>
<path d="M51.7781 5.33594C51.7781 5.33594 51.5126 5.71444 51.837 5.95583C52.1668 6.20204 52.5471 5.84865 52.6218 5.6285C52.6218 5.6285 52.2532 5.87665 51.9793 5.71057C51.7043 5.54546 51.7781 5.33594 51.7781 5.33594Z" fill="#ED1C24"/>
<path d="M51.2661 5.73339C51.2661 5.73339 51.0006 6.11188 51.3261 6.35327C51.6559 6.59949 52.0361 6.2461 52.1109 6.02499C52.1109 6.02499 51.7422 6.27313 51.4683 6.10802C51.1944 5.94195 51.2671 5.73242 51.2671 5.73242L51.2661 5.73339Z" fill="#ED1C24"/>
<path d="M52.144 5.98438C52.144 5.98438 51.8785 6.36191 52.2041 6.60426C52.5338 6.85048 52.9151 6.49612 52.9889 6.27694C52.9889 6.27694 52.6202 6.52412 52.3452 6.35901C52.0703 6.19294 52.144 5.98438 52.144 5.98438Z" fill="#ED1C24"/>
<path d="M50.6794 6.12109C50.6794 6.12109 50.258 6.67049 50.7436 6.88678C51.1755 7.07893 51.5179 6.67629 51.6211 6.39531C51.6211 6.39531 51.3019 6.77188 50.9533 6.55077C50.6035 6.32965 50.6783 6.12206 50.6783 6.12206L50.6794 6.12109Z" fill="#ED1C24"/>
<path d="M51.4908 6.54979C51.4908 6.54979 50.9156 7.3541 51.515 7.61963C52.047 7.85619 52.4694 7.36086 52.5958 7.0123C52.5958 7.0123 52.2735 7.4719 51.8058 7.25755C51.4128 7.07795 51.4908 6.54883 51.4908 6.54883V6.54979Z" fill="#ED1C24"/>
<path d="M51.4515 7.48633C51.4515 7.48633 50.8753 8.28967 51.4747 8.55617C52.0067 8.79273 52.4291 8.2974 52.5555 7.9498C52.5555 7.9498 52.2342 8.40843 51.7665 8.19505C51.3736 8.01449 51.4526 7.48633 51.4526 7.48633H51.4515Z" fill="#ED1C24"/>
<path d="M50.4554 6.78906C50.4554 6.78906 49.8792 7.59241 50.4786 7.8589C51.0106 8.09546 51.433 7.60013 51.5594 7.25253C51.5594 7.25253 51.2371 7.71117 50.7693 7.49778C50.3775 7.31722 50.4554 6.78906 50.4554 6.78906Z" fill="#ED1C24"/>
<path d="M52.8636 3.96973C52.8636 3.96973 52.7225 4.17249 52.8963 4.30188C53.0733 4.43319 53.2766 4.24394 53.3166 4.12615C53.3166 4.12615 53.1196 4.25843 52.9732 4.17056C52.8257 4.08173 52.8647 3.96973 52.8647 3.96973H52.8636Z" fill="#ED1C24"/>
<path d="M53.4147 4.28125C53.4147 4.28125 53.2735 4.48402 53.4463 4.61244C53.6222 4.74375 53.8266 4.5545 53.8666 4.43767C53.8666 4.43767 53.6686 4.56995 53.5232 4.48112C53.3757 4.39325 53.4147 4.28125 53.4147 4.28125Z" fill="#ED1C24"/>
<path d="M52.9168 4.31641C52.9168 4.31641 52.7746 4.51821 52.9495 4.64856C53.1254 4.77987 53.3298 4.59159 53.3688 4.47283C53.3688 4.47283 53.1718 4.60511 53.0253 4.51724C52.8789 4.42841 52.9179 4.31641 52.9179 4.31641H52.9168Z" fill="#ED1C24"/>
<path d="M52.4703 4.34375C52.4703 4.34375 52.3292 4.54555 52.5019 4.6759C52.6779 4.80722 52.8812 4.61797 52.9212 4.4992C52.9212 4.4992 52.7242 4.63245 52.5767 4.54362C52.4303 4.45575 52.4693 4.34375 52.4693 4.34375H52.4703Z" fill="#ED1C24"/>
<path d="M53.2957 5.15918C53.2957 5.15918 53.1535 5.36002 53.3284 5.4894C53.5043 5.62168 53.7087 5.43243 53.7487 5.31463C53.7487 5.31463 53.5517 5.44788 53.4042 5.35905C53.2578 5.27022 53.2968 5.15918 53.2968 5.15918H53.2957Z" fill="#ED1C24"/>
<path d="M52.5355 6.70703C52.5355 6.70703 52.3944 6.90883 52.5682 7.03918C52.7441 7.1705 52.9485 6.98221 52.9874 6.86345C52.9874 6.86345 52.7905 6.99573 52.644 6.90787C52.4976 6.81807 52.5355 6.70703 52.5355 6.70703Z" fill="#ED1C24"/>
<path d="M49.9235 6.83496C49.9235 6.83496 49.7823 7.03676 49.9551 7.16711C50.132 7.29843 50.3354 7.11014 50.3754 6.99138C50.3754 6.99138 50.1773 7.12366 50.0309 7.0358C49.8845 6.946 49.9235 6.83496 49.9235 6.83496Z" fill="#ED1C24"/>
<path d="M49.4935 6.98047C49.4935 6.98047 49.3524 7.18227 49.5262 7.31166C49.7032 7.44297 49.9054 7.25469 49.9454 7.13689C49.9454 7.13689 49.7485 7.26821 49.602 7.18034C49.4546 7.09247 49.4946 6.98047 49.4946 6.98047H49.4935Z" fill="#ED1C24"/>
<path d="M50.5501 7.88379C50.5501 7.88379 50.3437 8.17925 50.5965 8.3685C50.8546 8.56064 51.1527 8.2845 51.2106 8.11166C51.2106 8.11166 50.922 8.30574 50.7081 8.17635C50.4943 8.04697 50.5501 7.88379 50.5501 7.88379Z" fill="#ED1C24"/>
<path d="M50.6912 8.39453C50.6912 8.39453 50.4837 8.68999 50.7376 8.87924C50.9957 9.07235 51.2927 8.79427 51.3517 8.6224C51.3517 8.6224 51.0631 8.81745 50.8492 8.68709C50.6343 8.55674 50.6912 8.39453 50.6912 8.39453Z" fill="#ED1C24"/>
<path d="M51.3953 8.55273C51.3953 8.55273 51.2488 8.76226 51.4279 8.89647C51.6101 9.03165 51.8208 8.83661 51.8619 8.71495C51.8619 8.71495 51.6576 8.85206 51.5069 8.76033C51.3552 8.6686 51.3953 8.55273 51.3953 8.55273Z" fill="#ED1C24"/>
<path d="M51.0281 8.91504C51.0281 8.91504 50.8816 9.1236 51.0607 9.25781C51.244 9.39395 51.4526 9.19795 51.4947 9.07629C51.4947 9.07629 51.2904 9.2134 51.1387 9.12263C50.987 9.03091 51.0281 8.91504 51.0281 8.91504Z" fill="#ED1C24"/>
<path d="M50.5913 9.06641C50.5913 9.06641 50.4449 9.27497 50.625 9.40918C50.8072 9.54532 51.0179 9.34932 51.059 9.22766C51.059 9.22766 50.8546 9.36476 50.703 9.27304C50.5513 9.18131 50.5913 9.06641 50.5913 9.06641Z" fill="#ED1C24"/>
<path d="M53.4112 3.47852C53.4112 3.47852 53.3217 3.6639 53.485 3.7508C53.6493 3.83963 53.7926 3.65907 53.8094 3.55576C53.8094 3.55576 53.663 3.68901 53.5292 3.633C53.3954 3.577 53.4112 3.47852 53.4112 3.47852Z" fill="#ED1C24"/>
<path d="M53.5979 3.69628C53.5979 3.69628 53.5084 3.88167 53.6706 3.96857C53.836 4.0574 53.9792 3.87684 53.995 3.77256C53.995 3.77256 53.8497 3.90677 53.7159 3.8498C53.581 3.79283 53.5979 3.69531 53.5979 3.69531V3.69628Z" fill="#ED1C24"/>
<path d="M52.9885 3.38281C52.9885 3.38281 52.8884 3.58848 53.0696 3.68503C53.2529 3.78352 53.4109 3.58268 53.4299 3.46875C53.4299 3.46875 53.2677 3.61744 53.1191 3.55468C52.9706 3.49289 52.9885 3.38378 52.9885 3.38378V3.38281Z" fill="#ED1C24"/>
<path d="M53.2855 3.19043C53.2855 3.19043 53.1855 3.39513 53.3656 3.49265C53.5489 3.59114 53.7069 3.38933 53.7248 3.2754C53.7248 3.2754 53.5647 3.42409 53.4151 3.36133C53.2666 3.29857 53.2855 3.19043 53.2855 3.19043Z" fill="#ED1C24"/>
<path d="M53.7497 3.32422C53.7497 3.32422 53.6728 3.48257 53.8119 3.55885C53.9541 3.63513 54.0773 3.47871 54.0921 3.38988C54.0921 3.38988 53.9667 3.50478 53.8509 3.4565C53.735 3.40822 53.7497 3.32422 53.7497 3.32422Z" fill="#ED1C24"/>
<path d="M57.7775 10.2727V9.94922C57.4467 9.95887 56.4196 10.095 55.7781 11.0799C54.9754 12.3119 55.3767 13.2244 55.3767 13.2244C55.3767 13.2244 55.7022 11.5067 57.7775 11.8398V10.2727Z" fill="#00AEEF"/>
<path d="M57.7676 10.1436C57.7676 10.1436 56.0053 10.2034 55.4648 12.1722C55.4648 12.1722 56.1327 10.3763 57.7782 10.356V10.1484L57.7676 10.1436Z" fill="#004280"/>
<path d="M57.6106 11.3543C57.6717 11.307 57.7317 11.2616 57.7717 11.2153C57.9993 10.9546 57.7791 10.8136 57.6011 10.7943C57.4831 10.7827 57.2819 10.8445 57.2956 11.0463C57.303 11.168 57.4673 11.2597 57.6106 11.3534V11.3543ZM57.5916 10.9131C57.678 10.9237 57.7854 11.0135 57.6748 11.1757C57.6548 11.2047 57.6253 11.2327 57.5958 11.2626C57.5263 11.2037 57.4599 11.1458 57.4431 11.0705C57.4125 10.944 57.5337 10.9063 57.5916 10.9131Z" fill="#004280"/>
<path d="M57.4581 11.6012C57.4538 11.7161 57.7046 11.7769 57.7604 11.6128C57.7899 11.5249 57.7088 11.4583 57.614 11.3955H57.6076C57.5339 11.4544 57.4602 11.5181 57.4581 11.6021V11.6012Z" fill="#004280"/>
<path d="M57.0238 11.4369C57.0669 11.4031 57.1112 11.3703 57.1396 11.3375C57.3019 11.1511 57.1438 11.0507 57.0174 11.0372C56.9332 11.0285 56.7888 11.0729 56.7994 11.2177C56.8046 11.3046 56.9216 11.3693 57.0238 11.4369ZM57.0101 11.1212C57.0712 11.1299 57.1491 11.1926 57.0691 11.3095C57.0554 11.3297 57.0343 11.35 57.0132 11.3713C56.9637 11.3288 56.9174 11.2873 56.9037 11.2351C56.8826 11.1444 56.969 11.1164 57.0101 11.1212Z" fill="#004280"/>
<path d="M56.9151 11.6157C56.9119 11.6979 57.0913 11.7415 57.1324 11.6244C57.1535 11.5616 57.0955 11.5142 57.028 11.4688H57.0237C56.971 11.5103 56.9182 11.5567 56.9161 11.6167L56.9151 11.6157Z" fill="#004280"/>
<path d="M56.6143 11.5643C56.6396 11.5334 56.6649 11.5025 56.6796 11.4745C56.7639 11.3142 56.6301 11.2649 56.5363 11.2746C56.4731 11.2823 56.3773 11.3364 56.4099 11.4397C56.4299 11.5025 56.5269 11.5314 56.6143 11.5643ZM56.5469 11.3374C56.5932 11.3345 56.6606 11.3683 56.6238 11.4648C56.6174 11.4812 56.6059 11.5005 56.5943 11.5189C56.5511 11.4957 56.5089 11.4725 56.49 11.4358C56.4573 11.3731 56.5153 11.3403 56.5469 11.3374Z" fill="#004280"/>
<path d="M56.5669 11.7087C56.5796 11.7697 56.7188 11.7726 56.7262 11.6807C56.7304 11.6314 56.6798 11.6062 56.6207 11.584H56.6186C56.588 11.6227 56.5585 11.6642 56.5669 11.7087Z" fill="#004280"/>
<path d="M56.2453 11.7097C56.2601 11.6778 56.2748 11.6469 56.2801 11.6189C56.3138 11.4635 56.1874 11.4471 56.1084 11.4751C56.0557 11.4924 55.9862 11.56 56.0399 11.6421C56.0715 11.6913 56.1621 11.6981 56.2453 11.7087V11.7097ZM56.1326 11.5272C56.1716 11.5146 56.2379 11.5311 56.2306 11.6209C56.2284 11.6363 56.2232 11.6547 56.2179 11.673C56.1747 11.6614 56.1336 11.6508 56.1084 11.6228C56.0652 11.5755 56.1084 11.534 56.1336 11.5262L56.1326 11.5272Z" fill="#004280"/>
<path d="M56.2394 11.8455C56.2647 11.8948 56.386 11.8707 56.3702 11.7894C56.3617 11.7469 56.3122 11.7343 56.2573 11.7275H56.2541C56.2373 11.7682 56.2214 11.8097 56.2394 11.8455Z" fill="#004280"/>
<path d="M59.9172 15.7876C59.9351 15.609 58.9427 13.0763 58.9427 13.0763L58.8901 13.0116C58.8901 13.0116 57.568 12.3193 56.6779 12.6003C56.443 12.6737 56.2333 12.8156 56.1796 13.0763C56.1796 13.0763 56.8886 13.2704 56.9423 13.8073C56.9623 14.0071 56.8685 14.1664 56.7653 14.318C56.7042 14.3895 56.5989 14.544 56.5757 14.6231C56.5062 14.7786 56.4977 14.9495 56.6526 15.1687C56.129 14.9765 55.5518 15.4091 55.5518 15.4091C57.8556 16.0338 58.119 17.7853 58.119 17.7853C58.3181 17.626 58.5361 17.3354 58.7289 16.9714L58.908 17.0554C58.908 17.0554 59.9003 15.9672 59.9172 15.7886V15.7876Z" fill="#F26522"/>
<path d="M58.2234 17.0903C58.2234 17.0903 57.6999 15.7462 56.2588 15.3861C56.2588 15.3861 56.6517 15.3387 57.0699 15.4575C57.0699 15.4575 56.6759 15.0751 56.9383 14.7131C57.0899 14.5055 57.4692 14.4137 57.8547 14.8579C57.8547 14.8579 58.8513 14.1028 58.2592 13.5496C57.8495 13.1653 57.6198 12.1939 58.4836 13.5138C58.8755 14.1115 58.8365 15.7143 58.2224 17.0912L58.2234 17.0903Z" fill="#ED1C24"/>
<path d="M55.9966 11.9149C56.0019 11.8878 56.0061 11.8608 56.0061 11.8385C56.0019 11.7118 55.8996 11.7215 55.8437 11.7554C55.8057 11.7786 55.7645 11.8414 55.8236 11.8975C55.8595 11.9304 55.9312 11.9198 55.9977 11.9149H55.9966ZM55.8721 11.7921C55.9006 11.7757 55.9555 11.7766 55.9671 11.8492C55.9692 11.8617 55.9681 11.8762 55.9681 11.8927C55.9312 11.8917 55.8975 11.8898 55.8721 11.8724C55.8289 11.8424 55.8542 11.8037 55.8721 11.7931V11.7921Z" fill="#004280"/>
<path d="M56.0198 12.0217C56.0493 12.0556 56.138 12.0169 56.1095 11.9569C56.0947 11.9241 56.0536 11.9241 56.0093 11.927H56.0071C56.0019 11.9618 55.9976 11.9966 56.0198 12.0217Z" fill="#004280"/>
<path d="M55.786 12.133C55.7891 12.1147 55.7933 12.0973 55.7923 12.0818C55.7891 11.9977 55.7216 12.0035 55.6836 12.0267C55.6583 12.0431 55.6309 12.0847 55.6699 12.1224C55.6931 12.1446 55.7416 12.1369 55.786 12.133ZM55.7026 12.0508C55.7216 12.0402 55.7585 12.0412 55.767 12.0886C55.767 12.0982 55.767 12.1079 55.767 12.1166C55.7427 12.1166 55.7195 12.1166 55.7026 12.104C55.6741 12.0837 55.691 12.0586 55.7026 12.0508Z" fill="#004280"/>
<path d="M55.8025 12.2048C55.8225 12.227 55.8816 12.2009 55.8616 12.1612C55.8521 12.14 55.8246 12.14 55.7951 12.1409C55.7909 12.1641 55.7888 12.1874 55.8035 12.2048H55.8025Z" fill="#004280"/>
<path d="M58.3073 15.9251C58.3073 15.9251 57.8269 14.9219 57.4667 14.7635C57.1064 14.6042 56.9463 14.9576 57.139 15.1942C57.3318 15.4307 57.4941 15.1865 57.6942 15.2714C57.8944 15.3564 58.3073 15.9251 58.3073 15.9251Z" fill="#F47721"/>
<path d="M53.3363 12.434C53.3363 12.5538 53.23 12.6503 53.0993 12.6503C52.9687 12.6503 52.8623 12.5528 52.8623 12.434C52.8623 12.3153 52.9676 12.2168 53.0993 12.2168C53.231 12.2168 53.3363 12.3143 53.3363 12.434Z" fill="white"/>
<path d="M56.3528 13.9422C56.3528 14.0947 56.218 14.2193 56.0505 14.2193C55.883 14.2193 55.7471 14.0947 55.7471 13.9422C55.7471 13.7896 55.883 13.665 56.0505 13.665C56.218 13.665 56.3528 13.7886 56.3528 13.9422Z" fill="white"/>
<path d="M57.4519 11.4424C57.4519 11.4424 57.4526 11.443 57.4533 11.443C57.4533 11.443 57.4533 11.443 57.454 11.4424H57.4512H57.4519Z" fill="#004280"/>
<path d="M52.4505 16.256C52.4505 16.256 52.3083 15.9943 51.9891 16.0677C51.731 16.1275 51.7679 16.3738 51.8774 16.4298C51.928 16.4549 51.9965 16.4568 52.047 16.4259C52.1239 16.3786 52.126 16.31 52.1092 16.2646C52.1092 16.2646 52.205 16.1256 52.4516 16.256H52.4505Z" fill="#00AEEF"/>
<path d="M51.8661 16.2484C51.9135 16.0853 52.1632 16.0563 52.3222 16.175C52.3222 16.175 52.1274 16.1123 52.0125 16.2282C52.0009 16.2397 51.9936 16.2533 51.9894 16.2648C52.0041 16.2735 52.0157 16.2871 52.021 16.3044C52.0304 16.3402 52.0062 16.3749 51.9672 16.3846C51.9504 16.3884 51.9335 16.3865 51.9188 16.3797C51.8872 16.3682 51.8408 16.3373 51.8672 16.2484H51.8661Z" fill="#004280"/>
<path d="M53.1829 16.1526C53.1829 16.1526 53.0786 15.8832 52.7573 15.9199C52.4982 15.9499 52.5024 16.1932 52.6025 16.2608C52.6478 16.2917 52.7141 16.3004 52.7679 16.2762C52.849 16.2395 52.8595 16.1719 52.849 16.1246C52.849 16.1246 52.9617 16.001 53.184 16.1526H53.1829Z" fill="#00AEEF"/>
<path d="M52.6132 16.0836C52.6806 15.93 52.9281 15.9271 53.0672 16.0614C53.0672 16.0614 52.8849 15.9783 52.7596 16.0797C52.7459 16.0894 52.7375 16.1019 52.7311 16.1135C52.7448 16.1222 52.7533 16.1386 52.7564 16.155C52.7617 16.1907 52.7332 16.2236 52.6943 16.2274C52.6774 16.2294 52.6616 16.2255 52.6479 16.2168C52.6184 16.2033 52.5773 16.1676 52.6142 16.0836H52.6132Z" fill="#004280"/>
<path d="M53.9284 16.156C53.9284 16.156 53.8947 15.8876 53.5903 15.8596C53.3448 15.8364 53.2922 16.0623 53.368 16.1434C53.4028 16.1801 53.4618 16.2023 53.5166 16.1898C53.6008 16.1705 53.6261 16.1116 53.6261 16.0662C53.6261 16.0662 53.7578 15.9735 53.9284 16.157V16.156Z" fill="#00AEEF"/>
<path d="M53.4198 15.981C53.5167 15.8516 53.7453 15.8989 53.8433 16.0486C53.8433 16.0486 53.6947 15.9375 53.5546 16.0051C53.5409 16.0119 53.5293 16.0215 53.5209 16.0302C53.5315 16.0428 53.5367 16.0582 53.5346 16.0737C53.5304 16.1075 53.4967 16.1316 53.4609 16.1287C53.4451 16.1268 53.4303 16.119 53.4208 16.1094C53.3966 16.091 53.3671 16.0505 53.4208 15.98L53.4198 15.981Z" fill="#004280"/>
<path d="M54.5388 16.1795C54.5388 16.1795 54.5293 15.9313 54.2533 15.8859C54.03 15.8483 53.9657 16.052 54.0289 16.1312C54.0573 16.1669 54.11 16.1911 54.1606 16.1824C54.2385 16.1718 54.267 16.1186 54.2712 16.0771C54.2712 16.0771 54.3997 16.0008 54.5398 16.1804L54.5388 16.1795Z" fill="#00AEEF"/>
<path d="M54.0883 15.9869C54.1884 15.8768 54.3928 15.9338 54.4707 16.0776C54.4707 16.0776 54.3433 15.9656 54.2105 16.0187C54.1968 16.0245 54.1873 16.0313 54.1779 16.039C54.1863 16.0506 54.1895 16.0651 54.1873 16.0805C54.181 16.1114 54.1494 16.1307 54.1147 16.1259C54.0999 16.122 54.0873 16.1163 54.0788 16.1056C54.0588 16.0873 54.0346 16.0477 54.0883 15.9878V15.9869Z" fill="#004280"/>
<path d="M55.0434 16.2357C55.0434 16.2357 55.075 16.0155 54.84 15.9364C54.6504 15.8726 54.5598 16.0426 54.602 16.1208C54.6209 16.1556 54.6631 16.1845 54.7094 16.1845C54.7789 16.1845 54.8137 16.142 54.8232 16.1063C54.8232 16.1063 54.9485 16.0571 55.0434 16.2347V16.2357Z" fill="#00AEEF"/>
<path d="M54.6775 16.0038C54.7839 15.9198 54.9546 15.9989 54.9988 16.1351C54.9988 16.1351 54.9051 16.0192 54.7797 16.0472C54.766 16.0501 54.7566 16.0549 54.746 16.0607C54.7523 16.0723 54.7534 16.0849 54.7471 16.0984C54.7365 16.1245 54.7049 16.137 54.6765 16.1273C54.6639 16.1225 54.6544 16.1148 54.6481 16.1051C54.6333 16.0858 54.6186 16.0491 54.6765 16.0028L54.6775 16.0038Z" fill="#004280"/>
<path d="M55.5602 16.3588C55.5602 16.3588 55.5897 16.1589 55.3748 16.0874C55.2031 16.0295 55.1199 16.184 55.1589 16.2545C55.1757 16.2873 55.2147 16.3124 55.2568 16.3124C55.3201 16.3124 55.3506 16.2738 55.3601 16.2419C55.3601 16.2419 55.4739 16.1975 55.5602 16.3588Z" fill="#00AEEF"/>
<path d="M55.2287 16.1469C55.3245 16.0707 55.4794 16.1431 55.5205 16.2676C55.5205 16.2676 55.4352 16.1614 55.3214 16.1875C55.3098 16.1904 55.3003 16.1943 55.2929 16.2001C55.2972 16.2107 55.2982 16.2223 55.2929 16.2338C55.2835 16.257 55.255 16.2696 55.2287 16.2609C55.2182 16.257 55.2087 16.2493 55.2034 16.2406C55.1897 16.2232 55.1771 16.1894 55.2297 16.1479L55.2287 16.1469Z" fill="#004280"/>
<path d="M55.9876 16.4745C55.9876 16.4745 56.0118 16.3074 55.8328 16.2466C55.6874 16.1993 55.6179 16.3277 55.6505 16.3876C55.6653 16.4146 55.6969 16.4349 55.7327 16.4358C55.7854 16.4358 55.8117 16.404 55.8201 16.376C55.8201 16.376 55.9149 16.3383 55.9866 16.4735L55.9876 16.4745Z" fill="#00AEEF"/>
<path d="M55.7086 16.2967C55.7897 16.233 55.9203 16.2928 55.954 16.3971C55.954 16.3971 55.8834 16.3093 55.7865 16.3305C55.777 16.3344 55.7697 16.3373 55.7623 16.3411C55.7665 16.3498 55.7665 16.3604 55.7623 16.3691C55.7539 16.3894 55.7307 16.4 55.7086 16.3923C55.6991 16.3884 55.6928 16.3817 55.6864 16.3749C55.6759 16.3604 55.6643 16.3315 55.7086 16.2977V16.2967Z" fill="#004280"/>
<path d="M56.366 16.6577C56.366 16.6577 56.4197 16.4965 56.2533 16.4096C56.1195 16.341 56.0278 16.4578 56.0489 16.5216C56.0584 16.5505 56.0858 16.5766 56.1205 16.5824C56.1732 16.5911 56.2048 16.5621 56.2175 16.537C56.2175 16.537 56.3186 16.5138 56.366 16.6577Z" fill="#00AEEF"/>
<path d="M56.1214 16.4447C56.213 16.3935 56.3299 16.4727 56.3447 16.5798C56.3447 16.5798 56.2899 16.4823 56.1909 16.4891C56.1804 16.49 56.1719 16.4929 56.1656 16.4958C56.1677 16.5045 56.1667 16.5142 56.1614 16.5238C56.1498 16.5431 56.1245 16.548 56.1035 16.5374C56.095 16.5325 56.0898 16.5258 56.0856 16.5171C56.0771 16.5016 56.0719 16.4717 56.1214 16.4437V16.4447Z" fill="#004280"/>
<path d="M56.6871 16.8851C56.6871 16.8851 56.7777 16.7712 56.6723 16.6621C56.587 16.5733 56.4796 16.6428 56.4785 16.6988C56.4785 16.7239 56.4912 16.7519 56.5175 16.7644C56.5565 16.7847 56.5902 16.7702 56.607 16.7528C56.607 16.7528 56.6934 16.7606 56.6871 16.8851Z" fill="#00AEEF"/>
<path d="M56.5595 16.652C56.646 16.6346 56.7157 16.7265 56.6956 16.8155C56.6956 16.8155 56.6819 16.7246 56.6028 16.7052C56.5943 16.7023 56.5869 16.7023 56.5795 16.7033C56.5785 16.711 56.5753 16.7197 56.5679 16.7236C56.5532 16.7362 56.5321 16.7342 56.5184 16.7207C56.512 16.7149 56.5099 16.7072 56.5099 16.7004C56.5089 16.6859 56.512 16.6607 56.5595 16.6511V16.652Z" fill="#004280"/>
<path d="M53.0813 19.6446L52.1406 19.3896L52.74 20.1505C52.8074 19.9564 52.9265 19.7836 53.0813 19.6446Z" fill="#F47721"/>
<path d="M52.6968 20.7568C52.6578 20.5762 52.6821 20.4092 52.6821 20.4092L51.6455 20.5241L52.8053 21.0542C52.7716 20.9895 52.7442 20.9209 52.7242 20.8504C52.7137 20.8224 52.7053 20.7915 52.6979 20.7577L52.6968 20.7568Z" fill="#F47721"/>
<path d="M53.3965 18.6748V19.4318C53.5324 19.3652 53.683 19.3208 53.8421 19.3005L53.3965 18.6748Z" fill="#F47721"/>
<path d="M55.0527 18.6221L54.3037 19.3153C54.5123 19.3549 54.703 19.4399 54.8652 19.5567L55.0537 18.6211L55.0527 18.6221Z" fill="#F47721"/>
<path d="M55.9376 19.6299L55.1064 19.7824C55.1991 19.8964 55.2739 20.0248 55.3203 20.1638L55.9387 19.6299H55.9376Z" fill="#F47721"/>
<path d="M55.2589 21.037L56.4282 20.7116L55.3726 20.4248C55.3747 20.4586 55.3779 20.4934 55.3779 20.5281C55.3779 20.7096 55.3347 20.8815 55.2578 21.037H55.2589Z" fill="#F47721"/>
<path d="M54.1973 14.785C54.1973 14.785 54.4332 14.8101 54.5375 14.7917C54.5375 14.7917 54.5786 14.4721 54.4195 14.3389C54.4195 14.3389 54.2331 14.4605 54.1973 14.784V14.785Z" fill="#F47721"/>
<path d="M56.457 13.0671C56.457 13.0671 56.5223 13.0883 56.5961 13.1376C56.6667 13.1839 56.7151 13.2187 56.7425 13.2457C56.7425 13.2457 56.8215 13.1173 56.7035 13.0352C56.6035 12.9676 56.4802 13.0285 56.4581 13.0681L56.457 13.0671Z" fill="white"/>
<path d="M56.7861 13.2891C56.7861 13.2891 56.8409 13.3287 56.8925 13.3963C56.9431 13.462 56.9768 13.5083 56.9937 13.5421C56.9937 13.5421 57.1137 13.4436 57.0284 13.3316C56.9589 13.238 56.8198 13.2592 56.7861 13.2891Z" fill="white"/>
<path d="M57.0137 13.6008C57.0137 13.6008 57.0421 13.6588 57.0558 13.7408C57.0685 13.819 57.0748 13.875 57.0737 13.9117C57.0737 13.9117 57.2286 13.875 57.2107 13.7389C57.1938 13.6279 57.06 13.5873 57.0147 13.5999L57.0137 13.6008Z" fill="white"/>
<path d="M57.0752 13.9902C57.0752 13.9902 57.0678 14.054 57.0341 14.1312C57.0014 14.2046 56.9772 14.2567 56.9551 14.2867C56.9551 14.2867 57.1099 14.3272 57.1679 14.2017C57.2153 14.0974 57.1226 14.0009 57.0752 13.9902Z" fill="white"/>
<path d="M56.921 14.3516C56.921 14.3516 56.8926 14.4105 56.8336 14.4732C56.7767 14.535 56.7367 14.5756 56.7051 14.5987C56.7051 14.5987 56.8389 14.6808 56.9368 14.5785C57.0179 14.4935 56.9621 14.3747 56.9221 14.3516H56.921Z" fill="white"/>
<path d="M57.8285 12.9057C57.8285 12.9057 57.109 12.503 56.5518 12.84C56.5518 12.84 57.5799 12.6237 58.2867 13.6675L57.8285 12.9057Z" fill="white"/>
<path d="M57.8802 13.8255C57.8802 13.8255 57.6979 13.1651 56.8857 12.9971C56.8857 12.9971 57.7885 13.2732 57.8538 14.6414L57.8802 13.8255Z" fill="#ED1C24"/>
<rect x="47.8857" y="7.82129" width="2.21219" height="13.2281" fill="#F1F2F2"/>
<rect x="57.7881" width="2.21219" height="21.0491" fill="white"/>
</svg>
