<svg width="52" height="19" viewBox="0 0 52 19" fill="none" xmlns="http://www.w3.org/2000/svg">
<path d="M0 6.333V3.99023H3.13596V6.333H0ZM0.0473854 18.5984V7.08613H3.11227V18.5993H0.0464376L0.0473854 18.5984Z" fill="#004280"/>
<path d="M11.6204 18.5978V11.6373C11.6204 10.9163 11.4204 10.3856 11.0195 10.0459C10.6186 9.70801 10.1429 9.53776 9.59321 9.53776C9.04354 9.53776 8.54315 9.70715 8.14227 10.0459C7.74139 10.3856 7.54142 10.9163 7.54142 11.6373V18.5978H4.47559V7.08467C4.47559 7.08467 6.24875 7.96723 8.86252 7.26101C9.41883 7.11073 9.95428 6.95264 10.5362 6.95264C11.7464 6.95264 12.7131 7.29141 13.4371 7.96897C13.9081 8.41024 14.2341 8.89669 14.4151 9.42744C14.5962 9.95819 14.6862 10.5628 14.6862 11.2395V18.5978H11.6204Z" fill="#004280"/>
<path d="M21.8398 18.4551C21.3499 18.5932 20.8021 18.7313 20.1434 18.7313C19.5445 18.7313 18.9787 18.6393 18.4452 18.4551C17.9106 18.2709 17.469 18.0173 17.1241 17.6933C16.5886 17.1773 16.2275 16.4407 16.0389 15.4834C15.9764 15.0995 15.9337 14.7025 15.91 14.2899C15.8863 13.8782 15.874 13.3917 15.874 12.8314C15.874 11.6527 15.9489 10.6772 16.0977 9.90318C16.2474 9.13094 16.5895 8.49335 17.1241 7.99214C17.469 7.66813 17.905 7.41361 18.4328 7.22945C18.9598 7.0453 19.5218 6.95409 20.1198 6.95409C20.7632 6.95409 21.3262 7.04182 21.8048 7.21903C22.2843 7.3945 22.7203 7.68984 23.1145 8.10245V3.99023H26.1794V18.5984C26.1794 18.5984 23.7353 17.9226 21.8408 18.4551H21.8398ZM23.0425 11.472C22.9951 11.0958 22.9013 10.7684 22.7591 10.4887C22.4445 9.8554 21.8626 9.53834 21.0144 9.53834C20.5747 9.53834 20.2126 9.62 19.9293 9.7807C19.6459 9.94314 19.4346 10.1673 19.2934 10.4548C19.1521 10.7423 19.0574 11.0776 19.01 11.4607C18.9636 11.8446 18.9399 12.2998 18.9399 12.8306C18.9399 13.3613 18.9636 13.8182 19.01 14.2004C19.0574 14.5835 19.1521 14.9223 19.2934 15.2168C19.4355 15.5121 19.6468 15.7397 19.9293 15.9021C20.2117 16.0637 20.5737 16.1453 21.0144 16.1453C21.8635 16.1453 22.4454 15.8283 22.7591 15.195C22.9013 14.9145 22.9951 14.58 23.0425 14.1891C23.0899 13.7991 23.1136 13.3465 23.1136 12.8306C23.1136 12.3146 23.0899 11.8472 23.0425 11.4711V11.472Z" fill="#004280"/>
<path d="M27.5186 6.333V3.99023H30.6555V6.333H27.5186ZM27.5659 18.5984V7.08613H30.6308V18.5993H27.5659V18.5984Z" fill="#004280"/>
<path d="M37.619 18.4554C37.1479 18.5605 36.6002 18.7099 35.9093 18.7099C34.5417 18.7099 33.4964 18.3703 32.7733 17.6936C32.0967 17.0308 31.7593 16.1691 31.7593 15.1076C31.7593 14.1347 32.1175 13.3364 32.8321 12.711C33.5476 12.0838 34.5891 11.7711 35.9567 11.7711H38.8576V11.196C38.8576 10.5628 38.6804 10.1015 38.3269 9.81486C37.9725 9.52647 37.3868 9.38314 36.5698 9.38314C36.0041 9.38314 35.552 9.4535 35.2137 9.59335C34.8753 9.73321 34.5417 9.9799 34.211 10.3343L32.254 8.54315C32.8359 7.93943 33.4576 7.52421 34.1172 7.29489C34.7777 7.0673 35.6335 6.95264 36.6883 6.95264C40.1778 6.95264 41.9225 8.30861 41.9225 11.0188V18.5978C41.9225 18.5978 39.6944 17.9941 37.619 18.4545V18.4554ZM38.8576 13.7377H36.4286C35.281 13.7377 34.7066 14.172 34.7066 15.0416C34.7066 15.4542 34.8564 15.7782 35.1549 16.0136C35.4525 16.2499 35.8932 16.368 36.476 16.368C36.947 16.368 37.3233 16.3307 37.6076 16.2577C37.8909 16.1838 38.1573 16.0353 38.4093 15.8147C38.7079 15.5506 38.8576 15.0641 38.8576 14.3571V13.7386V13.7377Z" fill="#004280"/>
<mask id="mask0_7205_19510" style="mask-type:alpha" maskUnits="userSpaceOnUse" x="41" y="0" width="11" height="19">
<path d="M46.4344 0H51.9726L52 18.9216H45.0727V12.5528L45.0369 6.87735H41.6812V3.43857C41.6812 3.43857 44.0831 3.5564 45.4326 2.20694C46.2949 1.3446 46.4344 0 46.4344 0Z" fill="white"/>
</mask>
<g mask="url(#mask0_7205_19510)">
<path d="M44.7456 12.7402C44.7456 12.7402 45.2166 13.2675 45.6421 13.4508C45.6421 13.4508 45.4412 13.4195 45.2052 13.4508C44.8953 13.4908 44.4954 13.6098 44.2253 13.7201C43.6207 13.9659 44.7466 12.7402 44.7466 12.7402H44.7456Z" fill="#004280"/>
<path d="M48.2422 0.000488281C48.2422 0.000488281 48.6507 0.0630318 48.9691 0.162927C49.1577 0.222865 49.3501 0.301912 49.3501 0.301912C49.3501 0.301912 49.2496 0.191593 49.17 0.117757C49.0904 0.043921 49.0402 0.000488281 49.0402 0.000488281H48.2431H48.2422Z" fill="#F26522"/>
<path d="M46.4311 0.000868842C46.4311 0.000868842 47.5542 0.0191109 48.2716 0.12943C48.9899 0.238881 49.1634 0.268415 49.1634 0.268415L49.2932 0.324009C49.2932 0.324009 48.0242 0.223245 47.5722 0.237144C46.8301 0.259729 46.3345 0.397845 46.3345 0.397845L46.4302 0L46.4311 0.000868842Z" fill="#F26522"/>
<path d="M46.2995 0.531839C46.2995 0.531839 47.3941 0.347684 48.1219 0.344209C48.8488 0.341603 49.027 0.343341 49.027 0.343341L49.1673 0.378955C49.1673 0.378955 47.8973 0.475376 47.4538 0.559636C46.7269 0.696884 46.145 0.961824 46.145 0.961824C46.145 0.961824 46.2076 0.801123 46.2275 0.74466C46.2464 0.692541 46.3004 0.53097 46.3004 0.53097L46.2995 0.531839Z" fill="#F26522"/>
<path d="M45.0497 6.87764V9.08403C46.5822 8.69139 47.5735 7.3719 47.9876 6.36774C48.4018 5.36444 48.796 3.4395 49.0927 2.76195C49.3874 2.08352 49.7324 1.7239 50.2356 1.4746C50.7379 1.22442 51.7282 1.37904 51.7282 1.37904L50.7379 0.926475C50.7379 0.926475 50.6943 0.389645 50.3825 0.184642C50.1541 0.0343646 49.14 -0.320916 48.2824 1.35472C48 1.90632 47.8085 3.0903 46.6248 4.43324C44.7076 6.60836 41.6958 6.87851 41.6958 6.87851" fill="#F26522"/>
<path d="M51.9709 1.56512C51.9709 1.56512 49.7381 0.961408 48.8681 4.32224C48.3014 6.51212 48.2047 6.75274 47.4674 7.77168C47.1064 8.27202 46.1406 8.88008 45.8601 9.08422C45.102 9.63755 45.0508 9.94245 45.0508 9.94245V11.7953C45.0508 11.7953 45.4526 12.5588 46.5832 12.7543C47.7148 12.9497 48.7696 12.3677 49.0984 11.5095C49.197 11.2515 49.4112 10.289 48.5895 9.94245C48.055 9.71747 47.0817 9.87556 46.8344 10.018C46.5302 10.1918 46.5681 10.3637 46.715 10.3794C46.8637 10.395 47.077 10.3047 47.0277 10.455C46.9784 10.6052 46.8742 10.5827 46.8334 10.6808C46.7396 10.9058 47.0277 10.9371 47.1755 10.8763C47.3234 10.8163 47.7176 10.62 48.0304 10.7407C48.3431 10.8615 48.2967 11.288 48.1242 11.4834C47.9602 11.6676 47.53 12.009 46.605 11.8318C46.1842 11.751 45.4024 11.0969 46.1558 10.1596C46.715 9.46382 47.656 9.12765 48.4417 8.78279C49.7069 8.22512 49.9495 6.89346 49.9495 6.89346C49.9495 6.89346 50.2708 6.74666 50.5987 6.89694C50.9275 7.04809 50.8147 7.25309 50.8147 7.25309C50.8147 7.25309 50.6631 7.69002 50.8091 7.98102C51.0062 8.37539 51.4497 8.49527 51.4497 8.49527C51.4497 8.49527 51.5198 8.43794 51.499 8.20861C51.4791 7.98102 51.5322 7.68221 51.68 7.54583C51.8278 7.41032 51.9719 7.35038 51.9719 7.35038" fill="#ED1C24"/>
<path d="M50.0463 7.02474C50.0463 7.02474 50.1193 6.92397 50.3837 6.9952C50.6386 7.06469 50.6936 7.2002 50.6936 7.2002C50.6936 7.2002 50.2368 8.54228 49.5923 9.17205C48.9479 9.8027 48.493 9.84613 48.6589 9.63331C48.838 9.40399 49.1384 9.08519 49.5118 8.40937C49.8937 7.71705 50.0463 7.023 50.0463 7.023V7.02474Z" fill="#ED1C24"/>
<path d="M50.2803 0.000488281C50.2803 0.000488281 50.611 0.0656377 50.8148 0.342739C50.9816 0.567721 50.9759 0.834398 50.9759 0.834398L51.9681 1.28871V0.000488281H50.2803Z" fill="#004280"/>
<path d="M41.6958 3.4624C41.6958 3.4624 42.6075 4.2025 43.3713 4.41358C44.1352 4.62467 44.5456 4.65941 44.7635 4.6707C44.9815 4.68286 45.0497 4.6707 45.0497 4.6707C45.0497 4.6707 44.9123 4.42487 45.0384 4.17904C45.2137 3.84027 45.8013 3.69433 46.0306 4.06872C46.3358 4.56473 45.6676 5.06334 45.5122 5.16671C45.1909 5.3804 44.8081 5.68269 43.8035 6.0788C42.7487 6.49662 41.6958 6.65471 41.6958 6.65471V6.12657C42.2038 6.08401 42.6824 6.03102 43.5732 5.75131C44.5806 5.43338 44.9692 5.02251 44.9692 5.02251C44.9692 5.02251 44.0073 5.05812 42.8947 4.70719C42.1924 4.48481 41.6958 4.21205 41.6958 4.21205V3.4624Z" fill="#ED1C24"/>
<path d="M41.6956 4.56543C41.6956 4.56543 42.2927 4.82776 42.9267 4.96154C43.6109 5.10487 44.353 5.21171 44.353 5.21171C44.353 5.21171 44.0838 5.44625 43.0982 5.68078C42.2159 5.89013 41.6947 5.92661 41.6947 5.92661L41.6899 5.43409C41.6899 5.43409 41.8918 5.45928 42.3685 5.43409C43.2517 5.38805 43.5844 5.30552 43.5844 5.30552C43.5844 5.30552 42.7163 5.24646 42.504 5.21171C42.2964 5.1787 41.689 5.05796 41.689 5.05796L41.6937 4.56543H41.6956Z" fill="#F26522"/>
<path d="M51.9708 8.54179C51.9708 8.54179 51.0582 8.48793 50.3787 9.0847C49.6982 9.68146 49.4916 10.154 49.3864 10.5988C49.2812 11.0435 49.0983 11.6273 49.4916 12.3795C49.7456 12.8625 50.1143 12.9693 50.3246 12.998C50.536 13.0267 50.8866 12.9137 50.9501 12.575C50.9956 12.3317 50.9151 12.1259 50.6838 12.0112C50.5502 11.9452 50.3237 11.953 50.3237 11.953C50.3237 11.953 50.282 11.576 50.5559 11.3067C50.7416 11.1252 51.1226 11.0088 51.496 11.0531C51.859 11.0965 51.9689 11.1695 51.9689 11.1695V10.5406C51.9689 10.5406 51.496 10.4051 51.0525 10.511C50.609 10.617 50.282 10.8489 50.0707 11.1399C49.8584 11.4309 49.8584 11.6142 49.8584 11.6142C49.8584 11.6142 49.6688 11.3059 49.8195 10.7456C50.2138 9.27841 51.968 9.19502 51.968 9.19502V8.54092L51.9708 8.54179Z" fill="#004280"/>
<path d="M49.948 0.773788C49.948 0.881501 49.8533 0.968367 49.7358 0.968367C49.6182 0.968367 49.5244 0.881501 49.5244 0.773788C49.5244 0.666075 49.6192 0.580078 49.7358 0.580078C49.8523 0.580078 49.948 0.666943 49.948 0.773788Z" fill="#004280"/>
<path d="M51.969 3.83876C51.9585 3.83876 51.9481 3.83789 51.9377 3.83789C51.7813 3.83789 51.6553 3.95429 51.6553 4.09762C51.6553 4.24095 51.7813 4.35735 51.9377 4.35735C51.9481 4.35735 51.9585 4.35735 51.969 4.35561" fill="#004280"/>
<path d="M49.5176 2.77052C49.5403 2.79658 49.5422 2.79658 49.5697 2.8209C49.9744 3.19182 50.742 3.29867 51.1467 2.92862C51.5504 2.5577 51.5817 2.00524 51.1789 1.63432C51.1514 1.60913 51.1457 1.59349 51.1173 1.57178C51.1173 1.57178 50.7638 1.58481 50.163 2.02522C49.7365 2.3388 49.5185 2.76965 49.5185 2.76965L49.5176 2.77052Z" fill="#F26522"/>
<path d="M47.9122 17.5754C47.9122 17.5754 47.9804 16.136 47.6951 15.7547C47.4108 15.3733 46.8991 15.5627 46.5152 15.8242C46.1826 16.0518 45.7817 16.3384 46.067 16.7206C46.3513 17.102 47.9131 17.5754 47.9131 17.5754H47.9122Z" fill="#ED1C24"/>
<path d="M49.8546 15.914C49.9551 15.4267 49.449 15.2217 48.9723 15.1496C48.4966 15.0784 47.9858 15.1826 47.8872 15.6682C47.7867 16.1555 48.633 17.3994 48.633 17.3994C48.633 17.3994 49.7542 16.4005 49.8546 15.9132V15.914Z" fill="#ED1C24"/>
<path d="M51.2163 17.1369C51.5868 16.8181 51.5565 16.5132 51.1424 16.1154C50.8581 15.8426 50.4297 15.6116 50.0591 15.9304C49.6886 16.25 49.4678 17.6503 49.4678 17.6503C49.4678 17.6503 50.8476 17.4557 51.2172 17.1378L51.2163 17.1369Z" fill="#ED1C24"/>
<path d="M51.8989 18.9216C51.8989 18.7479 51.7927 18.6498 51.5615 18.6689C50.99 18.7149 49.8253 18.9008 49.7485 18.9216H51.8979H51.8989Z" fill="#ED1C24"/>
<path d="M49.4351 18.9223C49.5147 18.8198 49.5734 18.7008 49.6038 18.5714C49.7194 18.0676 49.3593 17.5837 48.7992 17.4899C48.2391 17.3978 47.6894 17.7305 47.5738 18.2344C47.516 18.4837 47.5747 18.7278 47.7178 18.9223H49.436H49.4351Z" fill="#004280"/>
<path d="M49.1984 18.9081C49.2562 18.8343 49.2979 18.7491 49.3197 18.6562C49.4031 18.2948 49.1453 17.9474 48.7435 17.8813C48.3416 17.8145 47.9474 18.0533 47.864 18.4147C47.8223 18.5936 47.8649 18.7682 47.9673 18.9081H49.1984Z" fill="#00AEEF"/>
<path d="M45.0625 18.9217H47.1778C46.9295 18.7888 45.9723 18.4414 45.5278 18.3919C45.2937 18.3667 45.09 18.444 45.0625 18.6203V18.9209V18.9217Z" fill="#ED1C24"/>
<path d="M45.9558 16.8395C45.518 16.6788 45.2233 16.777 45.0783 17.0714L45.0508 17.8619C45.0783 18.0521 45.0015 18.1998 45.1683 18.2554C45.699 18.4318 47.4096 18.1998 47.4096 18.1998C47.4096 18.1998 46.4799 17.0332 45.9558 16.8395Z" fill="#ED1C24"/>
<path d="M51.9933 17.4426C51.9933 17.1681 51.7298 16.9839 51.1527 17.294C50.6826 17.5442 49.769 18.1835 49.769 18.1835C49.769 18.1835 50.9366 18.5327 51.4759 18.5831C51.9421 18.6283 51.9933 18.5171 51.9933 18.3338V17.4426Z" fill="#ED1C24"/>
<path d="M43.2295 3.29383C43.2295 3.29383 43.3612 3.50926 43.5527 3.63782C43.7441 3.76638 44.3184 3.9349 44.3184 3.9349C44.3184 3.9349 44.3516 3.68386 44.6804 3.46148C44.8624 3.339 45.0908 3.29383 45.0908 3.29383C45.0908 3.29383 44.8463 3.17743 44.8103 2.97677C44.7799 2.79783 44.8226 2.67188 44.8226 2.67188L44.4928 2.87514C44.4928 2.87514 44.5307 2.9898 44.5743 3.07059C44.6188 3.15137 44.707 3.22608 44.707 3.22608C44.707 3.22608 44.4122 3.34856 44.3175 3.46235C44.2217 3.57615 44.1924 3.66388 44.1924 3.66388C44.1924 3.66388 43.9858 3.63435 43.8322 3.51447C43.6768 3.39373 43.5934 3.20697 43.5934 3.20697L43.2295 3.2921V3.29383Z" fill="#F26522"/>
<path d="M43.856 3.12895C43.856 3.12895 43.9337 3.2497 44.0133 3.30095L44.0948 3.35133C44.0948 3.35133 44.0948 3.30355 44.2047 3.24014C44.3156 3.17673 44.3516 3.17673 44.3516 3.17673C44.3516 3.17673 44.3052 3.14024 44.2786 3.06207L44.2521 2.98389L43.856 3.12895Z" fill="#F26522"/>
<path d="M47.8864 0.960938C47.8864 0.960938 47.2979 1.09992 46.9501 1.46042C46.6023 1.82004 47.1055 2.08932 47.2932 1.87563C47.4808 1.66194 47.296 1.10687 47.8864 0.960938Z" fill="#ED1C24"/>
<path d="M47.2277 0.745025C46.6097 0.923969 46.0478 1.18109 46.0478 1.18109C46.0478 1.18109 46.0686 1.18543 45.917 1.43387C45.7663 1.68231 45.7284 1.74051 45.7284 1.74051C45.7284 1.74051 46.1747 1.64669 46.6514 1.37828C47.1281 1.10986 47.1395 1.04992 47.5082 0.925706C47.8768 0.802357 48.1157 0.772822 48.1157 0.772822C48.1157 0.772822 47.6721 1.2888 47.5195 1.71618C47.3679 2.14356 47.1613 2.90798 46.9775 3.2068C46.7927 3.50388 46.6514 3.65329 46.6514 3.65329C46.6514 3.65329 46.5917 3.52473 46.4041 3.42309C46.551 3.37358 46.7036 3.29714 46.8144 3.17987C47.004 2.97747 47.0713 2.72382 47.0514 2.48407C47.0353 2.27907 46.9699 2.14182 46.8315 1.98894C46.6931 1.83606 46.4079 1.70402 45.9994 1.76309C45.6848 1.80826 45.6431 1.86125 45.6431 1.86125C45.6431 1.86125 45.5483 2.00979 45.3739 2.18439C45.1986 2.35899 45.0489 2.49276 45.0489 2.49276C45.0489 2.49276 44.9276 2.73946 45.0129 2.974C45.0839 3.16771 45.2659 3.21548 45.3844 3.21288C45.6355 3.20767 45.7644 3.07563 45.8146 2.974C45.8639 2.87236 45.8468 2.74467 45.7748 2.66823C45.7028 2.59179 45.609 2.56747 45.5692 2.57094C45.499 2.57615 45.4858 2.58136 45.4365 2.60742C45.4365 2.60742 45.5189 2.42414 45.6696 2.33814C45.8203 2.25041 46.0279 2.1592 46.3359 2.23564C46.5538 2.2895 46.6894 2.49711 46.7112 2.63262C46.7462 2.85499 46.6552 2.99571 46.5605 3.09735C46.4837 3.18074 46.3235 3.28498 46.1349 3.33101C46.1198 3.32754 46.1056 3.3232 46.0895 3.32146C46.261 3.27108 46.387 3.18682 46.4704 3.06868C46.5889 2.9019 46.5965 2.71166 46.4922 2.57615C46.4031 2.46236 46.315 2.4059 46.1473 2.38592C45.9786 2.36681 45.844 2.44499 45.844 2.44499C45.844 2.44499 46.0999 2.44759 46.1776 2.64478C46.2345 2.78897 46.1937 2.9184 46.1122 3.04436C45.9985 3.21809 45.6516 3.31017 45.6516 3.31017C45.4071 3.33362 45.1323 3.40051 44.9152 3.5447C44.558 3.78359 44.5087 4.1406 44.5087 4.1406C44.5087 4.1406 44.0718 4.05895 43.706 3.89477C43.2065 3.6724 42.8995 3.3536 42.8995 3.3536C42.8995 3.3536 42.8483 3.36663 42.6104 3.39269C42.3716 3.41962 42.0674 3.44394 42.0674 3.44394C42.0674 3.44394 42.7554 4.00336 43.525 4.24137C44.2935 4.48025 44.7901 4.50718 44.7901 4.50718C44.7901 4.50718 44.6764 4.06764 45.0707 3.79922C45.6668 3.39443 46.2345 3.74884 46.3283 4.07719C46.3813 4.26135 46.3368 4.42726 46.3368 4.42726C46.3368 4.42726 47.022 3.75231 47.3139 3.11646C47.6067 2.48147 47.6825 1.94377 47.9214 1.45732C48.1602 0.970876 48.6151 0.563477 48.6151 0.563477C48.6151 0.563477 47.8465 0.566951 47.2286 0.745025H47.2277Z" fill="#004280"/>
<path d="M49.5701 3.13626C49.6383 3.17274 49.6591 3.25353 49.6184 3.31433C49.5776 3.37601 49.4914 3.39598 49.4232 3.35863C49.3559 3.32128 49.335 3.24136 49.3758 3.17969C49.4165 3.11801 49.5037 3.0989 49.5701 3.13626Z" fill="#F26522"/>
<path d="M49.7467 3.24737C49.7819 3.26737 49.7932 3.30913 49.7714 3.34132C49.7505 3.37351 49.704 3.38395 49.6699 3.36394C49.6347 3.34567 49.6234 3.30304 49.6442 3.27085C49.6661 3.23867 49.7107 3.22823 49.7467 3.24737Z" fill="#F26522"/>
<path d="M49.426 3.40481C49.4923 3.44216 49.5141 3.52208 49.4743 3.58375C49.4335 3.64456 49.3463 3.66454 49.2791 3.62719C49.2118 3.58983 49.19 3.50992 49.2317 3.44824C49.2715 3.38657 49.3606 3.36746 49.4269 3.40481H49.426Z" fill="#F26522"/>
<path d="M49.6058 3.51634C49.64 3.53635 49.6524 3.57811 49.6305 3.60943C49.6096 3.64249 49.5641 3.65206 49.529 3.63292C49.4929 3.61291 49.4825 3.57115 49.5033 3.53896C49.5242 3.50764 49.5698 3.49633 49.6058 3.51634Z" fill="#F26522"/>
<path d="M49.2778 3.73138C49.3451 3.76873 49.3669 3.84865 49.3261 3.91032C49.2854 3.97113 49.1982 3.9911 49.1309 3.95462C49.0646 3.91727 49.0418 3.83735 49.0835 3.77568C49.1243 3.71487 49.2124 3.69489 49.2787 3.73225L49.2778 3.73138Z" fill="#F26522"/>
<path d="M49.4547 3.84052C49.4898 3.86053 49.5012 3.90229 49.4804 3.93448C49.4585 3.96667 49.4139 3.97624 49.3788 3.9571C49.3427 3.93709 49.3323 3.89533 49.3541 3.86314C49.375 3.83095 49.4206 3.82051 49.4557 3.83965L49.4547 3.84052Z" fill="#F26522"/>
<path d="M49.2043 4.05374C49.2716 4.09109 49.2934 4.17101 49.2526 4.23268C49.2119 4.29349 49.1247 4.31346 49.0574 4.27611C48.9901 4.23876 48.9683 4.15884 49.01 4.09717C49.0498 4.0355 49.137 4.01638 49.2043 4.05374Z" fill="#F26522"/>
<path d="M49.3852 4.16132C49.4194 4.18046 49.4307 4.22309 49.4099 4.25528C49.388 4.28747 49.3425 4.29704 49.3074 4.27703C49.2732 4.25789 49.2618 4.21613 49.2836 4.18394C49.3045 4.15175 49.3501 4.14131 49.3861 4.16045L49.3852 4.16132Z" fill="#F26522"/>
<path d="M49.1333 4.38127C49.1996 4.41775 49.2214 4.49853 49.1807 4.55934C49.1409 4.62102 49.0537 4.64099 48.9854 4.60277C48.9191 4.56542 48.8973 4.4855 48.9381 4.42383C48.9788 4.36216 49.066 4.34304 49.1333 4.3804V4.38127Z" fill="#F26522"/>
<path d="M49.3111 4.49174C49.3463 4.51175 49.3567 4.55351 49.3358 4.58483C49.314 4.61702 49.2684 4.62746 49.2343 4.60745C49.1982 4.58831 49.1878 4.54655 49.2096 4.51436C49.2305 4.48217 49.277 4.4726 49.3111 4.49174Z" fill="#F26522"/>
<path d="M49.0624 4.69046C49.1288 4.72694 49.1496 4.80772 49.1098 4.86853C49.0691 4.9302 48.9819 4.95018 48.9146 4.91283C48.8473 4.87548 48.8255 4.79469 48.8662 4.73389C48.9079 4.67221 48.9942 4.6531 49.0624 4.69046Z" fill="#F26522"/>
<path d="M49.2389 4.79925C49.273 4.81839 49.2844 4.86102 49.2645 4.89234C49.2427 4.92453 49.1971 4.9341 49.162 4.91496C49.1259 4.89495 49.1155 4.85319 49.1373 4.821C49.1573 4.78881 49.2038 4.77924 49.2389 4.79838V4.79925Z" fill="#F26522"/>
<path d="M48.9177 5.00899C48.985 5.04634 49.0068 5.12539 48.9661 5.18707C48.9244 5.24874 48.8381 5.26872 48.7708 5.2305C48.7035 5.19402 48.6827 5.11323 48.7234 5.05156C48.7632 4.99075 48.8514 4.97077 48.9177 5.00812V5.00899Z" fill="#F26522"/>
<path d="M49.0966 5.11504C49.1317 5.13505 49.1431 5.17681 49.1222 5.209C49.1004 5.24119 49.0548 5.25163 49.0207 5.23162C48.9855 5.21248 48.9742 5.17072 48.996 5.13853C49.0169 5.10634 49.0624 5.0959 49.0975 5.11504H49.0966Z" fill="#F26522"/>
<path d="M48.8457 5.33489C48.9129 5.37224 48.9347 5.45216 48.894 5.51383C48.8532 5.57551 48.766 5.59462 48.6988 5.55814C48.6315 5.52078 48.6097 5.44087 48.6504 5.37919C48.6912 5.31839 48.7784 5.29841 48.8457 5.33576V5.33489Z" fill="#F26522"/>
<path d="M49.0214 5.44232C49.0565 5.46146 49.0679 5.50409 49.047 5.53541C49.0261 5.56847 48.9796 5.57804 48.9455 5.5589C48.9094 5.53889 48.899 5.49713 48.9198 5.46494C48.9407 5.43275 48.9872 5.42231 49.0214 5.44232Z" fill="#F26522"/>
<path d="M48.7709 5.6846C48.8382 5.72195 48.86 5.80187 48.8193 5.86354C48.7785 5.92522 48.6913 5.94433 48.6241 5.90698C48.5577 5.87049 48.535 5.78971 48.5767 5.7289C48.6174 5.66723 48.7046 5.64725 48.7719 5.68547L48.7709 5.6846Z" fill="#F26522"/>
<path d="M48.9494 5.7934C48.9835 5.81254 48.9959 5.85517 48.975 5.88649C48.9532 5.91867 48.9076 5.92911 48.8725 5.9091C48.8374 5.88996 48.826 5.84821 48.8469 5.81602C48.8687 5.78383 48.9152 5.77339 48.9494 5.7934Z" fill="#F26522"/>
<path d="M48.663 6.01174C48.7303 6.0491 48.7512 6.12901 48.7114 6.19069C48.6706 6.25236 48.5834 6.27147 48.5161 6.23412C48.4489 6.19677 48.4271 6.11685 48.4678 6.05518C48.5076 5.9935 48.5958 5.97439 48.663 6.01174Z" fill="#F26522"/>
<path d="M48.8397 6.12055C48.8739 6.13969 48.8862 6.18231 48.8644 6.21363C48.8435 6.24582 48.798 6.25626 48.7629 6.23712C48.7277 6.21711 48.7163 6.17535 48.7382 6.14317C48.76 6.11098 48.8046 6.10054 48.8407 6.12055H48.8397Z" fill="#F26522"/>
<path d="M48.5105 6.36502C48.5768 6.40238 48.5986 6.48229 48.5588 6.54397C48.5181 6.60477 48.4309 6.62475 48.3636 6.5874C48.2963 6.55005 48.2755 6.47013 48.3162 6.40933C48.357 6.34765 48.4442 6.32767 48.5105 6.36502Z" fill="#F26522"/>
<path d="M48.6887 6.4764C48.7238 6.49554 48.7352 6.5373 48.7134 6.57036C48.6925 6.60255 48.6469 6.61212 48.6118 6.59298C48.5767 6.57297 48.5663 6.53208 48.5862 6.49902C48.608 6.4677 48.6526 6.45726 48.6887 6.4764Z" fill="#F26522"/>
<path d="M48.3776 6.67131C48.4439 6.70866 48.4657 6.78858 48.425 6.85026C48.3842 6.91193 48.297 6.93191 48.2297 6.89369C48.1625 6.85634 48.1407 6.77642 48.1824 6.71475C48.2231 6.65394 48.3094 6.63483 48.3776 6.67131Z" fill="#F26522"/>
<path d="M48.5568 6.78343C48.592 6.80257 48.6033 6.8452 48.5815 6.87652C48.5597 6.90958 48.5141 6.91915 48.479 6.90001C48.4439 6.88087 48.4334 6.83824 48.4534 6.80605C48.4752 6.77473 48.5208 6.76342 48.5559 6.78343H48.5568Z" fill="#F26522"/>
<path d="M48.2403 6.99905C48.3075 7.0364 48.3293 7.11632 48.2886 7.17799C48.2478 7.2388 48.1597 7.25791 48.0934 7.22143C48.0261 7.18407 48.0052 7.10416 48.045 7.04248C48.0858 6.98081 48.1739 6.9617 48.2403 6.99905Z" fill="#F26522"/>
<path d="M48.4191 7.1098C48.4532 7.12981 48.4646 7.17157 48.4437 7.20289C48.4229 7.23595 48.3764 7.24465 48.3412 7.22551C48.3071 7.2055 48.2947 7.16374 48.3166 7.13155C48.3374 7.09936 48.384 7.08979 48.4191 7.10893V7.1098Z" fill="#F26522"/>
<path d="M48.0838 7.26068C48.1454 7.30498 48.1568 7.38577 48.1085 7.4431C48.0601 7.49956 47.971 7.50998 47.9094 7.46568C47.8478 7.42051 47.8365 7.33886 47.8857 7.28326C47.9331 7.22593 48.0232 7.21638 48.0838 7.26068Z" fill="#F26522"/>
<path d="M48.2485 7.38913C48.2817 7.41262 48.2874 7.45525 48.2618 7.48483C48.2371 7.51441 48.1906 7.5205 48.1574 7.49701C48.1251 7.47439 48.1185 7.43089 48.1441 7.40218C48.1688 7.3726 48.2153 7.36738 48.2476 7.39L48.2485 7.38913Z" fill="#F26522"/>
<path d="M47.8917 7.56022C47.9533 7.60365 47.9647 7.68531 47.9163 7.74264C47.868 7.7991 47.7789 7.80952 47.7164 7.76522C47.6548 7.72179 47.6443 7.63927 47.6917 7.5828C47.7391 7.52634 47.8291 7.51592 47.8907 7.56022H47.8917Z" fill="#F26522"/>
<path d="M48.0546 7.68791C48.0869 7.71053 48.0926 7.75403 48.067 7.7836C48.0413 7.81318 47.9958 7.8184 47.9616 7.79578C47.9293 7.77317 47.9246 7.73054 47.9493 7.70009C47.9749 7.67138 48.0214 7.66529 48.0546 7.68878V7.68791Z" fill="#F26522"/>
<path d="M47.6991 7.81861C47.7532 7.87073 47.7503 7.95325 47.6935 8.00276C47.6366 8.05141 47.5466 8.04967 47.4935 7.99755C47.4395 7.94456 47.4423 7.86291 47.4982 7.81339C47.556 7.76388 47.6451 7.76649 47.6991 7.81861Z" fill="#F26522"/>
<path d="M47.84 7.96617C47.8685 7.99314 47.8666 8.03664 47.8371 8.06274C47.8068 8.08797 47.7603 8.0871 47.7327 8.06013C47.7043 8.03229 47.7062 7.99053 47.7356 7.96443C47.765 7.93833 47.8125 7.94007 47.8409 7.96704L47.84 7.96617Z" fill="#F26522"/>
<path d="M47.4982 8.08145C47.5513 8.13357 47.5484 8.21609 47.4915 8.26561C47.4356 8.31425 47.3456 8.31252 47.2916 8.2604C47.2376 8.20741 47.2395 8.12489 47.2973 8.07624C47.3541 8.0276 47.4432 8.02933 47.4982 8.08145Z" fill="#F26522"/>
<path d="M47.637 8.23161C47.6655 8.25945 47.6636 8.30208 47.6341 8.32818C47.6047 8.35341 47.5573 8.35254 47.5288 8.32557C47.5013 8.29773 47.5032 8.2551 47.5326 8.229C47.562 8.2029 47.6095 8.20377 47.637 8.23074V8.23161Z" fill="#F26522"/>
<path d="M47.1832 8.31925C47.2372 8.37137 47.2353 8.45389 47.1785 8.5034C47.1216 8.55291 47.0316 8.55031 46.9775 8.49819C46.9245 8.44607 46.9273 8.36355 46.9832 8.31403C47.041 8.26539 47.1311 8.26713 47.1841 8.31925H47.1832Z" fill="#F26522"/>
<path d="M47.3225 8.46882C47.351 8.49579 47.3491 8.53929 47.3196 8.56452C47.2893 8.59062 47.2418 8.58975 47.2143 8.56191C47.1868 8.53407 47.1877 8.49144 47.2171 8.46621C47.2466 8.44011 47.294 8.44098 47.3225 8.46882Z" fill="#F26522"/>
<path d="M46.8739 8.55732C46.927 8.60944 46.9251 8.69196 46.8673 8.74061C46.8104 8.79012 46.7204 8.78838 46.6673 8.7354C46.6133 8.68328 46.6161 8.60076 46.6721 8.55124C46.7289 8.5026 46.819 8.50433 46.8739 8.55732Z" fill="#F26522"/>
<path d="M47.0137 8.70532C47.0422 8.73316 47.0403 8.77579 47.0099 8.80189C46.9805 8.82799 46.934 8.82625 46.9055 8.79928C46.877 8.77144 46.8789 8.72881 46.9093 8.70271C46.9387 8.67661 46.9852 8.67835 47.0137 8.70532Z" fill="#F26522"/>
<path d="M46.5771 8.79088C46.6301 8.843 46.6282 8.92552 46.5714 8.97504C46.5145 9.02455 46.4245 9.02194 46.3705 8.96983C46.3174 8.91771 46.3193 8.83518 46.3761 8.78654C46.434 8.73703 46.523 8.73963 46.5771 8.79175V8.79088Z" fill="#F26522"/>
<path d="M46.7164 8.94105C46.7449 8.96802 46.743 9.01152 46.7136 9.03675C46.6842 9.06285 46.6367 9.06111 46.6082 9.03414C46.5807 9.00543 46.5817 8.9628 46.612 8.93757C46.6414 8.91148 46.6889 8.91322 46.7174 8.94018L46.7164 8.94105Z" fill="#F26522"/>
<path d="M46.245 9.02823C46.2981 9.08122 46.2962 9.16287 46.2393 9.21238C46.1815 9.2619 46.0934 9.26016 46.0384 9.20717C45.9844 9.15505 45.9872 9.07253 46.0432 9.02302C46.1 8.97437 46.1901 8.97611 46.2441 9.02823H46.245Z" fill="#F26522"/>
<path d="M46.3844 9.17897C46.4129 9.20594 46.411 9.24944 46.3806 9.27467C46.3521 9.30077 46.3047 9.29903 46.2762 9.27119C46.2477 9.24422 46.2496 9.20159 46.279 9.17462C46.3085 9.14939 46.3559 9.15113 46.3844 9.1781V9.17897Z" fill="#F26522"/>
<path d="M45.9075 9.2657C45.9625 9.31695 45.9587 9.39947 45.9018 9.44898C45.844 9.49763 45.754 9.49589 45.7009 9.44377C45.6469 9.39165 45.6497 9.30913 45.7066 9.26049C45.7635 9.21097 45.8535 9.21271 45.9075 9.2657Z" fill="#F26522"/>
<path d="M46.0473 9.41428C46.0758 9.44125 46.0739 9.48475 46.0445 9.50998C46.0151 9.53608 45.9676 9.53521 45.9391 9.50737C45.9106 9.47953 45.9116 9.43603 45.942 9.41167C45.9723 9.38644 46.0189 9.38644 46.0473 9.41428Z" fill="#F26522"/>
<path d="M45.6442 9.48999C45.6972 9.54211 45.6963 9.62464 45.6385 9.67415C45.5807 9.72279 45.4916 9.72106 45.4376 9.66894C45.3836 9.61595 45.3855 9.53429 45.4433 9.48478C45.5011 9.43527 45.5902 9.43787 45.6442 9.48999Z" fill="#F26522"/>
<path d="M45.7846 9.63993C45.8122 9.6669 45.8112 9.7104 45.7808 9.73563C45.7514 9.76173 45.704 9.75999 45.6755 9.73302C45.6461 9.70518 45.6489 9.66256 45.6783 9.63646C45.7078 9.61123 45.7543 9.6121 45.7837 9.63907L45.7846 9.63993Z" fill="#F26522"/>
<path d="M45.3781 9.79029C45.4302 9.84241 45.4283 9.92493 45.3724 9.97444C45.3146 10.024 45.2246 10.0213 45.1715 9.96836C45.1165 9.91624 45.1203 9.83372 45.1772 9.78507C45.2331 9.73556 45.3241 9.73817 45.3781 9.79029Z" fill="#F26522"/>
<path d="M45.5178 9.93816C45.5463 9.966 45.5444 10.0086 45.515 10.0347C45.4846 10.0608 45.4371 10.0591 45.4096 10.0321C45.3821 10.0043 45.383 9.96165 45.4125 9.93642C45.4428 9.91032 45.4893 9.91119 45.5178 9.93903V9.93816Z" fill="#F26522"/>
<path d="M45.1159 11.7278C45.1501 11.6912 45.2108 11.6869 45.2507 11.7182C45.2905 11.7495 45.2943 11.8052 45.2611 11.8417C45.226 11.8783 45.1653 11.8826 45.1254 11.8513C45.0846 11.82 45.0808 11.7652 45.1149 11.7278H45.1159Z" fill="#F26522"/>
<path d="M45.2145 11.6333C45.2325 11.6142 45.2638 11.6124 45.2847 11.629C45.3056 11.6455 45.3075 11.6742 45.2895 11.6934C45.2714 11.7125 45.2401 11.7142 45.2192 11.6977C45.1983 11.682 45.1964 11.6525 45.2145 11.6333Z" fill="#F26522"/>
<path d="M45.2531 11.8972C45.2863 11.8607 45.348 11.8563 45.3879 11.8876C45.4278 11.9189 45.4325 11.9755 45.3974 12.0112C45.3632 12.0477 45.3025 12.0521 45.2626 12.0207C45.2227 11.9894 45.218 11.9346 45.2531 11.8972Z" fill="#F26522"/>
<path d="M45.3537 11.7996C45.3718 11.7796 45.404 11.7779 45.424 11.7944C45.4448 11.8109 45.4477 11.8405 45.4296 11.8588C45.4116 11.8779 45.3803 11.8797 45.3594 11.864C45.3385 11.8475 45.3357 11.8188 45.3537 11.7996Z" fill="#F26522"/>
<path d="M45.4136 12.07C45.4488 12.0326 45.5086 12.0291 45.5494 12.0596C45.5892 12.0917 45.594 12.1466 45.5598 12.1831C45.5256 12.2196 45.4649 12.224 45.425 12.1927C45.3852 12.1605 45.3804 12.1057 45.4136 12.07Z" fill="#F26522"/>
<path d="M45.5164 11.9707C45.5344 11.9516 45.5667 11.9498 45.5866 11.9664C45.6075 11.9829 45.6094 12.0116 45.5923 12.0308C45.5733 12.0508 45.542 12.0525 45.5211 12.0351C45.5003 12.0194 45.4984 11.9899 45.5154 11.9707H45.5164Z" fill="#F26522"/>
<path d="M45.6039 12.1945C45.639 12.1571 45.6988 12.1545 45.7396 12.1849C45.7785 12.2171 45.7833 12.2728 45.7481 12.3093C45.7149 12.3459 45.6542 12.3494 45.6134 12.3189C45.5735 12.2876 45.5687 12.2319 45.6029 12.1954L45.6039 12.1945Z" fill="#F26522"/>
<path d="M45.7031 12.1C45.7211 12.0808 45.7534 12.0782 45.7743 12.0956C45.7952 12.1113 45.798 12.1409 45.779 12.1591C45.762 12.1792 45.7306 12.1809 45.7088 12.1644C45.6889 12.1478 45.686 12.1183 45.7031 12.1Z" fill="#F26522"/>
<path d="M45.7963 12.3243C45.8304 12.2878 45.8912 12.2834 45.9311 12.3156C45.9709 12.3469 45.9757 12.4026 45.9415 12.4391C45.9073 12.4757 45.8466 12.48 45.8067 12.4487C45.7668 12.4174 45.7621 12.3617 45.7963 12.3252V12.3243Z" fill="#F26522"/>
<path d="M45.8984 12.2271C45.9155 12.2079 45.9468 12.2053 45.9677 12.2219C45.9886 12.2393 45.9914 12.268 45.9734 12.2871C45.9553 12.3063 45.924 12.308 45.9022 12.2915C45.8813 12.2749 45.8794 12.2462 45.8984 12.2271Z" fill="#F26522"/>
<path d="M46.0252 12.4356C46.0594 12.3982 46.1201 12.3947 46.1609 12.426C46.1998 12.4582 46.2046 12.513 46.1704 12.5495C46.1362 12.587 46.0755 12.5896 46.0347 12.5582C45.9948 12.5261 45.991 12.4721 46.0252 12.4347V12.4356Z" fill="#F26522"/>
<path d="M46.1261 12.3369C46.1441 12.3178 46.1754 12.3161 46.1954 12.3326C46.2172 12.3482 46.2191 12.3778 46.2011 12.397C46.183 12.4161 46.1517 12.4187 46.1299 12.4022C46.109 12.3857 46.1071 12.3561 46.1251 12.3378L46.1261 12.3369Z" fill="#F26522"/>
<path d="M46.2619 12.5435C46.2847 12.5 46.3416 12.4826 46.3891 12.5034C46.4365 12.5252 46.4565 12.5783 46.4328 12.6209C46.41 12.6644 46.3521 12.6827 46.3056 12.6618C46.2581 12.64 46.2372 12.5878 46.2619 12.5443V12.5435Z" fill="#F26522"/>
<path d="M46.3328 12.4265C46.3442 12.4039 46.3746 12.3943 46.4002 12.4056C46.4249 12.4161 46.4344 12.4439 46.423 12.4665C46.4107 12.4883 46.3803 12.4987 46.3556 12.4874C46.3309 12.477 46.3205 12.4491 46.3328 12.4265Z" fill="#F26522"/>
<path d="M46.4848 12.6C46.5076 12.5565 46.5655 12.5382 46.612 12.56C46.6595 12.5808 46.6794 12.6348 46.6557 12.6774C46.6329 12.7209 46.575 12.7392 46.5275 12.7183C46.4801 12.6966 46.4611 12.6435 46.4848 12.6009V12.6Z" fill="#F26522"/>
<path d="M46.5557 12.4824C46.567 12.4606 46.5974 12.4502 46.6221 12.4606C46.6458 12.4719 46.6572 12.4998 46.6458 12.5224C46.6335 12.5459 46.6022 12.5546 46.5784 12.5424C46.5528 12.5328 46.5433 12.5041 46.5557 12.4824Z" fill="#F26522"/>
<path d="M46.7456 12.6579C46.756 12.6109 46.8063 12.5796 46.8585 12.5891C46.9108 12.5987 46.944 12.6448 46.9335 12.6927C46.9231 12.7405 46.8718 12.771 46.8206 12.7614C46.7693 12.7518 46.7361 12.7057 46.7465 12.6579H46.7456Z" fill="#F26522"/>
<path d="M46.7829 12.5291C46.7876 12.5039 46.8142 12.4891 46.8417 12.4934C46.8683 12.4987 46.8854 12.5221 46.8806 12.5474C46.8749 12.5726 46.8483 12.5883 46.8218 12.583C46.7952 12.5778 46.7781 12.5543 46.7838 12.5291H46.7829Z" fill="#F26522"/>
<path d="M46.986 12.6647C46.9964 12.6169 47.0467 12.5864 47.0989 12.596C47.1492 12.6064 47.1824 12.6525 47.173 12.6987C47.1625 12.7465 47.1122 12.7778 47.06 12.7674C47.0087 12.7578 46.9755 12.7117 46.985 12.6639L46.986 12.6647Z" fill="#F26522"/>
<path d="M47.0239 12.5371C47.0277 12.5128 47.0552 12.4962 47.0827 12.5015C47.1102 12.5067 47.1273 12.5302 47.1216 12.5545C47.1159 12.5798 47.0903 12.5954 47.0628 12.5902C47.0362 12.5858 47.0182 12.5615 47.0248 12.5363L47.0239 12.5371Z" fill="#F26522"/>
<path d="M47.2338 12.6469C47.229 12.5991 47.2689 12.5564 47.3221 12.553C47.3743 12.5495 47.4208 12.586 47.4246 12.6339C47.4284 12.6817 47.3885 12.7244 47.3353 12.7287C47.2831 12.7322 47.2366 12.6965 47.2338 12.6478V12.6469Z" fill="#F26522"/>
<path d="M47.2296 12.5135C47.2277 12.4891 47.2486 12.4665 47.2771 12.4639C47.3036 12.463 47.3283 12.4813 47.3302 12.5065C47.3331 12.5318 47.3112 12.5535 47.2847 12.5552C47.2571 12.5579 47.2334 12.5387 47.2306 12.5135H47.2296Z" fill="#F26522"/>
<path d="M47.4714 12.6074C47.4677 12.5595 47.5066 12.5169 47.5588 12.5134C47.6119 12.5099 47.6584 12.5465 47.6622 12.5943C47.666 12.6422 47.6271 12.6848 47.573 12.6883C47.5208 12.6918 47.4743 12.6561 47.4714 12.6074Z" fill="#F26522"/>
<path d="M47.4674 12.4731C47.4655 12.4488 47.4864 12.4262 47.513 12.4244C47.5405 12.4227 47.5652 12.4418 47.5671 12.4662C47.569 12.4914 47.5481 12.5132 47.5215 12.5158C47.494 12.5184 47.4693 12.4992 47.4674 12.4731Z" fill="#F26522"/>
<path d="M47.7031 12.5585C47.6993 12.5107 47.7392 12.4681 47.7914 12.4646C47.8445 12.4611 47.8891 12.4976 47.8939 12.5455C47.8977 12.5933 47.8578 12.636 47.8047 12.6395C47.7525 12.6429 47.7069 12.6064 47.7021 12.5585H47.7031Z" fill="#F26522"/>
<path d="M47.6984 12.4273C47.6965 12.402 47.7183 12.3803 47.7449 12.3785C47.7724 12.3768 47.7961 12.3951 47.798 12.4203C47.7999 12.4455 47.779 12.4681 47.7525 12.469C47.7249 12.4708 47.7012 12.4525 47.6984 12.4273Z" fill="#F26522"/>
<path d="M47.9672 12.4918C47.9445 12.4475 47.9653 12.3961 48.0137 12.3752C48.0612 12.3552 48.1181 12.3735 48.14 12.4187C48.1628 12.4614 48.1419 12.5153 48.0935 12.5353C48.0451 12.5553 47.9891 12.5353 47.9672 12.4927V12.4918Z" fill="#F26522"/>
<path d="M47.9111 12.3695C47.8988 12.3469 47.9111 12.3191 47.9348 12.3078C47.9605 12.2973 47.9899 12.3078 48.0022 12.3304C48.0136 12.3539 48.0022 12.3817 47.9776 12.3913C47.9529 12.4026 47.9234 12.3922 47.9111 12.3695Z" fill="#F26522"/>
<path d="M48.2098 12.3429C48.187 12.2994 48.2088 12.2472 48.2563 12.2272C48.3037 12.2063 48.3607 12.2255 48.3834 12.2698C48.4053 12.3142 48.3844 12.3655 48.3369 12.3864C48.2895 12.4064 48.2325 12.3873 48.2107 12.3429H48.2098Z" fill="#F26522"/>
<path d="M48.155 12.2211C48.1436 12.1976 48.154 12.1706 48.1797 12.1593C48.2043 12.1489 48.2338 12.1593 48.2461 12.182C48.2565 12.2037 48.2461 12.2307 48.2214 12.242C48.1967 12.2533 48.1673 12.2437 48.155 12.2202V12.2211Z" fill="#F26522"/>
<path d="M47.9413 10.8903C47.7205 10.7652 47.5167 10.9493 47.2864 11.031C47.0381 11.1187 46.695 11.084 46.5245 10.9624C46.1302 10.6809 46.2582 10.3213 46.2582 10.3213C46.2582 10.3213 46.0904 10.4585 46.0269 10.7104C45.9435 11.0423 46.0174 11.5287 46.6638 11.712C47.1462 11.8493 47.7006 11.6338 47.8389 11.5296C48.0503 11.368 48.2227 11.0492 47.9422 10.8911L47.9413 10.8903Z" fill="#004280"/>
<path d="M46.9422 9.74397C46.9015 9.79696 47.2464 9.60586 47.8785 9.63365C48.1638 9.64755 48.4604 9.70141 48.4604 9.70141C48.4604 9.70141 48.596 9.5685 48.9002 9.16458C49.2935 8.64425 49.5418 8.10742 49.5418 8.10742C49.1058 8.6929 48.3931 9.01777 47.8331 9.26274C47.381 9.46079 47.0389 9.61715 46.9422 9.7431V9.74397Z" fill="#004280"/>
<path d="M50.8167 8.32702C50.6822 8.21236 50.5808 7.96045 50.5808 7.96045C50.5808 7.96045 50.3315 8.49641 49.9524 8.99328C49.7259 9.28949 49.4388 9.56486 49.1753 9.72382C48.9896 9.83588 48.8872 9.83675 48.8872 9.83675C48.8872 9.83675 49.0597 9.99137 49.1308 10.1286C49.2018 10.2659 49.2483 10.4014 49.2483 10.4014C49.2483 10.4014 49.4843 9.78463 50.0396 9.22087C50.613 8.63713 51.1759 8.54071 51.1759 8.54071C51.1759 8.54071 50.9513 8.44429 50.8167 8.32789V8.32702Z" fill="#004280"/>
<path d="M50.3211 2.24451C50.087 2.4026 49.8823 2.27491 49.8804 2.27317L50.1097 2.0647L50.3817 1.87012C50.467 1.9648 50.4632 2.14896 50.3211 2.24451Z" fill="#ED1C24"/>
<path d="M49.9852 2.34375C49.9852 2.34375 49.8857 2.47665 49.736 2.56265C49.5862 2.64952 49.5512 2.77026 49.6478 2.80153C49.7445 2.83367 49.8857 2.73812 49.9359 2.5974C49.9862 2.45668 49.9852 2.34375 49.9852 2.34375Z" fill="#ED1C24"/>
<path d="M50.1108 2.34375C50.1108 2.34375 50.053 2.50879 49.9621 2.65212C49.8701 2.79545 49.9128 2.89448 50.0274 2.85973C50.1402 2.82499 50.217 2.67905 50.1781 2.55831C50.1383 2.43756 50.1108 2.34375 50.1108 2.34375Z" fill="#ED1C24"/>
<path d="M50.2801 2.28467C50.2801 2.28467 50.2981 2.43842 50.2697 2.59043C50.2422 2.74245 50.3322 2.80152 50.4327 2.72594C50.5322 2.65124 50.5445 2.50357 50.4469 2.42452C50.3521 2.34547 50.2791 2.28467 50.2791 2.28467H50.2801Z" fill="#ED1C24"/>
<path d="M50.3882 2.22346C50.3882 2.22346 50.501 2.31641 50.5692 2.43194C50.6365 2.54834 50.7616 2.53705 50.8118 2.43021C50.862 2.32336 50.7824 2.21912 50.6393 2.22173C50.4972 2.22433 50.3891 2.22346 50.3891 2.22346H50.3882Z" fill="#ED1C24"/>
<path d="M50.4526 2.08886C50.4526 2.08886 50.6128 2.10971 50.7369 2.16791C50.863 2.22611 50.9834 2.16096 50.9834 2.05672C50.9815 1.95161 50.8497 1.90818 50.7066 1.9742C50.5626 2.03935 50.4526 2.08799 50.4526 2.08799V2.08886Z" fill="#ED1C24"/>
<path d="M50.4316 1.9445C50.4316 1.9445 50.6155 1.90715 50.7709 1.89933C50.9263 1.89151 51.0192 1.78988 50.9699 1.70735C50.9207 1.6257 50.7652 1.64742 50.6496 1.76034C50.534 1.87327 50.4316 1.9445 50.4316 1.9445Z" fill="#ED1C24"/>
<path d="M48.6858 17.2816C48.6858 17.2816 48.646 15.4383 48.701 15.3436C48.7711 15.222 48.9663 15.2889 48.9654 15.4018C48.9654 15.4739 48.6858 17.2816 48.6858 17.2816Z" fill="#F47721"/>
<path d="M48.6507 17.2739C48.6507 17.2739 48.1835 15.481 48.2138 15.3776C48.2546 15.2447 48.4612 15.2725 48.4877 15.3828C48.5029 15.4523 48.6507 17.2739 48.6507 17.2739Z" fill="#F47721"/>
<path d="M48.7334 17.2431C48.7334 17.2431 49.4783 15.5292 49.4631 15.4241C49.4432 15.2869 49.2347 15.2869 49.1911 15.3928C49.1646 15.4589 48.7334 17.2431 48.7334 17.2431Z" fill="#F47721"/>
<path d="M49.5454 17.5924C49.5454 17.5924 50.7907 16.2729 50.8883 16.2417C51.0163 16.2017 51.0911 16.3772 51.0134 16.4562C50.9651 16.5049 49.5454 17.5924 49.5454 17.5924Z" fill="#F47721"/>
<path d="M49.5303 17.563C49.5303 17.563 50.4742 15.9986 50.5642 15.9465C50.6808 15.8796 50.7907 16.0342 50.7301 16.128C50.6922 16.188 49.5303 17.563 49.5303 17.563Z" fill="#F47721"/>
<path d="M49.6021 17.5974C49.6021 17.5974 51.2435 16.8799 51.306 16.7957C51.3885 16.6871 51.2586 16.5516 51.1591 16.5976C51.0966 16.6263 49.6021 17.5974 49.6021 17.5974Z" fill="#F47721"/>
<path d="M49.9077 18.1339C49.9077 18.1339 51.7614 17.7343 51.8609 17.7621C51.9898 17.7986 51.9387 17.981 51.8249 18.0027C51.7538 18.0166 49.9087 18.1339 49.9087 18.1339H49.9077Z" fill="#F47721"/>
<path d="M49.9165 18.1033C49.9165 18.1033 51.6821 17.3441 51.7882 17.3501C51.9256 17.3588 51.9152 17.5421 51.8062 17.5873C51.738 17.6142 49.9174 18.1033 49.9174 18.1033H49.9165Z" fill="#F47721"/>
<path d="M49.9512 18.1685C49.9512 18.1685 51.7404 18.4707 51.8447 18.4377C51.9802 18.3934 51.9632 18.2128 51.8523 18.198C51.7831 18.1876 49.9512 18.1693 49.9512 18.1693V18.1685Z" fill="#F47721"/>
<path d="M47.8566 17.5175C47.8566 17.5175 46.5724 16.0981 46.5506 15.9939C46.5222 15.8575 46.7212 15.7993 46.798 15.8879C46.8463 15.9444 47.8566 17.5184 47.8566 17.5184V17.5175Z" fill="#F47721"/>
<path d="M47.8234 17.5307C47.8234 17.5307 46.2378 16.3945 46.1924 16.2963C46.1345 16.1686 46.3146 16.0722 46.4094 16.1443C46.4691 16.1895 47.8224 17.5298 47.8224 17.5298L47.8234 17.5307Z" fill="#F47721"/>
<path d="M47.8686 17.4622C47.8686 17.4622 47.2848 15.6971 47.2014 15.6233C47.0933 15.5268 46.9294 15.6467 46.9682 15.7536C46.9929 15.8213 47.8676 17.4622 47.8676 17.4622H47.8686Z" fill="#F47721"/>
<path d="M47.2787 18.1649C47.2787 18.1649 45.3483 17.6437 45.2658 17.5673C45.1606 17.4691 45.2904 17.318 45.407 17.3527C45.48 17.3745 47.2787 18.1649 47.2787 18.1649Z" fill="#F47721"/>
<path d="M47.2567 18.1937C47.2567 18.1937 45.2495 18.0608 45.1518 18.0018C45.0258 17.9262 45.1168 17.7542 45.2409 17.7646C45.3167 17.7716 47.2567 18.1937 47.2567 18.1937Z" fill="#F47721"/>
<path d="M47.2514 18.1146C47.2514 18.1146 45.6934 16.9471 45.5777 16.928C45.4299 16.9037 45.3674 17.0861 45.465 17.1556C45.5256 17.1999 47.2514 18.1146 47.2514 18.1146Z" fill="#F47721"/>
<path d="M47.1225 18.895C47.1225 18.895 45.3399 18.5302 45.2385 18.5571C45.1068 18.5918 45.1343 18.7621 45.2451 18.7821C45.3134 18.7942 47.1225 18.895 47.1225 18.895Z" fill="#F47721"/>
<path d="M51.9693 7.53271V8.40745C51.9693 8.40745 51.9068 8.39442 51.794 8.40745C51.6831 8.42048 51.6025 8.44654 51.6025 8.44654C51.6025 8.44654 51.6452 8.40919 51.6291 8.2094C51.613 8.01048 51.6395 7.76725 51.7276 7.6743C51.8234 7.57528 51.9684 7.53358 51.9684 7.53358L51.9693 7.53271Z" fill="#004280"/>
<path d="M51.9469 16.6546C51.9469 16.6546 51.0769 14.9433 48.4963 14.9372C46.6113 14.9329 45.7849 15.9266 45.7849 15.9266C45.7849 15.9266 45.6475 15.104 46.1213 14.9068C46.1213 14.9068 44.9168 15.3194 44.2363 14.1902C44.2363 14.1902 44.84 13.2929 46.0626 13.5908C46.0626 13.5908 44.7576 13.0244 44.8002 11.9595C44.8002 11.9595 45.6958 13.5213 48.8024 13.8071C51.1565 14.0234 52.1213 15.6904 51.9478 16.6563L51.9469 16.6546Z" fill="#004280"/>
<path d="M51.8046 16.2262C51.8046 16.2262 51.0891 14.7616 48.462 14.7069C48.462 14.7069 46.8007 14.7156 45.98 15.4965C45.98 15.4965 46.7438 14.4993 48.7587 14.5809C50.7716 14.6626 51.4691 15.6077 51.8046 16.2262Z" fill="#00AEEF"/>
<path d="M44.7461 15.2464C44.7461 15.2464 44.9811 14.958 45.6786 15.1665C45.6786 15.1665 45.6881 15.765 44.7461 15.9587V15.2464Z" fill="#ED1C24"/>
<path d="M47.0176 13.2167C47.0176 13.2167 48.8201 14.1019 50.599 13.3244C50.599 13.3244 49.9744 12.9248 49.4797 13.2063C49.4797 13.2063 49.601 12.7337 49.0675 12.1152C49.0675 12.1152 48.369 12.5869 48.2894 13.1203C48.2894 13.1203 47.9283 12.7433 47.0176 13.2176V13.2167Z" fill="#F26522"/>
<path d="M47.4429 13.2386C47.4429 13.2386 48.9156 13.8101 50.2225 13.3358C50.2225 13.3358 49.6586 13.1882 49.3032 13.3897C49.3032 13.3897 49.3923 12.8937 49.0094 12.4507C49.0094 12.4507 48.5261 12.7964 48.4797 13.3463C48.4797 13.3463 47.9726 13.0249 47.4429 13.2394V13.2386Z" fill="#ED1C24"/>
<path d="M45.1556 15.7739C45.1556 15.7739 45.5375 15.8304 45.692 16.0484C45.8474 16.2665 45.764 16.5887 45.909 16.7025C45.909 16.7025 45.7119 16.6079 45.3821 16.627C44.8229 16.6582 44.6997 16.1622 44.6997 15.8113C44.6997 15.4604 45.1546 15.7739 45.1546 15.7739H45.1556Z" fill="#ED1C24"/>
<path d="M44.7769 16.2162C44.7769 16.2162 44.9569 16.5472 45.372 16.5107C45.6108 16.489 45.7502 16.5828 45.7502 16.5828C45.7502 16.5828 45.5691 16.4151 45.3824 16.4056C45.1967 16.396 44.8697 16.3378 44.7769 16.2153V16.2162Z" fill="#F26522"/>
<path d="M45.576 15.249C45.576 15.249 45.4689 15.6147 44.978 15.7728C44.978 15.7728 45.2007 15.4132 45.576 15.249Z" fill="#F26522"/>
<path d="M44.8564 15.2571C44.8564 15.2571 45.2715 15.0955 45.5805 15.2631C45.5805 15.2631 45.0602 15.264 44.8232 15.383L44.8564 15.2571Z" fill="#F26522"/>
<path d="M44.7333 13.8545C44.7333 13.8545 45.7749 13.4906 46.7472 14.0144C46.7472 14.0144 45.7739 13.6026 44.4585 14.0726L44.7333 13.8537V13.8545Z" fill="#00AEEF"/>
<path d="M44.8029 14.5165C44.8029 14.5165 45.2815 14.9517 46.2339 14.7493C46.2339 14.7493 45.1241 14.8501 44.7271 14.2681L44.8019 14.5165H44.8029Z" fill="#00AEEF"/>
<path d="M45.8182 4.40051C45.8182 4.53689 45.6988 4.64634 45.55 4.64634C45.4012 4.64634 45.2827 4.53689 45.2827 4.40051C45.2827 4.26413 45.4031 4.15381 45.55 4.15381C45.6969 4.15381 45.8182 4.26413 45.8182 4.40051Z" fill="#F47721"/>
<path d="M47.7936 3.26123C47.7936 3.26123 47.6714 3.43583 47.8211 3.54702C47.9727 3.65994 48.148 3.4975 48.1831 3.39587C48.1831 3.39587 48.0125 3.50967 47.8874 3.43409C47.7614 3.35765 47.7946 3.26123 47.7946 3.26123H47.7936Z" fill="#ED1C24"/>
<path d="M47.9119 3.53163C47.9119 3.53163 47.7982 3.69407 47.9375 3.79831C48.0796 3.90428 48.2436 3.7514 48.2749 3.65672C48.2749 3.65672 48.1157 3.76356 47.9981 3.69233C47.8806 3.6211 47.9119 3.53076 47.9119 3.53076V3.53163Z" fill="#ED1C24"/>
<path d="M47.5025 4.11475C47.5025 4.11475 47.2959 4.40835 47.548 4.59685C47.8049 4.78796 48.1006 4.51259 48.1584 4.34147C48.1584 4.34147 47.8712 4.53431 47.6589 4.40575C47.4457 4.27718 47.5025 4.11475 47.5025 4.11475Z" fill="#ED1C24"/>
<path d="M46.9 4.25049C46.9 4.25049 46.683 4.5606 46.9483 4.75865C47.2194 4.96018 47.5312 4.67092 47.5928 4.49024C47.5928 4.49024 47.2895 4.6935 47.0649 4.55799C46.8403 4.42248 46.9 4.25049 46.9 4.25049Z" fill="#ED1C24"/>
<path d="M47.3585 4.68213C47.3585 4.68213 47.1415 4.99137 47.4068 5.19029C47.6779 5.39269 47.9897 5.10256 48.0513 4.92188C48.0513 4.92188 47.748 5.12514 47.5243 4.98963C47.2988 4.85412 47.3585 4.68213 47.3585 4.68213Z" fill="#ED1C24"/>
<path d="M46.5837 4.7583C46.5837 4.7583 46.3449 5.09881 46.6368 5.31598C46.9334 5.53749 47.2755 5.21956 47.3428 5.0215C47.3428 5.0215 47.0111 5.24475 46.7647 5.09534C46.5174 4.9468 46.5837 4.7583 46.5837 4.7583Z" fill="#ED1C24"/>
<path d="M46.1235 5.11561C46.1235 5.11561 45.8847 5.45613 46.1775 5.67329C46.4742 5.8948 46.8163 5.57687 46.8836 5.37795C46.8836 5.37795 46.5519 5.60119 46.3055 5.45265C46.0591 5.30324 46.1245 5.11475 46.1245 5.11475L46.1235 5.11561Z" fill="#ED1C24"/>
<path d="M46.914 5.3418C46.914 5.3418 46.6752 5.68144 46.9681 5.89947C47.2647 6.12098 47.6078 5.80218 47.6741 5.605C47.6741 5.605 47.3424 5.82738 47.0951 5.67884C46.8477 5.52943 46.914 5.3418 46.914 5.3418Z" fill="#ED1C24"/>
<path d="M45.594 5.46387C45.594 5.46387 45.2149 5.95813 45.6518 6.15271C46.0404 6.32557 46.3484 5.96334 46.4412 5.71057C46.4412 5.71057 46.1541 6.04934 45.8404 5.85042C45.5257 5.6515 45.593 5.46474 45.593 5.46474L45.594 5.46387Z" fill="#ED1C24"/>
<path d="M46.3238 5.85048C46.3238 5.85048 45.8063 6.57407 46.3455 6.81295C46.8241 7.02577 47.2042 6.58015 47.3179 6.26656C47.3179 6.26656 47.0279 6.68004 46.6071 6.4872C46.2536 6.32563 46.3238 5.84961 46.3238 5.84961V5.85048Z" fill="#ED1C24"/>
<path d="M46.2864 6.69287C46.2864 6.69287 45.768 7.41559 46.3072 7.65534C46.7858 7.86816 47.1658 7.42254 47.2795 7.10983C47.2795 7.10983 46.9905 7.52244 46.5697 7.33046C46.2162 7.16803 46.2873 6.69287 46.2873 6.69287H46.2864Z" fill="#ED1C24"/>
<path d="M45.3918 6.06543C45.3918 6.06543 44.8734 6.78815 45.4127 7.0279C45.8913 7.24072 46.2713 6.7951 46.385 6.48239C46.385 6.48239 46.095 6.895 45.6742 6.70302C45.3217 6.54058 45.3918 6.06543 45.3918 6.06543Z" fill="#ED1C24"/>
<path d="M47.5589 3.52881C47.5589 3.52881 47.4319 3.71123 47.5883 3.82763C47.7475 3.94576 47.9304 3.77551 47.9664 3.66953C47.9664 3.66953 47.7892 3.78854 47.6575 3.70949C47.5248 3.62957 47.5598 3.52881 47.5598 3.52881H47.5589Z" fill="#ED1C24"/>
<path d="M48.0557 3.81006C48.0557 3.81006 47.9287 3.99248 48.0841 4.10801C48.2424 4.22615 48.4263 4.05589 48.4623 3.95078C48.4623 3.95078 48.2841 4.06979 48.1533 3.98987C48.0206 3.91082 48.0557 3.81006 48.0557 3.81006Z" fill="#ED1C24"/>
<path d="M47.6062 3.8418C47.6062 3.8418 47.4783 4.02335 47.6356 4.14061C47.7938 4.25875 47.9777 4.08936 48.0128 3.98252C48.0128 3.98252 47.8355 4.10152 47.7038 4.02248C47.5721 3.94256 47.6071 3.8418 47.6071 3.8418H47.6062Z" fill="#ED1C24"/>
<path d="M47.2061 3.86523C47.2061 3.86523 47.0791 4.04678 47.2345 4.16405C47.3928 4.28219 47.5757 4.11193 47.6117 4.00509C47.6117 4.00509 47.4345 4.12496 47.3018 4.04505C47.1701 3.966 47.2052 3.86523 47.2052 3.86523H47.2061Z" fill="#ED1C24"/>
<path d="M47.9485 4.59961C47.9485 4.59961 47.8205 4.78029 47.9779 4.89669C48.1361 5.0157 48.32 4.84544 48.356 4.73946C48.356 4.73946 48.1788 4.85934 48.0461 4.77942C47.9144 4.6995 47.9494 4.59961 47.9494 4.59961H47.9485Z" fill="#ED1C24"/>
<path d="M47.265 5.99072C47.265 5.99072 47.138 6.17227 47.2943 6.28954C47.4526 6.40768 47.6365 6.23829 47.6715 6.13144C47.6715 6.13144 47.4943 6.25045 47.3626 6.1714C47.2308 6.09062 47.265 5.99072 47.265 5.99072Z" fill="#ED1C24"/>
<path d="M44.9156 6.10645C44.9156 6.10645 44.7886 6.28799 44.944 6.40526C45.1032 6.5234 45.2861 6.35401 45.3221 6.24717C45.3221 6.24717 45.144 6.36617 45.0122 6.28713C44.8805 6.20634 44.9156 6.10645 44.9156 6.10645Z" fill="#ED1C24"/>
<path d="M44.5272 6.2373C44.5272 6.2373 44.4002 6.41885 44.5565 6.53525C44.7158 6.65339 44.8977 6.484 44.9337 6.37803C44.9337 6.37803 44.7565 6.49617 44.6248 6.41712C44.4921 6.33807 44.5281 6.2373 44.5281 6.2373H44.5272Z" fill="#ED1C24"/>
<path d="M45.4787 7.05029C45.4787 7.05029 45.2929 7.3161 45.5204 7.48636C45.7526 7.65922 46.0208 7.41079 46.0729 7.2553C46.0729 7.2553 45.8132 7.4299 45.6208 7.3135C45.4285 7.1971 45.4787 7.05029 45.4787 7.05029Z" fill="#ED1C24"/>
<path d="M45.6041 7.51074C45.6041 7.51074 45.4174 7.77655 45.6458 7.94681C45.878 8.12054 46.1452 7.87037 46.1983 7.71575C46.1983 7.71575 45.9386 7.89121 45.7463 7.77395C45.5529 7.65668 45.6041 7.51074 45.6041 7.51074Z" fill="#ED1C24"/>
<path d="M46.2387 7.65234C46.2387 7.65234 46.107 7.84084 46.2681 7.96159C46.432 8.0832 46.6216 7.90773 46.6586 7.79828C46.6586 7.79828 46.4747 7.92163 46.3392 7.83911C46.2027 7.75658 46.2387 7.65234 46.2387 7.65234Z" fill="#ED1C24"/>
<path d="M45.9067 7.97754C45.9067 7.97754 45.775 8.16517 45.9361 8.28591C46.101 8.40839 46.2886 8.23206 46.3265 8.1226C46.3265 8.1226 46.1427 8.24595 46.0062 8.1643C45.8697 8.08178 45.9067 7.97754 45.9067 7.97754Z" fill="#ED1C24"/>
<path d="M45.5158 8.11475C45.5158 8.11475 45.3841 8.30238 45.5462 8.42312C45.7101 8.5456 45.8997 8.36926 45.9366 8.25981C45.9366 8.25981 45.7528 8.38316 45.6163 8.30064C45.4798 8.21812 45.5158 8.11475 45.5158 8.11475Z" fill="#ED1C24"/>
<path d="M48.0518 3.0874C48.0518 3.0874 47.9713 3.25418 48.1182 3.33236C48.266 3.41228 48.3949 3.24984 48.4101 3.15689C48.4101 3.15689 48.2783 3.27677 48.158 3.22639C48.0376 3.17601 48.0518 3.0874 48.0518 3.0874Z" fill="#ED1C24"/>
<path d="M48.2214 3.28407C48.2214 3.28407 48.1408 3.45085 48.2868 3.52903C48.4356 3.60895 48.5645 3.44651 48.5787 3.3527C48.5787 3.3527 48.4479 3.47344 48.3275 3.42219C48.2062 3.37094 48.2214 3.2832 48.2214 3.2832V3.28407Z" fill="#ED1C24"/>
<path d="M47.6708 3.00049C47.6708 3.00049 47.5808 3.18551 47.7438 3.27238C47.9087 3.36098 48.0508 3.1803 48.0679 3.0778C48.0679 3.0778 47.9219 3.21157 47.7883 3.15511C47.6547 3.09951 47.6708 3.00136 47.6708 3.00136V3.00049Z" fill="#ED1C24"/>
<path d="M47.9385 2.82812C47.9385 2.82812 47.8485 3.01228 48.0105 3.10001C48.1754 3.18862 48.3176 3.00707 48.3337 2.90457C48.3337 2.90457 48.1897 3.03834 48.0551 2.98188C47.9215 2.92541 47.9385 2.82812 47.9385 2.82812Z" fill="#ED1C24"/>
<path d="M48.357 2.94873C48.357 2.94873 48.2878 3.09119 48.4129 3.15981C48.5408 3.22844 48.6517 3.08772 48.665 3.0078C48.665 3.0078 48.5522 3.11117 48.448 3.06774C48.3437 3.0243 48.357 2.94873 48.357 2.94873Z" fill="#ED1C24"/>
<path d="M51.9776 9.1992V8.9082C51.6801 8.91689 50.756 9.03937 50.1789 9.9254C49.4567 11.0338 49.8178 11.8547 49.8178 11.8547C49.8178 11.8547 50.1106 10.3093 51.9776 10.609V9.1992Z" fill="#00AEEF"/>
<path d="M51.9682 9.0835C51.9682 9.0835 50.3827 9.13735 49.8965 10.9085C49.8965 10.9085 50.4973 9.29284 51.9776 9.2746V9.08784L51.9682 9.0835Z" fill="#004280"/>
<path d="M51.8299 10.1725C51.8848 10.1299 51.9388 10.0891 51.9749 10.0474C52.1796 9.81288 51.9815 9.68606 51.8213 9.66869C51.7152 9.65826 51.5342 9.71386 51.5465 9.89541C51.5531 10.0049 51.701 10.0874 51.8299 10.1716V10.1725ZM51.8128 9.77553C51.8905 9.78509 51.9872 9.86587 51.8877 10.0118C51.8697 10.0379 51.8431 10.0631 51.8166 10.09C51.754 10.037 51.6943 9.98488 51.6792 9.91712C51.6517 9.80333 51.7607 9.76945 51.8128 9.77553Z" fill="#004280"/>
<path d="M51.6924 10.394C51.6886 10.4974 51.9142 10.5521 51.9644 10.4044C51.991 10.3254 51.918 10.2654 51.8327 10.209H51.827C51.7607 10.262 51.6943 10.3193 51.6924 10.3949V10.394Z" fill="#004280"/>
<path d="M51.301 10.2463C51.3398 10.2159 51.3796 10.1864 51.4052 10.1568C51.5512 9.98918 51.409 9.89884 51.2953 9.88668C51.2195 9.87886 51.0896 9.91882 51.0991 10.0491C51.1039 10.1273 51.2091 10.1855 51.301 10.2463ZM51.2887 9.96225C51.3436 9.97007 51.4138 10.0265 51.3417 10.1316C51.3294 10.1499 51.3105 10.1681 51.2915 10.1872C51.247 10.149 51.2053 10.1117 51.1929 10.0648C51.174 9.9831 51.2517 9.95791 51.2887 9.96225Z" fill="#004280"/>
<path d="M51.2041 10.4071C51.2013 10.4811 51.3626 10.5202 51.3997 10.415C51.4186 10.3584 51.3664 10.3158 51.3057 10.2749H51.3019C51.2544 10.3123 51.207 10.3541 51.2051 10.408L51.2041 10.4071Z" fill="#004280"/>
<path d="M50.931 10.3612C50.9538 10.3335 50.9765 10.3057 50.9898 10.2805C51.0656 10.1363 50.9452 10.092 50.8609 10.1007C50.804 10.1076 50.7178 10.1562 50.7471 10.2492C50.7652 10.3057 50.8523 10.3317 50.931 10.3612ZM50.8704 10.1571C50.912 10.1545 50.9727 10.1849 50.9395 10.2718C50.9339 10.2865 50.9234 10.3039 50.913 10.3204C50.8741 10.2996 50.8362 10.2787 50.8192 10.2457C50.7898 10.1893 50.8419 10.1597 50.8704 10.1571Z" fill="#004280"/>
<path d="M50.889 10.4911C50.9004 10.5459 51.0257 10.5486 51.0323 10.4659C51.0361 10.4215 50.9906 10.3989 50.9374 10.3789H50.9355C50.908 10.4137 50.8814 10.4511 50.889 10.4911Z" fill="#004280"/>
<path d="M50.6002 10.4931C50.6135 10.4645 50.6267 10.4367 50.6315 10.4115C50.6618 10.2716 50.5481 10.2569 50.477 10.282C50.4296 10.2977 50.3671 10.3585 50.4154 10.4323C50.4438 10.4766 50.5253 10.4827 50.6002 10.4923V10.4931ZM50.4988 10.329C50.5338 10.3177 50.5936 10.3324 50.5869 10.4132C50.585 10.4271 50.5803 10.4436 50.5755 10.4601C50.5367 10.4497 50.4997 10.4401 50.477 10.4149C50.4381 10.3724 50.477 10.335 50.4997 10.3281L50.4988 10.329Z" fill="#004280"/>
<path d="M50.594 10.6154C50.6168 10.6598 50.726 10.638 50.7117 10.565C50.7041 10.5267 50.6595 10.5154 50.6102 10.5093H50.6073C50.5921 10.5458 50.5779 10.5832 50.594 10.6154Z" fill="#004280"/>
<path d="M53.9029 14.1612C53.919 14.0005 53.0263 11.722 53.0263 11.722L52.9789 11.6638C52.9789 11.6638 51.7895 11.041 50.9887 11.2938C50.7773 11.3598 50.5887 11.4875 50.5404 11.722C50.5404 11.722 51.1782 11.8966 51.2266 12.3796C51.2446 12.5594 51.1602 12.7027 51.0673 12.8391C51.0124 12.9034 50.9176 13.0424 50.8968 13.1136C50.8342 13.2535 50.8266 13.4072 50.9659 13.6044C50.4949 13.4315 49.9756 13.8207 49.9756 13.8207C52.0482 14.3827 52.2851 15.9585 52.2851 15.9585C52.4643 15.8151 52.6604 15.5537 52.8339 15.2262L52.995 15.3017C52.995 15.3017 53.8877 14.3228 53.9029 14.1621V14.1612Z" fill="#F26522"/>
<path d="M52.3798 15.333C52.3798 15.333 51.9088 14.1239 50.6123 13.7999C50.6123 13.7999 50.9658 13.7573 51.342 13.8641C51.342 13.8641 50.9876 13.5202 51.2236 13.1944C51.36 13.0076 51.7012 12.9251 52.0481 13.3247C52.0481 13.3247 52.9446 12.6454 52.412 12.1477C52.0433 11.802 51.8367 10.9281 52.6139 12.1155C52.9664 12.6532 52.9313 14.0952 52.3788 15.3339L52.3798 15.333Z" fill="#ED1C24"/>
<path d="M50.3772 10.677C50.3819 10.6526 50.3857 10.6283 50.3857 10.6082C50.3819 10.4943 50.2899 10.503 50.2395 10.5334C50.2054 10.5543 50.1684 10.6109 50.2215 10.6613C50.2538 10.6909 50.3183 10.6813 50.3781 10.677H50.3772ZM50.2652 10.5665C50.2908 10.5517 50.3402 10.5526 50.3506 10.6178C50.3525 10.6291 50.3515 10.6422 50.3515 10.657C50.3183 10.6561 50.288 10.6544 50.2652 10.6387C50.2263 10.6117 50.249 10.5769 50.2652 10.5674V10.5665Z" fill="#004280"/>
<path d="M50.397 10.7733C50.4236 10.8038 50.5033 10.769 50.4777 10.715C50.4644 10.6855 50.4274 10.6855 50.3875 10.6881H50.3856C50.3809 10.7194 50.3771 10.7507 50.397 10.7733Z" fill="#004280"/>
<path d="M50.1864 10.8733C50.1893 10.8568 50.1931 10.8411 50.1921 10.8272C50.1893 10.7515 50.1285 10.7567 50.0944 10.7776C50.0716 10.7924 50.0469 10.8298 50.082 10.8637C50.1029 10.8837 50.1466 10.8768 50.1864 10.8733ZM50.1114 10.7994C50.1285 10.7898 50.1617 10.7907 50.1693 10.8333C50.1693 10.842 50.1693 10.8507 50.1693 10.8585C50.1475 10.8585 50.1266 10.8585 50.1114 10.8472C50.0858 10.8289 50.101 10.8063 50.1114 10.7994Z" fill="#004280"/>
<path d="M50.2004 10.9381C50.2184 10.9581 50.2715 10.9346 50.2535 10.8989C50.245 10.8798 50.2203 10.8798 50.1937 10.8806C50.1899 10.9015 50.188 10.9224 50.2013 10.9381H50.2004Z" fill="#004280"/>
<path d="M52.4557 14.2845C52.4557 14.2845 52.0236 13.382 51.6994 13.2395C51.3753 13.0962 51.2313 13.4141 51.4047 13.6269C51.5781 13.8398 51.7241 13.62 51.9041 13.6964C52.0842 13.7729 52.4557 14.2845 52.4557 14.2845Z" fill="#F47721"/>
<path d="M47.9836 11.1437C47.9836 11.2514 47.8879 11.3383 47.7704 11.3383C47.6528 11.3383 47.5571 11.2505 47.5571 11.1437C47.5571 11.0368 47.6519 10.9482 47.7704 10.9482C47.8888 10.9482 47.9836 11.036 47.9836 11.1437Z" fill="white"/>
<path d="M50.6978 12.5008C50.6978 12.638 50.5765 12.7501 50.4258 12.7501C50.2751 12.7501 50.1528 12.638 50.1528 12.5008C50.1528 12.3635 50.2751 12.2515 50.4258 12.2515C50.5765 12.2515 50.6978 12.3627 50.6978 12.5008Z" fill="white"/>
<path d="M51.6858 10.252C51.6858 10.252 51.6865 10.2526 51.6872 10.2526C51.6872 10.2526 51.6872 10.2526 51.6879 10.252H51.6851H51.6858Z" fill="#004280"/>
<path d="M47.1864 14.5819C47.1864 14.5819 47.0584 14.3465 46.7713 14.4126C46.5391 14.4664 46.5723 14.6879 46.6708 14.7383C46.7163 14.7609 46.7779 14.7626 46.8234 14.7348C46.8926 14.6923 46.8945 14.6306 46.8793 14.5898C46.8793 14.5898 46.9655 14.4647 47.1873 14.5819H47.1864Z" fill="#00AEEF"/>
<path d="M46.6608 14.5751C46.7035 14.4283 46.9281 14.4022 47.0712 14.5091C47.0712 14.5091 46.8959 14.4526 46.7926 14.5569C46.7821 14.5673 46.7755 14.5794 46.7717 14.5899C46.785 14.5977 46.7954 14.6098 46.8002 14.6255C46.8087 14.6576 46.7869 14.6889 46.7518 14.6976C46.7367 14.7011 46.7215 14.6993 46.7082 14.6932C46.6798 14.6828 46.6381 14.655 46.6618 14.5751H46.6608Z" fill="#004280"/>
<path d="M47.8434 14.4898C47.8434 14.4898 47.7496 14.2474 47.4605 14.2804C47.2274 14.3074 47.2312 14.5263 47.3212 14.5871C47.362 14.6149 47.4217 14.6227 47.47 14.601C47.543 14.568 47.5524 14.5072 47.543 14.4646C47.543 14.4646 47.6444 14.3534 47.8443 14.4898H47.8434Z" fill="#00AEEF"/>
<path d="M47.3301 14.428C47.3907 14.2899 47.6134 14.2873 47.7385 14.4081C47.7385 14.4081 47.5746 14.3334 47.4618 14.4246C47.4495 14.4333 47.4419 14.4446 47.4362 14.455C47.4485 14.4628 47.4561 14.4776 47.4589 14.4923C47.4637 14.5245 47.4381 14.554 47.403 14.5575C47.3879 14.5592 47.3737 14.5557 47.3613 14.5479C47.3348 14.5358 47.2978 14.5036 47.331 14.428H47.3301Z" fill="#004280"/>
<path d="M48.5145 14.4918C48.5145 14.4918 48.4842 14.2503 48.2103 14.2251C47.9895 14.2043 47.9421 14.4075 48.0103 14.4805C48.0416 14.5135 48.0947 14.5335 48.1439 14.5222C48.2198 14.5048 48.2425 14.4518 48.2425 14.411C48.2425 14.411 48.361 14.3276 48.5145 14.4927V14.4918Z" fill="#00AEEF"/>
<path d="M48.0575 14.3347C48.1447 14.2183 48.3503 14.2609 48.4385 14.3956C48.4385 14.3956 48.3048 14.2957 48.1788 14.3565C48.1665 14.3625 48.156 14.3712 48.1485 14.379C48.1579 14.3903 48.1627 14.4042 48.1608 14.4181C48.157 14.4485 48.1267 14.4703 48.0944 14.4677C48.0802 14.4659 48.067 14.459 48.0584 14.4503C48.0366 14.4338 48.0101 14.3973 48.0584 14.3339L48.0575 14.3347Z" fill="#004280"/>
<path d="M49.0639 14.5138C49.0639 14.5138 49.0554 14.2906 48.8071 14.2497C48.6062 14.2159 48.5483 14.3992 48.6052 14.4704C48.6308 14.5025 48.6782 14.5242 48.7237 14.5164C48.7938 14.5069 48.8194 14.4591 48.8232 14.4217C48.8232 14.4217 48.9388 14.3531 49.0648 14.5147L49.0639 14.5138Z" fill="#00AEEF"/>
<path d="M48.6568 14.3405C48.7469 14.2414 48.9307 14.2927 49.0008 14.4221C49.0008 14.4221 48.8862 14.3213 48.7668 14.3691C48.7544 14.3743 48.7459 14.3804 48.7374 14.3874C48.745 14.3978 48.7478 14.4108 48.7459 14.4247C48.7402 14.4525 48.7118 14.4699 48.6805 14.4655C48.6672 14.4621 48.6559 14.4569 48.6483 14.4473C48.6303 14.4308 48.6085 14.3952 48.6568 14.3413V14.3405Z" fill="#004280"/>
<path d="M49.5181 14.5646C49.5181 14.5646 49.5465 14.3665 49.3352 14.2953C49.1646 14.238 49.0831 14.3909 49.121 14.4612C49.138 14.4925 49.1759 14.5186 49.2176 14.5186C49.2802 14.5186 49.3115 14.4803 49.32 14.4482C49.32 14.4482 49.4328 14.4039 49.5181 14.5637V14.5646Z" fill="#00AEEF"/>
<path d="M49.1884 14.3558C49.2841 14.2802 49.4376 14.3514 49.4774 14.4739C49.4774 14.4739 49.3931 14.3697 49.2803 14.3949C49.268 14.3975 49.2595 14.4018 49.25 14.407C49.2557 14.4174 49.2566 14.4287 49.2509 14.4409C49.2415 14.4643 49.213 14.4756 49.1874 14.467C49.1761 14.4626 49.1675 14.4557 49.1619 14.447C49.1486 14.4296 49.1353 14.3966 49.1874 14.3549L49.1884 14.3558Z" fill="#004280"/>
<path d="M49.9858 14.675C49.9858 14.675 50.0123 14.4952 49.819 14.4309C49.6645 14.3788 49.5897 14.5178 49.6247 14.5812C49.6399 14.6107 49.675 14.6333 49.7129 14.6333C49.7697 14.6333 49.7972 14.5985 49.8057 14.5699C49.8057 14.5699 49.9081 14.5299 49.9858 14.675Z" fill="#00AEEF"/>
<path d="M49.6878 14.4851C49.7741 14.4165 49.9134 14.4816 49.9503 14.5937C49.9503 14.5937 49.8736 14.4982 49.7712 14.5216C49.7608 14.5242 49.7523 14.5277 49.7456 14.5329C49.7494 14.5425 49.7504 14.5529 49.7456 14.5633C49.7371 14.5841 49.7115 14.5954 49.6878 14.5876C49.6784 14.5841 49.6698 14.5772 49.6651 14.5694C49.6528 14.5537 49.6414 14.5233 49.6888 14.486L49.6878 14.4851Z" fill="#004280"/>
<path d="M50.3685 14.7797C50.3685 14.7797 50.3903 14.6294 50.2292 14.5747C50.0984 14.5321 50.0359 14.6476 50.0652 14.7015C50.0785 14.7258 50.1069 14.744 50.1392 14.7449C50.1866 14.7449 50.2103 14.7162 50.2178 14.6911C50.2178 14.6911 50.3031 14.6572 50.3676 14.7788L50.3685 14.7797Z" fill="#00AEEF"/>
<path d="M50.118 14.6193C50.1909 14.5619 50.3084 14.6158 50.3388 14.7096C50.3388 14.7096 50.2753 14.6306 50.1881 14.6497C50.1796 14.6532 50.1729 14.6558 50.1663 14.6592C50.1701 14.6671 50.1701 14.6766 50.1663 14.6844C50.1587 14.7027 50.1379 14.7122 50.118 14.7053C50.1094 14.7018 50.1037 14.6957 50.0981 14.6896C50.0886 14.6766 50.0782 14.6505 50.118 14.6201V14.6193Z" fill="#004280"/>
<path d="M50.7089 14.9437C50.7089 14.9437 50.7572 14.7986 50.6075 14.7204C50.4871 14.6588 50.4047 14.7639 50.4236 14.8212C50.4321 14.8473 50.4568 14.8707 50.4881 14.8759C50.5354 14.8838 50.5639 14.8577 50.5752 14.8351C50.5752 14.8351 50.6662 14.8143 50.7089 14.9437Z" fill="#00AEEF"/>
<path d="M50.4878 14.7521C50.5703 14.7061 50.6755 14.7773 50.6887 14.8738C50.6887 14.8738 50.6395 14.786 50.5504 14.7921C50.5409 14.793 50.5333 14.7956 50.5276 14.7982C50.5295 14.806 50.5286 14.8147 50.5238 14.8234C50.5134 14.8407 50.4907 14.8451 50.4717 14.8355C50.4641 14.8312 50.4594 14.8251 50.4556 14.8173C50.448 14.8034 50.4433 14.7765 50.4878 14.7513V14.7521Z" fill="#004280"/>
<path d="M50.9967 15.149C50.9967 15.149 51.0782 15.0465 50.9835 14.9484C50.9067 14.8684 50.81 14.931 50.8091 14.9814C50.8091 15.0039 50.8205 15.0291 50.8441 15.0404C50.8792 15.0587 50.9095 15.0456 50.9247 15.03C50.9247 15.03 51.0024 15.037 50.9967 15.149Z" fill="#00AEEF"/>
<path d="M50.8812 14.9399C50.959 14.9243 51.0216 15.0069 51.0036 15.0869C51.0036 15.0869 50.9913 15.0052 50.9201 14.9878C50.9125 14.9852 50.9058 14.9852 50.8992 14.986C50.8983 14.993 50.8954 15.0008 50.8888 15.0043C50.8755 15.0156 50.8565 15.0139 50.8442 15.0017C50.8385 14.9965 50.8366 14.9895 50.8366 14.9834C50.8356 14.9704 50.8385 14.9477 50.8812 14.939V14.9399Z" fill="#004280"/>
<path d="M47.7521 17.6307L46.9058 17.4014L47.445 18.0859C47.5057 17.9113 47.6128 17.7558 47.7521 17.6307Z" fill="#F47721"/>
<path d="M47.4072 18.6321C47.3722 18.4696 47.394 18.3193 47.394 18.3193L46.4614 18.4227L47.5048 18.8996C47.4745 18.8414 47.4499 18.7797 47.4319 18.7163C47.4224 18.6911 47.4148 18.6633 47.4082 18.6329L47.4072 18.6321Z" fill="#F47721"/>
<path d="M48.0366 16.7583V17.4393C48.1589 17.3794 48.2944 17.3394 48.4375 17.3212L48.0366 16.7583Z" fill="#F47721"/>
<path d="M49.5268 16.7108L48.853 17.3345C49.0407 17.3701 49.2122 17.4466 49.3582 17.5517L49.5278 16.71L49.5268 16.7108Z" fill="#F47721"/>
<path d="M50.3234 17.6177L49.5757 17.7549C49.6591 17.8574 49.7264 17.973 49.7681 18.098L50.3244 17.6177H50.3234Z" fill="#F47721"/>
<path d="M49.7124 18.8842L50.7643 18.5915L49.8147 18.3335C49.8166 18.3639 49.8195 18.3952 49.8195 18.4264C49.8195 18.5898 49.7806 18.7444 49.7114 18.8842H49.7124Z" fill="#F47721"/>
<path d="M48.7588 13.2592C48.7588 13.2592 48.9711 13.2818 49.0649 13.2653C49.0649 13.2653 49.1019 12.9778 48.9588 12.8579C48.9588 12.8579 48.791 12.9674 48.7588 13.2584V13.2592Z" fill="#F47721"/>
<path d="M50.7905 11.7132C50.7905 11.7132 50.8493 11.7323 50.9156 11.7766C50.9791 11.8183 51.0227 11.8496 51.0474 11.8739C51.0474 11.8739 51.1184 11.7584 51.0123 11.6845C50.9223 11.6237 50.8114 11.6784 50.7915 11.7141L50.7905 11.7132Z" fill="white"/>
<path d="M51.0874 11.9125C51.0874 11.9125 51.1367 11.9482 51.1831 12.009C51.2286 12.068 51.2589 12.1097 51.2741 12.1401C51.2741 12.1401 51.3821 12.0515 51.3054 11.9508C51.2428 11.8665 51.1177 11.8856 51.0874 11.9125Z" fill="white"/>
<path d="M51.292 12.1938C51.292 12.1938 51.3176 12.2459 51.3299 12.3197C51.3413 12.3901 51.347 12.4405 51.346 12.4735C51.346 12.4735 51.4853 12.4405 51.4692 12.318C51.4541 12.2181 51.3337 12.1816 51.2929 12.1929L51.292 12.1938Z" fill="white"/>
<path d="M51.3463 12.5435C51.3463 12.5435 51.3397 12.6008 51.3094 12.6703C51.28 12.7363 51.2582 12.7832 51.2383 12.8101C51.2383 12.8101 51.3776 12.8466 51.4297 12.7337C51.4724 12.6399 51.389 12.553 51.3463 12.5435Z" fill="white"/>
<path d="M51.2084 12.8687C51.2084 12.8687 51.1829 12.9216 51.1298 12.9781C51.0786 13.0337 51.0426 13.0702 51.0142 13.091C51.0142 13.091 51.1345 13.1649 51.2227 13.0728C51.2956 12.9963 51.2454 12.8895 51.2094 12.8687H51.2084Z" fill="white"/>
<path d="M52.0236 11.5682C52.0236 11.5682 51.3763 11.206 50.875 11.5091C50.875 11.5091 51.8 11.3146 52.4359 12.2536L52.0236 11.5682Z" fill="white"/>
<path d="M52.0719 12.3952C52.0719 12.3952 51.9079 11.801 51.1772 11.6499C51.1772 11.6499 51.9894 11.8983 52.0482 13.1292L52.0719 12.3952Z" fill="#ED1C24"/>
</g>
</svg>
