<svg width="148" height="53" viewBox="0 0 148 53" fill="none" xmlns="http://www.w3.org/2000/svg">
<path d="M0 17.484V11.0605H8.5983V17.484H0ZM0.129923 51.1138V19.549H8.53334V51.1162H0.127324L0.129923 51.1138Z" fill="#004280"/>
<path d="M31.8613 51.1148V32.0301C31.8613 30.0533 31.313 28.5981 30.2138 27.6668C29.1147 26.7403 27.8103 26.2735 26.3032 26.2735C24.7961 26.2735 23.4241 26.738 22.3249 27.6668C21.2258 28.5981 20.6775 30.0533 20.6775 32.0301V51.1148H12.2715V19.5476C12.2715 19.5476 17.1332 21.9674 24.2998 20.0311C25.8251 19.619 27.2932 19.1855 28.8886 19.1855C32.2069 19.1855 34.8573 20.1144 36.8425 21.9722C38.134 23.1821 39.0278 24.5158 39.5241 25.9711C40.0204 27.4263 40.2673 29.084 40.2673 30.9393V51.1148H31.8613Z" fill="#004280"/>
<path d="M59.8817 50.7209C58.5383 51.0995 57.0364 51.4782 55.2305 51.4782C53.5882 51.4782 52.037 51.2258 50.574 50.7209C49.1085 50.2159 47.8976 49.5205 46.9518 48.6321C45.4837 47.2174 44.4936 45.1977 43.9765 42.573C43.805 41.5203 43.6881 40.4318 43.6232 39.3005C43.5582 38.1716 43.5244 36.8378 43.5244 35.3016C43.5244 32.0696 43.7297 29.395 44.1377 27.2729C44.5482 25.1555 45.4863 23.4074 46.9518 22.0331C47.8976 21.1447 49.0929 20.4469 50.5403 19.942C51.985 19.437 53.5259 19.187 55.1655 19.187C56.9299 19.187 58.4734 19.4275 59.7856 19.9134C61.1004 20.3945 62.2957 21.2043 63.3766 22.3356V11.0605H71.7801V51.1138C71.7801 51.1138 65.0786 49.2609 59.8843 50.7209H59.8817ZM63.1792 31.5743C63.0492 30.543 62.792 29.6451 62.4022 28.8782C61.5395 27.1419 59.9441 26.2726 57.6185 26.2726C56.4128 26.2726 55.4202 26.4964 54.6432 26.9371C53.8663 27.3824 53.2868 27.9969 52.8997 28.7853C52.5125 29.5736 52.2526 30.493 52.1227 31.5433C51.9954 32.596 51.9304 33.844 51.9304 35.2993C51.9304 36.7545 51.9954 38.0073 52.1227 39.0552C52.2526 40.1056 52.5125 41.0344 52.8997 41.8418C53.2894 42.6516 53.8689 43.2756 54.6432 43.721C55.4176 44.164 56.4102 44.3879 57.6185 44.3879C59.9467 44.3879 61.5421 43.5186 62.4022 41.7823C62.792 41.013 63.0492 40.096 63.1792 39.0243C63.3091 37.9549 63.3741 36.714 63.3741 35.2993C63.3741 33.8845 63.3091 32.6032 63.1792 31.5719V31.5743Z" fill="#004280"/>
<path d="M75.4512 17.484V11.0605H84.0521V17.484H75.4512ZM75.5811 51.1138V19.549H83.9845V51.1162H75.5811V51.1138Z" fill="#004280"/>
<path d="M103.144 50.7183C101.853 51.0065 100.351 51.4162 98.4568 51.4162C94.7072 51.4162 91.8411 50.4849 89.8585 48.6296C88.0032 46.8123 87.0781 44.4497 87.0781 41.5392C87.0781 38.8717 88.0603 36.6829 90.0196 34.9681C91.9814 33.2485 94.8371 32.3911 98.5867 32.3911H106.541V30.8144C106.541 29.0781 106.055 27.8134 105.085 27.0274C104.114 26.2367 102.508 25.8437 100.268 25.8437C98.7166 25.8437 97.4772 26.0366 96.5495 26.4201C95.6219 26.8036 94.7072 27.48 93.8003 28.4517L88.4345 23.5406C90.03 21.8853 91.7346 20.7469 93.5431 20.1181C95.3542 19.4941 97.7006 19.1797 100.593 19.1797C110.16 19.1797 114.944 22.8975 114.944 30.3285V51.1089C114.944 51.1089 108.835 49.4537 103.144 50.716V50.7183ZM106.541 37.7833H99.8807C96.734 37.7833 95.1593 38.9741 95.1593 41.3582C95.1593 42.4895 95.5699 43.3779 96.3884 44.0233C97.2043 44.6712 98.4126 44.9951 100.011 44.9951C101.302 44.9951 102.334 44.8927 103.113 44.6926C103.89 44.4902 104.62 44.0829 105.312 43.4779C106.13 42.7539 106.541 41.4201 106.541 39.4814V37.7856V37.7833Z" fill="#004280"/>
<path d="M122.686 35.043C122.686 35.043 123.978 36.4887 125.144 36.9912C125.144 36.9912 124.594 36.9055 123.947 36.9912C123.097 37.1008 122 37.4271 121.26 37.7295C119.602 38.4036 122.689 35.043 122.689 35.043H122.686Z" fill="#004280"/>
<path d="M132.27 0.121094C132.27 0.121094 133.39 0.292578 134.263 0.566475C134.78 0.730813 135.308 0.947549 135.308 0.947549C135.308 0.947549 135.032 0.64507 134.814 0.442625C134.596 0.240179 134.458 0.121094 134.458 0.121094H132.273H132.27Z" fill="#F26522"/>
<path d="M127.31 0.11957C127.31 0.11957 130.39 0.169587 132.357 0.472064C134.326 0.77216 134.802 0.853138 134.802 0.853138L135.158 1.00557C135.158 1.00557 131.678 0.729289 130.439 0.767396C128.404 0.829321 127.045 1.20801 127.045 1.20801L127.308 0.117188L127.31 0.11957Z" fill="#F26522"/>
<path d="M126.952 1.57307C126.952 1.57307 129.954 1.06815 131.949 1.05862C133.942 1.05148 134.431 1.05624 134.431 1.05624L134.815 1.15389C134.815 1.15389 131.333 1.41826 130.117 1.64929C128.124 2.0256 126.529 2.75202 126.529 2.75202C126.529 2.75202 126.7 2.31141 126.755 2.1566C126.807 2.01369 126.955 1.57069 126.955 1.57069L126.952 1.57307Z" fill="#F26522"/>
<path d="M123.522 18.9749V25.0245C127.723 23.948 130.441 20.3301 131.577 17.5769C132.712 14.826 133.793 9.54811 134.607 7.69037C135.415 5.83026 136.361 4.84423 137.74 4.16067C139.118 3.47474 141.833 3.89869 141.833 3.89869L139.118 2.65781C139.118 2.65781 138.998 1.18591 138.143 0.623829C137.517 0.211792 134.737 -0.762329 132.385 3.832C131.611 5.34439 131.086 8.59066 127.84 12.2728C122.584 18.2366 114.326 18.9773 114.326 18.9773" fill="#F26522"/>
<path d="M142.494 4.40665C142.494 4.40665 136.372 2.75136 133.987 11.9662C132.433 17.9705 132.168 18.6303 130.146 21.424C129.156 22.7959 126.508 24.4631 125.739 25.0228C123.66 26.5399 123.52 27.3759 123.52 27.3759V32.4561C123.52 32.4561 124.622 34.5496 127.722 35.0855C130.824 35.6214 133.716 34.0257 134.618 31.6725C134.888 30.9652 135.476 28.3262 133.223 27.3759C131.757 26.759 129.089 27.1925 128.41 27.5831C127.576 28.0595 127.68 28.531 128.083 28.5739C128.491 28.6168 129.076 28.3691 128.94 28.7811C128.805 29.1932 128.519 29.1312 128.408 29.4004C128.15 30.0172 128.94 30.103 129.346 29.9363C129.751 29.7719 130.832 29.2337 131.69 29.5647C132.547 29.8958 132.42 31.0652 131.947 31.6011C131.497 32.106 130.318 33.042 127.781 32.5561C126.628 32.3346 124.484 30.5412 126.55 27.9713C128.083 26.0636 130.663 25.1419 132.817 24.1963C136.286 22.6673 136.951 19.0161 136.951 19.0161C136.951 19.0161 137.832 18.6136 138.731 19.0256C139.633 19.44 139.324 20.0021 139.324 20.0021C139.324 20.0021 138.908 21.2001 139.308 21.998C139.849 23.0793 141.065 23.408 141.065 23.408C141.065 23.408 141.257 23.2508 141.2 22.622C141.145 21.998 141.291 21.1787 141.696 20.8048C142.102 20.4332 142.497 20.2689 142.497 20.2689" fill="#ED1C24"/>
<path d="M137.22 19.3774C137.22 19.3774 137.42 19.1011 138.145 19.2964C138.844 19.4869 138.995 19.8585 138.995 19.8585C138.995 19.8585 137.742 23.5382 135.975 25.265C134.208 26.9941 132.961 27.1132 133.416 26.5297C133.907 25.9009 134.731 25.0268 135.755 23.1738C136.802 21.2756 137.22 19.3726 137.22 19.3726V19.3774Z" fill="#ED1C24"/>
<path d="M137.867 0.121094C137.867 0.121094 138.774 0.299723 139.332 1.05949C139.79 1.67635 139.774 2.40754 139.774 2.40754L142.495 3.65318V0.121094H137.867Z" fill="#004280"/>
<path d="M114.326 9.60742C114.326 9.60742 116.825 11.6366 118.92 12.2154C121.014 12.7942 122.139 12.8894 122.737 12.9204C123.335 12.9537 123.522 12.9204 123.522 12.9204C123.522 12.9204 123.145 12.2464 123.49 11.5723C123.971 10.6435 125.582 10.2433 126.211 11.2699C127.048 12.6298 125.216 13.9969 124.79 14.2803C123.909 14.8663 122.859 15.6951 120.105 16.7811C117.213 17.9268 114.326 18.3602 114.326 18.3602V16.9121C115.718 16.7954 117.031 16.6502 119.473 15.8832C122.235 15.0115 123.301 13.885 123.301 13.885C123.301 13.885 120.663 13.9826 117.613 13.0204C115.687 12.4107 114.326 11.6628 114.326 11.6628V9.60742Z" fill="#ED1C24"/>
<path d="M114.324 12.6309C114.324 12.6309 115.961 13.3501 117.7 13.7169C119.576 14.1099 121.61 14.4029 121.61 14.4029C121.61 14.4029 120.872 15.0459 118.17 15.689C115.751 16.263 114.322 16.363 114.322 16.363L114.309 15.0126C114.309 15.0126 114.862 15.0816 116.169 15.0126C118.591 14.8863 119.503 14.6601 119.503 14.6601C119.503 14.6601 117.123 14.4981 116.541 14.4029C115.972 14.3123 114.306 13.9813 114.306 13.9813L114.319 12.6309H114.324Z" fill="#F26522"/>
<path d="M142.494 23.5367C142.494 23.5367 139.992 23.389 138.129 25.0252C136.263 26.6615 135.696 27.9571 135.408 29.1766C135.12 30.396 134.618 31.9965 135.696 34.0591C136.393 35.3833 137.404 35.6763 137.98 35.7548C138.56 35.8334 139.521 35.5238 139.695 34.595C139.82 33.9281 139.599 33.3636 138.965 33.0492C138.599 32.8682 137.978 32.8896 137.978 32.8896C137.978 32.8896 137.864 31.856 138.614 31.1177C139.124 30.6199 140.168 30.3007 141.192 30.4222C142.187 30.5413 142.489 30.7413 142.489 30.7413V29.017C142.489 29.017 141.192 28.6454 139.976 28.936C138.76 29.2266 137.864 29.8625 137.284 30.6604C136.702 31.4582 136.702 31.9608 136.702 31.9608C136.702 31.9608 136.182 31.1153 136.595 29.5791C137.676 25.5563 142.486 25.3277 142.486 25.3277V23.5343L142.494 23.5367Z" fill="#004280"/>
<path d="M136.953 2.2362C136.953 2.53153 136.693 2.7697 136.371 2.7697C136.049 2.7697 135.792 2.53153 135.792 2.2362C135.792 1.94087 136.051 1.70508 136.371 1.70508C136.691 1.70508 136.953 1.94325 136.953 2.2362Z" fill="#004280"/>
<path d="M142.494 10.6489C142.466 10.6489 142.437 10.6465 142.409 10.6465C141.98 10.6465 141.634 10.9656 141.634 11.3586C141.634 11.7516 141.98 12.0708 142.409 12.0708C142.437 12.0708 142.466 12.0708 142.494 12.066" fill="#004280"/>
<path d="M135.767 7.71255C135.829 7.784 135.835 7.784 135.91 7.85069C137.02 8.86768 139.124 9.16063 140.234 8.14602C141.341 7.12903 141.427 5.61426 140.322 4.59726C140.247 4.5282 140.231 4.48532 140.153 4.42578C140.153 4.42578 139.184 4.46151 137.537 5.66904C136.367 6.52884 135.77 7.71017 135.77 7.71017L135.767 7.71255Z" fill="#F26522"/>
<path d="M131.373 48.304C131.373 48.304 131.56 44.3575 130.778 43.3119C129.999 42.2663 128.595 42.7855 127.543 43.5024C126.631 44.1264 125.532 44.9124 126.314 45.9604C127.094 47.0059 131.376 48.304 131.376 48.304H131.373Z" fill="#ED1C24"/>
<path d="M136.694 43.7549C136.969 42.4187 135.582 41.8566 134.275 41.6589C132.97 41.4636 131.57 41.7494 131.3 43.0808C131.024 44.417 133.345 47.8276 133.345 47.8276C133.345 47.8276 136.419 45.0886 136.694 43.7525V43.7549Z" fill="#ED1C24"/>
<path d="M140.426 47.1029C141.442 46.2288 141.359 45.3928 140.224 44.302C139.444 43.5541 138.27 42.9206 137.254 43.7947C136.238 44.6711 135.632 48.5104 135.632 48.5104C135.632 48.5104 139.416 47.9769 140.429 47.1052L140.426 47.1029Z" fill="#ED1C24"/>
<path d="M142.302 52.0023C142.302 51.5259 142.011 51.2568 141.377 51.3092C139.81 51.4354 136.616 51.9451 136.406 52.0023H142.299H142.302Z" fill="#ED1C24"/>
<path d="M135.549 52.0007C135.767 51.7196 135.928 51.3933 136.012 51.0385C136.329 49.6571 135.341 48.3305 133.805 48.0732C132.27 47.8208 130.763 48.733 130.446 50.1144C130.287 50.7979 130.448 51.4672 130.841 52.0007H135.552H135.549Z" fill="#004280"/>
<path d="M134.896 51.9612C135.054 51.7588 135.169 51.5254 135.229 51.2705C135.457 50.2797 134.75 49.327 133.649 49.146C132.547 48.9626 131.466 49.6176 131.237 50.6084C131.123 51.099 131.24 51.5777 131.521 51.9612H134.896Z" fill="#00AEEF"/>
<path d="M123.554 52.0007H129.354C128.673 51.6363 126.049 50.6837 124.83 50.5479C124.188 50.4788 123.63 50.6908 123.554 51.1743V51.9984V52.0007Z" fill="#ED1C24"/>
<path d="M126.002 46.2868C124.801 45.8461 123.993 46.1153 123.595 46.9227L123.52 49.09C123.595 49.6116 123.385 50.0165 123.842 50.169C125.297 50.6525 129.988 50.0165 129.988 50.0165C129.988 50.0165 127.439 46.8179 126.002 46.2868Z" fill="#ED1C24"/>
<path d="M142.558 47.9443C142.558 47.1917 141.836 46.6868 140.253 47.5371C138.964 48.223 136.459 49.976 136.459 49.976C136.459 49.976 139.661 50.9334 141.139 51.0715C142.418 51.1954 142.558 50.8905 142.558 50.388V47.9443Z" fill="#ED1C24"/>
<path d="M118.53 9.14476C118.53 9.14476 118.891 9.73542 119.416 10.0879C119.941 10.4404 121.515 10.9025 121.515 10.9025C121.515 10.9025 121.606 10.2141 122.508 9.60443C123.007 9.26861 123.633 9.14476 123.633 9.14476C123.633 9.14476 122.963 8.82561 122.864 8.27543C122.781 7.7848 122.898 7.43945 122.898 7.43945L121.994 7.99677C121.994 7.99677 122.097 8.31116 122.217 8.53266C122.339 8.75416 122.581 8.95899 122.581 8.95899C122.581 8.95899 121.773 9.29481 121.513 9.60681C121.25 9.91882 121.17 10.1594 121.17 10.1594C121.17 10.1594 120.603 10.0784 120.182 9.74972C119.756 9.41866 119.528 8.90659 119.528 8.90659L118.53 9.14V9.14476Z" fill="#F26522"/>
<path d="M120.251 8.70048C120.251 8.70048 120.465 9.03154 120.683 9.17206L120.906 9.3102C120.906 9.3102 120.906 9.17921 121.208 9.00534C121.512 8.83148 121.61 8.83148 121.61 8.83148C121.61 8.83148 121.483 8.73144 121.41 8.51709L121.338 8.30273L120.251 8.70048Z" fill="#F26522"/>
<path d="M131.305 2.75C131.305 2.75 129.691 3.13107 128.737 4.11949C127.784 5.10552 129.164 5.84385 129.678 5.25795C130.193 4.67204 129.686 3.15013 131.305 2.75Z" fill="#ED1C24"/>
<path d="M129.493 2.15989C127.799 2.65052 126.258 3.35551 126.258 3.35551C126.258 3.35551 126.315 3.36742 125.899 4.04859C125.486 4.72976 125.382 4.88933 125.382 4.88933C125.382 4.88933 126.606 4.63211 127.913 3.89616C129.22 3.16021 129.251 2.99587 130.262 2.65528C131.273 2.31708 131.928 2.2361 131.928 2.2361C131.928 2.2361 130.712 3.65084 130.293 4.82264C129.877 5.99445 129.311 8.09035 128.807 8.90966C128.3 9.72421 127.913 10.1339 127.913 10.1339C127.913 10.1339 127.749 9.78137 127.235 9.50271C127.638 9.36695 128.056 9.15736 128.36 8.83583C128.88 8.28089 129.064 7.58543 129.01 6.92808C128.965 6.36599 128.786 5.98968 128.407 5.5705C128.027 5.15132 127.245 4.7893 126.125 4.95126C125.263 5.0751 125.148 5.22039 125.148 5.22039C125.148 5.22039 124.888 5.62766 124.41 6.10639C123.93 6.58511 123.519 6.9519 123.519 6.9519C123.519 6.9519 123.186 7.6283 123.42 8.27137C123.615 8.80249 124.114 8.93348 124.439 8.92634C125.127 8.91205 125.481 8.55003 125.619 8.27137C125.754 7.9927 125.707 7.64259 125.509 7.433C125.312 7.22341 125.055 7.15672 124.946 7.16625C124.753 7.18054 124.717 7.19483 124.582 7.26628C124.582 7.26628 124.808 6.76374 125.221 6.52795C125.634 6.2874 126.203 6.03732 127.048 6.24691C127.645 6.39457 128.017 6.9638 128.077 7.33535C128.173 7.94507 127.923 8.33091 127.664 8.60957C127.453 8.83821 127.014 9.12402 126.497 9.25025C126.455 9.24072 126.416 9.22881 126.372 9.22405C126.842 9.08591 127.188 8.85488 127.417 8.53097C127.741 8.07368 127.762 7.55209 127.476 7.18054C127.232 6.86854 126.991 6.71372 126.531 6.65894C126.068 6.60655 125.699 6.8209 125.699 6.8209C125.699 6.8209 126.401 6.82805 126.614 7.3687C126.77 7.76406 126.658 8.11894 126.434 8.46428C126.123 8.94063 125.172 9.19309 125.172 9.19309C124.501 9.25739 123.748 9.44079 123.153 9.83615C122.173 10.4911 122.038 11.47 122.038 11.47C122.038 11.47 120.84 11.2461 119.837 10.796C118.468 10.1863 117.626 9.31217 117.626 9.31217C117.626 9.31217 117.485 9.3479 116.833 9.41935C116.178 9.49318 115.344 9.55987 115.344 9.55987C115.344 9.55987 117.231 11.0937 119.341 11.7463C121.448 12.4013 122.81 12.4751 122.81 12.4751C122.81 12.4751 122.498 11.2699 123.579 10.534C125.213 9.42411 126.77 10.3959 127.027 11.2961C127.172 11.8011 127.05 12.256 127.05 12.256C127.05 12.256 128.929 10.4054 129.729 8.66197C130.532 6.92093 130.74 5.44665 131.395 4.11289C132.05 2.77913 133.297 1.66211 133.297 1.66211C133.297 1.66211 131.19 1.67164 129.495 2.15989H129.493Z" fill="#004280"/>
<path d="M135.912 8.71244C136.099 8.81247 136.156 9.03397 136.044 9.20069C135.932 9.36979 135.696 9.42457 135.509 9.32216C135.324 9.21974 135.267 9.00063 135.379 8.83153C135.491 8.66242 135.73 8.61003 135.912 8.71244Z" fill="#F26522"/>
<path d="M136.4 9.01257C136.496 9.06744 136.528 9.18193 136.468 9.27019C136.41 9.35845 136.283 9.38707 136.189 9.33221C136.093 9.28212 136.062 9.16524 136.119 9.07698C136.179 8.98872 136.301 8.9601 136.4 9.01257Z" fill="#F26522"/>
<path d="M135.515 9.44682C135.697 9.54923 135.757 9.76835 135.648 9.93745C135.536 10.1042 135.297 10.1589 135.112 10.0565C134.928 9.95412 134.868 9.735 134.983 9.5659C135.092 9.3968 135.336 9.3444 135.518 9.44682H135.515Z" fill="#F26522"/>
<path d="M136.007 9.75201C136.101 9.80687 136.135 9.92137 136.075 10.0072C136.017 10.0979 135.893 10.1241 135.796 10.0716C135.697 10.0168 135.669 9.90229 135.726 9.81403C135.783 9.72815 135.908 9.69714 136.007 9.75201Z" fill="#F26522"/>
<path d="M135.109 10.3443C135.294 10.4467 135.354 10.6658 135.242 10.8349C135.13 11.0016 134.891 11.0564 134.707 10.9564C134.525 10.854 134.462 10.6348 134.577 10.4657C134.688 10.299 134.93 10.2442 135.112 10.3467L135.109 10.3443Z" fill="#F26522"/>
<path d="M135.595 10.6458C135.691 10.7007 135.722 10.8152 135.665 10.9034C135.605 10.9917 135.483 11.0179 135.386 10.9655C135.287 10.9106 135.259 10.7961 135.319 10.7078C135.376 10.6196 135.501 10.591 135.597 10.6434L135.595 10.6458Z" fill="#F26522"/>
<path d="M134.909 11.2222C135.093 11.3246 135.153 11.5437 135.041 11.7128C134.93 11.8796 134.69 11.9343 134.506 11.8319C134.321 11.7295 134.262 11.5104 134.376 11.3413C134.485 11.1722 134.724 11.1198 134.909 11.2222Z" fill="#F26522"/>
<path d="M135.398 11.5228C135.492 11.5752 135.523 11.6921 135.466 11.7804C135.406 11.8686 135.281 11.8949 135.185 11.84C135.091 11.7875 135.06 11.673 135.12 11.5848C135.177 11.4965 135.302 11.4679 135.401 11.5204L135.398 11.5228Z" fill="#F26522"/>
<path d="M134.709 12.125C134.891 12.225 134.951 12.4465 134.839 12.6132C134.73 12.7823 134.491 12.8371 134.304 12.7323C134.122 12.6299 134.062 12.4108 134.174 12.2417C134.286 12.0726 134.525 12.0202 134.709 12.1226V12.125Z" fill="#F26522"/>
<path d="M135.2 12.4234C135.296 12.4782 135.325 12.5927 135.267 12.6786C135.208 12.7669 135.083 12.7955 134.989 12.7406C134.89 12.6882 134.861 12.5737 134.921 12.4854C134.979 12.3971 135.106 12.3709 135.2 12.4234Z" fill="#F26522"/>
<path d="M134.514 12.9683C134.696 13.0683 134.753 13.2898 134.644 13.4565C134.532 13.6257 134.293 13.6804 134.109 13.578C133.924 13.4756 133.865 13.2541 133.976 13.0874C134.091 12.9183 134.327 12.8659 134.514 12.9683Z" fill="#F26522"/>
<path d="M135.001 13.2715C135.095 13.3239 135.126 13.4408 135.071 13.5267C135.011 13.615 134.886 13.6412 134.79 13.5887C134.691 13.5339 134.663 13.4194 134.723 13.3311C134.777 13.2428 134.905 13.2166 135.001 13.2691V13.2715Z" fill="#F26522"/>
<path d="M134.12 13.8432C134.305 13.9456 134.364 14.1623 134.253 14.3314C134.138 14.5005 133.902 14.5553 133.717 14.4505C133.533 14.3505 133.476 14.129 133.587 13.9599C133.696 13.7932 133.938 13.7384 134.12 13.8408V13.8432Z" fill="#F26522"/>
<path d="M134.61 14.1434C134.706 14.1983 134.738 14.3128 134.68 14.4011C134.62 14.4893 134.496 14.5179 134.402 14.4631C134.306 14.4106 134.274 14.2961 134.334 14.2078C134.391 14.1196 134.516 14.091 134.613 14.1434H134.61Z" fill="#F26522"/>
<path d="M133.924 14.7388C134.109 14.8412 134.168 15.0603 134.057 15.2294C133.945 15.3985 133.706 15.4509 133.521 15.3509C133.337 15.2485 133.277 15.0294 133.389 14.8603C133.501 14.6935 133.74 14.6388 133.924 14.7412V14.7388Z" fill="#F26522"/>
<path d="M134.409 15.0377C134.505 15.0902 134.536 15.2071 134.479 15.2929C134.422 15.3836 134.294 15.4098 134.201 15.3574C134.102 15.3025 134.073 15.188 134.13 15.0997C134.188 15.0115 134.315 14.9829 134.409 15.0377Z" fill="#F26522"/>
<path d="M133.724 15.7072C133.909 15.8096 133.968 16.0287 133.857 16.1978C133.745 16.3669 133.506 16.4193 133.321 16.3169C133.139 16.2169 133.077 15.9954 133.191 15.8287C133.303 15.6596 133.542 15.6048 133.727 15.7096L133.724 15.7072Z" fill="#F26522"/>
<path d="M134.214 16.0065C134.307 16.0589 134.341 16.1758 134.284 16.2617C134.224 16.35 134.099 16.3786 134.003 16.3237C133.906 16.2712 133.875 16.1567 133.932 16.0685C133.992 15.9802 134.12 15.9516 134.214 16.0065Z" fill="#F26522"/>
<path d="M133.432 16.6031C133.617 16.7055 133.674 16.9246 133.565 17.0937C133.453 17.2628 133.214 17.3152 133.03 17.2128C132.845 17.1104 132.785 16.8913 132.897 16.7222C133.006 16.553 133.248 16.5007 133.432 16.6031Z" fill="#F26522"/>
<path d="M133.92 16.903C134.014 16.9554 134.048 17.0723 133.988 17.1582C133.931 17.2464 133.806 17.2751 133.709 17.2226C133.613 17.1677 133.582 17.0532 133.642 16.965C133.702 16.8767 133.824 16.8481 133.923 16.903H133.92Z" fill="#F26522"/>
<path d="M133.01 17.5731C133.192 17.6755 133.252 17.8947 133.143 18.0638C133.031 18.2305 132.792 18.2853 132.607 18.1828C132.423 18.0804 132.366 17.8613 132.477 17.6946C132.589 17.5255 132.828 17.4707 133.01 17.5731Z" fill="#F26522"/>
<path d="M133.5 17.8759C133.596 17.9284 133.627 18.0429 133.568 18.1336C133.51 18.2218 133.385 18.2481 133.289 18.1956C133.193 18.1407 133.164 18.0286 133.219 17.938C133.279 17.8521 133.401 17.8235 133.5 17.8759Z" fill="#F26522"/>
<path d="M132.649 18.4159C132.831 18.5183 132.891 18.7374 132.779 18.9065C132.667 19.0756 132.428 19.1304 132.244 19.0256C132.059 18.9232 132 18.7041 132.114 18.535C132.226 18.3683 132.462 18.3159 132.649 18.4159Z" fill="#F26522"/>
<path d="M133.135 18.7169C133.231 18.7693 133.262 18.8862 133.203 18.9721C133.143 19.0627 133.018 19.089 132.921 19.0365C132.825 18.984 132.797 18.8671 132.851 18.7789C132.911 18.693 133.036 18.662 133.132 18.7169H133.135Z" fill="#F26522"/>
<path d="M132.27 19.312C132.455 19.4145 132.514 19.6336 132.403 19.8027C132.291 19.9694 132.049 20.0218 131.867 19.9218C131.683 19.8194 131.626 19.6002 131.735 19.4311C131.847 19.262 132.088 19.2096 132.27 19.312Z" fill="#F26522"/>
<path d="M132.76 19.6133C132.854 19.6681 132.885 19.7826 132.828 19.8685C132.771 19.9591 132.643 19.983 132.547 19.9305C132.453 19.8756 132.419 19.7612 132.479 19.6729C132.536 19.5846 132.664 19.5584 132.76 19.6109V19.6133Z" fill="#F26522"/>
<path d="M131.844 20.0312C132.013 20.1527 132.044 20.3742 131.912 20.5314C131.779 20.6862 131.535 20.7148 131.366 20.5933C131.197 20.4695 131.166 20.2456 131.301 20.0931C131.431 19.9359 131.678 19.9098 131.844 20.0312Z" fill="#F26522"/>
<path d="M132.292 20.3779C132.383 20.4423 132.398 20.5592 132.328 20.6403C132.261 20.7214 132.133 20.7381 132.042 20.6737C131.953 20.6116 131.935 20.4924 132.005 20.4137C132.073 20.3325 132.201 20.3182 132.289 20.3803L132.292 20.3779Z" fill="#F26522"/>
<path d="M131.315 20.8449C131.484 20.964 131.516 21.1879 131.383 21.3451C131.251 21.4999 131.006 21.5285 130.835 21.407C130.666 21.2879 130.637 21.0617 130.767 20.9069C130.897 20.7521 131.144 20.7235 131.313 20.8449H131.315Z" fill="#F26522"/>
<path d="M131.763 21.1974C131.851 21.2594 131.867 21.3787 131.797 21.4598C131.727 21.5409 131.602 21.5552 131.508 21.4932C131.419 21.4312 131.406 21.3143 131.474 21.2308C131.544 21.1521 131.672 21.1354 131.763 21.1998V21.1974Z" fill="#F26522"/>
<path d="M130.789 21.5591C130.937 21.702 130.93 21.9282 130.774 22.064C130.618 22.1974 130.371 22.1926 130.225 22.0497C130.077 21.9044 130.085 21.6805 130.238 21.5448C130.397 21.409 130.641 21.4162 130.789 21.5591Z" fill="#F26522"/>
<path d="M131.175 21.968C131.253 22.0419 131.247 22.1612 131.167 22.2327C131.083 22.3019 130.956 22.2995 130.88 22.2256C130.802 22.1492 130.808 22.0347 130.888 21.9632C130.969 21.8916 131.099 21.8964 131.177 21.9703L131.175 21.968Z" fill="#F26522"/>
<path d="M130.236 22.273C130.381 22.4159 130.374 22.6421 130.218 22.7779C130.064 22.9113 129.817 22.9065 129.669 22.7636C129.521 22.6183 129.526 22.3921 129.685 22.2587C129.841 22.1253 130.085 22.1301 130.236 22.273Z" fill="#F26522"/>
<path d="M130.617 22.6824C130.695 22.7587 130.69 22.8756 130.609 22.9472C130.529 23.0164 130.399 23.014 130.321 22.94C130.245 22.8637 130.25 22.7468 130.331 22.6753C130.412 22.6037 130.542 22.6061 130.617 22.68V22.6824Z" fill="#F26522"/>
<path d="M129.369 22.9234C129.517 23.0663 129.512 23.2925 129.356 23.4283C129.2 23.5641 128.953 23.5569 128.805 23.414C128.66 23.2711 128.667 23.0448 128.821 22.9091C128.979 22.7757 129.226 22.7805 129.372 22.9234H129.369Z" fill="#F26522"/>
<path d="M129.753 23.3325C129.831 23.4065 129.826 23.5257 129.745 23.5949C129.662 23.6665 129.532 23.6641 129.457 23.5878C129.381 23.5114 129.384 23.3946 129.464 23.3254C129.545 23.2538 129.675 23.2562 129.753 23.3325Z" fill="#F26522"/>
<path d="M128.526 23.5759C128.672 23.7188 128.666 23.945 128.508 24.0784C128.352 24.2142 128.105 24.2094 127.96 24.0641C127.812 23.9212 127.819 23.695 127.973 23.5592C128.129 23.4258 128.375 23.4306 128.526 23.5759Z" fill="#F26522"/>
<path d="M128.909 23.984C128.987 24.0603 128.982 24.1772 128.898 24.2488C128.818 24.3204 128.69 24.3156 128.612 24.2416C128.534 24.1653 128.539 24.0484 128.622 23.9769C128.703 23.9053 128.831 23.9101 128.909 23.984Z" fill="#F26522"/>
<path d="M127.714 24.2207C127.86 24.3636 127.855 24.5899 127.699 24.7257C127.543 24.8614 127.296 24.8543 127.148 24.7114C127.002 24.5685 127.008 24.3422 127.163 24.2088C127.322 24.0731 127.566 24.0802 127.714 24.2231V24.2207Z" fill="#F26522"/>
<path d="M128.097 24.6329C128.175 24.7068 128.17 24.8261 128.089 24.8953C128.008 24.9668 127.878 24.9621 127.8 24.8881C127.725 24.8094 127.727 24.6925 127.81 24.6233C127.891 24.5518 128.021 24.5566 128.099 24.6305L128.097 24.6329Z" fill="#F26522"/>
<path d="M126.796 24.8726C126.941 25.0179 126.936 25.2418 126.78 25.3775C126.622 25.5133 126.38 25.5085 126.229 25.3632C126.081 25.2203 126.089 24.9941 126.242 24.8583C126.398 24.7249 126.645 24.7297 126.793 24.8726H126.796Z" fill="#F26522"/>
<path d="M127.177 25.2856C127.255 25.3595 127.25 25.4788 127.167 25.548C127.089 25.6195 126.959 25.6147 126.88 25.5384C126.802 25.4645 126.808 25.3476 126.888 25.2736C126.969 25.2045 127.099 25.2092 127.177 25.2832V25.2856Z" fill="#F26522"/>
<path d="M125.871 25.5209C126.021 25.6614 126.011 25.8876 125.855 26.0234C125.697 26.1568 125.45 26.152 125.304 26.0091C125.156 25.8662 125.164 25.6399 125.32 25.5066C125.476 25.3708 125.722 25.3756 125.871 25.5209Z" fill="#F26522"/>
<path d="M126.253 25.9312C126.331 26.0052 126.326 26.1244 126.245 26.1936C126.164 26.2652 126.034 26.2628 125.956 26.1865C125.878 26.1101 125.881 25.9909 125.964 25.9241C126.047 25.8549 126.175 25.8549 126.253 25.9312Z" fill="#F26522"/>
<path d="M125.149 26.1333C125.294 26.2762 125.292 26.5024 125.133 26.6382C124.975 26.7716 124.731 26.7668 124.582 26.6239C124.434 26.4786 124.44 26.2547 124.598 26.119C124.757 25.9832 125.001 25.9904 125.149 26.1333Z" fill="#F26522"/>
<path d="M125.533 26.5421C125.609 26.6161 125.606 26.7353 125.523 26.8045C125.442 26.8761 125.312 26.8713 125.234 26.7973C125.153 26.721 125.161 26.6041 125.242 26.5326C125.322 26.4634 125.45 26.4658 125.531 26.5397L125.533 26.5421Z" fill="#F26522"/>
<path d="M124.428 26.9653C124.571 27.1082 124.566 27.3345 124.413 27.4702C124.254 27.606 124.007 27.5988 123.862 27.4536C123.711 27.3107 123.721 27.0844 123.877 26.951C124.031 26.8153 124.28 26.8224 124.428 26.9653Z" fill="#F26522"/>
<path d="M124.808 27.3751C124.886 27.4514 124.881 27.5683 124.8 27.6398C124.717 27.7114 124.587 27.7066 124.511 27.6327C124.436 27.5564 124.438 27.4395 124.519 27.3703C124.602 27.2987 124.73 27.3011 124.808 27.3775V27.3751Z" fill="#F26522"/>
<path d="M123.706 32.277C123.8 32.1768 123.966 32.1649 124.076 32.2507C124.185 32.3366 124.195 32.4893 124.104 32.5895C124.008 32.6896 123.842 32.7016 123.732 32.6157C123.62 32.5298 123.61 32.3796 123.704 32.277H123.706Z" fill="#F26522"/>
<path d="M123.976 32.0117C124.025 31.9592 124.111 31.9544 124.168 31.9997C124.226 32.045 124.231 32.1238 124.181 32.1762C124.132 32.2287 124.046 32.2335 123.989 32.1882C123.931 32.1452 123.926 32.0641 123.976 32.0117Z" fill="#F26522"/>
<path d="M124.086 32.7379C124.177 32.6377 124.346 32.6258 124.455 32.7117C124.565 32.7976 124.578 32.9526 124.481 33.0504C124.388 33.1506 124.221 33.1625 124.112 33.0766C124.002 32.9908 123.989 32.8405 124.086 32.7379Z" fill="#F26522"/>
<path d="M124.356 32.4748C124.406 32.4199 124.494 32.4151 124.549 32.4604C124.606 32.5058 124.614 32.5869 124.565 32.637C124.515 32.6894 124.429 32.6942 124.372 32.6513C124.315 32.6059 124.307 32.5272 124.356 32.4748Z" fill="#F26522"/>
<path d="M124.521 33.204C124.618 33.1014 124.782 33.0918 124.894 33.1753C125.003 33.2636 125.016 33.4139 124.922 33.5141C124.828 33.6142 124.662 33.6262 124.553 33.5403C124.443 33.452 124.43 33.3018 124.521 33.204Z" fill="#F26522"/>
<path d="M124.797 32.9394C124.847 32.8869 124.935 32.8821 124.99 32.9275C125.047 32.9728 125.052 33.0515 125.006 33.104C124.954 33.1588 124.868 33.1636 124.81 33.1159C124.753 33.073 124.748 32.9919 124.795 32.9394H124.797Z" fill="#F26522"/>
<path d="M125.05 33.5561C125.146 33.4535 125.31 33.4464 125.422 33.5299C125.529 33.6181 125.542 33.7708 125.446 33.871C125.355 33.9712 125.188 33.9807 125.076 33.8972C124.967 33.8113 124.954 33.6587 125.047 33.5585L125.05 33.5561Z" fill="#F26522"/>
<path d="M125.322 33.2919C125.372 33.2394 125.46 33.2323 125.517 33.28C125.575 33.3229 125.583 33.404 125.53 33.4541C125.484 33.509 125.398 33.5138 125.338 33.4684C125.283 33.4231 125.275 33.342 125.322 33.2919Z" fill="#F26522"/>
<path d="M125.572 33.9074C125.666 33.8073 125.832 33.7953 125.941 33.8836C126.051 33.9695 126.064 34.1221 125.97 34.2223C125.876 34.3225 125.71 34.3344 125.601 34.2486C125.491 34.1627 125.478 34.01 125.572 33.9098V33.9074Z" fill="#F26522"/>
<path d="M125.846 33.6439C125.893 33.5914 125.979 33.5842 126.036 33.6296C126.093 33.6773 126.101 33.756 126.052 33.8085C126.002 33.8609 125.916 33.8657 125.856 33.8204C125.799 33.7751 125.794 33.6964 125.846 33.6439Z" fill="#F26522"/>
<path d="M126.205 34.2133C126.299 34.1108 126.465 34.1012 126.577 34.1871C126.684 34.2753 126.697 34.4256 126.603 34.5258C126.509 34.6284 126.343 34.6355 126.231 34.5497C126.122 34.4614 126.111 34.3135 126.205 34.2109V34.2133Z" fill="#F26522"/>
<path d="M126.478 33.9472C126.528 33.8947 126.614 33.89 126.668 33.9353C126.728 33.9782 126.733 34.0593 126.684 34.1118C126.634 34.1643 126.549 34.1714 126.489 34.1261C126.431 34.0808 126.426 33.9997 126.476 33.9496L126.478 33.9472Z" fill="#F26522"/>
<path d="M126.848 34.503C126.91 34.3837 127.067 34.336 127.197 34.3933C127.327 34.4529 127.381 34.5984 127.316 34.7153C127.254 34.8346 127.095 34.8847 126.968 34.8274C126.838 34.7678 126.78 34.6247 126.848 34.5054V34.503Z" fill="#F26522"/>
<path d="M127.039 34.1855C127.07 34.1235 127.153 34.0973 127.223 34.1283C127.291 34.1569 127.317 34.2332 127.286 34.2953C127.252 34.3549 127.169 34.3835 127.101 34.3525C127.033 34.3239 127.005 34.2476 127.039 34.1855Z" fill="#F26522"/>
<path d="M127.462 34.6584C127.524 34.5391 127.683 34.489 127.81 34.5486C127.94 34.6059 127.995 34.7538 127.93 34.8707C127.868 34.9899 127.709 35.04 127.579 34.9828C127.449 34.9231 127.397 34.7776 127.462 34.6607V34.6584Z" fill="#F26522"/>
<path d="M127.656 34.3403C127.687 34.2807 127.77 34.2521 127.838 34.2807C127.903 34.3117 127.934 34.3881 127.903 34.4501C127.869 34.5145 127.783 34.5383 127.718 34.5049C127.648 34.4787 127.622 34.4 127.656 34.3403Z" fill="#F26522"/>
<path d="M128.17 34.8221C128.199 34.6933 128.337 34.6074 128.48 34.6336C128.623 34.6599 128.714 34.7863 128.685 34.9175C128.657 35.0487 128.516 35.1322 128.376 35.1059C128.235 35.0797 128.144 34.9533 128.173 34.8221H128.17Z" fill="#F26522"/>
<path d="M128.269 34.471C128.282 34.4018 128.355 34.3612 128.431 34.3732C128.504 34.3875 128.55 34.4519 128.537 34.5211C128.522 34.5902 128.449 34.6332 128.376 34.6189C128.303 34.6045 128.256 34.5401 128.272 34.471H128.269Z" fill="#F26522"/>
<path d="M128.83 34.8436C128.859 34.7125 128.997 34.629 129.14 34.6552C129.278 34.6838 129.369 34.8103 129.343 34.9367C129.314 35.0679 129.176 35.1537 129.033 35.1251C128.893 35.0989 128.802 34.9725 128.828 34.8413L128.83 34.8436Z" fill="#F26522"/>
<path d="M128.933 34.495C128.943 34.4282 129.019 34.3829 129.094 34.3972C129.17 34.4115 129.217 34.4759 129.201 34.5427C129.185 34.6119 129.115 34.6548 129.04 34.6405C128.967 34.6286 128.917 34.5618 128.935 34.4926L128.933 34.495Z" fill="#F26522"/>
<path d="M129.511 34.7934C129.498 34.6622 129.608 34.5453 129.753 34.5358C129.896 34.5262 130.024 34.6264 130.034 34.7576C130.045 34.8888 129.936 35.0057 129.79 35.0176C129.647 35.0272 129.519 34.9294 129.511 34.7958V34.7934Z" fill="#F26522"/>
<path d="M129.5 34.429C129.495 34.3622 129.552 34.3002 129.63 34.2931C129.703 34.2907 129.77 34.3408 129.776 34.4099C129.784 34.4791 129.724 34.5387 129.651 34.5435C129.575 34.5507 129.51 34.4982 129.502 34.429H129.5Z" fill="#F26522"/>
<path d="M130.161 34.684C130.151 34.5528 130.258 34.436 130.401 34.4264C130.547 34.4169 130.674 34.5171 130.684 34.6482C130.695 34.7794 130.588 34.8963 130.44 34.9059C130.297 34.9154 130.169 34.8176 130.161 34.684Z" fill="#F26522"/>
<path d="M130.15 34.3175C130.145 34.2507 130.202 34.1887 130.275 34.1839C130.351 34.1791 130.418 34.2316 130.423 34.2984C130.429 34.3676 130.371 34.4272 130.299 34.4344C130.223 34.4415 130.155 34.389 130.15 34.3175Z" fill="#F26522"/>
<path d="M130.799 34.5551C130.789 34.4239 130.898 34.307 131.041 34.2975C131.187 34.288 131.309 34.3881 131.322 34.5193C131.332 34.6505 131.223 34.7674 131.077 34.777C130.934 34.7865 130.809 34.6863 130.796 34.5551H130.799Z" fill="#F26522"/>
<path d="M130.789 34.1944C130.784 34.1253 130.844 34.0656 130.916 34.0609C130.992 34.0561 131.057 34.1062 131.062 34.1754C131.067 34.2445 131.01 34.3066 130.937 34.3089C130.862 34.3137 130.797 34.2636 130.789 34.1944Z" fill="#F26522"/>
<path d="M131.523 34.3652C131.46 34.2435 131.518 34.1028 131.65 34.0455C131.78 33.9907 131.937 34.0408 131.996 34.1648C132.059 34.2817 132.002 34.4296 131.869 34.4844C131.736 34.5393 131.583 34.4844 131.523 34.3676V34.3652Z" fill="#F26522"/>
<path d="M131.37 34.0282C131.336 33.9661 131.37 33.8898 131.435 33.8588C131.506 33.8302 131.586 33.8588 131.62 33.9208C131.651 33.9852 131.62 34.0616 131.552 34.0878C131.485 34.1188 131.404 34.0902 131.37 34.0282Z" fill="#F26522"/>
<path d="M132.183 33.9596C132.12 33.8403 132.18 33.6972 132.31 33.6423C132.44 33.5851 132.596 33.6375 132.659 33.7592C132.719 33.8809 132.661 34.0216 132.531 34.0788C132.401 34.1337 132.245 34.0812 132.185 33.9596H132.183Z" fill="#F26522"/>
<path d="M132.036 33.6258C132.004 33.5614 132.033 33.4875 132.103 33.4565C132.171 33.4278 132.252 33.4565 132.285 33.5185C132.314 33.5781 132.285 33.6521 132.218 33.6831C132.15 33.7141 132.069 33.6878 132.036 33.6234V33.6258Z" fill="#F26522"/>
<path d="M131.451 29.976C130.845 29.6331 130.287 30.138 129.655 30.3619C128.975 30.6024 128.034 30.5072 127.566 30.1737C126.485 29.402 126.836 28.416 126.836 28.416C126.836 28.416 126.376 28.7923 126.202 29.483C125.973 30.3928 126.176 31.7266 127.948 32.2291C129.271 32.6055 130.791 32.0148 131.17 31.729C131.75 31.286 132.223 30.4119 131.453 29.9784L131.451 29.976Z" fill="#004280"/>
<path d="M128.71 26.8309C128.598 26.9762 129.544 26.4522 131.277 26.5284C132.059 26.5665 132.872 26.7142 132.872 26.7142C132.872 26.7142 133.244 26.3498 134.078 25.2423C135.156 23.8156 135.837 22.3438 135.837 22.3438C134.642 23.949 132.688 24.8398 131.152 25.5114C129.913 26.0545 128.975 26.4832 128.71 26.8285V26.8309Z" fill="#004280"/>
<path d="M139.333 22.9504C138.964 22.636 138.686 21.9453 138.686 21.9453C138.686 21.9453 138.003 23.4148 136.963 24.7772C136.342 25.5893 135.555 26.3443 134.832 26.7802C134.323 27.0874 134.042 27.0898 134.042 27.0898C134.042 27.0898 134.515 27.5138 134.71 27.8901C134.905 28.2664 135.032 28.6379 135.032 28.6379C135.032 28.6379 135.68 26.9469 137.202 25.4012C138.774 23.8007 140.318 23.5363 140.318 23.5363C140.318 23.5363 139.702 23.2719 139.333 22.9528V22.9504Z" fill="#004280"/>
<path d="M137.971 6.26871C137.329 6.70218 136.768 6.35207 136.763 6.3473L137.392 5.77569L138.137 5.24219C138.371 5.50179 138.361 6.00672 137.971 6.26871Z" fill="#ED1C24"/>
<path d="M137.05 6.53711C137.05 6.53711 136.777 6.90151 136.366 7.1373C135.956 7.37547 135.86 7.70653 136.125 7.79227C136.39 7.8804 136.777 7.61841 136.915 7.23257C137.052 6.84673 137.05 6.53711 137.05 6.53711Z" fill="#ED1C24"/>
<path d="M137.393 6.53711C137.393 6.53711 137.234 6.98964 136.985 7.38262C136.733 7.7756 136.849 8.04712 137.164 7.95185C137.473 7.85658 137.684 7.45645 137.577 7.12539C137.468 6.79433 137.393 6.53711 137.393 6.53711Z" fill="#ED1C24"/>
<path d="M137.858 6.375C137.858 6.375 137.907 6.79656 137.829 7.21336C137.754 7.63016 138.001 7.79212 138.276 7.58491C138.549 7.38008 138.583 6.97519 138.315 6.75846C138.055 6.54172 137.855 6.375 137.855 6.375H137.858Z" fill="#ED1C24"/>
<path d="M138.159 6.20802C138.159 6.20802 138.468 6.46286 138.655 6.77963C138.839 7.09878 139.182 7.06782 139.32 6.77487C139.458 6.48192 139.24 6.19611 138.847 6.20326C138.458 6.2104 138.161 6.20802 138.161 6.20802H138.159Z" fill="#ED1C24"/>
<path d="M138.331 5.84559C138.331 5.84559 138.77 5.90275 139.111 6.06232C139.456 6.2219 139.786 6.04327 139.786 5.75746C139.781 5.46928 139.42 5.35019 139.027 5.5312C138.632 5.70983 138.331 5.84321 138.331 5.84321V5.84559Z" fill="#ED1C24"/>
<path d="M138.276 5.44513C138.276 5.44513 138.78 5.34272 139.207 5.32128C139.633 5.29984 139.887 5.02118 139.752 4.79492C139.617 4.57104 139.191 4.63058 138.874 4.94021C138.557 5.24983 138.276 5.44513 138.276 5.44513Z" fill="#ED1C24"/>
<path d="M133.504 47.4971C133.504 47.4971 133.394 42.4431 133.545 42.1835C133.737 41.8501 134.273 42.0335 134.27 42.3431C134.27 42.5408 133.504 47.4971 133.504 47.4971Z" fill="#F47721"/>
<path d="M133.402 47.4727C133.402 47.4727 132.121 42.5568 132.205 42.2734C132.316 41.909 132.883 41.9852 132.956 42.2877C132.997 42.4782 133.402 47.4727 133.402 47.4727Z" fill="#F47721"/>
<path d="M133.63 47.3965C133.63 47.3965 135.673 42.6974 135.631 42.4092C135.577 42.0329 135.005 42.0329 134.885 42.3235C134.813 42.5045 133.63 47.3965 133.63 47.3965Z" fill="#F47721"/>
<path d="M135.846 48.3465C135.846 48.3465 139.261 44.7287 139.528 44.643C139.879 44.5334 140.084 45.0145 139.871 45.2312C139.739 45.3646 135.846 48.3465 135.846 48.3465Z" fill="#F47721"/>
<path d="M135.804 48.2681C135.804 48.2681 138.392 43.9786 138.639 43.8357C138.959 43.6523 139.26 44.0762 139.094 44.3335C138.99 44.4978 135.804 48.2681 135.804 48.2681Z" fill="#F47721"/>
<path d="M136.002 48.3585C136.002 48.3585 140.503 46.3912 140.674 46.1602C140.901 45.8624 140.545 45.4909 140.272 45.6171C140.1 45.6957 136.002 48.3585 136.002 48.3585Z" fill="#F47721"/>
<path d="M136.849 49.8396C136.849 49.8396 141.932 48.744 142.205 48.8202C142.558 48.9202 142.418 49.4204 142.106 49.4799C141.911 49.5181 136.852 49.8396 136.852 49.8396H136.849Z" fill="#F47721"/>
<path d="M136.869 49.7525C136.869 49.7525 141.71 47.6709 142.001 47.6876C142.377 47.7114 142.349 48.214 142.05 48.3378C141.863 48.4116 136.871 49.7525 136.871 49.7525H136.869Z" fill="#F47721"/>
<path d="M136.971 49.9297C136.971 49.9297 141.877 50.7585 142.163 50.668C142.535 50.5465 142.488 50.0512 142.184 50.0107C141.994 49.9821 136.971 49.9321 136.971 49.9321V49.9297Z" fill="#F47721"/>
<path d="M131.225 48.1483C131.225 48.1483 127.704 44.2566 127.644 43.9708C127.566 43.5969 128.112 43.4373 128.322 43.6802C128.455 43.835 131.225 48.1507 131.225 48.1507V48.1483Z" fill="#F47721"/>
<path d="M131.132 48.1834C131.132 48.1834 126.784 45.0681 126.66 44.799C126.501 44.4488 126.995 44.1845 127.255 44.3822C127.418 44.506 131.129 48.181 131.129 48.181L131.132 48.1834Z" fill="#F47721"/>
<path d="M131.253 47.9926C131.253 47.9926 129.652 43.153 129.424 42.9505C129.128 42.6861 128.678 43.0148 128.785 43.3078C128.852 43.4935 131.25 47.9926 131.25 47.9926H131.253Z" fill="#F47721"/>
<path d="M129.633 49.9264C129.633 49.9264 124.34 48.4974 124.114 48.2878C123.825 48.0186 124.181 47.6042 124.501 47.6995C124.701 47.759 129.633 49.9264 129.633 49.9264Z" fill="#F47721"/>
<path d="M129.573 50.0098C129.573 50.0098 124.07 49.6454 123.802 49.4835C123.457 49.2763 123.706 48.8047 124.046 48.8333C124.254 48.8523 129.573 50.0098 129.573 50.0098Z" fill="#F47721"/>
<path d="M129.561 49.7849C129.561 49.7849 125.289 46.5839 124.972 46.5315C124.566 46.4648 124.395 46.9649 124.663 47.1555C124.829 47.2769 129.561 49.7849 129.561 49.7849Z" fill="#F47721"/>
<path d="M129.205 51.9245C129.205 51.9245 124.317 50.9242 124.039 50.998C123.678 51.0933 123.753 51.5601 124.057 51.6149C124.244 51.6482 129.205 51.9245 129.205 51.9245Z" fill="#F47721"/>
<path d="M142.495 20.7695V23.1679C142.495 23.1679 142.324 23.1322 142.015 23.1679C141.711 23.2036 141.49 23.2751 141.49 23.2751C141.49 23.2751 141.607 23.1727 141.562 22.6249C141.518 22.0795 141.591 21.4126 141.833 21.1577C142.095 20.8862 142.493 20.7719 142.493 20.7719L142.495 20.7695Z" fill="#004280"/>
<path d="M142.435 45.7775C142.435 45.7775 140.049 41.0855 132.974 41.0688C127.805 41.0569 125.539 43.7816 125.539 43.7816C125.539 43.7816 125.163 41.5261 126.462 40.9855C126.462 40.9855 123.159 42.1168 121.293 39.0205C121.293 39.0205 122.949 36.5602 126.301 37.3772C126.301 37.3772 122.723 35.8243 122.84 32.9043C122.84 32.9043 125.295 37.1866 133.813 37.9702C140.267 38.5633 142.913 43.1338 142.437 45.7822L142.435 45.7775Z" fill="#004280"/>
<path d="M142.046 44.6099C142.046 44.6099 140.084 40.5944 132.881 40.4443C132.881 40.4443 128.326 40.4681 126.076 42.6093C126.076 42.6093 128.17 39.8751 133.694 40.099C139.213 40.3229 141.126 42.9142 142.046 44.6099Z" fill="#00AEEF"/>
<path d="M122.689 41.9168C122.689 41.9168 123.333 41.1261 125.246 41.6977C125.246 41.6977 125.272 43.3387 122.689 43.8698V41.9168Z" fill="#ED1C24"/>
<path d="M128.919 36.354C128.919 36.354 133.862 38.781 138.739 36.6493C138.739 36.6493 137.027 35.5537 135.67 36.3254C135.67 36.3254 136.003 35.0298 134.54 33.334C134.54 33.334 132.625 34.6273 132.407 36.0896C132.407 36.0896 131.417 35.056 128.919 36.3564V36.354Z" fill="#F26522"/>
<path d="M130.083 36.4122C130.083 36.4122 134.121 37.9793 137.704 36.6789C137.704 36.6789 136.158 36.274 135.183 36.8266C135.183 36.8266 135.428 35.4666 134.378 34.252C134.378 34.252 133.053 35.1999 132.925 36.7075C132.925 36.7075 131.535 35.8263 130.083 36.4145V36.4122Z" fill="#ED1C24"/>
<path d="M123.81 43.3652C123.81 43.3652 124.858 43.52 125.281 44.1178C125.707 44.7157 125.479 45.5993 125.876 45.9113C125.876 45.9113 125.336 45.6517 124.431 45.7041C122.898 45.7898 122.561 44.4298 122.561 43.4676C122.561 42.5054 123.808 43.3652 123.808 43.3652H123.81Z" fill="#ED1C24"/>
<path d="M122.775 44.5825C122.775 44.5825 123.269 45.4899 124.407 45.3899C125.062 45.3303 125.444 45.5875 125.444 45.5875C125.444 45.5875 124.947 45.1279 124.435 45.1017C123.926 45.0755 123.03 44.9159 122.775 44.5801V44.5825Z" fill="#F26522"/>
<path d="M124.962 41.9238C124.962 41.9238 124.669 42.9265 123.323 43.36C123.323 43.36 123.933 42.374 124.962 41.9238Z" fill="#F26522"/>
<path d="M122.991 41.9459C122.991 41.9459 124.129 41.5029 124.976 41.9626C124.976 41.9626 123.55 41.965 122.9 42.2913L122.991 41.9459Z" fill="#F26522"/>
<path d="M122.653 38.0992C122.653 38.0992 125.509 37.1013 128.175 38.5374C128.175 38.5374 125.507 37.4085 121.9 38.697L122.653 38.0968V38.0992Z" fill="#00AEEF"/>
<path d="M122.844 39.9195C122.844 39.9195 124.156 41.1127 126.768 40.5577C126.768 40.5577 123.725 40.834 122.636 39.2383L122.842 39.9195H122.844Z" fill="#00AEEF"/>
<path d="M125.633 12.1842C125.633 12.5581 125.305 12.8582 124.897 12.8582C124.489 12.8582 124.165 12.5581 124.165 12.1842C124.165 11.8103 124.495 11.5078 124.897 11.5078C125.3 11.5078 125.633 11.8103 125.633 12.1842Z" fill="#F47721"/>
<path d="M131.041 9.06055C131.041 9.06055 130.706 9.53927 131.116 9.84413C131.532 10.1538 132.013 9.70837 132.109 9.42971C132.109 9.42971 131.641 9.74172 131.298 9.53451C130.953 9.32492 131.044 9.06055 131.044 9.06055H131.041Z" fill="#ED1C24"/>
<path d="M131.367 9.80121C131.367 9.80121 131.055 10.2466 131.437 10.5324C131.827 10.823 132.276 10.4038 132.362 10.1442C132.362 10.1442 131.926 10.4371 131.603 10.2418C131.281 10.0465 131.367 9.79883 131.367 9.79883V9.80121Z" fill="#ED1C24"/>
<path d="M130.243 11.3984C130.243 11.3984 129.676 12.2035 130.368 12.7203C131.072 13.2443 131.883 12.4893 132.041 12.0201C132.041 12.0201 131.254 12.5488 130.672 12.1963C130.087 11.8438 130.243 11.3984 130.243 11.3984Z" fill="#ED1C24"/>
<path d="M128.59 11.7676C128.59 11.7676 127.994 12.6178 128.722 13.1609C129.465 13.7134 130.32 12.9203 130.489 12.4249C130.489 12.4249 129.657 12.9823 129.042 12.6107C128.426 12.2392 128.59 11.7676 128.59 11.7676Z" fill="#ED1C24"/>
<path d="M129.846 12.9531C129.846 12.9531 129.251 13.801 129.979 14.3464C130.722 14.9014 131.577 14.1059 131.746 13.6105C131.746 13.6105 130.914 14.1678 130.301 13.7963C129.683 13.4247 129.846 12.9531 129.846 12.9531Z" fill="#ED1C24"/>
<path d="M127.721 13.1641C127.721 13.1641 127.066 14.0977 127.867 14.6931C128.68 15.3005 129.618 14.4288 129.802 13.8857C129.802 13.8857 128.893 14.4978 128.217 14.0882C127.539 13.6809 127.721 13.1641 127.721 13.1641Z" fill="#ED1C24"/>
<path d="M126.46 14.1411C126.46 14.1411 125.805 15.0747 126.608 15.6701C127.421 16.2774 128.359 15.4057 128.544 14.8603C128.544 14.8603 127.634 15.4724 126.959 15.0652C126.283 14.6555 126.462 14.1387 126.462 14.1387L126.46 14.1411Z" fill="#ED1C24"/>
<path d="M128.626 14.7598C128.626 14.7598 127.971 15.691 128.774 16.2888C129.587 16.8962 130.528 16.0221 130.71 15.4814C130.71 15.4814 129.8 16.0911 129.122 15.6839C128.444 15.2742 128.626 14.7598 128.626 14.7598Z" fill="#ED1C24"/>
<path d="M125.011 15.0996C125.011 15.0996 123.972 16.4548 125.17 16.9883C126.235 17.4623 127.079 16.4691 127.334 15.776C127.334 15.776 126.547 16.7049 125.687 16.1595C124.824 15.6141 125.009 15.102 125.009 15.102L125.011 15.0996Z" fill="#ED1C24"/>
<path d="M127.013 16.1606C127.013 16.1606 125.594 18.1446 127.072 18.7995C128.385 19.383 129.427 18.1612 129.738 17.3014C129.738 17.3014 128.943 18.4351 127.79 17.9064C126.82 17.4634 127.013 16.1582 127.013 16.1582V16.1606Z" fill="#ED1C24"/>
<path d="M126.915 18.4707C126.915 18.4707 125.494 20.4523 126.973 21.1096C128.285 21.6932 129.327 20.4713 129.639 19.6139C129.639 19.6139 128.846 20.7452 127.692 20.2189C126.723 19.7735 126.918 18.4707 126.918 18.4707H126.915Z" fill="#ED1C24"/>
<path d="M124.459 16.752C124.459 16.752 123.038 18.7335 124.516 19.3909C125.828 19.9744 126.87 18.7526 127.182 17.8952C127.182 17.8952 126.387 19.0265 125.233 18.5001C124.267 18.0548 124.459 16.752 124.459 16.752Z" fill="#ED1C24"/>
<path d="M130.399 9.79102C130.399 9.79102 130.051 10.2912 130.48 10.6103C130.916 10.9342 131.418 10.4674 131.516 10.1769C131.516 10.1769 131.03 10.5031 130.669 10.2864C130.305 10.0673 130.402 9.79102 130.402 9.79102H130.399Z" fill="#ED1C24"/>
<path d="M131.758 10.5645C131.758 10.5645 131.41 11.0646 131.836 11.3814C132.27 11.7053 132.774 11.2385 132.873 10.9503C132.873 10.9503 132.384 11.2766 132.026 11.0575C131.662 10.8407 131.758 10.5645 131.758 10.5645Z" fill="#ED1C24"/>
<path d="M130.53 10.6523C130.53 10.6523 130.179 11.1501 130.611 11.4717C131.045 11.7956 131.549 11.3311 131.645 11.0382C131.645 11.0382 131.159 11.3645 130.798 11.1477C130.436 10.9286 130.533 10.6523 130.533 10.6523H130.53Z" fill="#ED1C24"/>
<path d="M129.43 10.7148C129.43 10.7148 129.082 11.2126 129.508 11.5342C129.942 11.8581 130.443 11.3912 130.542 11.0983C130.542 11.0983 130.056 11.427 129.692 11.2079C129.331 10.9911 129.427 10.7148 129.427 10.7148H129.43Z" fill="#ED1C24"/>
<path d="M131.465 12.7266C131.465 12.7266 131.114 13.222 131.546 13.5411C131.98 13.8674 132.484 13.4006 132.582 13.11C132.582 13.11 132.097 13.4387 131.733 13.2196C131.372 13.0005 131.468 12.7266 131.468 12.7266H131.465Z" fill="#ED1C24"/>
<path d="M129.591 16.5469C129.591 16.5469 129.243 17.0447 129.672 17.3662C130.106 17.6901 130.61 17.2257 130.706 16.9327C130.706 16.9327 130.22 17.259 129.859 17.0423C129.498 16.8208 129.591 16.5469 129.591 16.5469Z" fill="#ED1C24"/>
<path d="M123.147 16.8613C123.147 16.8613 122.799 17.3591 123.225 17.6806C123.661 18.0046 124.163 17.5401 124.261 17.2472C124.261 17.2472 123.773 17.5735 123.412 17.3567C123.051 17.1352 123.147 16.8613 123.147 16.8613Z" fill="#ED1C24"/>
<path d="M122.087 17.2168C122.087 17.2168 121.738 17.7146 122.167 18.0337C122.604 18.3576 123.103 17.8932 123.201 17.6026C123.201 17.6026 122.715 17.9265 122.354 17.7098C121.99 17.4931 122.089 17.2168 122.089 17.2168H122.087Z" fill="#ED1C24"/>
<path d="M124.692 19.4473C124.692 19.4473 124.183 20.1761 124.806 20.6429C125.443 21.1168 126.178 20.4357 126.321 20.0094C126.321 20.0094 125.609 20.4881 125.082 20.1689C124.554 19.8498 124.692 19.4473 124.692 19.4473Z" fill="#ED1C24"/>
<path d="M125.041 20.7109C125.041 20.7109 124.529 21.4397 125.155 21.9066C125.792 22.3829 126.525 21.697 126.67 21.273C126.67 21.273 125.958 21.7541 125.431 21.4326C124.901 21.1111 125.041 20.7109 125.041 20.7109Z" fill="#ED1C24"/>
<path d="M126.779 21.0996C126.779 21.0996 126.418 21.6164 126.859 21.9475C127.309 22.2809 127.829 21.7998 127.93 21.4997C127.93 21.4997 127.426 21.8379 127.054 21.6117C126.68 21.3854 126.779 21.0996 126.779 21.0996Z" fill="#ED1C24"/>
<path d="M125.872 21.9941C125.872 21.9941 125.51 22.5086 125.952 22.8396C126.404 23.1755 126.919 22.692 127.023 22.3919C127.023 22.3919 126.519 22.7301 126.144 22.5062C125.77 22.2799 125.872 21.9941 125.872 21.9941Z" fill="#ED1C24"/>
<path d="M124.795 22.3652C124.795 22.3652 124.434 22.8797 124.878 23.2107C125.327 23.5466 125.847 23.0631 125.948 22.763C125.948 22.763 125.444 23.1012 125.07 22.8749C124.696 22.6487 124.795 22.3652 124.795 22.3652Z" fill="#ED1C24"/>
<path d="M131.751 8.58203C131.751 8.58203 131.53 9.03932 131.933 9.25367C132.338 9.47279 132.692 9.02741 132.733 8.77257C132.733 8.77257 132.372 9.10124 132.042 8.96311C131.712 8.82497 131.751 8.58203 131.751 8.58203Z" fill="#ED1C24"/>
<path d="M132.211 9.11957C132.211 9.11957 131.99 9.57686 132.39 9.79121C132.798 10.0103 133.152 9.56495 133.191 9.30773C133.191 9.30773 132.832 9.63878 132.502 9.49826C132.17 9.35774 132.211 9.11719 132.211 9.11719V9.11957Z" fill="#ED1C24"/>
<path d="M130.707 8.34375C130.707 8.34375 130.46 8.85106 130.907 9.08923C131.359 9.33216 131.749 8.83676 131.795 8.55572C131.795 8.55572 131.395 8.92251 131.029 8.76769C130.663 8.61527 130.707 8.34613 130.707 8.34613V8.34375Z" fill="#ED1C24"/>
<path d="M131.439 7.87109C131.439 7.87109 131.193 8.37602 131.637 8.61657C132.089 8.8595 132.479 8.36173 132.523 8.08068C132.523 8.08068 132.128 8.44747 131.759 8.29266C131.393 8.13784 131.439 7.87109 131.439 7.87109Z" fill="#ED1C24"/>
<path d="M132.586 8.19727C132.586 8.19727 132.396 8.58787 132.739 8.77602C133.09 8.96418 133.394 8.57834 133.43 8.35922C133.43 8.35922 133.121 8.64265 132.835 8.52356C132.549 8.40448 132.586 8.19727 132.586 8.19727Z" fill="#ED1C24"/>
<path d="M142.519 25.3408V24.543C141.703 24.5668 139.169 24.9026 137.587 27.332C135.607 30.371 136.597 32.6217 136.597 32.6217C136.597 32.6217 137.4 28.3847 142.519 29.2064V25.3408Z" fill="#00AEEF"/>
<path d="M142.493 25.0234C142.493 25.0234 138.146 25.1711 136.813 30.0274C136.813 30.0274 138.46 25.5974 142.519 25.5474V25.0353L142.493 25.0234Z" fill="#004280"/>
<path d="M142.108 28.0077C142.259 27.891 142.407 27.7791 142.506 27.6648C143.067 27.0217 142.524 26.674 142.085 26.6264C141.794 26.5978 141.297 26.7502 141.331 27.248C141.349 27.5481 141.755 27.7743 142.108 28.0054V28.0077ZM142.061 26.9193C142.274 26.9455 142.54 27.167 142.267 27.5671C142.217 27.6386 142.145 27.7077 142.072 27.7815C141.9 27.6362 141.737 27.4933 141.695 27.3075C141.62 26.9955 141.918 26.9026 142.061 26.9193Z" fill="#004280"/>
<path d="M141.731 28.6167C141.721 28.9001 142.339 29.0502 142.477 28.6453C142.55 28.4285 142.35 28.2642 142.116 28.1094H142.1C141.918 28.2547 141.736 28.4119 141.731 28.6191V28.6167Z" fill="#004280"/>
<path d="M140.66 28.2093C140.766 28.1259 140.875 28.045 140.946 27.964C141.346 27.5043 140.956 27.2566 140.644 27.2233C140.436 27.2018 140.08 27.3114 140.106 27.6687C140.119 27.883 140.408 28.0426 140.66 28.2093ZM140.626 27.4305C140.777 27.4519 140.969 27.6067 140.772 27.8949C140.738 27.9449 140.686 27.995 140.634 28.0473C140.512 27.9426 140.397 27.8401 140.364 27.7115C140.312 27.4876 140.525 27.4186 140.626 27.4305Z" fill="#004280"/>
<path d="M140.392 28.6458C140.384 28.8485 140.827 28.9559 140.928 28.6672C140.98 28.5122 140.837 28.3953 140.671 28.2832H140.66C140.53 28.3858 140.4 28.5003 140.395 28.6482L140.392 28.6458Z" fill="#004280"/>
<path d="M139.649 28.526C139.711 28.4498 139.774 28.3735 139.81 28.3045C140.018 27.9091 139.688 27.7876 139.457 27.8115C139.301 27.8305 139.064 27.9639 139.145 28.2187C139.194 28.3735 139.433 28.445 139.649 28.526ZM139.482 27.9663C139.597 27.9591 139.763 28.0425 139.672 28.2807C139.657 28.3211 139.628 28.3688 139.599 28.414C139.493 28.3569 139.389 28.2997 139.342 28.2092C139.262 28.0544 139.405 27.9734 139.482 27.9663Z" fill="#004280"/>
<path d="M139.531 28.88C139.563 29.0303 139.906 29.0374 139.924 28.8108C139.935 28.6891 139.81 28.6271 139.664 28.5723H139.659C139.583 28.6677 139.511 28.7703 139.531 28.88Z" fill="#004280"/>
<path d="M138.739 28.8857C138.775 28.8071 138.812 28.7309 138.825 28.6618C138.908 28.2783 138.596 28.2378 138.401 28.3069C138.271 28.3498 138.1 28.5165 138.232 28.7189C138.31 28.8404 138.534 28.8571 138.739 28.8833V28.8857ZM138.461 28.4355C138.557 28.4046 138.721 28.445 138.703 28.6665C138.697 28.7047 138.685 28.7499 138.672 28.7952C138.565 28.7666 138.464 28.7404 138.401 28.6713C138.295 28.5546 138.401 28.4522 138.464 28.4331L138.461 28.4355Z" fill="#004280"/>
<path d="M138.724 29.2187C138.786 29.3404 139.085 29.2808 139.046 29.0804C139.026 28.9754 138.903 28.9444 138.768 28.9277H138.76C138.718 29.0279 138.679 29.1305 138.724 29.2187Z" fill="#004280"/>
<path d="M147.796 38.9455C147.84 38.5049 145.392 32.2577 145.392 32.2577L145.262 32.0981C145.262 32.0981 142.001 30.3904 139.806 31.0835C139.226 31.2645 138.709 31.6146 138.577 32.2577C138.577 32.2577 140.325 32.7364 140.458 34.0606C140.507 34.5536 140.276 34.9466 140.021 35.3206C139.871 35.4968 139.611 35.8779 139.554 36.0732C139.382 36.4566 139.361 36.8782 139.743 37.4188C138.452 36.9449 137.028 38.0119 137.028 38.0119C142.711 39.5529 143.36 43.8733 143.36 43.8733C143.851 43.4803 144.389 42.7634 144.865 41.8655L145.307 42.0727C145.307 42.0727 147.754 39.3885 147.796 38.9479V38.9455Z" fill="#F26522"/>
<path d="M143.62 42.1564C143.62 42.1564 142.329 38.8411 138.774 37.9527C138.774 37.9527 139.743 37.836 140.775 38.1289C140.775 38.1289 139.803 37.1858 140.45 36.2926C140.824 35.7806 141.76 35.5543 142.711 36.6499C142.711 36.6499 145.169 34.7874 143.708 33.4227C142.698 32.4747 142.131 30.0787 144.262 33.3345C145.228 34.8088 145.132 38.7625 143.617 42.1588L143.62 42.1564Z" fill="#ED1C24"/>
<path d="M138.127 29.3931C138.14 29.3263 138.151 29.2595 138.151 29.2046C138.14 28.8921 137.888 28.916 137.75 28.9995C137.656 29.0567 137.555 29.2118 137.701 29.3501C137.789 29.4312 137.966 29.405 138.13 29.3931H138.127ZM137.82 29.0901C137.891 29.0496 138.026 29.052 138.055 29.2309C138.06 29.2619 138.057 29.2977 138.057 29.3382C137.966 29.3358 137.883 29.331 137.82 29.2881C137.714 29.2142 137.776 29.1188 137.82 29.0925V29.0901Z" fill="#004280"/>
<path d="M138.185 29.6527C138.258 29.7362 138.476 29.6408 138.406 29.4929C138.369 29.4118 138.268 29.4118 138.159 29.4189H138.153C138.14 29.5048 138.13 29.5907 138.185 29.6527Z" fill="#004280"/>
<path d="M137.605 29.9301C137.613 29.8848 137.624 29.8418 137.621 29.8037C137.613 29.5962 137.447 29.6105 137.353 29.6677C137.291 29.7083 137.223 29.8108 137.319 29.9039C137.376 29.9587 137.496 29.9396 137.605 29.9301ZM137.4 29.7273C137.447 29.7011 137.538 29.7035 137.559 29.8204C137.559 29.8442 137.559 29.8681 137.559 29.8896C137.499 29.8896 137.441 29.8896 137.4 29.8585C137.33 29.8085 137.371 29.7464 137.4 29.7273Z" fill="#004280"/>
<path d="M137.646 30.1055C137.695 30.1603 137.841 30.0959 137.791 29.9981C137.768 29.9456 137.7 29.9456 137.627 29.948C137.617 30.0053 137.612 30.0625 137.648 30.1055H137.646Z" fill="#004280"/>
<path d="M143.827 39.282C143.827 39.282 142.642 36.8074 141.753 36.4168C140.864 36.0238 140.469 36.8955 140.945 37.4791C141.42 38.0626 141.821 37.46 142.314 37.6696C142.808 37.8792 143.827 39.282 143.827 39.282Z" fill="#F47721"/>
<path d="M131.564 30.6726C131.564 30.9679 131.302 31.2061 130.98 31.2061C130.657 31.2061 130.395 30.9656 130.395 30.6726C130.395 30.3797 130.655 30.1367 130.98 30.1367C131.304 30.1367 131.564 30.3773 131.564 30.6726Z" fill="white"/>
<path d="M139.005 34.3964C139.005 34.7728 138.673 35.08 138.26 35.08C137.846 35.08 137.511 34.7728 137.511 34.3964C137.511 34.0201 137.846 33.7129 138.26 33.7129C138.673 33.7129 139.005 34.0178 139.005 34.3964Z" fill="white"/>
<path d="M141.717 28.2266C141.717 28.2266 141.72 28.2297 141.724 28.2297C141.724 28.2297 141.724 28.2297 141.727 28.2266H141.713H141.717Z" fill="#004280"/>
<path d="M129.381 40.098C129.381 40.098 129.03 39.4526 128.243 39.6336C127.606 39.7813 127.697 40.3886 127.967 40.5267C128.092 40.5887 128.261 40.5934 128.386 40.5172C128.575 40.4005 128.58 40.2314 128.539 40.1195C128.539 40.1195 128.775 39.7765 129.383 40.098H129.381Z" fill="#00AEEF"/>
<path d="M127.938 40.0806C128.055 39.6781 128.671 39.6066 129.064 39.8996C129.064 39.8996 128.583 39.7448 128.3 40.0306C128.271 40.0591 128.253 40.0925 128.243 40.1211C128.279 40.1425 128.307 40.1758 128.32 40.2187C128.344 40.3068 128.284 40.3926 128.188 40.4164C128.146 40.4259 128.105 40.4212 128.068 40.4045C127.99 40.3759 127.876 40.2997 127.941 40.0806H127.938Z" fill="#004280"/>
<path d="M131.187 39.8442C131.187 39.8442 130.93 39.1797 130.138 39.2702C129.498 39.344 129.509 39.9442 129.756 40.1109C129.867 40.1872 130.031 40.2086 130.163 40.149C130.364 40.0585 130.39 39.8918 130.364 39.7751C130.364 39.7751 130.642 39.4703 131.19 39.8442H131.187Z" fill="#00AEEF"/>
<path d="M129.783 39.6749C129.949 39.2962 130.56 39.2891 130.903 39.6201C130.903 39.6201 130.453 39.4153 130.144 39.6654C130.11 39.6892 130.09 39.7202 130.074 39.7487C130.108 39.7702 130.129 39.8107 130.136 39.8512C130.149 39.9393 130.079 40.0203 129.983 40.0298C129.941 40.0346 129.902 40.025 129.869 40.0036C129.796 39.9702 129.695 39.8821 129.786 39.6749H129.783Z" fill="#004280"/>
<path d="M133.025 39.8486C133.025 39.8486 132.942 39.1864 132.191 39.1174C131.586 39.0602 131.456 39.6175 131.643 39.8176C131.729 39.9081 131.874 39.9629 132.009 39.9319C132.217 39.8843 132.28 39.739 132.28 39.6271C132.28 39.6271 132.605 39.3984 133.025 39.8509V39.8486Z" fill="#00AEEF"/>
<path d="M131.772 39.4199C132.011 39.1007 132.575 39.2174 132.817 39.5866C132.817 39.5866 132.45 39.3127 132.105 39.4794C132.071 39.4961 132.042 39.5199 132.022 39.5414C132.048 39.5723 132.061 39.6104 132.055 39.6485C132.045 39.7319 131.962 39.7914 131.873 39.7843C131.834 39.7795 131.798 39.7605 131.775 39.7366C131.715 39.6914 131.642 39.5914 131.775 39.4175L131.772 39.4199Z" fill="#004280"/>
<path d="M134.529 39.9112C134.529 39.9112 134.506 39.2991 133.825 39.1871C133.274 39.0942 133.116 39.5968 133.272 39.7921C133.342 39.8802 133.472 39.9397 133.596 39.9183C133.789 39.8921 133.859 39.7611 133.869 39.6587C133.869 39.6587 134.186 39.4705 134.532 39.9135L134.529 39.9112Z" fill="#00AEEF"/>
<path d="M133.418 39.4372C133.665 39.1657 134.169 39.3062 134.361 39.6611C134.361 39.6611 134.047 39.3848 133.719 39.5158C133.686 39.5301 133.662 39.5467 133.639 39.5658C133.66 39.5944 133.667 39.6301 133.662 39.6682C133.647 39.7444 133.569 39.7921 133.483 39.7801C133.447 39.7706 133.415 39.7563 133.395 39.7301C133.345 39.6849 133.285 39.5872 133.418 39.4396V39.4372Z" fill="#004280"/>
<path d="M135.774 40.0541C135.774 40.0541 135.852 39.5111 135.273 39.3158C134.805 39.1586 134.582 39.5778 134.686 39.7707C134.733 39.8564 134.836 39.9279 134.951 39.9279C135.122 39.9279 135.208 39.8231 135.231 39.735C135.231 39.735 135.541 39.6135 135.774 40.0517V40.0541Z" fill="#00AEEF"/>
<path d="M134.873 39.4816C135.135 39.2744 135.556 39.4697 135.665 39.8055C135.665 39.8055 135.434 39.5197 135.125 39.5888C135.091 39.596 135.068 39.6079 135.042 39.6222C135.057 39.6507 135.06 39.6817 135.044 39.715C135.018 39.7793 134.94 39.8103 134.87 39.7865C134.839 39.7746 134.815 39.7555 134.8 39.7317C134.763 39.6841 134.727 39.5936 134.87 39.4792L134.873 39.4816Z" fill="#004280"/>
<path d="M137.051 40.355C137.051 40.355 137.124 39.862 136.594 39.6857C136.17 39.5428 135.965 39.9239 136.061 40.0977C136.103 40.1787 136.199 40.2407 136.303 40.2407C136.459 40.2407 136.534 40.1454 136.557 40.0668C136.557 40.0668 136.838 39.9572 137.051 40.355Z" fill="#00AEEF"/>
<path d="M136.232 39.8329C136.469 39.6447 136.851 39.8233 136.952 40.1306C136.952 40.1306 136.741 39.8686 136.461 39.9329C136.432 39.9401 136.409 39.9496 136.391 39.9639C136.401 39.9901 136.404 40.0186 136.391 40.0472C136.367 40.1044 136.297 40.1354 136.232 40.1139C136.206 40.1044 136.183 40.0853 136.17 40.0639C136.136 40.021 136.105 39.9377 136.235 39.8353L136.232 39.8329Z" fill="#004280"/>
<path d="M138.105 40.6362C138.105 40.6362 138.164 40.2242 137.723 40.0741C137.364 39.9574 137.192 40.2742 137.273 40.4219C137.309 40.4885 137.387 40.5386 137.476 40.5409C137.606 40.5409 137.671 40.4623 137.691 40.3933C137.691 40.3933 137.925 40.3004 138.102 40.6338L138.105 40.6362Z" fill="#00AEEF"/>
<path d="M137.418 40.1974C137.618 40.0403 137.94 40.1879 138.023 40.4451C138.023 40.4451 137.849 40.2284 137.61 40.2808C137.587 40.2903 137.568 40.2975 137.55 40.307C137.561 40.3284 137.561 40.3546 137.55 40.3761C137.53 40.4261 137.472 40.4523 137.418 40.4332C137.394 40.4237 137.379 40.407 137.363 40.3904C137.337 40.3546 137.309 40.2832 137.418 40.1998V40.1974Z" fill="#004280"/>
<path d="M139.038 41.0894C139.038 41.0894 139.171 40.6916 138.76 40.4773C138.43 40.3082 138.204 40.5964 138.256 40.7536C138.279 40.825 138.347 40.8893 138.433 40.9036C138.563 40.925 138.641 40.8536 138.672 40.7917C138.672 40.7917 138.921 40.7345 139.038 41.0894Z" fill="#00AEEF"/>
<path d="M138.434 40.5589C138.66 40.4326 138.949 40.6279 138.985 40.8923C138.985 40.8923 138.85 40.6518 138.606 40.6684C138.58 40.6708 138.559 40.678 138.544 40.6851C138.549 40.7065 138.546 40.7304 138.533 40.7542C138.505 40.8018 138.442 40.8137 138.39 40.7875C138.369 40.7756 138.356 40.7589 138.346 40.7375C138.325 40.6994 138.312 40.6256 138.434 40.5565V40.5589Z" fill="#004280"/>
<path d="M139.83 41.649C139.83 41.649 140.054 41.368 139.794 41.0989C139.584 40.8797 139.319 41.0512 139.316 41.1894C139.316 41.2513 139.347 41.3204 139.412 41.3513C139.508 41.4013 139.591 41.3656 139.633 41.3227C139.633 41.3227 139.846 41.3418 139.83 41.649Z" fill="#00AEEF"/>
<path d="M139.515 41.0795C139.728 41.0366 139.9 41.2632 139.85 41.4826C139.85 41.4826 139.817 41.2584 139.621 41.2107C139.601 41.2035 139.582 41.2035 139.564 41.2059C139.562 41.225 139.554 41.2465 139.536 41.256C139.499 41.287 139.447 41.2823 139.413 41.2489C139.398 41.2345 139.392 41.2155 139.392 41.1988C139.39 41.163 139.398 41.101 139.515 41.0771V41.0795Z" fill="#004280"/>
<path d="M130.936 48.4608L128.615 47.832L130.094 49.7088C130.26 49.2301 130.554 48.8038 130.936 48.4608Z" fill="#F47721"/>
<path d="M129.987 51.2051C129.891 50.7597 129.951 50.3477 129.951 50.3477L127.394 50.6311L130.255 51.9386C130.172 51.7791 130.104 51.61 130.055 51.4361C130.029 51.367 130.008 51.2908 129.99 51.2075L129.987 51.2051Z" fill="#F47721"/>
<path d="M131.712 46.0703V47.9376C132.048 47.7732 132.419 47.6637 132.812 47.6137L131.712 46.0703Z" fill="#F47721"/>
<path d="M135.798 45.9379L133.951 47.648C134.465 47.7457 134.936 47.9552 135.336 48.2434L135.801 45.9355L135.798 45.9379Z" fill="#F47721"/>
<path d="M137.981 48.4277L135.931 48.804C136.16 49.0851 136.344 49.4019 136.459 49.7448L137.984 48.4277H137.981Z" fill="#F47721"/>
<path d="M136.306 51.8948L139.19 51.0921L136.586 50.3848C136.592 50.4681 136.599 50.5539 136.599 50.6396C136.599 51.0874 136.493 51.5113 136.303 51.8948H136.306Z" fill="#F47721"/>
<path d="M133.687 36.4734C133.687 36.4734 134.269 36.5353 134.526 36.4901C134.526 36.4901 134.628 35.7017 134.235 35.373C134.235 35.373 133.775 35.6731 133.687 36.471V36.4734Z" fill="#F47721"/>
<path d="M139.263 32.2355C139.263 32.2355 139.424 32.2879 139.606 32.4093C139.78 32.5237 139.9 32.6094 139.967 32.6761C139.967 32.6761 140.162 32.3593 139.871 32.1569C139.624 31.9902 139.32 32.1402 139.266 32.2379L139.263 32.2355Z" fill="white"/>
<path d="M140.076 32.7835C140.076 32.7835 140.211 32.8811 140.338 33.0479C140.463 33.2098 140.546 33.3241 140.588 33.4075C140.588 33.4075 140.884 33.1646 140.673 32.8883C140.502 32.6573 140.159 32.7097 140.076 32.7835Z" fill="white"/>
<path d="M140.636 33.5547C140.636 33.5547 140.706 33.6976 140.74 33.9C140.771 34.0929 140.787 34.2311 140.784 34.3216C140.784 34.3216 141.166 34.2311 141.122 33.8953C141.081 33.6214 140.751 33.5213 140.639 33.5523L140.636 33.5547Z" fill="white"/>
<path d="M140.788 34.5137C140.788 34.5137 140.77 34.6709 140.687 34.8614C140.606 35.0424 140.546 35.171 140.492 35.2449C140.492 35.2449 140.874 35.3449 141.017 35.0353C141.134 34.778 140.905 34.5399 140.788 34.5137Z" fill="white"/>
<path d="M140.408 35.3984C140.408 35.3984 140.338 35.5437 140.193 35.6985C140.052 35.851 139.953 35.951 139.875 36.0082C139.875 36.0082 140.205 36.2106 140.447 35.9581C140.647 35.7485 140.51 35.4556 140.411 35.3984H140.408Z" fill="white"/>
<path d="M142.645 31.8374C142.645 31.8374 140.87 30.8442 139.496 31.6754C139.496 31.6754 142.032 31.1419 143.775 33.7165L142.645 31.8374Z" fill="white"/>
<path d="M142.773 34.106C142.773 34.106 142.323 32.4769 140.32 32.0625C140.32 32.0625 142.547 32.7437 142.708 36.1186L142.773 34.106Z" fill="#ED1C24"/>
<rect x="118.12" y="19.291" width="5.45677" height="32.6295" fill="#F1F2F2"/>
<rect x="142.544" width="5.45677" height="51.9214" fill="white"/>
</svg>
