<svg width="191" height="99" viewBox="0 0 191 99" fill="none" xmlns="http://www.w3.org/2000/svg">
<path d="M160.816 5.07812C160.816 5.07812 162.335 8.77141 161.931 10.3832C161.526 11.9949 157.926 11.1589 156.022 12.8919C154.117 14.6249 155.886 17.1255 155.49 18.9211C155.094 20.7166 150.36 20.4517 148.234 22.0647C146.108 23.6776 147.119 26.9169 147.499 29.5989C147.879 32.281 147.275 33.067 143.306 34.43C139.336 35.7931 141.102 39.8475 141.141 42.1655L139.302 44.3774C139.263 42.0595 137.497 38.005 141.467 36.642C145.436 35.2789 146.04 34.4929 145.66 31.8109C145.28 29.1288 144.269 25.8895 146.395 24.2766C148.521 22.6637 153.255 22.9285 153.651 21.133C154.047 19.3374 152.278 16.8369 154.183 15.1039C156.087 13.3708 159.687 14.2068 160.092 12.5951C160.496 10.9836 158.978 7.29005 158.978 7.29005L160.816 5.07812Z" fill="#3DADB3"/>
<path d="M107.716 59.0078L108.777 63.6815L103.57 61.1739L107.716 59.0078Z" fill="#FFD280"/>
<path d="M91.1462 42L92.2069 46.6734L87 44.1658L91.1462 42Z" fill="#FFD280"/>
<path d="M67.1464 26L68.2069 30.6734L63 28.1658L67.1464 26Z" fill="#FFD280"/>
<path d="M147.386 75.7194L143.653 78.7212L143.624 72.9375L147.386 75.7194Z" fill="#FFD280"/>
<path d="M129.914 77.4697L125.149 76.9999L129.171 72.8477L129.914 77.4697Z" fill="#3DADB3"/>
<path d="M170.955 59.3575C171.553 58.1522 173.014 57.6601 174.218 58.2588C175.423 58.8575 175.914 60.3201 175.316 61.5254C174.718 62.7308 173.256 63.2229 172.052 62.6242C170.848 62.0255 170.356 60.5629 170.955 59.3575Z" fill="#FF96C1"/>
<path d="M141.659 94.6146L140.366 98.4367L137.741 95.4382L139.109 92.4023L141.659 94.6146Z" fill="#3DADB3"/>
<path d="M107.19 90.621L108.939 88.4728L110.357 90.3455C110.357 90.3455 109.529 86.6769 110.26 84.3238C110.857 82.3996 111.954 80.0635 111.954 80.0635L109.636 81.1854L109.275 79.332C107.246 82.2578 106.69 86.1078 107.19 90.621ZM106.75 10.8635L106.443 8.10895L108.772 8.40699C108.772 8.40699 105.575 6.42997 104.409 4.26004C103.455 2.48563 102.556 0.0664062 102.556 0.0664062L101.734 2.50853L100.159 1.46849C100.825 4.9671 103.182 8.0605 106.75 10.8635Z" fill="#8E97FF"/>
<path d="M166.596 35.9238L165.912 40.6674L161.949 36.4579L166.596 35.9238Z" fill="#FFD280"/>
<path d="M190.613 34.4596L186.88 37.4614L186.851 31.6777L190.613 34.4596Z" fill="#FFD280"/>
<path d="M147.386 75.7194L143.653 78.7212L143.624 72.9375L147.386 75.7194Z" fill="#FFD280"/>
<path d="M22.5668 81L22.3749 85.7888L18 82.0104L22.5668 81Z" fill="#FFD280"/>
<path d="M124.05 22.6954L120.245 25.605L120.357 19.8223L124.05 22.6954Z" fill="#3DADB3"/>
<path d="M167.723 84.1147C168.311 84.0157 168.796 83.7438 169.188 83.3477C170.427 84.2075 171.819 84.6089 173.177 84.1672C174.216 83.829 175.052 83.1348 175.688 82.2434C176.049 82.4953 176.411 82.6815 176.761 82.7851C176.464 82.5499 176.166 82.2736 175.877 81.9647C178.047 78.5795 177.589 72.809 174.76 72.4217C176.218 74.0534 176.281 77.9408 174.836 80.6801C172.574 77.4883 171.261 72.7979 174.125 72.4232C174.349 72.3935 174.56 72.3947 174.76 72.4214C174.261 71.8612 173.597 71.5664 172.774 71.6744C169.491 72.1037 171.694 78.2001 174.524 81.2154C173.868 82.2404 172.97 83.0465 171.825 83.4185C170.951 83.7027 170.062 83.6381 169.209 83.3254C171.562 80.9018 170.469 73.9797 167.556 73.5801C169.336 75.4529 169.771 80.259 168.035 82.3776C165.234 79.5825 163.763 74.6947 166.52 73.7034C166.886 73.5713 167.233 73.5355 167.556 73.5801C166.919 72.9103 166.11 72.6161 165.167 72.9552C162.053 74.0751 164.336 80.1689 167.836 82.5981C167.444 82.9948 166.958 83.2673 166.37 83.3662C161.82 84.1335 154.123 77.1295 148.354 84.2292L149.705 84.978C155.475 77.8777 163.171 84.8825 167.723 84.1147Z" fill="#8E97FF"/>
<path d="M141.659 94.6146L140.366 98.4367L137.741 95.4382L139.109 92.4023L141.659 94.6146Z" fill="#3DADB3"/>
<path d="M88.0607 86L87 90.6734L92.2069 88.1658L88.0607 86Z" fill="#3DADB3"/>
<path d="M4.72961 7L0 7.74671L4.25703 11.6576L4.72961 7Z" fill="#FFD280"/>
</svg>
