<svg width="17" height="18" viewBox="0 0 17 18" fill="none" xmlns="http://www.w3.org/2000/svg">
<path fill-rule="evenodd" clip-rule="evenodd" d="M6.80849 1.27087C7.91908 0.388877 9.49624 0.388877 10.6068 1.27087L10.6082 1.27195L15.7296 5.36415C16.3333 5.82862 16.6929 6.54222 16.7034 7.30401L16.7035 7.31204L16.7034 14.121C16.7034 15.9318 15.2251 17.3898 13.4139 17.3898H11.9151L11.9015 17.3896C11.0686 17.3702 10.394 16.6932 10.3941 15.8529V13.452C10.3941 13.1691 10.1613 12.9298 9.86173 12.9298H7.61585C7.31851 12.9326 7.08866 13.1709 7.08867 13.452V15.8455C7.08867 15.9031 7.08035 15.9588 7.06487 16.0114C6.98156 16.7906 6.31813 17.3898 5.52272 17.3898H4.02393C2.21271 17.3898 0.734375 15.9318 0.734375 14.121V7.31369C0.7419 6.55047 1.10216 5.83499 1.70827 5.37151L6.80849 1.27087ZM5.9202 15.7132V13.452C5.92019 12.5159 6.68026 11.7652 7.60966 11.7591L7.61354 11.759L9.86173 11.759C10.7955 11.759 11.5626 12.5115 11.5626 13.452V15.8529C11.5625 16.0448 11.717 16.2115 11.9234 16.219H13.4139C14.5909 16.219 15.535 15.2742 15.535 14.121V7.31642C15.5284 6.91569 15.3382 6.53776 15.0152 6.29058L15.0055 6.28302L9.88102 2.18834C9.19607 1.64486 8.2207 1.64419 7.53558 2.18733L2.43366 6.28935L2.42085 6.29936C2.09741 6.54491 1.9076 6.92259 1.90284 7.32263V14.121C1.90284 15.2742 2.84693 16.219 4.02393 16.219H5.52272C5.73952 16.219 5.90521 16.0463 5.90521 15.8455C5.90521 15.8 5.91039 15.7557 5.9202 15.7132Z" fill="#666666"/>
</svg>
