<svg width="22" height="20" viewBox="0 0 22 20" fill="none" xmlns="http://www.w3.org/2000/svg">
<path fill-rule="evenodd" clip-rule="evenodd" d="M3.31361 17.8235C3.49128 17.8235 3.6648 17.7697 3.8113 17.6692C3.9578 17.5687 4.07042 17.4261 4.13431 17.2603C4.36399 16.6619 4.86929 15.9889 5.51977 15.4114C6.51232 14.5321 7.49831 14.1666 8.03683 14.1941C8.30171 14.2097 8.56198 14.1196 8.76056 13.9437C8.95915 13.7677 9.07986 13.5201 9.09623 13.2553C9.13314 12.718 9.61506 11.7825 10.6076 10.9027C11.6002 10.0229 12.5857 9.65709 13.1247 9.68539C13.3896 9.7011 13.65 9.61102 13.8486 9.43492C14.0473 9.25883 14.1679 9.01112 14.1841 8.74616C14.221 8.20888 14.7029 7.27334 15.695 6.39358C16.3455 5.81692 17.0756 5.39652 17.6974 5.24025C17.849 5.20233 17.9877 5.12463 18.0992 5.01518C18.2108 4.90572 18.2911 4.76849 18.3319 4.61763C18.3727 4.46677 18.3725 4.30776 18.3313 4.157C18.2901 4.00625 18.2095 3.86921 18.0977 3.76004C16.2865 2.00085 13.8958 0.962725 11.3738 0.840327C8.85188 0.71793 6.37189 1.51966 4.39885 3.0952L3.78159 2.39796C3.68522 2.3032 3.55646 2.24858 3.42136 2.24513C3.28626 2.24168 3.15488 2.28967 3.05381 2.37939C2.95274 2.4691 2.8895 2.59385 2.8769 2.72841C2.86429 2.86297 2.90325 2.9973 2.98591 3.10422L3.60317 3.80147C1.80255 5.57072 0.70896 7.93591 0.527373 10.4537C0.345785 12.9716 1.08866 15.4692 2.61678 17.4785C2.69858 17.5857 2.80402 17.6726 2.92487 17.7325C3.04573 17.7923 3.17876 17.8234 3.31361 17.8235ZM9.90052 10.1029C9.0466 10.8596 8.424 11.7484 8.16233 12.5478C6.61117 10.9105 5.57843 9.02055 5.09118 6.91405C4.89273 6.07521 4.79633 5.21548 4.80407 4.35352C6.0907 4.48805 9.63024 5.17381 12.5349 8.67111C11.7117 8.83311 10.754 9.34456 9.90052 10.1029ZM17.117 4.29979C16.414 4.53932 15.6696 4.99048 14.9884 5.5938C14.1783 6.31155 13.5754 7.14824 13.2932 7.9148C11.3582 5.618 9.18195 4.48231 7.62832 3.92533C7.02328 3.70772 6.40205 3.53808 5.77037 3.41798C7.49523 2.2962 9.54191 1.77461 11.5933 1.93403C13.6446 2.09345 15.5862 2.92499 17.117 4.29979ZM3.76067 5.19883C3.80398 5.84039 3.89778 6.47754 4.04121 7.10436C4.40747 8.71376 5.27492 11.0106 7.32236 13.2073C6.5275 13.3951 5.62436 13.8939 4.81474 14.6116C4.13349 15.2154 3.5962 15.8999 3.27424 16.5693C0.817886 13.1027 1.07135 8.39221 3.76067 5.19883ZM17.1462 17.4734L12.4858 12.2141C12.3915 12.1101 12.26 12.0475 12.1199 12.0399C11.9798 12.0322 11.8423 12.0801 11.7372 12.1732C11.6322 12.2662 11.5681 12.3969 11.5588 12.537C11.5495 12.677 11.5958 12.8151 11.6876 12.9212L16.3485 18.1804C16.6045 18.4708 16.9155 18.7076 17.2635 18.877C17.6116 19.0463 17.9898 19.145 18.3763 19.1673C18.437 19.1708 18.4974 19.1726 18.5575 19.1726C19.1249 19.1719 19.6799 19.0073 20.156 18.6988C20.6322 18.3903 21.0091 17.9509 21.2415 17.4334C21.474 16.9158 21.5521 16.3422 21.4664 15.7814C21.3808 15.2205 21.1351 14.6964 20.7588 14.2718L20.58 14.0704C20.5335 14.018 20.4772 13.9752 20.4142 13.9446C20.3512 13.914 20.2828 13.896 20.2129 13.8918C20.143 13.8876 20.073 13.8972 20.0068 13.9201C19.9406 13.9429 19.8796 13.9786 19.8271 14.0251C19.7747 14.0715 19.732 14.1278 19.7014 14.1908C19.6707 14.2538 19.6528 14.3222 19.6486 14.3921C19.6444 14.462 19.654 14.5321 19.6768 14.5982C19.6997 14.6644 19.7354 14.7255 19.7818 14.7779L19.9602 14.9793C20.1246 15.1639 20.2509 15.3792 20.3319 15.6128C20.413 15.8463 20.4472 16.0936 20.4326 16.3404C20.4179 16.5872 20.3548 16.8286 20.2467 17.051C20.1387 17.2733 19.9878 17.4722 19.8028 17.6362C19.6178 17.8001 19.4023 17.926 19.1685 18.0066C18.9348 18.0872 18.6875 18.1209 18.4408 18.1057C18.194 18.0906 17.9527 18.027 17.7305 17.9185C17.5084 17.8099 17.3098 17.6587 17.1462 17.4734ZM19.3277 8.37453C19.3714 8.38494 19.4122 8.40501 19.4472 8.43328C19.4821 8.46159 19.5102 8.49735 19.5294 8.53795C19.5487 8.57855 19.5586 8.62295 19.5585 8.66788V10.9086C19.5587 11.3399 19.456 11.7649 19.2587 12.1484C19.0615 12.5319 18.7755 12.8627 18.4245 13.1133L17.3267 13.8953C17.2758 13.9316 17.2148 13.9511 17.1523 13.9511C17.0897 13.9511 17.0288 13.9316 16.9778 13.8953L15.88 13.1133C15.5291 12.8627 15.2431 12.5319 15.0458 12.1484C14.8486 11.7649 14.7458 11.3399 14.7461 10.9086V8.66788C14.7459 8.62295 14.7559 8.57855 14.7751 8.53795C14.7944 8.49735 14.8225 8.46159 14.8574 8.43328C14.8923 8.40501 14.9332 8.38494 14.9769 8.37453C15.0206 8.36412 15.0661 8.36364 15.11 8.37313C15.4314 8.44048 15.7632 8.44134 16.0849 8.37565C16.4067 8.30995 16.7116 8.1791 16.9808 7.99114C17.0312 7.95622 17.091 7.9375 17.1523 7.9375C17.2136 7.9375 17.2734 7.95622 17.3237 7.99114C17.593 8.1791 17.8979 8.30995 18.2196 8.37565C18.5413 8.44134 18.8731 8.44048 19.1945 8.37313C19.2384 8.36364 19.2839 8.36412 19.3277 8.37453ZM18.724 11.8726C18.8773 11.5744 18.9571 11.2439 18.9569 10.9086V9.01377C18.3264 9.06774 17.6949 8.92144 17.1523 8.5957C16.6097 8.92144 15.9782 9.06774 15.3476 9.01377V10.9086C15.3474 11.2439 15.4273 11.5744 15.5805 11.8726C15.7338 12.1708 15.9561 12.4281 16.2289 12.623L17.1523 13.2817L18.0756 12.623C18.3484 12.4281 18.5707 12.1708 18.724 11.8726ZM16.8064 11.0319L17.6155 10.2199L17.6275 10.2169C17.6841 10.1602 17.7609 10.1284 17.841 10.1284C17.9211 10.1284 17.998 10.1602 18.0546 10.2169C18.1112 10.2735 18.143 10.3503 18.143 10.4304C18.143 10.5105 18.1112 10.5873 18.0546 10.644L17.0199 11.6696C16.992 11.6978 16.9587 11.7202 16.9221 11.7354C16.8854 11.7507 16.8461 11.7586 16.8064 11.7586C16.7667 11.7586 16.7274 11.7507 16.6907 11.7354C16.6541 11.7202 16.6208 11.6978 16.5928 11.6696L16.1116 11.1884C16.055 11.1317 16.0231 11.0549 16.0231 10.9748C16.0231 10.8947 16.055 10.8179 16.1116 10.7613C16.1682 10.7046 16.2451 10.6728 16.3251 10.6728C16.4052 10.6728 16.4821 10.7046 16.5387 10.7613L16.8064 11.0319Z" fill="#666666"/>
</svg>
