<svg width="21" height="20" viewBox="0 0 21 20" fill="none" xmlns="http://www.w3.org/2000/svg">
<path fill-rule="evenodd" clip-rule="evenodd" d="M14.5624 8.4C16.3366 8.4 17.7749 6.96171 17.7749 5.1875C17.7749 3.41329 16.3366 1.975 14.5624 1.975C12.7882 1.975 11.3499 3.41329 11.3499 5.1875C11.3499 6.96171 12.7882 8.4 14.5624 8.4ZM14.5624 9.5C16.9441 9.5 18.8749 7.56923 18.8749 5.1875C18.8749 2.80577 16.9441 0.875 14.5624 0.875C12.1807 0.875 10.2499 2.80577 10.2499 5.1875C10.2499 7.56923 12.1807 9.5 14.5624 9.5ZM19.8875 12.6116C19.453 12.4345 18.9703 12.4346 18.5358 12.6276L18.3427 12.7081C18.1496 12.3702 17.8439 12.1127 17.4899 11.9679C17.0554 11.7909 16.5726 11.7909 16.1382 11.984L14.2716 12.7725C14.0302 12.869 13.9175 13.1587 14.0141 13.4C14.0945 13.577 14.2716 13.6897 14.4647 13.6897C14.529 13.6897 14.5934 13.6736 14.6578 13.6575L16.5244 12.869C16.7175 12.7886 16.9427 12.7886 17.1358 12.869C17.2646 12.9173 17.3611 12.9978 17.4416 13.0943L13.644 14.6874C13.6601 14.4299 13.6279 14.1724 13.5313 13.9311C13.3543 13.4966 13.0325 13.1426 12.598 12.9495L8.43034 11.099C6.66027 10.3105 4.60056 10.5518 3.05577 11.7265L2.4282 12.2093L2.37993 12.2575L2.21901 12.4185C2.12247 12.515 2.07419 12.6276 2.07419 12.7564V17.9057H1.09261C0.819053 17.9057 0.609863 18.1149 0.609863 18.3884C0.609863 18.662 0.819053 18.8712 1.09261 18.8712H2.54084C2.8144 18.8712 3.02359 18.662 3.02359 18.3884V12.9495L3.63507 12.4828C4.9063 11.5173 6.57981 11.3242 8.04414 11.9679L12.1958 13.8345C12.3888 13.915 12.5498 14.0759 12.6141 14.2851C12.6946 14.4782 12.6785 14.7035 12.598 14.8966C12.5176 15.0896 12.3567 15.2345 12.1636 15.3149C11.9705 15.3954 11.7452 15.3793 11.5521 15.2988L8.33379 13.8667C8.09241 13.7541 7.80277 13.8667 7.69013 14.1081C7.57749 14.3494 7.69013 14.6391 7.9315 14.7517L11.1498 16.1839C11.5843 16.377 12.067 16.3931 12.5015 16.2161C12.5659 16.2 18.9059 13.4966 18.9059 13.4966C19.099 13.4161 19.3243 13.4161 19.5174 13.4966C19.7105 13.577 19.8714 13.738 19.9519 13.9311C20.0323 14.1242 20.0323 14.3494 19.9519 14.5425C19.8714 14.7356 19.7105 14.8966 19.5174 14.977L10.4579 18.8229C9.73375 19.1286 8.89699 19.1125 8.18896 18.7585L4.35918 16.8919C4.11781 16.7793 3.82817 16.8758 3.71552 17.1172C3.60288 17.3586 3.69943 17.6482 3.94081 17.7608L7.77059 19.6275C8.28551 19.8688 8.83262 19.9976 9.39583 19.9976C9.87857 19.9976 10.3774 19.901 10.8441 19.7079L19.9197 15.8781C20.3541 15.7011 20.6921 15.3471 20.8691 14.9126C21.0461 14.4782 21.0461 13.9954 20.853 13.561C20.6599 13.1265 20.322 12.7886 19.8875 12.6116ZM14.6625 7.23029C14.8989 7.23029 15.0905 7.03864 15.0905 6.80222V3.70107C15.0905 3.41305 14.857 3.17957 14.569 3.17957C14.451 3.17957 14.3365 3.21958 14.2442 3.29308L13.3403 4.01277C13.1976 4.12633 13.1744 4.33414 13.2884 4.47643C13.4022 4.61857 13.6098 4.64134 13.7518 4.52726L13.9601 4.35987C14.0137 4.31369 14.0709 4.26198 14.1319 4.20472C14.1947 4.14561 14.2362 4.10405 14.2566 4.08003C14.2529 4.16131 14.2492 4.25274 14.2455 4.35433C14.2418 4.45408 14.239 4.55197 14.2372 4.64802C14.2353 4.74223 14.2344 4.82165 14.2344 4.8863V6.80222C14.2344 7.03864 14.426 7.23029 14.6625 7.23029Z" fill="#666666"/>
</svg>
