<svg width="31" height="30" viewBox="0 0 31 30" fill="none" xmlns="http://www.w3.org/2000/svg">
<path fill-rule="evenodd" clip-rule="evenodd" d="M21.7252 29.9896H8.48199C7.25893 29.9896 6.26367 29.0011 6.26367 27.7865V2.21479C6.26367 1.00014 7.25893 0.0117188 8.48199 0.0117188H21.7252C22.9482 0.0117188 23.9435 1.00014 23.9435 2.21479V27.7865C23.941 29.0011 22.9458 29.9896 21.7252 29.9896ZM8.48199 0.719768C7.65258 0.719768 6.97662 1.39108 6.97662 2.21479V27.7865C6.97662 28.6102 7.65258 29.2815 8.48199 29.2815H21.7252C22.5546 29.2815 23.2306 28.6102 23.2306 27.7865V2.21479C23.2306 1.39108 22.5546 0.719768 21.7252 0.719768H8.48199Z" fill="#EEEEEE"/>
<path fill-rule="evenodd" clip-rule="evenodd" d="M23.5846 4.13745H6.62003C6.1501 4.13745 6.1501 3.42922 6.62003 3.42922H23.5869C24.056 3.42922 24.0577 4.13745 23.5844 4.13745H23.5846ZM23.5846 26.2594H6.62003C6.15063 26.2594 6.15063 25.5512 6.62003 25.5512H23.5869C24.0553 25.5512 24.0572 26.2594 23.5844 26.2594H23.5846ZM10.4528 2.42849C9.9083 2.42849 9.27182 2.54767 9.27182 2.07447C9.27182 1.60109 9.9083 1.72044 10.4528 1.72044C10.9227 1.72044 10.9227 2.42849 10.4528 2.42849ZM16.63 2.42849H13.5748C13.1049 2.42849 13.1049 1.72044 13.5748 1.72044H16.6275C17.0962 1.72044 17.0971 2.42849 16.63 2.42849ZM17.3555 28.1232H12.8495C12.3801 28.1232 12.3801 27.415 12.8495 27.415H17.3555C17.8233 27.415 17.826 28.1232 17.3555 28.1232ZM12.7528 20.8329C12.5181 20.8329 12.3454 20.6051 12.4112 20.3804L13.7704 15.7185L12.1983 15.561C11.9213 15.5339 11.7786 15.2101 11.9532 14.9906L16.39 9.30332C16.6266 9.00063 17.1206 9.24127 17.0164 9.61815L15.8082 13.8842H17.9745C18.2809 13.8842 18.4363 14.2388 18.2469 14.4645L13.0277 20.7051C12.9559 20.7887 12.8544 20.833 12.7528 20.833V20.8329ZM12.9088 14.9194L14.268 15.057C14.4888 15.0786 14.6375 15.2963 14.575 15.5095L13.5723 18.9469L17.2143 14.5923H15.3376C15.0972 14.5923 14.9308 14.3637 14.9935 14.1423L15.8353 11.177L12.909 14.9194H12.9088Z" fill="#EEEEEE"/>
</svg>
