<svg width="21" height="17" viewBox="0 0 21 17" fill="none" xmlns="http://www.w3.org/2000/svg">
<path d="M19 3.05041V1.50041C19 1.10258 18.842 0.721051 18.5607 0.439747C18.2794 0.158442 17.8978 0.000406878 17.5 0.000406878H3.00002C2.53213 -0.00902898 2.07574 0.145913 1.71031 0.438263C1.34487 0.730612 1.09352 1.14185 1.00002 1.60041C0.985019 1.66623 0.985019 1.73458 1.00002 1.80041V14.5004C1.00002 15.1634 1.26341 15.7993 1.73225 16.2682C2.2011 16.737 2.83698 17.0004 3.50002 17.0004H18.5C19.1631 17.0004 19.7989 16.737 20.2678 16.2682C20.7366 15.7993 21 15.1634 21 14.5004V5.50041C21.0001 4.92408 20.8011 4.36541 20.4367 3.91895C20.0722 3.4725 19.5647 3.16567 19 3.05041ZM3.00002 1.00041H17.5C17.6326 1.00041 17.7598 1.05309 17.8536 1.14685C17.9473 1.24062 18 1.3678 18 1.50041V3.00041H3.00002C2.7348 3.00041 2.48045 2.89505 2.29291 2.70751C2.10538 2.51998 2.00002 2.26562 2.00002 2.00041C2.00002 1.73519 2.10538 1.48084 2.29291 1.2933C2.48045 1.10576 2.7348 1.00041 3.00002 1.00041ZM20 11.5004H19C18.7348 11.5004 18.4805 11.395 18.2929 11.2075C18.1054 11.02 18 10.7656 18 10.5004C18 10.2352 18.1054 9.98084 18.2929 9.7933C18.4805 9.60576 18.7348 9.50041 19 9.50041H20V11.5004ZM20 8.50041H19C18.4696 8.50041 17.9609 8.71112 17.5858 9.08619C17.2107 9.46127 17 9.96997 17 10.5004C17 11.0308 17.2107 11.5395 17.5858 11.9146C17.9609 12.2897 18.4696 12.5004 19 12.5004H20V14.5004C20 14.8982 19.842 15.2798 19.5607 15.5611C19.2794 15.8424 18.8978 16.0004 18.5 16.0004H3.50002C3.1022 16.0004 2.72067 15.8424 2.43936 15.5611C2.15806 15.2798 2.00002 14.8982 2.00002 14.5004V3.72041C2.30289 3.90016 2.64785 3.99675 3.00002 4.00041H18.5C18.8978 4.00041 19.2794 4.15844 19.5607 4.43975C19.842 4.72105 20 5.10258 20 5.50041V8.50041ZM14 6.50041C14 6.3678 13.9473 6.24062 13.8536 6.14685C13.7598 6.05308 13.6326 6.00041 13.5 6.00041H8.50002C8.36741 6.00041 8.24024 6.05308 8.14647 6.14685C8.0527 6.24062 8.00002 6.3678 8.00002 6.50041C8.00002 6.63301 8.0527 6.76019 8.14647 6.85396C8.24024 6.94773 8.36741 7.00041 8.50002 7.00041H10.5C10.8091 7.00272 11.1101 7.09985 11.3623 7.27868C11.6144 7.45752 11.8056 7.70943 11.91 8.00041H8.50002C8.36741 8.00041 8.24024 8.05308 8.14647 8.14685C8.0527 8.24062 8.00002 8.3678 8.00002 8.50041C8.00002 8.63301 8.0527 8.76019 8.14647 8.85396C8.24024 8.94773 8.36741 9.00041 8.50002 9.00041H11.91C11.8056 9.29138 11.6144 9.5433 11.3623 9.72213C11.1101 9.90096 10.8091 9.9981 10.5 10.0004H8.50002C8.40131 10.0009 8.30495 10.0306 8.22309 10.0858C8.14123 10.1409 8.07753 10.2191 8.04002 10.3104C7.99918 10.4005 7.98782 10.5013 8.00757 10.5982C8.02733 10.6952 8.07718 10.7834 8.15002 10.8504L11.15 13.8504C11.1947 13.8984 11.2489 13.9366 11.3092 13.9624C11.3694 13.9883 11.4344 14.0012 11.5 14.0004H12.5C12.6326 14.0004 12.7598 13.9477 12.8536 13.854C12.9473 13.7602 13 13.633 13 13.5004C13 13.3678 12.9473 13.2406 12.8536 13.1469C12.7598 13.0531 12.6326 13.0004 12.5 13.0004H11.71L9.71002 11.0004H10.5C11.0849 11.0122 11.6554 10.8185 12.1122 10.4531C12.569 10.0877 12.8831 9.5736 13 9.00041H13.55C13.6826 9.00041 13.8098 8.94773 13.9036 8.85396C13.9973 8.76019 14.05 8.63301 14.05 8.50041C14.05 8.3678 13.9973 8.24062 13.9036 8.14685C13.8098 8.05308 13.6826 8.00041 13.55 8.00041H13C12.9216 7.63746 12.7646 7.29611 12.54 7.00041H13.54C13.6656 6.99033 13.7827 6.93324 13.868 6.84054C13.9533 6.74784 14.0004 6.62637 14 6.50041Z" fill="#666666"/>
</svg>
