<svg width="23" height="20" viewBox="0 0 23 20" fill="none" xmlns="http://www.w3.org/2000/svg">
<mask id="path-1-outside-1_438_415" maskUnits="userSpaceOnUse" x="0.0966797" y="-0.757812" width="23" height="21" fill="black">
<rect fill="white" x="0.0966797" y="-0.757812" width="23" height="21"/>
<path fill-rule="evenodd" clip-rule="evenodd" d="M2.81599 8.87603H1.49974C1.4482 8.8759 1.3972 8.8864 1.3499 8.90686C1.3026 8.92733 1.26003 8.95732 1.22484 8.99498C1.18966 9.03263 1.16261 9.07713 1.14538 9.1257C1.12816 9.17427 1.12113 9.22587 1.12474 9.27728L1.49974 14.5273C1.50639 14.6221 1.54882 14.7109 1.61844 14.7756C1.68806 14.8404 1.77967 14.8763 1.87474 14.876H3.95599C4.35874 15.4657 4.84364 15.9947 5.39599 16.4473L5.02099 17.3548C4.85241 17.7695 4.85549 18.2342 5.02955 18.6467C5.2036 19.0591 5.53438 19.3856 5.94912 19.5542C6.36385 19.7227 6.82856 19.7197 7.24102 19.5456C7.65349 19.3715 7.97991 19.0408 8.14849 18.626L8.38099 18.0185C8.94743 18.1824 9.53516 18.2607 10.1247 18.251H13.8747C14.6903 18.2252 15.4972 18.0747 16.2672 17.8048L16.601 18.626C16.7691 19.0418 17.0954 19.3737 17.5082 19.5488C17.921 19.7239 18.3865 19.7279 18.8022 19.5598C19.218 19.3917 19.5499 19.0654 19.725 18.6525C19.9001 18.2397 19.9041 17.7743 19.736 17.3585L19.1622 15.9523C20.262 14.8447 20.9956 13.4263 21.2638 11.8887C21.532 10.351 21.3221 8.76808 20.6622 7.35353C20.898 7.31823 21.1235 7.23329 21.324 7.10431C21.5244 6.97534 21.6952 6.80527 21.8251 6.60536C21.9549 6.40545 22.0408 6.18025 22.0771 5.94467C22.1133 5.70908 22.0992 5.46847 22.0356 5.23876C21.9719 5.00905 21.8602 4.79548 21.7079 4.61216C21.5555 4.42884 21.366 4.27995 21.1518 4.17536C20.9376 4.07076 20.7036 4.01283 20.4654 4.00541C20.2271 3.99798 19.99 4.04122 19.7697 4.13228L20.0622 4.82603C20.1898 4.77168 20.3279 4.74633 20.4665 4.75179C20.6051 4.75725 20.7407 4.79339 20.8637 4.8576C20.9866 4.92182 21.0937 5.01251 21.1774 5.12314C21.261 5.23377 21.3191 5.36158 21.3474 5.49735C21.3757 5.63313 21.3735 5.77349 21.341 5.90832C21.3085 6.04315 21.2464 6.16908 21.1594 6.27705C21.0723 6.38501 20.9624 6.47231 20.8375 6.53266C20.7126 6.59301 20.5759 6.6249 20.4372 6.62603C20.3836 6.62989 20.3297 6.62989 20.276 6.62603C19.7077 5.67951 18.9418 4.86684 18.0305 4.24359C17.1192 3.62033 16.0842 3.20118 14.996 3.01478C14.9873 2.34181 14.7373 1.69433 14.2914 1.19018C13.8456 0.686041 13.2335 0.358757 12.5666 0.267904C11.8998 0.17705 11.2225 0.32867 10.658 0.695163C10.0935 1.06166 9.67937 1.61866 9.49099 2.26478C9.20425 1.98384 8.8799 1.74405 8.52724 1.55228C6.26974 0.333528 3.72724 1.56353 3.62224 1.61603C3.53997 1.65666 3.47545 1.72604 3.44089 1.81104C3.40634 1.89605 3.40415 1.99077 3.43474 2.07728L4.62724 5.39603C3.73025 6.37816 3.10583 7.57789 2.81599 8.87603ZM10.9777 1.39105C11.3298 1.13698 11.7531 1.00049 12.1872 1.00103C12.6287 0.993744 13.0608 1.12856 13.4197 1.38559C13.7787 1.64262 14.0455 2.00823 14.1809 2.42849C14.3162 2.84874 14.3128 3.30136 14.1713 3.71955C14.0297 4.13775 13.7575 4.49936 13.3947 4.75103C12.5789 4.63487 11.7506 4.63487 10.9347 4.75103L10.9572 4.72103C10.6083 4.46264 10.3498 4.10074 10.2186 3.68687C10.0874 3.273 10.0901 2.82827 10.2264 2.41605C10.3627 2.00382 10.6257 1.64512 10.9777 1.39105ZM4.15474 14.126H2.22349L1.90099 9.61853H3.12349C3.21229 9.61998 3.29871 9.58986 3.36738 9.53355C3.43606 9.47724 3.48252 9.39839 3.49849 9.31103C3.74242 7.96371 4.38211 6.71957 5.33599 5.73728C5.38226 5.68801 5.41435 5.62715 5.42887 5.56114C5.4434 5.49513 5.43981 5.42642 5.41849 5.36228L4.26724 2.16353C6.13474 1.46228 8.19724 1.64603 9.37474 3.25103C9.41983 3.86673 9.66625 4.4505 10.076 4.91228C9.80224 4.97603 9.53224 5.05103 9.25849 5.14103L9.49099 5.85353C11.231 5.23266 13.1322 5.23266 14.8722 5.85353L15.1272 5.14853C14.8592 5.05305 14.5863 4.97169 14.3097 4.90478C14.5996 4.573 14.8065 4.17715 14.9135 3.74978C16.5127 4.03696 17.9603 4.87633 19.0041 6.12153C20.0478 7.36673 20.6213 8.93876 20.6247 10.5635C20.6284 11.5039 20.4385 12.4349 20.0669 13.2988C19.6953 14.1626 19.1499 14.9407 18.4647 15.5848C18.4093 15.6368 18.371 15.7045 18.3549 15.7789C18.3388 15.8532 18.3458 15.9307 18.3747 16.001L19.0422 17.6398C19.1362 17.87 19.1349 18.1282 19.0386 18.3574C18.9422 18.5867 18.7587 18.7683 18.5285 18.8623C18.2982 18.9563 18.0401 18.9549 17.8108 18.8586C17.5816 18.7622 17.4 18.5788 17.306 18.3485L16.826 17.171C16.8065 17.1237 16.7776 17.0809 16.741 17.0452C16.7044 17.0095 16.6609 16.9817 16.6131 16.9634C16.5653 16.9451 16.5143 16.9368 16.4632 16.939C16.4121 16.9412 16.362 16.9538 16.316 16.976C15.5413 17.2993 14.7138 17.4773 13.8747 17.501H10.1247C9.50771 17.5128 8.89376 17.4112 8.31349 17.201C8.22147 17.1639 8.11851 17.1648 8.02714 17.2035C7.93577 17.2421 7.86344 17.3154 7.82599 17.4073L7.45099 18.3485C7.357 18.5788 7.1754 18.7622 6.94614 18.8586C6.71688 18.9549 6.45873 18.9563 6.22849 18.8623C5.99825 18.7683 5.81477 18.5867 5.71843 18.3574C5.62208 18.1282 5.62075 17.87 5.71474 17.6398L6.19099 16.4773C6.22183 16.4011 6.22679 16.3169 6.20511 16.2376C6.18343 16.1584 6.1363 16.0884 6.07099 16.0385C5.4423 15.5537 4.9008 14.9653 4.46974 14.2985C4.43586 14.2457 4.38927 14.2023 4.33423 14.1721C4.2792 14.142 4.21749 14.1261 4.15474 14.126ZM5.24951 8.5C5.24951 8.91421 5.5853 9.25 5.99951 9.25C6.41372 9.25 6.74951 8.91421 6.74951 8.5C6.74951 8.08579 6.41372 7.75 5.99951 7.75C5.5853 7.75 5.24951 8.08579 5.24951 8.5Z"/>
</mask>
<path fill-rule="evenodd" clip-rule="evenodd" d="M2.81599 8.87603H1.49974C1.4482 8.8759 1.3972 8.8864 1.3499 8.90686C1.3026 8.92733 1.26003 8.95732 1.22484 8.99498C1.18966 9.03263 1.16261 9.07713 1.14538 9.1257C1.12816 9.17427 1.12113 9.22587 1.12474 9.27728L1.49974 14.5273C1.50639 14.6221 1.54882 14.7109 1.61844 14.7756C1.68806 14.8404 1.77967 14.8763 1.87474 14.876H3.95599C4.35874 15.4657 4.84364 15.9947 5.39599 16.4473L5.02099 17.3548C4.85241 17.7695 4.85549 18.2342 5.02955 18.6467C5.2036 19.0591 5.53438 19.3856 5.94912 19.5542C6.36385 19.7227 6.82856 19.7197 7.24102 19.5456C7.65349 19.3715 7.97991 19.0408 8.14849 18.626L8.38099 18.0185C8.94743 18.1824 9.53516 18.2607 10.1247 18.251H13.8747C14.6903 18.2252 15.4972 18.0747 16.2672 17.8048L16.601 18.626C16.7691 19.0418 17.0954 19.3737 17.5082 19.5488C17.921 19.7239 18.3865 19.7279 18.8022 19.5598C19.218 19.3917 19.5499 19.0654 19.725 18.6525C19.9001 18.2397 19.9041 17.7743 19.736 17.3585L19.1622 15.9523C20.262 14.8447 20.9956 13.4263 21.2638 11.8887C21.532 10.351 21.3221 8.76808 20.6622 7.35353C20.898 7.31823 21.1235 7.23329 21.324 7.10431C21.5244 6.97534 21.6952 6.80527 21.8251 6.60536C21.9549 6.40545 22.0408 6.18025 22.0771 5.94467C22.1133 5.70908 22.0992 5.46847 22.0356 5.23876C21.9719 5.00905 21.8602 4.79548 21.7079 4.61216C21.5555 4.42884 21.366 4.27995 21.1518 4.17536C20.9376 4.07076 20.7036 4.01283 20.4654 4.00541C20.2271 3.99798 19.99 4.04122 19.7697 4.13228L20.0622 4.82603C20.1898 4.77168 20.3279 4.74633 20.4665 4.75179C20.6051 4.75725 20.7407 4.79339 20.8637 4.8576C20.9866 4.92182 21.0937 5.01251 21.1774 5.12314C21.261 5.23377 21.3191 5.36158 21.3474 5.49735C21.3757 5.63313 21.3735 5.77349 21.341 5.90832C21.3085 6.04315 21.2464 6.16908 21.1594 6.27705C21.0723 6.38501 20.9624 6.47231 20.8375 6.53266C20.7126 6.59301 20.5759 6.6249 20.4372 6.62603C20.3836 6.62989 20.3297 6.62989 20.276 6.62603C19.7077 5.67951 18.9418 4.86684 18.0305 4.24359C17.1192 3.62033 16.0842 3.20118 14.996 3.01478C14.9873 2.34181 14.7373 1.69433 14.2914 1.19018C13.8456 0.686041 13.2335 0.358757 12.5666 0.267904C11.8998 0.17705 11.2225 0.32867 10.658 0.695163C10.0935 1.06166 9.67937 1.61866 9.49099 2.26478C9.20425 1.98384 8.8799 1.74405 8.52724 1.55228C6.26974 0.333528 3.72724 1.56353 3.62224 1.61603C3.53997 1.65666 3.47545 1.72604 3.44089 1.81104C3.40634 1.89605 3.40415 1.99077 3.43474 2.07728L4.62724 5.39603C3.73025 6.37816 3.10583 7.57789 2.81599 8.87603ZM10.9777 1.39105C11.3298 1.13698 11.7531 1.00049 12.1872 1.00103C12.6287 0.993744 13.0608 1.12856 13.4197 1.38559C13.7787 1.64262 14.0455 2.00823 14.1809 2.42849C14.3162 2.84874 14.3128 3.30136 14.1713 3.71955C14.0297 4.13775 13.7575 4.49936 13.3947 4.75103C12.5789 4.63487 11.7506 4.63487 10.9347 4.75103L10.9572 4.72103C10.6083 4.46264 10.3498 4.10074 10.2186 3.68687C10.0874 3.273 10.0901 2.82827 10.2264 2.41605C10.3627 2.00382 10.6257 1.64512 10.9777 1.39105ZM4.15474 14.126H2.22349L1.90099 9.61853H3.12349C3.21229 9.61998 3.29871 9.58986 3.36738 9.53355C3.43606 9.47724 3.48252 9.39839 3.49849 9.31103C3.74242 7.96371 4.38211 6.71957 5.33599 5.73728C5.38226 5.68801 5.41435 5.62715 5.42887 5.56114C5.4434 5.49513 5.43981 5.42642 5.41849 5.36228L4.26724 2.16353C6.13474 1.46228 8.19724 1.64603 9.37474 3.25103C9.41983 3.86673 9.66625 4.4505 10.076 4.91228C9.80224 4.97603 9.53224 5.05103 9.25849 5.14103L9.49099 5.85353C11.231 5.23266 13.1322 5.23266 14.8722 5.85353L15.1272 5.14853C14.8592 5.05305 14.5863 4.97169 14.3097 4.90478C14.5996 4.573 14.8065 4.17715 14.9135 3.74978C16.5127 4.03696 17.9603 4.87633 19.0041 6.12153C20.0478 7.36673 20.6213 8.93876 20.6247 10.5635C20.6284 11.5039 20.4385 12.4349 20.0669 13.2988C19.6953 14.1626 19.1499 14.9407 18.4647 15.5848C18.4093 15.6368 18.371 15.7045 18.3549 15.7789C18.3388 15.8532 18.3458 15.9307 18.3747 16.001L19.0422 17.6398C19.1362 17.87 19.1349 18.1282 19.0386 18.3574C18.9422 18.5867 18.7587 18.7683 18.5285 18.8623C18.2982 18.9563 18.0401 18.9549 17.8108 18.8586C17.5816 18.7622 17.4 18.5788 17.306 18.3485L16.826 17.171C16.8065 17.1237 16.7776 17.0809 16.741 17.0452C16.7044 17.0095 16.6609 16.9817 16.6131 16.9634C16.5653 16.9451 16.5143 16.9368 16.4632 16.939C16.4121 16.9412 16.362 16.9538 16.316 16.976C15.5413 17.2993 14.7138 17.4773 13.8747 17.501H10.1247C9.50771 17.5128 8.89376 17.4112 8.31349 17.201C8.22147 17.1639 8.11851 17.1648 8.02714 17.2035C7.93577 17.2421 7.86344 17.3154 7.82599 17.4073L7.45099 18.3485C7.357 18.5788 7.1754 18.7622 6.94614 18.8586C6.71688 18.9549 6.45873 18.9563 6.22849 18.8623C5.99825 18.7683 5.81477 18.5867 5.71843 18.3574C5.62208 18.1282 5.62075 17.87 5.71474 17.6398L6.19099 16.4773C6.22183 16.4011 6.22679 16.3169 6.20511 16.2376C6.18343 16.1584 6.1363 16.0884 6.07099 16.0385C5.4423 15.5537 4.9008 14.9653 4.46974 14.2985C4.43586 14.2457 4.38927 14.2023 4.33423 14.1721C4.2792 14.142 4.21749 14.1261 4.15474 14.126ZM5.24951 8.5C5.24951 8.91421 5.5853 9.25 5.99951 9.25C6.41372 9.25 6.74951 8.91421 6.74951 8.5C6.74951 8.08579 6.41372 7.75 5.99951 7.75C5.5853 7.75 5.24951 8.08579 5.24951 8.5Z" fill="#666666"/>
<path d="M1.49974 8.87603V9.07603L1.49925 9.07603L1.49974 8.87603ZM2.81599 8.87603L3.01118 8.91961L2.97626 9.07603H2.81599V8.87603ZM1.3499 8.90686L1.42932 9.09042H1.42932L1.3499 8.90686ZM1.22484 8.99498L1.37097 9.13153L1.37096 9.13154L1.22484 8.99498ZM1.12474 9.27728L0.925247 9.29153L0.92523 9.29128L1.12474 9.27728ZM1.49974 14.5273L1.69923 14.513L1.69925 14.5133L1.49974 14.5273ZM1.61844 14.7756L1.75464 14.6292V14.6292L1.61844 14.7756ZM1.87474 14.876L1.87425 14.676H1.87474V14.876ZM3.95599 14.876V14.676H4.06158L4.12114 14.7632L3.95599 14.876ZM5.39599 16.4473L5.52274 16.2926L5.63748 16.3866L5.58083 16.5237L5.39599 16.4473ZM5.02099 17.3548L4.83571 17.2795L4.83615 17.2784L5.02099 17.3548ZM5.02955 18.6467L4.84528 18.7244L5.02955 18.6467ZM5.94912 19.5542L6.02443 19.3689L6.02443 19.3689L5.94912 19.5542ZM7.24102 19.5456L7.31878 19.7299L7.24102 19.5456ZM8.14849 18.626L8.33532 18.6975L8.33377 18.7013L8.14849 18.626ZM8.38099 18.0185L8.1942 17.947L8.25992 17.7753L8.43656 17.8264L8.38099 18.0185ZM10.1247 18.251L10.1214 18.051H10.1247V18.251ZM13.8747 18.251L13.8811 18.451H13.8747V18.251ZM16.2672 17.8048L16.2011 17.616L16.3808 17.553L16.4525 17.7295L16.2672 17.8048ZM16.601 18.626L16.7863 18.5507L16.7864 18.5511L16.601 18.626ZM17.5082 19.5488L17.5863 19.3647H17.5863L17.5082 19.5488ZM19.725 18.6525L19.9091 18.7306L19.725 18.6525ZM19.736 17.3585L19.9212 17.283L19.9214 17.2836L19.736 17.3585ZM19.1622 15.9523L18.9771 16.0278L18.9271 15.9053L19.0203 15.8114L19.1622 15.9523ZM21.2638 11.8887L21.0668 11.8543L21.2638 11.8887ZM20.6622 7.35353L20.481 7.43807L20.3678 7.19538L20.6326 7.15573L20.6622 7.35353ZM21.8251 6.60536L21.6573 6.49643H21.6573L21.8251 6.60536ZM22.0771 5.94467L22.2747 5.97511L22.0771 5.94467ZM22.0356 5.23876L22.2283 5.18536H22.2283L22.0356 5.23876ZM21.7079 4.61216L21.8617 4.48432H21.8617L21.7079 4.61216ZM21.1518 4.17536L21.064 4.35507L21.1518 4.17536ZM20.4654 4.00541L20.4716 3.8055L20.4654 4.00541ZM19.7697 4.13228L19.5855 4.20998L19.5072 4.02439L19.6933 3.94745L19.7697 4.13228ZM20.0622 4.82603L20.1406 5.01004L19.9559 5.08869L19.878 4.90373L20.0622 4.82603ZM20.4665 4.75179L20.4744 4.55194L20.4665 4.75179ZM20.8637 4.8576L20.9563 4.68033H20.9563L20.8637 4.8576ZM21.3474 5.49735L21.5432 5.45656V5.45656L21.3474 5.49735ZM21.341 5.90832L21.1465 5.86144L21.341 5.90832ZM21.1594 6.27705L21.0037 6.1515L21.0037 6.1515L21.1594 6.27705ZM20.4372 6.62603L20.4229 6.42614L20.4356 6.42603L20.4372 6.62603ZM20.276 6.62603L20.2617 6.82551L20.158 6.81807L20.1045 6.72898L20.276 6.62603ZM18.0305 4.24359L17.9176 4.40867L18.0305 4.24359ZM14.996 3.01478L14.9622 3.21191L14.7982 3.1838L14.796 3.01735L14.996 3.01478ZM14.2914 1.19018L14.1416 1.32268L14.2914 1.19018ZM12.5666 0.267904L12.5396 0.466073V0.466073L12.5666 0.267904ZM10.658 0.695163L10.5491 0.527417L10.658 0.695163ZM9.49099 2.26478L9.683 2.32076L9.58953 2.64132L9.35102 2.40764L9.49099 2.26478ZM8.52724 1.55228L8.62225 1.37629L8.62278 1.37658L8.52724 1.55228ZM3.62224 1.61603L3.71168 1.79492L3.7108 1.79535L3.62224 1.61603ZM3.43474 2.07728L3.24652 2.14491L3.24618 2.14395L3.43474 2.07728ZM4.62724 5.39603L4.81546 5.3284L4.85623 5.44187L4.77492 5.5309L4.62724 5.39603ZM12.1872 1.00103L12.1905 1.20103L12.187 1.20103L12.1872 1.00103ZM13.4197 1.38559L13.3033 1.5482V1.5482L13.4197 1.38559ZM14.1809 2.42849L14.3712 2.36719V2.36719L14.1809 2.42849ZM13.3947 4.75103L13.5087 4.91535L13.4443 4.96009L13.3665 4.94903L13.3947 4.75103ZM10.9347 4.75103L10.9629 4.94903L10.4852 5.01705L10.7747 4.63103L10.9347 4.75103ZM10.9572 4.72103L11.0763 4.5603L11.238 4.68005L11.1172 4.84103L10.9572 4.72103ZM10.2186 3.68687L10.4093 3.62642V3.62642L10.2186 3.68687ZM2.22349 14.126V14.326H2.03729L2.024 14.1403L2.22349 14.126ZM4.15474 14.126V13.926H4.15507L4.15474 14.126ZM1.90099 9.61853L1.7015 9.6328L1.68617 9.41853H1.90099V9.61853ZM3.12349 9.61853V9.4185L3.12675 9.41855L3.12349 9.61853ZM3.36738 9.53355L3.24057 9.3789L3.24057 9.3789L3.36738 9.53355ZM3.49849 9.31103L3.69529 9.34666L3.69523 9.347L3.49849 9.31103ZM5.33599 5.73728L5.4818 5.87421L5.47947 5.87661L5.33599 5.73728ZM5.41849 5.36228L5.60673 5.29453L5.60828 5.29919L5.41849 5.36228ZM4.26724 2.16353L4.07906 2.23126L4.01225 2.04564L4.19693 1.97629L4.26724 2.16353ZM9.37474 3.25103L9.536 3.13272L9.57001 3.17908L9.57421 3.23642L9.37474 3.25103ZM10.076 4.91228L10.2256 4.77954L10.4486 5.03086L10.1214 5.10707L10.076 4.91228ZM9.25849 5.14103L9.06836 5.20307L9.00645 5.01336L9.19602 4.95103L9.25849 5.14103ZM9.49099 5.85353L9.5582 6.0419L9.36462 6.11097L9.30086 5.91557L9.49099 5.85353ZM14.8722 5.85353L15.0603 5.92156L14.9926 6.10882L14.805 6.0419L14.8722 5.85353ZM15.1272 5.14853L15.1944 4.96012L15.3837 5.02756L15.3153 5.21655L15.1272 5.14853ZM14.3097 4.90478L14.2627 5.09917L13.9421 5.02161L14.1591 4.77319L14.3097 4.90478ZM14.9135 3.74978L14.7195 3.70121L14.7649 3.51989L14.9488 3.55293L14.9135 3.74978ZM19.0041 6.12153L19.1573 5.99306L19.0041 6.12153ZM20.6247 10.5635L20.4247 10.5643L20.4247 10.5639L20.6247 10.5635ZM20.0669 13.2988L20.2506 13.3778L20.0669 13.2988ZM18.4647 15.5848L18.6017 15.7305L18.6017 15.7306L18.4647 15.5848ZM18.3549 15.7789L18.1594 15.7366L18.1594 15.7366L18.3549 15.7789ZM18.3747 16.001L18.5597 15.9248L18.56 15.9256L18.3747 16.001ZM19.0422 17.6398L18.8571 17.7154L18.857 17.7152L19.0422 17.6398ZM19.0386 18.3574L19.2229 18.4349L19.0386 18.3574ZM17.8108 18.8586L17.7334 19.043H17.7334L17.8108 18.8586ZM17.306 18.3485L17.1208 18.4241L17.1208 18.424L17.306 18.3485ZM16.826 17.171L17.011 17.095L17.0112 17.0955L16.826 17.171ZM16.6131 16.9634L16.5417 17.1502L16.5417 17.1502L16.6131 16.9634ZM16.4632 16.939L16.4547 16.7392H16.4547L16.4632 16.939ZM16.316 16.976L16.4031 17.1564L16.393 17.1606L16.316 16.976ZM13.8747 17.501L13.8804 17.701H13.8747V17.501ZM10.1247 17.501L10.1209 17.301H10.1247V17.501ZM8.31349 17.201L8.24535 17.3892L8.23869 17.3865L8.31349 17.201ZM8.02714 17.2035L7.94921 17.0193L7.94921 17.0193L8.02714 17.2035ZM7.82599 17.4073L7.64019 17.3333L7.64078 17.3318L7.82599 17.4073ZM7.45099 18.3485L7.63679 18.4226L7.63616 18.4241L7.45099 18.3485ZM6.94614 18.8586L7.02363 19.043L7.02362 19.043L6.94614 18.8586ZM5.71843 18.3574L5.53405 18.4349L5.53404 18.4349L5.71843 18.3574ZM5.71474 17.6398L5.52957 17.5642L5.52967 17.564L5.71474 17.6398ZM6.19099 16.4773L6.37638 16.5523L6.37606 16.5531L6.19099 16.4773ZM6.20511 16.2376L6.01219 16.2904V16.2904L6.20511 16.2376ZM6.07099 16.0385L5.9496 16.1975L5.94885 16.1969L6.07099 16.0385ZM4.46974 14.2985L4.30178 14.4071L4.3014 14.4065L4.46974 14.2985ZM1.49974 8.67603H2.81599V9.07603H1.49974V8.67603ZM1.27048 8.72331C1.343 8.69193 1.42121 8.67583 1.50023 8.67603L1.49925 9.07603C1.4752 9.07597 1.4514 9.08087 1.42932 9.09042L1.27048 8.72331ZM1.07872 8.85842C1.13268 8.80068 1.19795 8.75469 1.27048 8.72331L1.42932 9.09042C1.40725 9.09997 1.38738 9.11397 1.37097 9.13153L1.07872 8.85842ZM0.956882 9.05886C0.983292 8.98438 1.02477 8.91615 1.07873 8.85841L1.37096 9.13154C1.35454 9.14911 1.34192 9.16987 1.33388 9.19254L0.956882 9.05886ZM0.92523 9.29128C0.919699 9.21245 0.930473 9.13333 0.956882 9.05886L1.33388 9.19254C1.32584 9.21521 1.32257 9.23929 1.32425 9.26328L0.92523 9.29128ZM1.30025 14.5415L0.925247 9.29153L1.32423 9.26303L1.69923 14.513L1.30025 14.5415ZM1.48224 14.9221C1.37549 14.8228 1.31043 14.6867 1.30023 14.5413L1.69925 14.5133C1.70235 14.5575 1.72215 14.599 1.75464 14.6292L1.48224 14.9221ZM1.87523 15.076C1.72945 15.0764 1.58899 15.0214 1.48224 14.9221L1.75464 14.6292C1.78713 14.6594 1.82988 14.6761 1.87425 14.676L1.87523 15.076ZM3.95599 15.076H1.87474V14.676H3.95599V15.076ZM5.26924 16.602C4.70216 16.1374 4.20433 15.5942 3.79084 14.9888L4.12114 14.7632C4.51315 15.3371 4.98512 15.8521 5.52274 16.2926L5.26924 16.602ZM4.83615 17.2784L5.21115 16.3709L5.58083 16.5237L5.20583 17.4312L4.83615 17.2784ZM4.84528 18.7244C4.6506 18.2631 4.64716 17.7433 4.83571 17.2795L5.20627 17.4301C5.05766 17.7957 5.06038 18.2053 5.21381 18.5689L4.84528 18.7244ZM5.87381 19.7394C5.40993 19.5509 5.03996 19.1858 4.84528 18.7244L5.21381 18.5689C5.36725 18.9325 5.65883 19.2203 6.02443 19.3689L5.87381 19.7394ZM7.31878 19.7299C6.85745 19.9245 6.33768 19.928 5.8738 19.7394L6.02443 19.3689C6.39002 19.5175 6.79967 19.5148 7.16326 19.3613L7.31878 19.7299ZM8.33377 18.7013C8.14522 19.1652 7.78011 19.5352 7.31878 19.7299L7.16326 19.3613C7.52686 19.2079 7.81461 18.9163 7.96321 18.5507L8.33377 18.7013ZM8.56778 18.09L8.33528 18.6975L7.9617 18.5545L8.1942 17.947L8.56778 18.09ZM10.128 18.451C9.51855 18.461 8.91098 18.38 8.32542 18.2107L8.43656 17.8264C8.98388 17.9847 9.55177 18.0604 10.1215 18.0511L10.128 18.451ZM13.8747 18.451H10.1247V18.051H13.8747V18.451ZM16.3334 17.9935C15.5441 18.2702 14.7171 18.4244 13.8811 18.4509L13.8684 18.0511C14.6636 18.0259 15.4503 17.8792 16.2011 17.616L16.3334 17.9935ZM16.4157 18.7013L16.082 17.8801L16.4525 17.7295L16.7863 18.5507L16.4157 18.7013ZM17.4301 19.7329C16.9685 19.5371 16.6035 19.1659 16.4156 18.701L16.7864 18.5511C16.9346 18.9176 17.2223 19.2103 17.5863 19.3647L17.4301 19.7329ZM18.8772 19.7452C18.4123 19.9332 17.8918 19.9287 17.4301 19.7329L17.5863 19.3647C17.9503 19.5191 18.3607 19.5226 18.7273 19.3744L18.8772 19.7452ZM19.9091 18.7306C19.7133 19.1923 19.3421 19.5572 18.8772 19.7452L18.7273 19.3744C19.0938 19.2262 19.3865 18.9384 19.5409 18.5744L19.9091 18.7306ZM19.9214 17.2836C20.1094 17.7485 20.105 18.269 19.9091 18.7306L19.5409 18.5744C19.6953 18.2105 19.6988 17.8 19.5506 17.4335L19.9214 17.2836ZM19.3474 15.8767L19.9212 17.283L19.5508 17.4341L18.9771 16.0278L19.3474 15.8767ZM21.4608 11.923C21.1856 13.501 20.4328 14.9566 19.3042 16.0932L19.0203 15.8114C20.0913 14.7328 20.8056 13.3516 21.0668 11.8543L21.4608 11.923ZM20.8435 7.26898C21.5206 8.72063 21.7361 10.3451 21.4608 11.923L21.0668 11.8543C21.328 10.357 21.1235 8.81554 20.481 7.43807L20.8435 7.26898ZM21.4322 7.27251C21.2079 7.4168 20.9556 7.51184 20.6919 7.55132L20.6326 7.15573C20.8404 7.12463 21.0391 7.04978 21.2158 6.93612L21.4322 7.27251ZM21.9928 6.71428C21.8475 6.93794 21.6565 7.12821 21.4322 7.27251L21.2158 6.93612C21.3924 6.82246 21.5429 6.6726 21.6573 6.49643L21.9928 6.71428ZM22.2747 5.97511C22.2341 6.23868 22.138 6.49063 21.9928 6.71428L21.6573 6.49643C21.7717 6.32027 21.8474 6.12182 21.8794 5.91422L22.2747 5.97511ZM22.2283 5.18536C22.2995 5.44236 22.3153 5.71154 22.2747 5.97511L21.8794 5.91422C21.9114 5.70662 21.8989 5.49459 21.8428 5.29217L22.2283 5.18536ZM21.8617 4.48432C22.0321 4.68942 22.1571 4.92837 22.2283 5.18536L21.8428 5.29217C21.7867 5.08974 21.6883 4.90153 21.554 4.73999L21.8617 4.48432ZM21.2395 3.99564C21.4792 4.11266 21.6912 4.27923 21.8617 4.48432L21.554 4.73999C21.4198 4.57844 21.2528 4.44724 21.064 4.35507L21.2395 3.99564ZM20.4716 3.8055C20.7382 3.81381 20.9999 3.87862 21.2395 3.99564L21.064 4.35507C20.8753 4.2629 20.6691 4.21185 20.4592 4.20531L20.4716 3.8055ZM19.6933 3.94745C19.9398 3.84558 20.2051 3.79719 20.4716 3.8055L20.4592 4.20531C20.2492 4.19876 20.0403 4.23687 19.8461 4.31711L19.6933 3.94745ZM19.878 4.90373L19.5855 4.20998L19.954 4.05458L20.2465 4.74833L19.878 4.90373ZM20.4586 4.95163C20.3496 4.94734 20.241 4.96728 20.1406 5.01004L19.9839 4.64202C20.1387 4.57608 20.3062 4.54532 20.4744 4.55194L20.4586 4.95163ZM20.7711 5.03487C20.6744 4.98436 20.5676 4.95593 20.4586 4.95163L20.4744 4.55194C20.6425 4.55857 20.8071 4.60242 20.9563 4.68033L20.7711 5.03487ZM21.0179 5.24376C20.9521 5.15673 20.8678 5.08539 20.7711 5.03487L20.9563 4.68033C21.1054 4.75825 21.2354 4.86828 21.3369 5.00251L21.0179 5.24376ZM21.1516 5.53814C21.1293 5.43133 21.0837 5.33079 21.0179 5.24376L21.3369 5.00251C21.4384 5.13674 21.5089 5.29182 21.5432 5.45656L21.1516 5.53814ZM21.1465 5.86144C21.1721 5.75537 21.1738 5.64495 21.1516 5.53814L21.5432 5.45656C21.5775 5.6213 21.5748 5.79161 21.5354 5.9552L21.1465 5.86144ZM21.0037 6.1515C21.0722 6.06657 21.121 5.9675 21.1465 5.86144L21.5354 5.9552C21.496 6.11879 21.4207 6.2716 21.3151 6.40259L21.0037 6.1515ZM20.7505 6.35259C20.8487 6.30511 20.9352 6.23643 21.0037 6.1515L21.3151 6.40259C21.2094 6.53359 21.0761 6.63951 20.9245 6.71273L20.7505 6.35259ZM20.4356 6.42603C20.5447 6.42514 20.6523 6.40006 20.7505 6.35259L20.9245 6.71273C20.773 6.78596 20.6071 6.82465 20.4389 6.82602L20.4356 6.42603ZM20.2903 6.42654C20.3345 6.42971 20.3788 6.42971 20.4229 6.42654L20.4516 6.82551C20.3884 6.83006 20.3249 6.83006 20.2617 6.82551L20.2903 6.42654ZM18.1434 4.07851C19.0784 4.71802 19.8644 5.55187 20.4475 6.52308L20.1045 6.72898C19.5511 5.80714 18.8051 5.01567 17.9176 4.40867L18.1434 4.07851ZM15.0298 2.81765C16.1463 3.00891 17.2084 3.439 18.1434 4.07851L17.9176 4.40867C17.0301 3.80167 16.022 3.39345 14.9622 3.21191L15.0298 2.81765ZM14.4412 1.05769C14.9189 1.59773 15.1867 2.29132 15.196 3.0122L14.796 3.01735C14.788 2.39231 14.5557 1.79093 14.1416 1.32268L14.4412 1.05769ZM12.5936 0.0697343C13.308 0.167057 13.9636 0.517646 14.4412 1.05769L14.1416 1.32268C13.7275 0.854437 13.159 0.550457 12.5396 0.466073L12.5936 0.0697343ZM10.5491 0.527417C11.1537 0.134827 11.8793 -0.0275881 12.5936 0.0697343L12.5396 0.466073C11.9203 0.381689 11.2912 0.522512 10.7669 0.862909L10.5491 0.527417ZM9.29898 2.2088C9.50078 1.51667 9.94438 0.920007 10.5491 0.527417L10.7669 0.862909C10.2426 1.20331 9.85796 1.72064 9.683 2.32076L9.29898 2.2088ZM8.62278 1.37658C8.9917 1.57719 9.331 1.82803 9.63096 2.12192L9.35102 2.40764C9.0775 2.13965 8.7681 1.91091 8.4317 1.72798L8.62278 1.37658ZM3.5328 1.43714C3.59555 1.40576 4.27664 1.07658 5.23332 0.910386C6.18948 0.744286 7.43985 0.737947 8.62225 1.37629L8.43223 1.72827C7.35713 1.14786 6.2075 1.14715 5.30178 1.30448C4.39659 1.46173 3.75393 1.77379 3.71168 1.79491L3.5328 1.43714ZM3.25562 1.73573C3.3086 1.60539 3.40753 1.499 3.53368 1.4367L3.7108 1.79535C3.67241 1.81431 3.6423 1.84669 3.62617 1.88636L3.25562 1.73573ZM3.24618 2.14395C3.19928 2.0113 3.20263 1.86607 3.25562 1.73573L3.62617 1.88636C3.61004 1.92603 3.60902 1.97023 3.6233 2.01061L3.24618 2.14395ZM4.43902 5.46366L3.24652 2.14491L3.62296 2.00965L4.81546 5.3284L4.43902 5.46366ZM2.62079 8.83245C2.91824 7.50025 3.55904 6.26905 4.47956 5.26115L4.77492 5.5309C3.90146 6.48727 3.29342 7.65552 3.01118 8.91961L2.62079 8.83245ZM12.187 1.20103C11.7949 1.20054 11.4127 1.32379 11.0948 1.55323L10.8607 1.22887C11.2469 0.950159 11.7112 0.800436 12.1875 0.801028L12.187 1.20103ZM13.3033 1.5482C12.9792 1.31615 12.5891 1.19442 12.1905 1.201L12.1839 0.801055C12.6683 0.793063 13.1423 0.94098 13.5362 1.22298L13.3033 1.5482ZM13.9905 2.48979C13.8683 2.11036 13.6274 1.78026 13.3033 1.5482L13.5362 1.22298C13.93 1.50497 14.2228 1.90611 14.3712 2.36719L13.9905 2.48979ZM13.9818 3.65543C14.1096 3.27786 14.1127 2.86921 13.9905 2.48979L14.3712 2.36719C14.5197 2.82826 14.516 3.32486 14.3607 3.78368L13.9818 3.65543ZM13.2807 4.5867C13.6082 4.35949 13.854 4.033 13.9818 3.65543L14.3607 3.78368C14.2054 4.2425 13.9067 4.63924 13.5087 4.91535L13.2807 4.5867ZM10.9065 4.55302C11.7411 4.4342 12.5883 4.4342 13.4229 4.55302L13.3665 4.94903C12.5694 4.83553 11.7601 4.83553 10.9629 4.94903L10.9065 4.55302ZM11.1172 4.84103L11.0947 4.87103L10.7747 4.63103L10.7972 4.60103L11.1172 4.84103ZM10.4093 3.62642C10.5278 4.00016 10.7612 4.32697 11.0763 4.5603L10.8382 4.88176C10.4555 4.59831 10.1719 4.20131 10.028 3.74731L10.4093 3.62642ZM10.4163 2.47883C10.2932 2.85108 10.2908 3.25268 10.4093 3.62642L10.028 3.74731C9.88404 3.29331 9.88704 2.80546 10.0366 2.35326L10.4163 2.47883ZM11.0948 1.55323C10.7768 1.78266 10.5394 2.10658 10.4163 2.47883L10.0366 2.35326C10.1861 1.90106 10.4745 1.50758 10.8607 1.22887L11.0948 1.55323ZM2.22349 13.926H4.15474V14.326H2.22349V13.926ZM2.10048 9.60425L2.42298 14.1118L2.024 14.1403L1.7015 9.6328L2.10048 9.60425ZM3.12349 9.81853H1.90099V9.41853H3.12349V9.81853ZM3.4942 9.6882C3.3889 9.77455 3.25638 9.82072 3.12023 9.8185L3.12675 9.41855C3.16819 9.41923 3.20852 9.40518 3.24057 9.3789L3.4942 9.6882ZM3.69523 9.347C3.67073 9.48095 3.5995 9.60186 3.4942 9.68821L3.24057 9.3789C3.27262 9.35262 3.2943 9.31582 3.30175 9.27505L3.69523 9.347ZM5.47947 5.87661C4.55327 6.8304 3.93215 8.03843 3.69529 9.34666L3.30169 9.2754C3.5527 7.88898 4.21095 6.60874 5.19251 5.59795L5.47947 5.87661ZM5.6242 5.60411C5.60194 5.70533 5.55273 5.79865 5.48178 5.87419L5.1902 5.60036C5.21179 5.57737 5.22677 5.54897 5.23355 5.51817L5.6242 5.60411ZM5.60828 5.29919C5.64097 5.39754 5.64647 5.50289 5.6242 5.60411L5.23355 5.51817C5.24032 5.48736 5.23865 5.45529 5.2287 5.42536L5.60828 5.29919ZM4.45542 2.0958L5.60667 5.29455L5.23031 5.43001L4.07906 2.23126L4.45542 2.0958ZM9.21348 3.36933C8.1098 1.86495 6.15939 1.66666 4.33755 2.35076L4.19693 1.97629C6.11009 1.2579 8.28468 1.42711 9.536 3.13272L9.21348 3.36933ZM9.92639 5.04502C9.48751 4.5504 9.22357 3.92512 9.17527 3.26564L9.57421 3.23642C9.61609 3.80834 9.84499 4.3506 10.2256 4.77954L9.92639 5.04502ZM9.19602 4.95103C9.47561 4.85911 9.75133 4.78253 10.0306 4.71749L10.1214 5.10707C9.85315 5.16952 9.58886 5.24294 9.32095 5.33102L9.19602 4.95103ZM9.30086 5.91557L9.06836 5.20307L9.44862 5.07898L9.68112 5.79148L9.30086 5.91557ZM14.805 6.0419C13.1085 5.43653 11.2548 5.43653 9.5582 6.0419L9.42378 5.66516C11.2073 5.02878 13.156 5.02878 14.9395 5.66516L14.805 6.0419ZM15.3153 5.21655L15.0603 5.92156L14.6842 5.7855L14.9392 5.0805L15.3153 5.21655ZM14.3568 4.71039C14.6401 4.77894 14.9197 4.8623 15.1944 4.96012L15.0601 5.33693C14.7987 5.2438 14.5325 5.16443 14.2627 5.09917L14.3568 4.71039ZM15.1075 3.79834C14.9928 4.25643 14.771 4.68074 14.4604 5.03636L14.1591 4.77319C14.4281 4.46527 14.6202 4.09786 14.7195 3.70121L15.1075 3.79834ZM18.8508 6.25001C17.8371 5.04071 16.4312 4.22553 14.8781 3.94663L14.9488 3.55293C16.5941 3.84839 18.0835 4.71196 19.1573 5.99306L18.8508 6.25001ZM20.4247 10.5639C20.4214 8.98602 19.8644 7.45931 18.8508 6.25001L19.1573 5.99306C20.2311 7.27415 20.8212 8.8915 20.8247 10.5631L20.4247 10.5639ZM19.8832 13.2197C20.2439 12.3811 20.4283 11.4772 20.4247 10.5643L20.8247 10.5628C20.8285 11.5306 20.633 12.4888 20.2506 13.3778L19.8832 13.2197ZM18.3278 15.439C18.993 14.8138 19.5224 14.0584 19.8832 13.2197L20.2506 13.3778C19.8682 14.2668 19.3069 15.0677 18.6017 15.7305L18.3278 15.439ZM18.1594 15.7366C18.1841 15.6226 18.2428 15.5188 18.3278 15.439L18.6017 15.7306C18.5758 15.7549 18.5579 15.7865 18.5504 15.8212L18.1594 15.7366ZM18.1898 16.0772C18.1454 15.9694 18.1348 15.8506 18.1594 15.7366L18.5504 15.8212C18.5429 15.8558 18.5461 15.892 18.5597 15.9248L18.1898 16.0772ZM18.857 17.7152L18.1895 16.0765L18.56 15.9256L19.2275 17.5643L18.857 17.7152ZM18.8542 18.2799C18.93 18.0996 18.931 17.8965 18.8571 17.7154L19.2274 17.5642C19.3414 17.8435 19.3398 18.1567 19.2229 18.4349L18.8542 18.2799ZM18.4529 18.6771C18.634 18.6032 18.7784 18.4603 18.8542 18.2799L19.2229 18.4349C19.106 18.7131 18.8834 18.9334 18.6041 19.0474L18.4529 18.6771ZM17.8883 18.6742C18.0687 18.75 18.2718 18.7511 18.4529 18.6771L18.6041 19.0474C18.3247 19.1615 18.0115 19.1599 17.7334 19.043L17.8883 18.6742ZM17.4912 18.2729C17.5651 18.4541 17.708 18.5984 17.8883 18.6742L17.7334 19.043C17.4552 18.9261 17.2349 18.7035 17.1208 18.4241L17.4912 18.2729ZM17.0112 17.0955L17.4912 18.273L17.1208 18.424L16.6408 17.2465L17.0112 17.0955ZM16.8807 16.902C16.9368 16.9568 16.9811 17.0224 17.011 17.095L16.641 17.2471C16.6319 17.225 16.6185 17.205 16.6014 17.1884L16.8807 16.902ZM16.6845 16.7766C16.7578 16.8046 16.8245 16.8473 16.8807 16.902L16.6014 17.1884C16.5843 17.1717 16.564 17.1587 16.5417 17.1502L16.6845 16.7766ZM16.4547 16.7392C16.5331 16.7358 16.6113 16.7486 16.6845 16.7766L16.5417 17.1502C16.5194 17.1417 16.4956 17.1378 16.4717 17.1388L16.4547 16.7392ZM16.229 16.796C16.2996 16.7618 16.3764 16.7425 16.4547 16.7392L16.4717 17.1388C16.4479 17.1398 16.4245 17.1457 16.403 17.1561L16.229 16.796ZM13.8691 17.3011C14.6836 17.2781 15.487 17.1053 16.239 16.7915L16.393 17.1606C15.5957 17.4934 14.744 17.6765 13.8804 17.7009L13.8691 17.3011ZM10.1247 17.301H13.8747V17.701H10.1247V17.301ZM8.38159 17.013C8.93881 17.2148 9.52838 17.3124 10.1209 17.3011L10.1286 17.701C9.48704 17.7133 8.8487 17.6076 8.24539 17.3891L8.38159 17.013ZM7.94921 17.0193C8.08931 16.96 8.24719 16.9586 8.38828 17.0155L8.23869 17.3865C8.19576 17.3692 8.14771 17.3696 8.10506 17.3876L7.94921 17.0193ZM7.64078 17.3318C7.6982 17.1909 7.80911 17.0785 7.94921 17.0193L8.10507 17.3876C8.06242 17.4057 8.02867 17.4399 8.0112 17.4828L7.64078 17.3318ZM7.26519 18.2745L7.64019 17.3333L8.01179 17.4813L7.63679 18.4226L7.26519 18.2745ZM6.86865 18.6742C7.04902 18.5984 7.19188 18.4541 7.26582 18.2729L7.63616 18.4241C7.52212 18.7035 7.30179 18.9261 7.02363 19.043L6.86865 18.6742ZM6.30408 18.6771C6.48521 18.7511 6.68829 18.75 6.86866 18.6742L7.02362 19.043C6.74546 19.1599 6.43225 19.1615 6.1529 19.0474L6.30408 18.6771ZM5.90281 18.2799C5.9786 18.4603 6.12294 18.6032 6.30408 18.6771L6.1529 19.0474C5.87355 18.9334 5.65094 18.7131 5.53405 18.4349L5.90281 18.2799ZM5.89991 17.7154C5.82597 17.8965 5.82701 18.0996 5.90281 18.2799L5.53404 18.4349C5.41715 18.1567 5.41554 17.8435 5.52957 17.5642L5.89991 17.7154ZM6.37606 16.5531L5.89981 17.7156L5.52967 17.564L6.00592 16.4015L6.37606 16.5531ZM6.39802 16.1849C6.43127 16.3064 6.42366 16.4355 6.37637 16.5523L6.0056 16.4022C6.01999 16.3667 6.02231 16.3274 6.01219 16.2904L6.39802 16.1849ZM6.19238 15.8796C6.29252 15.9561 6.36478 16.0633 6.39802 16.1849L6.01219 16.2904C6.00208 16.2534 5.98008 16.2208 5.9496 16.1975L6.19238 15.8796ZM4.63769 14.1899C5.05642 14.8376 5.58242 15.4092 6.19313 15.8802L5.94885 16.1969C5.30217 15.6982 4.74518 15.0929 4.30178 14.4071L4.63769 14.1899ZM4.4303 13.9967C4.51468 14.0429 4.58612 14.1096 4.63807 14.1905L4.3014 14.4065C4.28559 14.3819 4.26385 14.3616 4.23817 14.3475L4.4303 13.9967ZM4.15507 13.926C4.25128 13.9262 4.34591 13.9505 4.4303 13.9967L4.23817 14.3475C4.21249 14.3335 4.18369 14.3261 4.15441 14.326L4.15507 13.926ZM5.99951 9.45C5.47484 9.45 5.04951 9.02467 5.04951 8.5H5.44951C5.44951 8.80376 5.69576 9.05 5.99951 9.05V9.45ZM6.94951 8.5C6.94951 9.02467 6.52418 9.45 5.99951 9.45V9.05C6.30327 9.05 6.54951 8.80376 6.54951 8.5H6.94951ZM5.99951 7.55C6.52418 7.55 6.94951 7.97533 6.94951 8.5H6.54951C6.54951 8.19624 6.30327 7.95 5.99951 7.95V7.55ZM5.04951 8.5C5.04951 7.97533 5.47484 7.55 5.99951 7.55V7.95C5.69576 7.95 5.44951 8.19624 5.44951 8.5H5.04951Z" fill="#666666" mask="url(#path-1-outside-1_438_415)"/>
</svg>
