<svg width="30" height="30" viewBox="0 0 30 30" fill="none" xmlns="http://www.w3.org/2000/svg">
<path d="M19.4238 14.6784H12.7734V10.4326C12.7734 9.52862 11.8806 8.89101 11.0253 9.18626L1.01098 12.6395C0.406289 12.848 0 13.4178 0 14.0574V27.7741C0 28.9857 0.985664 29.9713 2.19727 29.9713H19.4238C20.1507 29.9713 20.7422 29.3799 20.7422 28.653V15.9967C20.7422 15.2698 20.1507 14.6784 19.4238 14.6784ZM1.2975 13.4704C11.6674 10.0094 11.3285 9.80261 11.7103 10.0748C12.0424 10.3116 11.8307 10.3817 11.8946 14.6784H1.49988C0.799336 14.6784 0.639961 13.6971 1.2975 13.4704V13.4704ZM19.4238 29.0924H2.19727C1.47035 29.0924 0.878906 28.501 0.878906 27.7741V15.4222C1.24383 15.5889 19.418 15.5573 19.4238 15.5573C19.6662 15.5573 19.8633 15.7544 19.8633 15.9967V18.819H15.2832C13.4793 18.819 12.0117 20.2866 12.0117 22.0905C12.0117 23.8943 13.4793 25.3619 15.2832 25.3619H19.8633V28.653C19.8633 28.8953 19.6662 29.0924 19.4238 29.0924V29.0924ZM19.8633 19.6979V24.483H15.2832C13.9639 24.483 12.8906 23.4098 12.8906 22.0905C12.8906 20.7712 13.9639 19.6979 15.2832 19.6979H19.8633Z" fill="#EEEEEE"/>
<path d="M23.7012 12.627C27.1743 12.627 30 9.80127 30 6.32812C30 2.85498 27.1743 0.0292969 23.7012 0.0292969C20.228 0.0292969 17.4023 2.85498 17.4023 6.32812C17.4023 9.80127 20.228 12.627 23.7012 12.627ZM23.7012 0.908203C26.6897 0.908203 29.1211 3.33955 29.1211 6.32812C29.1211 9.3167 26.6897 11.748 23.7012 11.748C20.7126 11.748 18.2812 9.3167 18.2812 6.32812C18.2812 3.33955 20.7126 0.908203 23.7012 0.908203Z" fill="#EEEEEE"/>
<path d="M25.7557 4.76843C25.8576 4.76843 25.9553 4.72795 26.0274 4.6559C26.0994 4.58384 26.1399 4.48612 26.1399 4.38422C26.1399 4.28232 26.0994 4.18459 26.0274 4.11253C25.9553 4.04048 25.8576 4 25.7557 4H22.3842C22.2823 4 22.1846 4.04048 22.1125 4.11253C22.0405 4.18459 22 4.28232 22 4.38422C22 4.48612 22.0405 4.58384 22.1125 4.6559C22.1846 4.72795 22.2823 4.76843 22.3842 4.76843H23.349C23.562 4.77003 23.7697 4.83476 23.946 4.95445C24.1222 5.07413 24.2589 5.24339 24.3389 5.44081H22.3842C22.2823 5.44081 22.1846 5.48129 22.1125 5.55334C22.0405 5.6254 22 5.72313 22 5.82503C22 5.92693 22.0405 6.02465 22.1125 6.09671C22.1846 6.16876 22.2823 6.20924 22.3842 6.20924H24.3389C24.1846 6.64148 23.7991 6.88162 23.3488 6.88162H22.3842C22.3066 6.88378 22.2314 6.90878 22.1679 6.95348C22.1044 6.99819 22.0556 7.06063 22.0274 7.13297C21.9992 7.20532 21.993 7.28437 22.0096 7.36022C22.0261 7.43607 22.0646 7.50537 22.1204 7.55943L24.5316 9.84037C24.5679 9.876 24.611 9.90403 24.6583 9.92284C24.7056 9.94165 24.7562 9.95086 24.807 9.94994C24.8579 9.94901 24.9081 9.93796 24.9547 9.91744C25.0013 9.89691 25.0433 9.86733 25.0783 9.8304C25.1133 9.79347 25.1407 9.74994 25.1587 9.70235C25.1767 9.65476 25.1851 9.60405 25.1833 9.55319C25.1815 9.50232 25.1697 9.45232 25.1484 9.40609C25.1271 9.35987 25.0968 9.31834 25.0593 9.28393L23.3501 7.6623C23.7688 7.65843 24.1737 7.51258 24.4986 7.24861C24.8236 6.98465 25.0493 6.6182 25.1388 6.20924H25.7557C25.8576 6.20924 25.9553 6.16876 26.0274 6.09671C26.0994 6.02465 26.1399 5.92693 26.1399 5.82503C26.1399 5.72313 26.0994 5.6254 26.0274 5.55334C25.9553 5.48129 25.8576 5.44081 25.7557 5.44081H25.1388C25.0861 5.19836 24.9838 4.96943 24.8384 4.76843H25.7557Z" fill="#EEEEEE"/>
<path d="M10.4812 8.06276L10.2248 7.22206L8.06664 7.88007C9.92652 4.85839 13.3473 3.01397 16.9454 3.2054L16.9921 2.32772C13.0582 2.11772 9.35254 4.09362 7.3116 7.4279L6.67176 5.32925L5.83105 5.58559L6.91756 9.14915L10.4812 8.06276Z" fill="#EEEEEE"/>
<path d="M23.3726 15.8315L23.7586 16.6212L25.9111 15.5689C25.2888 17.8671 23.8303 19.8933 21.8193 21.2157L22.3021 21.95C24.4039 20.568 25.9516 18.4796 26.6727 16.1006L27.5662 17.9284L28.3559 17.5424L26.7196 14.1953L23.3726 15.8315Z" fill="#EEEEEE"/>
<path d="M14.2773 22.0898C14.2773 22.8168 14.8688 23.4082 15.5957 23.4082C16.3226 23.4082 16.9141 22.8168 16.9141 22.0898C16.9141 21.3629 16.3226 20.7715 15.5957 20.7715C14.8688 20.7715 14.2773 21.3629 14.2773 22.0898ZM16.0352 22.0898C16.0352 22.6714 15.1562 22.6709 15.1562 22.0898C15.1562 21.8475 16.0352 21.5088 16.0352 22.0898Z" fill="#EEEEEE"/>
</svg>
