<svg width="20" height="20" viewBox="0 0 20 20" fill="none" xmlns="http://www.w3.org/2000/svg">
<path fill-rule="evenodd" clip-rule="evenodd" d="M17.9999 9.50003H19.4999C19.7761 9.50003 20 9.72379 20 9.99991C20 10.276 19.7761 10.5 19.4999 10.5H17.9999C17.9954 10.5 17.9913 10.4987 17.9871 10.4975C17.9832 10.4964 17.9792 10.4952 17.9749 10.495C17.7216 14.5166 14.5166 17.7216 10.495 17.9749C10.4952 17.9791 10.4963 17.9829 10.4975 17.9868C10.4987 17.991 10.5 17.9953 10.5 17.9999V19.4999C10.5 19.7761 10.276 20 9.99991 20C9.72379 20 9.50003 19.7761 9.50003 19.4999V17.9999C9.50003 17.9954 9.50125 17.9913 9.50248 17.9871C9.50364 17.9832 9.5048 17.9792 9.50498 17.9749C5.48344 17.7216 2.27819 14.5166 2.02496 10.495C2.02084 10.4952 2.01698 10.4963 2.01311 10.4975C2.00888 10.4987 2.00464 10.5 2.00006 10.5H0.50006C0.223937 10.5 0 10.276 0 9.99991C0 9.72379 0.223937 9.50003 0.50006 9.50003H2.00006C2.00464 9.50003 2.00888 9.50128 2.01311 9.50252C2.01698 9.50366 2.02084 9.5048 2.02496 9.50498C2.27819 5.48344 5.48344 2.27819 9.50498 2.02496C9.5048 2.02084 9.50366 2.01698 9.50252 2.01311C9.50128 2.00888 9.50003 2.00464 9.50003 2.00006V0.50006C9.50003 0.223937 9.72379 0 9.99991 0C10.276 0 10.5 0.223937 10.5 0.50006V2.00006C10.5 2.00462 10.4987 2.00878 10.4975 2.01296C10.4964 2.01684 10.4952 2.02073 10.495 2.02496C14.5166 2.27819 17.7216 5.48344 17.9749 9.50498C17.9791 9.5048 17.9829 9.50366 17.9868 9.50252C17.991 9.50128 17.9953 9.50003 17.9999 9.50003ZM2.99999 9.99991C2.99999 13.866 6.13401 17 9.99991 17C13.8642 16.9954 16.9954 13.8642 17 9.99991C17 6.13401 13.866 2.99999 9.99991 2.99999C6.13401 2.99999 2.99999 6.13401 2.99999 9.99991ZM5.99981 9.99695C5.99981 7.78779 7.79058 5.99702 9.99974 5.99702C12.208 5.9994 13.9975 7.78889 13.9999 9.99695C13.9999 12.2061 12.2089 13.9971 9.99974 13.9971C7.79058 13.9971 5.99981 12.2061 5.99981 9.99695ZM6.99975 9.99695C6.99975 11.6539 8.34301 12.9969 9.99974 12.9969C11.6559 12.9951 12.9979 11.6531 12.9997 9.99695C12.9997 8.34022 11.6567 6.99696 9.99974 6.99696C8.34301 6.99696 6.99975 8.34022 6.99975 9.99695Z" fill="#EEEEEE"/>
</svg>
