<svg width="16" height="20" viewBox="0 0 16 20" fill="none" xmlns="http://www.w3.org/2000/svg">
<path d="M8.56052 19.6395L8.56031 19.6392L8.55247 19.6459C8.39851 19.7776 8.20257 19.85 7.99997 19.85C7.79737 19.85 7.60144 19.7776 7.44748 19.6459L7.44656 19.6451C7.28742 19.5072 5.46449 17.9275 3.67926 15.7133C1.88156 13.4836 0.15 10.6442 0.15 7.99997C0.15 5.91803 0.977049 3.92136 2.4492 2.4492C3.92136 0.977049 5.91803 0.15 7.99997 0.15C10.0819 0.15 12.0786 0.977049 13.5507 2.4492C15.0229 3.92136 15.8499 5.91803 15.8499 7.99997C15.8499 10.6445 14.1305 13.4841 12.3393 15.7135C10.5522 17.9377 8.72373 19.5183 8.56052 19.6395ZM7.8973 17.7593L7.99972 17.8555L8.10238 17.7596C9.1725 16.7598 10.68 15.1746 11.9212 13.4178C13.1581 11.6671 14.15 9.71928 14.15 7.99997C14.15 6.3689 13.502 4.80463 12.3487 3.65128C11.1953 2.49794 9.63105 1.84999 7.99997 1.84999C6.3689 1.84999 4.80463 2.49794 3.65128 3.65128C2.49794 4.80463 1.84999 6.3689 1.84999 7.99997C1.84999 9.71932 2.84188 11.6646 4.07876 13.4141C5.31999 15.1696 6.82742 16.7547 7.8973 17.7593ZM5.86104 4.79883C6.49416 4.37578 7.23852 4.14999 7.99997 4.14999C9.02105 4.14999 10.0003 4.55561 10.7223 5.27762C11.4443 5.99964 11.85 6.97889 11.85 7.99997C11.85 8.76143 11.6242 9.50578 11.2011 10.1389C10.7781 10.772 10.1768 11.2655 9.4733 11.5569C8.76981 11.8483 7.9957 11.9245 7.24888 11.776C6.50205 11.6274 5.81605 11.2608 5.27762 10.7223C4.73919 10.1839 4.37252 9.49789 4.22396 8.75107C4.07541 8.00425 4.15165 7.23014 4.44305 6.52665C4.73445 5.82315 5.22791 5.22187 5.86104 4.79883ZM6.8055 9.78763C7.15907 10.0239 7.57474 10.15 7.99997 10.15C8.57019 10.15 9.11705 9.92345 9.52025 9.52025C9.92345 9.11705 10.15 8.57019 10.15 7.99997C10.15 7.57475 10.0239 7.15907 9.78763 6.8055C9.55138 6.45194 9.2156 6.17637 8.82274 6.01364C8.42988 5.85091 7.99759 5.80833 7.58053 5.89129C7.16347 5.97425 6.78038 6.17902 6.4797 6.4797C6.17902 6.78038 5.97425 7.16347 5.89129 7.58053C5.80833 7.99759 5.85091 8.42988 6.01364 8.82274C6.17637 9.2156 6.45194 9.55138 6.8055 9.78763Z" fill="#EEEEEE" stroke="#004280" stroke-width="0.3"/>
</svg>
