<svg width="20" height="20" viewBox="0 0 20 20" fill="none" xmlns="http://www.w3.org/2000/svg">
<path d="M18.0894 17.7468L13.36 13.0174C14.4241 11.6893 15.0027 10.0377 15 8.33594C15 4.19385 11.6423 0.835938 7.5 0.835938C3.35792 0.835938 0 4.19385 0 8.33594C0 12.478 3.35792 15.8359 7.5 15.8359C9.27083 15.8359 10.8983 15.2222 12.1815 14.1957L16.9108 18.9251C16.9881 19.0026 17.08 19.0641 17.1811 19.106C17.2822 19.1479 17.3906 19.1694 17.5 19.1693C17.6648 19.1693 17.8259 19.1204 17.963 19.0289C18.1 18.9373 18.2068 18.8072 18.2699 18.6549C18.333 18.5027 18.3495 18.3351 18.3174 18.1735C18.2852 18.0118 18.2059 17.8633 18.0894 17.7468ZM7.5 14.1693C4.27833 14.1693 1.66667 11.5576 1.66667 8.33594C1.66667 5.11427 4.27833 2.5026 7.5 2.5026C10.7219 2.5026 13.3333 5.11427 13.3333 8.33594C13.3333 11.5576 10.7219 14.1693 7.5 14.1693Z" fill="url(#paint0_linear_1855_7302)"/>
<defs>
<linearGradient id="paint0_linear_1855_7302" x1="0.637682" y1="1.58424" x2="24.5701" y2="18.3888" gradientUnits="userSpaceOnUse">
<stop offset="0.307481" stop-color="#004280"/>
<stop offset="1" stop-color="#00C376"/>
</linearGradient>
</defs>
</svg>
