<svg width="35" height="37" viewBox="0 0 35 37" fill="none" xmlns="http://www.w3.org/2000/svg">
<path d="M0 13.0337C0 9.70137 2.70137 7 6.03367 7H23.9663C27.2986 7 30 9.70137 30 13.0337V30.9663C30 34.2986 27.2986 37 23.9663 37H6.03367C2.70137 37 0 34.2986 0 30.9663V13.0337Z" fill="#EEEEEE"/>
<path d="M22.0714 27.059L20.7643 25.8911C20.7214 25.8337 20.6786 25.7762 20.6786 25.6997V21.143C20.6786 18.769 18.8357 16.7588 16.3714 16.2035C16.5857 15.9546 16.7143 15.6292 16.7143 15.2846C16.7143 14.4422 15.9429 13.7529 15 13.7529C14.0571 13.7529 13.2857 14.4422 13.2857 15.2846C13.2857 15.6292 13.4143 15.9546 13.6286 16.2035C11.1429 16.7588 9.32143 18.769 9.32143 21.143V25.6997C9.32143 25.7762 9.27857 25.8337 9.23571 25.8911L7.92857 27.059C7.65 27.3079 7.5 27.6333 7.5 27.978C7.5 28.7055 8.14286 29.2798 8.95714 29.2798H12.6857C12.9 30.2563 13.8429 31.0029 15 31.0029C16.1571 31.0029 17.1214 30.2563 17.3143 29.2798H21.0429C21.8571 29.2798 22.5 28.7055 22.5 27.978C22.5 27.6333 22.35 27.3079 22.0714 27.059ZM15 14.5379C15.4714 14.5379 15.8571 14.8825 15.8571 15.3037C15.8571 15.7249 15.4714 16.0695 15 16.0695C14.5286 16.0695 14.1429 15.7249 14.1429 15.3037C14.1429 14.8825 14.5286 14.5379 15 14.5379ZM10.1786 21.143C10.1786 18.769 12.3429 16.8353 15 16.8353C17.6571 16.8353 19.8214 18.769 19.8214 21.143V24.8764H10.1786V21.143ZM15 30.2371C14.3143 30.2371 13.7571 29.8351 13.5643 29.2798H16.4357C16.2429 29.8351 15.6857 30.2371 15 30.2371ZM21.0429 28.514H8.95714C8.63571 28.514 8.35714 28.2843 8.35714 27.978C8.35714 27.8439 8.42143 27.7099 8.52857 27.595L9.83571 26.4272C10.05 26.2357 10.1786 25.9677 10.1786 25.6997V25.6422H19.8429V25.7188C19.8429 25.9868 19.9714 26.2549 20.1857 26.4463L21.4929 27.6142C21.6 27.7099 21.6643 27.8439 21.6643 27.9971C21.6429 28.2843 21.3857 28.514 21.0429 28.514Z" fill="#2D2D2D"/>
<circle cx="27" cy="8" r="8" fill="#155999"/>
<circle cx="27" cy="8" r="5" fill="#F2642C"/>
</svg>
