<svg width="38" height="38" viewBox="0 0 38 38" fill="none" xmlns="http://www.w3.org/2000/svg">
<defs>
<linearGradient id="paint0_linear_438_705" x1="12.8897" y1="-7.3781" x2="38.6854" y2="37.0981" gradientUnits="userSpaceOnUse">
<stop stop-color="#9B79DD"/>
<stop offset="0.559247" stop-color="#014280"/>
</linearGradient>
</defs>
<path fill-rule="evenodd" clip-rule="evenodd" d="M35.875 19.2812C35.875 28.6701 28.2638 36.2812 18.875 36.2812C9.48616 36.2812 1.875 28.6701 1.875 19.2812C1.875 9.89241 9.48616 2.28125 18.875 2.28125C28.2638 2.28125 35.875 9.89241 35.875 19.2812ZM37.375 19.2812C37.375 29.4985 29.0923 37.7812 18.875 37.7812C8.65773 37.7812 0.375 29.4985 0.375 19.2812C0.375 9.06398 8.65773 0.78125 18.875 0.78125C29.0923 0.78125 37.375 9.06398 37.375 19.2812ZM29.2352 17.5624C29.0143 18.0334 28.6963 18.4523 28.3021 18.7917C28.8609 19.2517 29.2643 19.8729 29.4573 20.5706C29.6502 21.2682 29.6234 22.0084 29.3805 22.6902C29.1375 23.3721 28.6902 23.9625 28.0996 24.3809C27.5089 24.7993 26.8036 25.0254 26.0798 25.0285C25.7097 25.0353 25.3397 25.017 24.9721 24.9737C25.0171 25.3407 25.0362 25.7103 25.0291 26.0799C25.0258 26.8036 24.7994 27.5087 24.3809 28.0991C23.9623 28.6895 23.372 29.1365 22.6902 29.3793C22.0084 29.6221 21.2684 29.6488 20.5709 29.4557C19.8734 29.2627 19.2523 28.8594 18.7923 28.3007C18.453 28.6952 18.034 29.0135 17.5629 29.2346C17.0918 29.4556 16.5793 29.5745 16.059 29.5833C15.1427 29.5432 14.2747 29.1611 13.6262 28.5126C12.9777 27.8641 12.5957 26.9962 12.5555 26.0799C12.5487 25.7096 12.567 25.3393 12.6102 24.9714C12.2436 25.0164 11.8742 25.0355 11.5049 25.0285C10.781 25.0254 10.0757 24.7993 9.48508 24.3809C8.89442 23.9625 8.44714 23.3721 8.20419 22.6902C7.96123 22.0084 7.93441 21.2682 8.12738 20.5706C8.32035 19.8729 8.72373 19.2517 9.28256 18.7917C8.88835 18.4523 8.57035 18.0334 8.34943 17.5624C8.1285 17.0915 8.00965 16.5792 8.00066 16.0591C8.04084 15.1426 8.42293 14.2744 9.07159 13.6258C9.72025 12.9771 10.5884 12.595 11.5049 12.5549C11.8749 12.5481 12.245 12.5663 12.6126 12.6096C12.5676 12.2427 12.5485 11.873 12.5555 11.5034C12.5957 10.5872 12.9777 9.71922 13.6262 9.0707C14.2747 8.42219 15.1427 8.04018 16.059 8C16.5793 8.00883 17.0918 8.12769 17.5629 8.34876C18.034 8.56983 18.453 8.88811 18.7923 9.28267C19.2523 8.72394 19.8734 8.3206 20.5709 8.12759C21.2684 7.93457 22.0084 7.96127 22.6902 8.20403C23.372 8.4468 23.9623 8.89383 24.3809 9.48424C24.7994 10.0747 25.0258 10.7797 25.0291 11.5034C25.0359 11.8737 25.0176 12.2441 24.9744 12.6119C25.3411 12.5669 25.7104 12.5479 26.0798 12.5549C26.9962 12.595 27.8644 12.9771 28.5131 13.6258C29.1617 14.2744 29.5438 15.1426 29.584 16.0591C29.575 16.5792 29.4561 17.0915 29.2352 17.5624ZM14.7231 10.1676C14.3647 10.526 14.1432 10.9987 14.0972 11.5034C14.0441 11.8964 14.0782 12.2962 14.1972 12.6744C14.3161 13.0527 14.517 13.4001 14.7855 13.6918L18.7939 17.7002L22.8022 13.6918C23.076 13.4036 23.2801 13.0565 23.3989 12.6772C23.5177 12.2978 23.548 11.8963 23.4875 11.5034C23.4414 10.9987 23.22 10.526 22.8616 10.1676C22.5031 9.80917 22.0305 9.5877 21.5257 9.54167C21.0965 9.58804 20.6853 9.73973 20.3288 9.98327C19.9723 10.2268 19.6815 10.5546 19.4822 10.9376C19.411 11.0571 19.31 11.156 19.189 11.2247C19.0681 11.2934 18.9314 11.3295 18.7923 11.3295C18.6532 11.3295 18.5165 11.2934 18.3956 11.2247C18.2747 11.156 18.1737 11.0571 18.1024 10.9376C17.9032 10.5546 17.6123 10.2268 17.2558 9.98327C16.8993 9.73973 16.4882 9.58804 16.059 9.54167C15.5542 9.5877 15.0815 9.80917 14.7231 10.1676ZM10.1685 22.8607C10.527 23.2192 10.9999 23.4408 11.5049 23.4868C11.8977 23.5398 12.2974 23.5056 12.6755 23.3867C13.0536 23.2677 13.4008 23.0669 13.6925 22.7985L17.7008 18.7901L13.6925 14.7818C13.4044 14.508 13.0575 14.3039 12.6783 14.1851C12.299 14.0663 11.8976 14.036 11.5049 14.0965C10.9999 14.1426 10.527 14.3641 10.1685 14.7227C9.80992 15.0812 9.58836 15.5541 9.54233 16.0591C9.58845 16.4886 9.74003 16.9 9.98358 17.2568C10.2271 17.6136 10.5551 17.9047 10.9383 18.1041C11.066 18.1682 11.1733 18.2666 11.2483 18.3883C11.3233 18.5099 11.363 18.6499 11.363 18.7928C11.363 18.9357 11.3233 19.0758 11.2483 19.1974C11.1733 19.319 11.066 19.4174 10.9383 19.4816C10.5554 19.6808 10.2276 19.9715 9.9841 20.3278C9.74057 20.6842 9.58882 21.0952 9.54233 21.5243C9.58836 22.0292 9.80992 22.5021 10.1685 22.8607ZM22.8616 27.4158C23.22 27.0573 23.4414 26.5847 23.4875 26.0799C23.5406 25.687 23.5065 25.2871 23.3875 24.9089C23.2685 24.5306 23.0676 24.1833 22.7991 23.8915L18.7908 19.8832L14.7825 23.8915C14.5087 24.1797 14.3046 24.5268 14.1858 24.9061C14.067 25.2855 14.0367 25.687 14.0972 26.0799C14.1432 26.5847 14.3647 27.0573 14.7231 27.4158C15.0815 27.7742 15.5542 27.9956 16.059 28.0417C16.4889 27.9959 16.9008 27.8445 17.258 27.6009C17.6152 27.3574 17.9067 27.0292 18.1063 26.6457C18.1702 26.5174 18.2686 26.4095 18.3905 26.3341C18.5124 26.2587 18.6529 26.2187 18.7962 26.2187C18.9395 26.2187 19.08 26.2587 19.2019 26.3341C19.3237 26.4095 19.4221 26.5174 19.4861 26.6457C19.685 27.0282 19.9752 27.3557 20.331 27.5992C20.6868 27.8427 21.0971 27.9947 21.5257 28.0417C22.0305 27.9956 22.5031 27.7742 22.8616 27.4158ZM27.5997 20.326C27.3556 19.9692 27.027 19.6783 26.6433 19.4792H26.6463C26.5187 19.4151 26.4114 19.3167 26.3364 19.1951C26.2614 19.0735 26.2217 18.9334 26.2217 18.7905C26.2217 18.6476 26.2614 18.5076 26.3364 18.3859C26.4114 18.2643 26.5187 18.1659 26.6463 18.1018C27.0292 17.9026 27.357 17.6119 27.6006 17.2555C27.8441 16.8992 27.9958 16.4882 28.0423 16.0591C27.9956 15.5546 27.7738 15.0825 27.4153 14.7246C27.0568 14.3666 26.5843 14.1455 26.0798 14.0996C25.6872 14.0462 25.2877 14.0799 24.9096 14.1983C24.5315 14.3168 24.1841 14.517 23.8922 14.7849L19.8838 18.7932L23.8922 22.8015C24.1802 23.0753 24.5272 23.2794 24.9064 23.3982C25.2856 23.517 25.687 23.5473 26.0798 23.4868C26.5848 23.4408 27.0576 23.2192 27.4162 22.8607C27.7747 22.5021 27.9963 22.0292 28.0423 21.5243C27.9959 21.0944 27.8438 20.6828 27.5997 20.326Z" fill="url(#paint0_linear_438_705)"/>

</svg>
