<svg width="29" height="35" viewBox="0 0 29 35" fill="none" xmlns="http://www.w3.org/2000/svg">
<defs>
<linearGradient id="paint0_linear_438_675" x1="9.98765" y1="-6.84676" x2="35.5241" y2="29.4967" gradientUnits="userSpaceOnUse">
<stop stop-color="#9B79DD"/>
<stop offset="0.559247" stop-color="#014280"/>
</linearGradient>
</defs>
<path fill-rule="evenodd" clip-rule="evenodd" d="M28.2414 9.59439C28.1776 9.54006 28.1029 9.50013 28.0224 9.47732C27.9418 9.45451 27.8572 9.44936 27.7745 9.46222C27.6063 9.4833 27.4369 9.49336 27.2675 9.49235C26.0692 9.48983 24.9209 9.01213 24.0744 8.16406C23.2278 7.31599 22.7523 6.16678 22.7519 4.96852C22.7504 4.28119 22.9073 3.60276 23.2107 2.98599C23.2467 2.91237 23.2667 2.83192 23.2693 2.74998C23.2719 2.66804 23.2571 2.58649 23.2258 2.51073C23.1944 2.43497 23.1473 2.36674 23.0876 2.31057C23.0279 2.2544 22.9569 2.21157 22.8794 2.18493L21.9453 1.86356C16.9997 0.169715 11.6285 0.186716 6.69372 1.91183L6.08828 2.12422C6.01061 2.1515 5.93966 2.19506 5.88018 2.25197C5.8207 2.30889 5.77406 2.37785 5.74338 2.45424C5.7127 2.53063 5.69869 2.6127 5.70229 2.69494C5.70589 2.77719 5.72701 2.85772 5.76424 2.93114C6.08647 3.56182 6.25409 4.26008 6.25326 4.96831C6.25242 6.16712 5.77611 7.31665 4.92882 8.16473C4.08152 9.01281 2.93244 9.49018 1.73363 9.49214C1.56453 9.49314 1.39555 9.48307 1.22777 9.462C1.14487 9.449 1.06014 9.45399 0.979343 9.47666C0.898546 9.49932 0.823577 9.53911 0.759532 9.59333C0.695487 9.64755 0.643868 9.71493 0.608184 9.79088C0.5725 9.86683 0.553588 9.94957 0.552734 10.0335V15.7368C0.555876 19.519 1.6606 23.2184 3.73192 26.383C5.80324 29.5476 8.75147 32.0404 12.2164 33.5568L14.0288 34.3504C14.1017 34.3822 14.1805 34.3987 14.2601 34.3989C14.3397 34.3991 14.4185 34.383 14.4916 34.3515L16.5451 33.4638L16.5591 33.458C16.5684 33.4542 16.5782 33.4503 16.5862 33.4462C20.1031 31.9583 23.1037 29.4673 25.2132 26.2842C27.3227 23.101 28.4475 19.3669 28.4473 15.5482V10.0335C28.4466 9.94979 28.4278 9.86723 28.3923 9.79146C28.3567 9.71568 28.3053 9.64846 28.2414 9.59439ZM27.291 15.5482C27.291 19.148 26.228 22.6676 24.2355 25.6656C22.2429 28.6636 19.4095 31.0066 16.0906 32.4006C16.0752 32.4071 16.0582 32.4143 16.0436 32.4222L14.265 33.1906L12.6807 32.4981C9.4215 31.0719 6.64827 28.7272 4.69983 25.7506C2.75139 22.774 1.71212 19.2944 1.70898 15.7368V10.6342H1.73363C3.23824 10.6335 4.68109 10.0357 5.74529 8.97208C6.8095 7.90844 7.40806 6.46591 7.40951 4.9613C7.41064 4.29364 7.2918 3.63121 7.05866 3.00557L7.0768 3.00095C11.766 1.36208 16.8698 1.34625 21.5691 2.956L21.9192 3.0769C21.7035 3.68161 21.594 4.31901 21.5953 4.96101C21.5961 6.46504 22.1938 7.90726 23.2571 8.97095C24.3205 10.0346 25.7625 10.6328 27.2665 10.6342H27.291V15.5482ZM14.4996 9.53906C12.9252 9.53906 11.3861 10.0059 10.077 10.8807C8.76787 11.7554 7.74754 12.9986 7.14503 14.4532C6.54251 15.9079 6.38487 17.5085 6.69203 19.0527C6.99919 20.5969 7.75736 22.0153 8.87066 23.1286C9.98397 24.2419 11.4024 25.0001 12.9466 25.3072C14.4908 25.6144 16.0914 25.4567 17.546 24.8542C19.0006 24.2517 20.2439 23.2314 21.1186 21.9223C21.9933 20.6132 22.4602 19.0741 22.4602 17.4996C22.4578 15.3891 21.6184 13.3657 20.126 11.8733C18.6336 10.3809 16.6102 9.54143 14.4996 9.53906ZM14.4996 24.3039C13.1539 24.3039 11.8383 23.9049 10.7194 23.1572C9.60039 22.4095 8.72827 21.3468 8.21326 20.1035C7.69826 18.8602 7.56351 17.4921 7.82606 16.1722C8.0886 14.8523 8.73665 13.6398 9.68825 12.6882C10.6399 11.7366 11.8523 11.0886 13.1722 10.8261C14.4921 10.5635 15.8602 10.6983 17.1035 11.2133C18.3469 11.7283 19.4095 12.6004 20.1572 13.7194C20.9049 14.8383 21.3039 16.1539 21.3039 17.4996C21.3019 19.3036 20.5844 21.0331 19.3087 22.3087C18.0331 23.5844 16.3036 24.3019 14.4996 24.3039ZM17.4457 14.0065C17.3373 14.1149 17.1902 14.1758 17.0369 14.1758H15.6566C15.8755 14.4782 16.0294 14.8227 16.1087 15.1875H17.0369C17.1902 15.1875 17.3373 15.2484 17.4457 15.3568C17.5541 15.4652 17.615 15.6123 17.615 15.7656C17.615 15.919 17.5541 16.066 17.4457 16.1744C17.3373 16.2828 17.1902 16.3438 17.0369 16.3438H16.1087C15.9739 16.9591 15.6343 17.5105 15.1454 17.9077C14.6564 18.3049 14.0472 18.5243 13.4173 18.5301L15.9891 20.9702C16.0455 21.022 16.091 21.0845 16.1231 21.154C16.1551 21.2236 16.173 21.2988 16.1756 21.3753C16.1783 21.4519 16.1657 21.5282 16.1386 21.5998C16.1114 21.6714 16.0703 21.7369 16.0176 21.7925C15.9649 21.848 15.9017 21.8925 15.8316 21.9234C15.7616 21.9543 15.686 21.9709 15.6095 21.9723C15.5329 21.9737 15.4568 21.9599 15.3857 21.9316C15.3145 21.9033 15.2497 21.8611 15.195 21.8075L11.5668 18.3754C11.483 18.294 11.425 18.1897 11.4001 18.0756C11.3752 17.9615 11.3846 17.8425 11.427 17.7337C11.4693 17.6248 11.5429 17.5309 11.6384 17.4636C11.7339 17.3963 11.8471 17.3587 11.9639 17.3555H13.4152C14.0928 17.3555 14.6728 16.9941 14.9051 16.3438H11.9639C11.8105 16.3438 11.6635 16.2828 11.5551 16.1744C11.4467 16.066 11.3857 15.919 11.3857 15.7656C11.3857 15.6123 11.4467 15.4652 11.5551 15.3568C11.6635 15.2484 11.8105 15.1875 11.9639 15.1875H14.9051C14.7847 14.8904 14.5789 14.6358 14.3138 14.4557C14.0486 14.2756 13.7361 14.1782 13.4155 14.1758H11.9639C11.8105 14.1758 11.6635 14.1149 11.5551 14.0065C11.4467 13.898 11.3857 13.751 11.3857 13.5977C11.3857 13.4443 11.4467 13.2973 11.5551 13.1889C11.6635 13.0804 11.8105 13.0195 11.9639 13.0195H17.0369C17.1902 13.0195 17.3373 13.0804 17.4457 13.1889C17.5541 13.2973 17.615 13.4443 17.615 13.5977C17.615 13.751 17.5541 13.898 17.4457 14.0065Z" fill="url(#paint0_linear_438_675)"/>

</svg>
