<svg width="32" height="32" viewBox="0 0 32 32" fill="none" xmlns="http://www.w3.org/2000/svg">
<defs>
<linearGradient id="paint0_linear_438_766" x1="10.8234" y1="-7.05698" x2="33.1345" y2="31.4094" gradientUnits="userSpaceOnUse">
<stop stop-color="#FFEF37"/>
<stop offset="0.559247" stop-color="#014280"/>
</linearGradient>
</defs>
<path fill-rule="evenodd" clip-rule="evenodd" d="M10.1331 10.6667C11.188 10.6667 12.2191 10.3539 13.0962 9.76784C13.9732 9.18181 14.6568 8.34885 15.0605 7.37431C15.4642 6.39978 15.5698 5.32742 15.364 4.29285C15.1582 3.25829 14.6503 2.30798 13.9044 1.5621C13.1585 0.81622 12.2082 0.308269 11.1736 0.102481C10.1391 -0.103307 9.0667 0.00231084 8.09216 0.405978C7.11762 0.809646 6.28467 1.49323 5.69863 2.37029C5.1126 3.24736 4.7998 4.2785 4.7998 5.33334C4.80136 6.74735 5.36376 8.103 6.36362 9.10286C7.36347 10.1027 8.71913 10.6651 10.1331 10.6667ZM10.1331 1.06667C10.977 1.06667 11.8019 1.3169 12.5036 1.78573C13.2052 2.25456 13.7521 2.92092 14.075 3.70055C14.398 4.48018 14.4825 5.33807 14.3178 6.16572C14.1532 6.99337 13.7468 7.75362 13.1501 8.35033C12.5534 8.94703 11.7932 9.35339 10.9655 9.51802C10.1379 9.68265 9.27999 9.59816 8.50035 9.27522C7.72072 8.95229 7.05436 8.40542 6.58553 7.70377C6.11671 7.00212 5.86647 6.1772 5.86647 5.33334C5.86774 4.20214 6.31767 3.11763 7.11755 2.31775C7.91743 1.51787 9.00194 1.06794 10.1331 1.06667ZM10.6663 14.4004H9.59961V15.4671H10.6663V14.4004ZM24.7837 12.3302C26.878 13.4446 29.166 14.1486 31.5245 14.4043C31.6551 14.4186 31.7759 14.4806 31.8635 14.5785C31.9512 14.6763 31.9997 14.803 31.9997 14.9344V21.2518C31.9852 23.5549 31.2874 25.802 29.9947 27.7082C28.7021 29.6145 26.8727 31.0943 24.7384 31.96C24.6734 31.9872 24.6036 32.0011 24.5331 32.0011C24.4626 32.0011 24.3928 31.9872 24.3277 31.96C22.1934 31.0943 20.3641 29.6145 19.0714 27.7082C17.7788 25.802 17.081 23.5549 17.0664 21.2518V14.9344C17.0664 14.803 17.1149 14.6763 17.2026 14.5785C17.2903 14.4806 17.411 14.4186 17.5416 14.4043C19.9001 14.1486 22.1881 13.4446 24.2824 12.3302C24.3596 12.2891 24.4457 12.2676 24.5331 12.2676C24.6205 12.2676 24.7066 12.2891 24.7837 12.3302ZM29.1694 27.0236C30.3061 25.3121 30.919 23.3063 30.9331 21.2518V15.4064C28.7008 15.11 26.536 14.4324 24.5331 13.4032C22.5301 14.4324 20.3653 15.1099 18.1331 15.4064V21.2518C18.1471 23.3063 18.76 25.3121 19.8968 27.0236C21.0335 28.7351 22.6447 30.0778 24.5331 30.8875C26.4214 30.0778 28.0326 28.7351 29.1694 27.0236ZM20.0629 20.905L19.3066 21.6608L22.5066 24.8608C22.6067 24.9608 22.7423 25.0169 22.8837 25.0169C23.0251 25.0169 23.1608 24.9608 23.2608 24.8608L29.6608 18.4608L28.9066 17.705L22.8858 23.7317L20.0629 20.905ZM10.9051 19.7326H13.3333C14.0406 19.7326 14.7189 20.0136 15.219 20.5137C15.719 21.0138 16 21.6921 16 22.3993C16 23.1066 15.719 23.7848 15.219 24.2849C14.7189 24.785 14.0406 25.066 13.3333 25.066H5.33333V29.866H4.26667V25.066H2.66667C1.95968 25.0651 1.2819 24.7839 0.781984 24.284C0.28207 23.7841 0.000846857 23.1063 0 22.3993V15.9993C0.00155285 14.5853 0.563955 13.2296 1.56381 12.2298C2.56367 11.2299 3.91932 10.6675 5.33333 10.666H6.44267C6.54342 10.6661 6.64211 10.6946 6.72747 10.7481C7.75114 11.3799 8.93038 11.7145 10.1333 11.7145C11.3363 11.7145 12.5155 11.3799 13.5392 10.7481C13.6246 10.6946 13.7232 10.6661 13.824 10.666H14.9333C15.7956 10.6662 16.645 10.8759 17.4084 11.2769C18.1717 11.678 18.8263 12.2584 19.3157 12.9684C18.9237 13.0558 18.5285 13.1326 18.1291 13.1934C17.7316 12.7359 17.2407 12.3688 16.6895 12.1168C16.1382 11.8648 15.5394 11.7338 14.9333 11.7326H13.9733C12.9122 12.3562 11.7153 12.7122 10.4859 12.7698C9.25651 12.8274 8.03156 12.5849 6.9168 12.0633L10.9051 19.7326ZM1.5353 23.5307C1.83535 23.8307 2.24232 23.9993 2.66667 23.9993H7.65493L5.99093 20.7993H4.26667V19.7326H5.43627L2.06933 13.2574C1.4214 14.0241 1.06615 14.9955 1.06667 15.9993V22.3993C1.06667 22.8237 1.23524 23.2306 1.5353 23.5307ZM2.88373 12.5118L8.85707 23.9993H11.9216L5.54293 11.7326H5.33333C4.45581 11.7325 3.59989 12.0047 2.88373 12.5118ZM13.1237 23.9993H13.3333C13.7577 23.9993 14.1646 23.8307 14.4647 23.5307C14.7648 23.2306 14.9333 22.8237 14.9333 22.3993C14.9333 21.975 14.7648 21.568 14.4647 21.2679C14.1646 20.9679 13.7577 20.7993 13.3333 20.7993H11.4597L13.1237 23.9993Z" fill="url(#paint0_linear_438_766)"/>

</svg>
