<svg width="38" height="34" viewBox="0 0 38 34" fill="none" xmlns="http://www.w3.org/2000/svg">
<defs>
<linearGradient id="paint0_linear_438_758" x1="12.8529" y1="-7.29688" x2="34.2423" y2="35.0555" gradientUnits="userSpaceOnUse">
<stop stop-color="#FFEF37"/>
<stop offset="0.559247" stop-color="#014280"/>
</linearGradient>
</defs>
<path fill-rule="evenodd" clip-rule="evenodd" d="M11.2319 8.2798L13.9877 11.0302C14.1832 11.2253 14.4999 11.225 14.6951 11.0295C14.8903 10.8339 14.8899 10.5172 14.6944 10.3221L11.9394 7.57244C11.2231 6.84496 10.8285 5.8826 10.8285 4.86253C10.8285 2.73302 12.5613 1.00054 14.6912 1.00054C16.2737 1.00054 17.6793 1.94882 18.2721 3.4164C18.3484 3.60546 18.5319 3.72924 18.7358 3.72931H18.7359C18.9397 3.72931 19.1232 3.60559 19.1996 3.4166C19.793 1.94896 21.1989 1.00061 22.7813 1.00061C24.9111 1.00061 26.6439 2.73308 26.6439 4.8626C26.6439 5.88266 26.2494 6.84502 25.5331 7.57244L18.736 14.3569L16.2373 11.8629C16.0417 11.6676 15.7249 11.668 15.5298 11.8635C15.3347 12.0591 15.3349 12.3758 15.5305 12.571L18.3826 15.4177C18.678 15.688 18.8114 15.688 19.0895 15.4177L26.2408 8.27973L26.2461 8.27435C27.1479 7.35861 27.6446 6.14689 27.6446 4.86246C27.6445 2.18131 25.4629 0 22.7813 0C21.1267 0 19.6254 0.82357 18.7361 2.16119C17.8473 0.823437 16.3462 0 14.6913 0C12.0097 0 9.82812 2.18131 9.82812 4.86253C9.82812 6.14696 10.3248 7.35861 11.2266 8.27442L11.2319 8.2798ZM19.8724 4.14258H17.8006C17.5243 4.14258 17.3003 4.36657 17.3003 4.64282V6.21445H15.7288C15.4525 6.21445 15.2285 6.43844 15.2285 6.71469V8.78657C15.2285 9.06282 15.4525 9.28681 15.7288 9.28681H17.3003V10.8584C17.3003 11.1347 17.5243 11.3587 17.8006 11.3587H19.8724C20.1487 11.3587 20.3727 11.1347 20.3727 10.8584V9.28681H21.9442C22.2205 9.28681 22.4445 9.06282 22.4445 8.78657V6.71469C22.4445 6.43844 22.2205 6.21445 21.9442 6.21445H20.3727V4.64288C20.3727 4.36657 20.1487 4.14258 19.8724 4.14258ZM21.444 7.215V8.28633H19.8724C19.5962 8.28633 19.3722 8.51032 19.3722 8.78657V10.3582H18.3008V8.78657C18.3008 8.51032 18.0768 8.28633 17.8006 8.28633H16.229V7.215H17.8006C18.0768 7.215 18.3008 6.99101 18.3008 6.71476V5.14312H19.3722V6.71476C19.3722 6.99101 19.5962 7.215 19.8724 7.215H21.444ZM33.9069 19.2959C34.2948 19.1006 34.7241 18.9992 35.1595 19C36.2349 19 37.2072 19.5925 37.6968 20.5462C38.3978 21.9114 37.8416 23.5863 36.457 24.28L27.7321 28.6378C27.6706 28.6686 27.6048 28.6904 27.5369 28.7025L13.3101 31.2435C13.2681 31.2509 13.2256 31.2547 13.183 31.2547H6.42897V31.3615C6.42897 32.3141 5.61513 33.089 4.61479 33.089H1.75875C0.772548 33.089 0 32.3302 0 31.3615V22.3353C0 21.3407 0.788977 20.5314 1.75875 20.5314H4.61486C5.5982 20.5314 6.42897 21.3575 6.42897 22.3354V22.4756L12.5128 19.5446C12.6104 19.4976 12.7174 19.4732 12.826 19.4732H21.7337C23.2789 19.4732 24.5361 20.7074 24.5361 22.2246C24.5366 22.6942 24.4141 23.1559 24.1805 23.565H25.3344L33.9069 19.2959ZM4.61486 31.678C4.80023 31.678 5.00031 31.557 5.00031 31.3615L5.00024 22.3353C5.00024 22.137 4.80937 21.9424 4.61479 21.9424H1.75875C1.56424 21.9424 1.42866 22.1494 1.42866 22.3353V31.3615C1.42866 31.5538 1.55824 31.678 1.75875 31.678H4.61486ZM27.1803 27.3323L35.8116 23.0213C36.493 22.6799 36.7674 21.8557 36.4228 21.1843C36.1815 20.7145 35.6857 20.411 35.1595 20.411C34.9482 20.4107 34.7398 20.46 34.5516 20.555L25.826 24.9004C25.7262 24.9501 25.6161 24.9759 25.5044 24.9759H13.7866C13.392 24.9759 13.0722 24.66 13.0722 24.2705C13.0722 23.8809 13.392 23.565 13.7866 23.565H21.7338C22.4913 23.565 23.1075 22.9637 23.1075 22.2246C23.1075 21.4854 22.4913 20.8841 21.7338 20.8841H12.9909L6.42897 24.0455V29.8438H13.1189L27.1803 27.3323Z" fill="url(#paint0_linear_438_758)"/>

</svg>
