<svg width="32" height="30" viewBox="0 0 32 30" fill="none" xmlns="http://www.w3.org/2000/svg">
<defs>
<linearGradient id="paint0_linear_438_776" x1="10.8235" y1="-6.61576" x2="31.0486" y2="30.58" gradientUnits="userSpaceOnUse">
<stop stop-color="#FFEF37"/>
<stop offset="0.559247" stop-color="#014280"/>
</linearGradient>
</defs>
<path fill-rule="evenodd" clip-rule="evenodd" d="M12.8001 5.35552H14.4V6.96217C14.4 7.10421 14.4562 7.24043 14.5562 7.34086C14.6562 7.4413 14.7919 7.49772 14.9333 7.49772H17.0666C17.2081 7.49772 17.3437 7.4413 17.4437 7.34086C17.5438 7.24043 17.5999 7.10421 17.5999 6.96217V5.35552H19.1999C19.3413 5.35552 19.477 5.29909 19.577 5.19866C19.677 5.09822 19.7332 4.962 19.7332 4.81996V2.67776C19.7332 2.53572 19.677 2.3995 19.577 2.29907C19.477 2.19863 19.3413 2.14221 19.1999 2.14221H17.5999V0.535551C17.5999 0.393514 17.5438 0.257295 17.4437 0.15686C17.3437 0.0564241 17.2081 0 17.0666 0H14.9333C14.7919 0 14.6562 0.0564241 14.5562 0.15686C14.4562 0.257295 14.4 0.393514 14.4 0.535551V2.14221H12.8001C12.6586 2.14221 12.523 2.19863 12.4229 2.29907C12.3229 2.3995 12.2667 2.53572 12.2667 2.67776V4.81996C12.2667 4.962 12.3229 5.09822 12.4229 5.19866C12.523 5.29909 12.6586 5.35552 12.8001 5.35552ZM13.3334 3.21331H14.9333C15.0748 3.21331 15.2104 3.15688 15.3105 3.05645C15.4105 2.95601 15.4667 2.81979 15.4667 2.67776V1.0711H16.5333V2.67776C16.5333 2.81979 16.5895 2.95601 16.6895 3.05645C16.7895 3.15688 16.9252 3.21331 17.0666 3.21331H18.6666V4.28441H17.0666C16.9252 4.28441 16.7895 4.34084 16.6895 4.44127C16.5895 4.54171 16.5333 4.67793 16.5333 4.81996V6.42662H15.4667V4.81996C15.4667 4.67793 15.4105 4.54171 15.3105 4.44127C15.2104 4.34084 15.0748 4.28441 14.9333 4.28441H13.3334V3.21331ZM29.333 16.6556V16.5377C29.3316 15.4198 28.8891 14.3481 28.1025 13.5571C27.3158 12.7661 26.249 12.3204 25.1358 12.3176H12.2028C11.2635 12.3181 10.3516 12.6351 9.61286 13.2176C8.87416 13.8002 8.35139 14.6147 8.12821 15.5309L3.81898 11.525C3.79198 11.5007 3.77042 11.471 3.75571 11.4378C3.741 11.4045 3.73348 11.3685 3.73365 11.3322V9.37206C3.73559 9.06339 3.66093 8.75909 3.51642 8.48666C3.37191 8.21422 3.1621 7.98222 2.90592 7.81161C2.64975 7.641 2.3553 7.53715 2.04915 7.50945C1.74299 7.48175 1.43479 7.53106 1.15238 7.65294C0.80278 7.81132 0.507224 8.06935 0.302423 8.39498C0.097621 8.7206 -0.00739991 9.09947 0.000405533 9.48453V28.1164C-0.00371756 28.3639 0.0413208 28.6098 0.13289 28.8397C0.224459 29.0696 0.360724 29.2788 0.533726 29.4552C0.794385 29.7192 1.12846 29.8978 1.49207 29.9676C1.85567 30.0373 2.23179 29.995 2.57101 29.8462C2.92388 29.6896 3.22264 29.4316 3.42957 29.1047C3.6365 28.7777 3.74231 28.3965 3.73365 28.0093V24.9031C3.73365 24.832 3.76174 24.7639 3.81175 24.7137C3.86176 24.6635 3.92959 24.6353 4.00031 24.6353H27.9997C28.0704 24.6353 28.1383 24.6635 28.1883 24.7137C28.2383 24.7639 28.2664 24.832 28.2664 24.9031V28.1164C28.265 28.3616 28.3118 28.6046 28.4041 28.8316C28.4964 29.0586 28.6324 29.2651 28.8043 29.4392C28.9762 29.6134 29.1807 29.7517 29.4059 29.8464C29.6312 29.941 29.8728 29.9901 30.117 29.9908C30.3688 29.9919 30.6179 29.939 30.8477 29.8355C31.1968 29.678 31.4922 29.421 31.697 29.0963C31.9018 28.7716 32.0071 28.3935 31.9996 28.0093V19.8153C31.9976 19.0574 31.7289 18.3246 31.2409 17.7465C30.753 17.1683 30.0772 16.7819 29.333 16.6556ZM9.06685 16.5377C9.06826 15.703 9.39911 14.9028 9.9869 14.3126C10.5747 13.7223 11.3715 13.3901 12.2028 13.3887H25.1358C25.9661 13.3915 26.7616 13.7244 27.3482 14.3145C27.9349 14.9046 28.265 15.7039 28.2664 16.5377V20.3509H9.06685V16.5377ZM30.933 28.0093C30.9383 28.1836 30.894 28.3558 30.8052 28.5057C30.7164 28.6556 30.5868 28.777 30.4317 28.8554C30.2878 28.9184 30.1283 28.9363 29.9741 28.9067C29.8199 28.877 29.6783 28.8013 29.5677 28.6894C29.4927 28.6142 29.4334 28.5249 29.3931 28.4265C29.3528 28.3281 29.3324 28.2227 29.333 28.1164V24.9031C29.3316 24.5484 29.1907 24.2087 28.941 23.9579C28.6912 23.7071 28.3529 23.5656 27.9997 23.5642H4.00031C3.64713 23.5656 3.30881 23.7071 3.05907 23.9579C2.80934 24.2087 2.66841 24.5484 2.66701 24.9031V28.0093C2.67237 28.1836 2.62803 28.3558 2.53922 28.5057C2.45041 28.6556 2.32082 28.777 2.16569 28.8554C2.02179 28.9184 1.86229 28.9363 1.70811 28.9067C1.55393 28.877 1.41227 28.8013 1.30171 28.6894C1.22676 28.6142 1.16743 28.5249 1.12715 28.4265C1.08686 28.3281 1.06644 28.2227 1.06705 28.1164V9.48453C1.06036 9.30994 1.10414 9.13715 1.1931 8.987C1.28206 8.83685 1.41239 8.71576 1.56837 8.63835C1.71197 8.57383 1.87185 8.55515 2.02637 8.58484C2.1809 8.61454 2.32261 8.69117 2.43235 8.80438C2.58242 8.95488 2.66682 9.15908 2.66701 9.37206V11.3322C2.6665 11.5171 2.70414 11.7002 2.77757 11.8698C2.85101 12.0394 2.95863 12.1918 3.09366 12.3176L8.00021 16.8751V20.8864C8.00021 21.0285 8.0564 21.1647 8.15642 21.2651C8.25643 21.3655 8.39209 21.422 8.53353 21.422H28.7997C28.9412 21.422 29.0768 21.3655 29.1768 21.2651C29.2768 21.1647 29.333 21.0285 29.333 20.8864V17.7534C29.7889 17.8716 30.1931 18.138 30.4825 18.5109C30.7719 18.8839 30.9303 19.3425 30.933 19.8153V28.0093ZM5.98492 7.94933C6.42344 7.65509 6.939 7.49805 7.46641 7.49805C8.17364 7.49805 8.8519 7.78017 9.35198 8.28234C9.85207 8.78452 10.133 9.46562 10.133 10.1758C10.133 10.7054 9.97662 11.2231 9.68361 11.6635C9.3906 12.1038 8.97413 12.4471 8.48687 12.6497C7.99962 12.8524 7.46345 12.9054 6.94618 12.8021C6.42891 12.6988 5.95377 12.4438 5.58084 12.0693C5.2079 11.6948 4.95394 11.2176 4.85104 10.6982C4.74815 10.1788 4.80096 9.64037 5.00279 9.15107C5.20462 8.66177 5.5464 8.24357 5.98492 7.94933ZM6.57752 11.5117C6.84063 11.6882 7.14997 11.7825 7.46641 11.7825C7.89074 11.7825 8.2977 11.6132 8.59775 11.3119C8.8978 11.0106 9.06637 10.6019 9.06637 10.1758C9.06637 9.85804 8.97253 9.54741 8.79673 9.2832C8.62092 9.01898 8.37104 8.81305 8.07869 8.69145C7.78633 8.56985 7.46463 8.53803 7.15427 8.60002C6.84391 8.66201 6.55882 8.81503 6.33506 9.03973C6.11131 9.26442 5.95892 9.5507 5.89719 9.86236C5.83545 10.174 5.86714 10.4971 5.98824 10.7906C6.10933 11.0842 6.3144 11.3351 6.57752 11.5117Z" fill="url(#paint0_linear_438_776)"/>

</svg>
