<svg width="34" height="34" viewBox="0 0 34 34" fill="none" xmlns="http://www.w3.org/2000/svg">
<defs>
<linearGradient id="paint0_linear_438_745" x1="11.5" y1="-7.5" x2="35.2054" y2="33.3707" gradientUnits="userSpaceOnUse">
<stop stop-color="#FFEF37"/>
<stop offset="0.559247" stop-color="#014280"/>
</linearGradient>
</defs>
<path fill-rule="evenodd" clip-rule="evenodd" d="M1.15228 14.9533C0.93601 14.957 0.722556 14.9038 0.533233 14.7992C0.374225 14.7154 0.240765 14.5903 0.146918 14.437C0.0530722 14.2837 0.0023162 14.108 0 13.9283V13.8195C0 10.1027 1.7833 6.61712 5.0218 4.00535C8.44366 1.34842 12.6682 -0.0641622 17 0.000149635C21.3318 -0.0641622 25.5563 1.34842 28.9782 4.00535C32.2167 6.61712 34 10.1027 34 13.8195V13.9283C33.9977 14.108 33.9469 14.2837 33.8531 14.437C33.7592 14.5903 33.6258 14.7154 33.4668 14.7992C33.2775 14.9036 33.0641 14.9565 32.848 14.9529C32.6319 14.9492 32.4205 14.889 32.2348 14.7783C31.0697 14.0293 29.7183 13.6212 28.3333 13.6002C26.7585 13.5913 25.2231 14.0931 23.9575 15.0304C23.7549 15.1949 23.5045 15.2896 23.2438 15.3003C22.983 15.311 22.7257 15.2372 22.5103 15.0899C21.0132 14.1902 19.3122 13.6853 17.5667 13.6228V18.2525L17.7673 18.0513C18.805 17.017 20.2104 16.4362 21.6756 16.4362C23.1407 16.4362 24.5461 17.017 25.5839 18.0513C26.6184 19.0866 27.1996 20.4903 27.1996 21.954C27.1996 23.4176 26.6184 24.8213 25.5839 25.8566L17.7276 33.7004C17.5342 33.8919 17.273 33.9993 17.0008 33.9993C16.7287 33.9993 16.4675 33.8919 16.2741 33.7004L8.41557 25.8566C7.64419 25.0861 7.1185 24.1042 6.9049 23.035C6.69131 21.9658 6.79939 20.8574 7.2155 19.8496C7.63161 18.8418 8.33707 17.98 9.24276 17.373C10.1485 16.766 11.2137 16.441 12.304 16.4392H12.3533C13.0743 16.4383 13.7884 16.5803 14.4542 16.8569C15.1201 17.1335 15.7245 17.5393 16.2327 18.0508L16.4333 18.2514V13.6228C14.6878 13.6853 12.9868 14.1902 11.4897 15.0899C11.2743 15.2372 11.017 15.311 10.7562 15.3003C10.4955 15.2896 10.2451 15.1949 10.0425 15.0304C8.77686 14.0931 7.24154 13.5913 5.66667 13.6002C4.28186 13.6209 2.93054 14.029 1.76573 14.7783C1.58008 14.8892 1.36856 14.9496 1.15228 14.9533ZM20.8153 17.6498C19.964 17.8202 19.1823 18.2391 18.5691 18.8537L17.4012 20.0222C17.2949 20.1284 17.1508 20.1881 17.0006 20.1881C16.8503 20.1881 16.7062 20.1284 16.5999 20.0222L15.4315 18.856C15.0242 18.4489 14.5406 18.1263 14.0084 17.9064C13.4762 17.6865 12.9059 17.5738 12.3301 17.5748H12.3108C11.4446 17.5757 10.5982 17.8334 9.87837 18.3153C9.15857 18.7971 8.59775 19.4816 8.26677 20.282C7.93579 21.0825 7.8495 21.9631 8.0188 22.8126C8.1881 23.6621 8.6054 24.4423 9.21797 25.0548L17 32.8243L24.7837 25.0542C25.1934 24.6489 25.5179 24.1658 25.7383 23.6333C25.9586 23.1008 26.0702 22.5296 26.0667 21.9534V21.9489C26.0656 21.0807 25.807 20.2323 25.3238 19.511C24.8406 18.7897 24.1543 18.2279 23.3518 17.8967C22.5493 17.5654 21.6666 17.4795 20.8153 17.6498ZM11.3333 13.8529C13.081 12.9359 15.0264 12.4601 17 12.4668C18.9736 12.4603 20.9189 12.9361 22.6667 13.8529V13.8195C22.6667 6.94295 20.0719 1.13348 17 1.13348C13.9281 1.13348 11.3333 6.94295 11.3333 13.8195V13.8529ZM32.8276 13.8104C32.8395 13.8171 32.853 13.8202 32.8667 13.8195C32.8667 10.4523 31.233 7.28012 28.2653 4.88538C25.867 3.00068 23.0126 1.78441 19.992 1.36015C22.257 3.56675 23.7881 8.23098 23.8 13.7577C25.1658 12.9235 26.733 12.4772 28.3333 12.4668C29.9284 12.4801 31.4869 12.9461 32.8276 13.8104ZM5.73353 4.88765C2.76703 7.28012 1.13333 10.4523 1.13333 13.8195V13.8212C1.14717 13.8223 1.16103 13.8191 1.173 13.8121C2.51324 12.9471 4.07159 12.4806 5.66667 12.4668C7.26696 12.4766 8.83436 12.922 10.2006 13.7554C10.2113 8.22872 11.7413 3.56448 14.008 1.36015C10.9868 1.78488 8.13191 3.00195 5.73353 4.88765ZM15.5624 22.1882C15.6491 22.133 15.7491 22.1024 15.8518 22.0996C15.9539 22.0985 16.0546 22.1243 16.1436 22.1745C16.2326 22.2246 16.3069 22.2973 16.3589 22.3852L18.1723 25.5557L18.7956 24.6185C18.8474 24.5409 18.9175 24.4773 18.9997 24.4333C19.082 24.3893 19.1738 24.3663 19.2671 24.3663H21.5337C21.684 24.3663 21.8281 24.426 21.9344 24.5323C22.0407 24.6386 22.1004 24.7827 22.1004 24.933C22.1004 25.0833 22.0407 25.2274 21.9344 25.3337C21.8281 25.4399 21.684 25.4996 21.5337 25.4996H19.5702L18.6052 26.9475C18.5534 27.0251 18.4833 27.0887 18.4011 27.1327C18.3188 27.1766 18.227 27.1997 18.1337 27.1996H18.1145C18.0181 27.1965 17.9241 27.1689 17.8414 27.1193C17.7587 27.0697 17.69 26.9998 17.6419 26.9163L15.9005 23.8665L15.2409 25.1863C15.1938 25.2805 15.1214 25.3597 15.0318 25.415C14.9423 25.4704 14.839 25.4997 14.7337 25.4996H12.4671C12.3168 25.4996 12.1726 25.4399 12.0664 25.3337C11.9601 25.2274 11.9004 25.0833 11.9004 24.933C11.9004 24.7827 11.9601 24.6386 12.0664 24.5323C12.1726 24.426 12.3168 24.3663 12.4671 24.3663H14.3835L15.3599 22.413C15.4058 22.3211 15.4758 22.2434 15.5624 22.1882Z" fill="url(#paint0_linear_438_745)"/>

</svg>
